<svg xmlns="http://www.w3.org/2000/svg" xmlns:xlink="http://www.w3.org/1999/xlink" viewBox="0 0 31.16 31.16"><defs><style>.cls-1{fill:none;stroke-miterlimit:10;stroke:url(#linear-gradient);}.cls-2{fill:#1b1464;}</style><linearGradient id="linear-gradient" y1="15.58" x2="31.16" y2="15.58" gradientUnits="userSpaceOnUse"><stop offset="0" stop-color="#ff13e6"/><stop offset="0.09" stop-color="#ff19df"/><stop offset="0.23" stop-color="#ff29cb"/><stop offset="0.4" stop-color="#ff43aa"/><stop offset="0.59" stop-color="#ff687c"/><stop offset="0.8" stop-color="#ff9642"/><stop offset="1" stop-color="#ffc902"/></linearGradient></defs><title>How We Do It</title><g id="Copy"><circle class="cls-1" cx="15.58" cy="15.58" r="15.08"/><path class="cls-2" d="M13.35,18.43c1-.71,1.7-1.3,2.22-1.76a5.79,5.79,0,0,0,1.1-1.25A2.32,2.32,0,0,0,17,14.23a1.3,1.3,0,0,0-.4-1,1.49,1.49,0,0,0-1.08-.39,1.52,1.52,0,0,0-1.14.46,2.07,2.07,0,0,0-.51,1.26l-.74-.44a2.42,2.42,0,0,1,.77-1.51,2.4,2.4,0,0,1,1.66-.56,2.64,2.64,0,0,1,1.22.27,2,2,0,0,1,.82.77,2.25,2.25,0,0,1,.29,1.14,2.76,2.76,0,0,1-.33,1.3,5.16,5.16,0,0,1-1,1.31,15.09,15.09,0,0,1-2,1.5v0c.47,0,.82,0,1,0H18v.79H13.35Z"/></g></svg>