<svg xmlns="http://www.w3.org/2000/svg" xmlns:xlink="http://www.w3.org/1999/xlink" viewBox="0 0 31.16 31.16"><defs><style>.cls-1{fill:none;stroke-miterlimit:10;stroke:url(#linear-gradient);}.cls-2{fill:#1b1464;}</style><linearGradient id="linear-gradient" y1="15.58" x2="31.16" y2="15.58" gradientUnits="userSpaceOnUse"><stop offset="0" stop-color="#ff13e6"/><stop offset="0.09" stop-color="#ff19df"/><stop offset="0.23" stop-color="#ff29cb"/><stop offset="0.4" stop-color="#ff43aa"/><stop offset="0.59" stop-color="#ff687c"/><stop offset="0.8" stop-color="#ff9642"/><stop offset="1" stop-color="#ffc902"/></linearGradient></defs><title>How We Do It</title><g id="Copy"><circle class="cls-1" cx="15.58" cy="15.58" r="15.08"/><path class="cls-2" d="M16.85,12.24a1.87,1.87,0,0,1,.75.66,1.8,1.8,0,0,1,.25.91,2.1,2.1,0,0,1-.18.88,1.56,1.56,0,0,1-.48.61,1.07,1.07,0,0,1-.65.23v0a1.34,1.34,0,0,1,1.07.48,1.88,1.88,0,0,1,.1,2.18,1.94,1.94,0,0,1-.86.7,3.09,3.09,0,0,1-1.29.26,2.4,2.4,0,0,1-2.4-1.67l.78-.41a2,2,0,0,0,.58,1,1.62,1.62,0,0,0,1.1.33A1.59,1.59,0,0,0,16.73,18a1.14,1.14,0,0,0,.4-.91,1,1,0,0,0-.38-.9A2.28,2.28,0,0,0,15.53,16h-.27v-.79h.27c1,0,1.44-.39,1.44-1.18a1.15,1.15,0,0,0-.33-.89,1.37,1.37,0,0,0-1-.3,1.54,1.54,0,0,0-1,.28,1.42,1.42,0,0,0-.5.78l-.79-.37a2.19,2.19,0,0,1,.86-1.08,2.45,2.45,0,0,1,1.4-.4A2.63,2.63,0,0,1,16.85,12.24Z"/></g></svg>