<svg xmlns="http://www.w3.org/2000/svg" xmlns:xlink="http://www.w3.org/1999/xlink" viewBox="0 0 31.16 31.16"><defs><style>.cls-1{fill:none;stroke-miterlimit:10;stroke:url(#linear-gradient);}.cls-2{fill:#1b1464;}</style><linearGradient id="linear-gradient" y1="15.58" x2="31.16" y2="15.58" gradientUnits="userSpaceOnUse"><stop offset="0" stop-color="#ff13e6"/><stop offset="0.09" stop-color="#ff19df"/><stop offset="0.23" stop-color="#ff29cb"/><stop offset="0.4" stop-color="#ff43aa"/><stop offset="0.59" stop-color="#ff687c"/><stop offset="0.8" stop-color="#ff9642"/><stop offset="1" stop-color="#ffc902"/></linearGradient></defs><title>How We Do It</title><g id="Copy"><circle class="cls-1" cx="15.58" cy="15.58" r="15.08"/><path class="cls-2" d="M17.39,15.17a2.22,2.22,0,0,1,.6,1.62,2.25,2.25,0,0,1-.64,1.71,2.39,2.39,0,0,1-1.75.61,2.62,2.62,0,0,1-1.52-.4,2.57,2.57,0,0,1-.9-1.19l.82-.43a1.9,1.9,0,0,0,.53.92,1.52,1.52,0,0,0,1,.31,1.57,1.57,0,0,0,1.13-.39,1.41,1.41,0,0,0,.41-1.07,1.57,1.57,0,0,0-.38-1.13,1.45,1.45,0,0,0-1.09-.39,1.72,1.72,0,0,0-1.55.67h-.75l.42-4h3.91v.79H14.48L14.2,15v.1h0a2.08,2.08,0,0,1,1.59-.58A2.12,2.12,0,0,1,17.39,15.17Z"/></g></svg>