<svg xmlns="http://www.w3.org/2000/svg" xmlns:xlink="http://www.w3.org/1999/xlink" viewBox="0 0 25 25"><defs><style>.cls-1{fill:url(#New_Gradient_Swatch);}</style><linearGradient id="New_Gradient_Swatch" x1="4.62" y1="20.44" x2="23.46" y2="4.63" gradientUnits="userSpaceOnUse"><stop offset="0" stop-color="#ff13e6"/><stop offset="0.09" stop-color="#ff19df"/><stop offset="0.23" stop-color="#ff29cb"/><stop offset="0.4" stop-color="#ff43aa"/><stop offset="0.59" stop-color="#ff687c"/><stop offset="0.8" stop-color="#ff9642"/><stop offset="1" stop-color="#ffc902"/></linearGradient></defs><title>WhatWeDoIcons</title><g id="Copy"><path class="cls-1" d="M25,8.44A5.37,5.37,0,0,0,23.78,5a5,5,0,0,0-2.66-1.68A5,5,0,0,0,16.65.49a4.79,4.79,0,0,0-1.84.36A4.83,4.83,0,0,0,12.06,0,4.9,4.9,0,0,0,9,1.05a4.73,4.73,0,0,0-.65,0A5,5,0,0,0,3.77,4.17,5.09,5.09,0,0,0,1.19,5.85,5.41,5.41,0,0,0,0,9.25a5.6,5.6,0,0,0,.32,1.86A5.49,5.49,0,0,0,0,13a5.15,5.15,0,0,0,5,5.25,4.77,4.77,0,0,0,2.14-.5,5,5,0,0,0,3.61,1.59,4.7,4.7,0,0,0,1.44-.22,4.83,4.83,0,0,0,2.86.94h.22l1.46,3.68a2,2,0,0,0,1.13,1.16,2,2,0,0,0,.75.15,2.05,2.05,0,0,0,.8-.17l2.06-.9a2.14,2.14,0,0,0,1.09-2.73l-1.07-2.69a5.08,5.08,0,0,0,1.87-1.58,5.41,5.41,0,0,0,.58-5.3A5.38,5.38,0,0,0,25,8.44Zm-4.64,9a.71.71,0,0,0-.44.39.73.73,0,0,0,0,.58l1.33,3.37a.67.67,0,0,1-.31.85l-2.06.9a.5.5,0,0,1-.4,0,.58.58,0,0,1-.33-.34L16.46,19a.72.72,0,0,0-.68-.47h-.12a2.9,2.9,0,0,1-.58.05,3.37,3.37,0,0,1-2.25-.85.75.75,0,0,0-.76-.12,3.34,3.34,0,0,1-1.29.26A3.46,3.46,0,0,1,8,16.35a5.79,5.79,0,0,1-.67-3.7.74.74,0,0,0-.61-.84.73.73,0,0,0-.84.6,7.31,7.31,0,0,0,.54,4.05A3.25,3.25,0,0,1,5,16.74,3.68,3.68,0,0,1,1.46,13a4,4,0,0,1,.32-1.57.71.71,0,0,0,0-.57,4,4,0,0,1-.32-1.57,3.91,3.91,0,0,1,.87-2.47A3.53,3.53,0,0,1,4.45,5.52.76.76,0,0,0,5,5,3.59,3.59,0,0,1,8.39,2.47a3.36,3.36,0,0,1,.71.08.72.72,0,0,0,.64-.18,3.49,3.49,0,0,1,2.32-.91,3.21,3.21,0,0,1,1.23.24,5.2,5.2,0,0,0-.47.47,5.86,5.86,0,0,0-1,4.7.72.72,0,0,0,.72.62h.1a.73.73,0,0,0,.62-.83c-.5-3.51,1.62-4.23,1.71-4.26h0l.14,0A3.41,3.41,0,0,1,16.65,2a3.57,3.57,0,0,1,3.27,2.3.75.75,0,0,0,.57.45A3.51,3.51,0,0,1,22.65,6a3.94,3.94,0,0,1,.43,4.34,4.78,4.78,0,0,0-3-1.52A5.43,5.43,0,0,0,18,8.92a.73.73,0,0,0-.48.92.74.74,0,0,0,.92.48,4.16,4.16,0,0,1,1.47-.1,3.42,3.42,0,0,1,2.58,1.68,4,4,0,0,1,.46,1.87A3.76,3.76,0,0,1,20.36,17.4Z"/></g></svg>