<svg xmlns="http://www.w3.org/2000/svg" xmlns:xlink="http://www.w3.org/1999/xlink" viewBox="0 0 17.22 25"><defs><style>.cls-1{fill:#f9f9fb;}.cls-2{fill:url(#New_Gradient_Swatch);}</style><linearGradient id="New_Gradient_Swatch" x1="-0.32" y1="18.72" x2="16.49" y2="4.61" gradientUnits="userSpaceOnUse"><stop offset="0" stop-color="#ff13e6"/><stop offset="0.09" stop-color="#ff19df"/><stop offset="0.23" stop-color="#ff29cb"/><stop offset="0.4" stop-color="#ff43aa"/><stop offset="0.59" stop-color="#ff687c"/><stop offset="0.8" stop-color="#ff9642"/><stop offset="1" stop-color="#ffc902"/></linearGradient></defs><title>WhatWeDoIcons</title><g id="Background"><rect class="cls-1" x="-783.34" y="-222.46" width="1440" height="465.07"/></g><g id="Copy"><path class="cls-2" d="M17.22,8.61c0,3.2-1.44,4.6-2.83,6s-2.81,2.74-2.81,5.91a4.53,4.53,0,0,1-9,0,.83.83,0,0,1,.83-.84.84.84,0,0,1,.84.84,2.86,2.86,0,0,0,5.72,0,8.93,8.93,0,0,1,3.3-7.1c1.36-1.32,2.33-2.27,2.33-4.77a6.94,6.94,0,0,0-13.88,0,.84.84,0,0,1-.84.83A.83.83,0,0,1,0,8.61a8.61,8.61,0,0,1,17.22,0Zm-11.32,7a2.13,2.13,0,0,1-1.58-.23.83.83,0,1,0-.85,1.43A3.74,3.74,0,0,0,7.3,10.4a3.66,3.66,0,0,0-1.42-.5l0-1.1V8.75a3.2,3.2,0,1,1,6.39,0,.83.83,0,0,0,.83.83.84.84,0,0,0,.84-.83,4.86,4.86,0,0,0-9.69-.59.65.65,0,0,0,0,.31l.07,2.22s0,.07,0,.1v0a.84.84,0,0,0,.92.74,2,2,0,0,1,1.27.28,2.05,2.05,0,0,1,1,1.27,2.1,2.1,0,0,1-.23,1.57A2.05,2.05,0,0,1,5.9,15.63Z"/></g></svg>