<svg xmlns="http://www.w3.org/2000/svg" xmlns:xlink="http://www.w3.org/1999/xlink" viewBox="0 0 25 15.93"><defs><style>.cls-1{fill:url(#New_Gradient_Swatch);}</style><linearGradient id="New_Gradient_Swatch" x1="5" y1="14.26" x2="20" y2="1.67" gradientUnits="userSpaceOnUse"><stop offset="0" stop-color="#ff13e6"/><stop offset="0.09" stop-color="#ff19df"/><stop offset="0.23" stop-color="#ff29cb"/><stop offset="0.4" stop-color="#ff43aa"/><stop offset="0.59" stop-color="#ff687c"/><stop offset="0.8" stop-color="#ff9642"/><stop offset="1" stop-color="#ffc902"/></linearGradient></defs><title>WhatWeDoIcons</title><g id="Copy"><path class="cls-1" d="M24.84,7.48C24.62,7.18,19.3,0,12.5,0S.38,7.18.16,7.48a.83.83,0,0,0,0,1c.22.31,5.54,7.48,12.34,7.48S24.62,8.76,24.84,8.45A.83.83,0,0,0,24.84,7.48ZM12.5,14.29c-5,0-9.34-4.77-10.63-6.32C3.16,6.41,7.48,1.65,12.5,1.65S21.84,6.41,23.13,8C21.84,9.53,17.52,14.29,12.5,14.29ZM12.5,3A4.95,4.95,0,1,0,17.44,8,5,5,0,0,0,12.5,3Zm0,8.24A3.3,3.3,0,1,1,15.8,8,3.3,3.3,0,0,1,12.5,11.26Z"/></g></svg>