<svg xmlns="http://www.w3.org/2000/svg" xmlns:xlink="http://www.w3.org/1999/xlink" viewBox="0 0 18.39 25"><defs><style>.cls-1{fill:#f9f9fb;}.cls-2{fill:url(#New_Gradient_Swatch);}</style><linearGradient id="New_Gradient_Swatch" x1="1.79" y1="19.63" x2="17.41" y2="6.52" gradientUnits="userSpaceOnUse"><stop offset="0" stop-color="#ff13e6"/><stop offset="0.09" stop-color="#ff19df"/><stop offset="0.23" stop-color="#ff29cb"/><stop offset="0.4" stop-color="#ff43aa"/><stop offset="0.59" stop-color="#ff687c"/><stop offset="0.8" stop-color="#ff9642"/><stop offset="1" stop-color="#ffc902"/></linearGradient></defs><title>WhatWeDoIcons</title><g id="Background"><rect class="cls-1" x="-782.16" y="-219.46" width="1440" height="465.07"/></g><g id="Copy"><path class="cls-2" d="M17,14.45a5.53,5.53,0,0,0-3.41-1.86l-3-.47V6.81A2.28,2.28,0,0,0,8.3,4.53h0A2.29,2.29,0,0,0,6,6.81v8.52L2.84,14a2,2,0,0,0-1.92.17A2,2,0,0,0,0,15.86v0a2.05,2.05,0,0,0,.68,1.52L6,22.12v2.29a.6.6,0,0,0,1.19,0V21.85a.61.61,0,0,0-.2-.44l-5.5-4.89a.85.85,0,0,1-.29-.63v0a.83.83,0,0,1,.39-.71.82.82,0,0,1,.8-.08l4,1.7.11,0h.29l0,0h0l0,0h0l0,0h0l0,0v0l0,0v0l0,0v0l0,0,0,0h0a.58.58,0,0,0,.06-.17.5.5,0,0,0,0-.12V6.81a1.1,1.1,0,0,1,1.09-1.1h0a1.1,1.1,0,0,1,1.1,1.1v5.76a.59.59,0,0,0,.5.64l3.54.55h0a4.39,4.39,0,0,1,3.76,4.33v.06a6.21,6.21,0,0,1-.71,2.89l-1.6,3.08a.59.59,0,0,0,.25.8.54.54,0,0,0,.27.07.6.6,0,0,0,.53-.32l1.6-3.08a7.5,7.5,0,0,0,.84-3.44V18.1A5.51,5.51,0,0,0,17,14.45ZM8.28,3a.58.58,0,0,0,.59-.59V.59A.59.59,0,0,0,8.28,0a.6.6,0,0,0-.59.59v1.8A.59.59,0,0,0,8.28,3ZM12,7.81a.59.59,0,0,0,.59.59h1.8a.59.59,0,0,0,.59-.59.58.58,0,0,0-.59-.59h-1.8A.58.58,0,0,0,12,7.81Zm.12-3.35a.58.58,0,0,0,.42-.18L13.76,3a.59.59,0,0,0,0-.83.57.57,0,0,0-.83,0L11.65,3.45a.59.59,0,0,0,0,.83A.59.59,0,0,0,12.07,4.46ZM3.61,4.28A.56.56,0,0,0,4,4.46a.55.55,0,0,0,.41-.18.57.57,0,0,0,0-.83L3.17,2.17A.59.59,0,1,0,2.34,3ZM1.78,8.4h1.8a.59.59,0,0,0,.59-.59.58.58,0,0,0-.59-.59H1.78a.59.59,0,0,0-.59.59A.6.6,0,0,0,1.78,8.4Z"/></g></svg>