<svg id="Layer_1" data-name="Layer 1" xmlns="http://www.w3.org/2000/svg" xmlns:xlink="http://www.w3.org/1999/xlink" viewBox="0 0 185.92 211.8"><defs><style>.cls-1{fill:#272361;}.cls-2{fill:url(#ÅÂÁ_Ï_ÌÌ_È_ËÂÌÚ_2);}.cls-3{fill:url(#ÅÂÁ_Ï_ÌÌ_È_ËÂÌÚ_2-2);}.cls-4{fill:url(#ÅÂÁ_Ï_ÌÌ_È_ËÂÌÚ_2-3);}.cls-5{fill:url(#ÅÂÁ_Ï_ÌÌ_È_ËÂÌÚ_2-4);}.cls-6{fill:url(#ÅÂÁ_Ï_ÌÌ_È_ËÂÌÚ_2-5);}.cls-7{fill:url(#ÅÂÁ_Ï_ÌÌ_È_ËÂÌÚ_2-6);}.cls-8{fill:url(#ÅÂÁ_Ï_ÌÌ_È_ËÂÌÚ_2-7);}.cls-9{fill:url(#ÅÂÁ_Ï_ÌÌ_È_ËÂÌÚ_2-8);}.cls-10{fill:url(#ÅÂÁ_Ï_ÌÌ_È_ËÂÌÚ_2-9);}.cls-11{fill:url(#ÅÂÁ_Ï_ÌÌ_È_ËÂÌÚ_2-10);}.cls-12{fill:url(#ÅÂÁ_Ï_ÌÌ_È_ËÂÌÚ_2-11);}.cls-13{fill:url(#ÅÂÁ_Ï_ÌÌ_È_ËÂÌÚ_2-12);}.cls-14{fill:url(#ÅÂÁ_Ï_ÌÌ_È_ËÂÌÚ_2-13);}.cls-15{fill:url(#ÅÂÁ_Ï_ÌÌ_È_ËÂÌÚ_2-14);}.cls-16{fill:url(#ÅÂÁ_Ï_ÌÌ_È_ËÂÌÚ_2-15);}.cls-17{fill:url(#ÅÂÁ_Ï_ÌÌ_È_ËÂÌÚ_2-16);}.cls-18{fill:url(#ÅÂÁ_Ï_ÌÌ_È_ËÂÌÚ_2-17);}.cls-19{fill:url(#ÅÂÁ_Ï_ÌÌ_È_ËÂÌÚ_2-18);}.cls-20{fill:url(#ÅÂÁ_Ï_ÌÌ_È_ËÂÌÚ_3);}.cls-21{fill:url(#ÅÂÁ_Ï_ÌÌ_È_ËÂÌÚ_2-19);}.cls-22{fill:url(#ÅÂÁ_Ï_ÌÌ_È_ËÂÌÚ_3-2);}.cls-23{fill:url(#ÅÂÁ_Ï_ÌÌ_È_ËÂÌÚ_3-3);}.cls-24{fill:url(#ÅÂÁ_Ï_ÌÌ_È_ËÂÌÚ_2-20);}.cls-25{fill:url(#ÅÂÁ_Ï_ÌÌ_È_ËÂÌÚ_3-4);}.cls-26{fill:url(#ÅÂÁ_Ï_ÌÌ_È_ËÂÌÚ_3-5);}.cls-27{fill:url(#ÅÂÁ_Ï_ÌÌ_È_ËÂÌÚ_3-6);}.cls-28{fill:url(#ÅÂÁ_Ï_ÌÌ_È_ËÂÌÚ_3-7);}.cls-29{fill:url(#ÅÂÁ_Ï_ÌÌ_È_ËÂÌÚ_2-21);}.cls-30{fill:url(#ÅÂÁ_Ï_ÌÌ_È_ËÂÌÚ_2-22);}.cls-31{fill:url(#ÅÂÁ_Ï_ÌÌ_È_ËÂÌÚ_2-23);}.cls-32{fill:url(#ÅÂÁ_Ï_ÌÌ_È_ËÂÌÚ_2-24);}.cls-33{fill:url(#ÅÂÁ_Ï_ÌÌ_È_ËÂÌÚ_2-25);}.cls-34{fill:url(#ÅÂÁ_Ï_ÌÌ_È_ËÂÌÚ_3-8);}.cls-35{fill:url(#ÅÂÁ_Ï_ÌÌ_È_ËÂÌÚ_3-9);}.cls-36{fill:url(#ÅÂÁ_Ï_ÌÌ_È_ËÂÌÚ_3-10);}.cls-37{fill:url(#ÅÂÁ_Ï_ÌÌ_È_ËÂÌÚ_2-26);}.cls-38{fill:url(#ÅÂÁ_Ï_ÌÌ_È_ËÂÌÚ_2-27);}.cls-39{fill:url(#ÅÂÁ_Ï_ÌÌ_È_ËÂÌÚ_2-28);}.cls-40{fill:url(#ÅÂÁ_Ï_ÌÌ_È_ËÂÌÚ_2-29);}.cls-41{fill:url(#ÅÂÁ_Ï_ÌÌ_È_ËÂÌÚ_2-30);}.cls-42{fill:url(#ÅÂÁ_Ï_ÌÌ_È_ËÂÌÚ_2-31);}.cls-43{fill:url(#ÅÂÁ_Ï_ÌÌ_È_ËÂÌÚ_2-32);}.cls-44{fill:url(#ÅÂÁ_Ï_ÌÌ_È_ËÂÌÚ_2-33);}.cls-45{fill:url(#ÅÂÁ_Ï_ÌÌ_È_ËÂÌÚ_2-34);}.cls-46{fill:url(#ÅÂÁ_Ï_ÌÌ_È_ËÂÌÚ_2-35);}.cls-47{fill:url(#ÅÂÁ_Ï_ÌÌ_È_ËÂÌÚ_2-36);}.cls-48{fill:url(#ÅÂÁ_Ï_ÌÌ_È_ËÂÌÚ_2-37);}.cls-49{fill:url(#ÅÂÁ_Ï_ÌÌ_È_ËÂÌÚ_2-38);}.cls-50{fill:url(#ÅÂÁ_Ï_ÌÌ_È_ËÂÌÚ_2-39);}.cls-51{fill:#282560;}.cls-52{fill:url(#ÅÂÁ_Ï_ÌÌ_È_ËÂÌÚ_2-40);}.cls-53{fill:url(#ÅÂÁ_Ï_ÌÌ_È_ËÂÌÚ_2-41);}.cls-54{fill:url(#ÅÂÁ_Ï_ÌÌ_È_ËÂÌÚ_2-42);}.cls-55{fill:url(#ÅÂÁ_Ï_ÌÌ_È_ËÂÌÚ_2-43);}.cls-56{fill:url(#ÅÂÁ_Ï_ÌÌ_È_ËÂÌÚ_2-44);}.cls-57{fill:url(#ÅÂÁ_Ï_ÌÌ_È_ËÂÌÚ_2-45);}.cls-58{fill:url(#ÅÂÁ_Ï_ÌÌ_È_ËÂÌÚ_2-46);}.cls-59{fill:url(#ÅÂÁ_Ï_ÌÌ_È_ËÂÌÚ_2-47);}.cls-60{fill:url(#ÅÂÁ_Ï_ÌÌ_È_ËÂÌÚ_2-48);}.cls-61{fill:url(#ÅÂÁ_Ï_ÌÌ_È_ËÂÌÚ_2-49);}.cls-62{fill:url(#ÅÂÁ_Ï_ÌÌ_È_ËÂÌÚ_2-50);}.cls-63{fill:url(#ÅÂÁ_Ï_ÌÌ_È_ËÂÌÚ_2-51);}.cls-64{fill:url(#ÅÂÁ_Ï_ÌÌ_È_ËÂÌÚ_2-52);}.cls-65{fill:url(#ÅÂÁ_Ï_ÌÌ_È_ËÂÌÚ_2-53);}.cls-66{fill:url(#ÅÂÁ_Ï_ÌÌ_È_ËÂÌÚ_2-54);}.cls-67{fill:url(#ÅÂÁ_Ï_ÌÌ_È_ËÂÌÚ_2-55);}.cls-68{fill:url(#ÅÂÁ_Ï_ÌÌ_È_ËÂÌÚ_2-56);}.cls-69{fill:url(#ÅÂÁ_Ï_ÌÌ_È_ËÂÌÚ_2-57);}.cls-70{fill:url(#ÅÂÁ_Ï_ÌÌ_È_ËÂÌÚ_2-58);}.cls-71{fill:url(#ÅÂÁ_Ï_ÌÌ_È_ËÂÌÚ_2-59);}.cls-72{fill:url(#ÅÂÁ_Ï_ÌÌ_È_ËÂÌÚ_2-60);}.cls-73{fill:url(#ÅÂÁ_Ï_ÌÌ_È_ËÂÌÚ_2-61);}.cls-74{fill:url(#ÅÂÁ_Ï_ÌÌ_È_ËÂÌÚ_2-62);}.cls-75{fill:url(#ÅÂÁ_Ï_ÌÌ_È_ËÂÌÚ_2-63);}.cls-76{fill:url(#ÅÂÁ_Ï_ÌÌ_È_ËÂÌÚ_2-64);}.cls-77{fill:url(#ÅÂÁ_Ï_ÌÌ_È_ËÂÌÚ_2-65);}.cls-78{fill:url(#ÅÂÁ_Ï_ÌÌ_È_ËÂÌÚ_2-66);}.cls-79{fill:url(#ÅÂÁ_Ï_ÌÌ_È_ËÂÌÚ_2-67);}.cls-80{fill:url(#ÅÂÁ_Ï_ÌÌ_È_ËÂÌÚ_2-68);}.cls-81{fill:url(#ÅÂÁ_Ï_ÌÌ_È_ËÂÌÚ_2-69);}.cls-82{fill:url(#ÅÂÁ_Ï_ÌÌ_È_ËÂÌÚ_2-70);}.cls-83{fill:url(#ÅÂÁ_Ï_ÌÌ_È_ËÂÌÚ_2-71);}.cls-84{fill:url(#ÅÂÁ_Ï_ÌÌ_È_ËÂÌÚ_2-72);}.cls-85{fill:url(#ÅÂÁ_Ï_ÌÌ_È_ËÂÌÚ_2-73);}.cls-86{fill:url(#ÅÂÁ_Ï_ÌÌ_È_ËÂÌÚ_2-74);}.cls-87{fill:url(#ÅÂÁ_Ï_ÌÌ_È_ËÂÌÚ_2-75);}.cls-88{fill:url(#ÅÂÁ_Ï_ÌÌ_È_ËÂÌÚ_2-76);}.cls-89{fill:url(#ÅÂÁ_Ï_ÌÌ_È_ËÂÌÚ_2-77);}.cls-90{fill:url(#ÅÂÁ_Ï_ÌÌ_È_ËÂÌÚ_2-78);}.cls-91{fill:url(#ÅÂÁ_Ï_ÌÌ_È_ËÂÌÚ_2-79);}.cls-92{fill:url(#ÅÂÁ_Ï_ÌÌ_È_ËÂÌÚ_2-80);}.cls-93{fill:url(#ÅÂÁ_Ï_ÌÌ_È_ËÂÌÚ_2-81);}.cls-94{fill:url(#ÅÂÁ_Ï_ÌÌ_È_ËÂÌÚ_2-82);}.cls-95{fill:url(#ÅÂÁ_Ï_ÌÌ_È_ËÂÌÚ_2-83);}.cls-96{fill:url(#ÅÂÁ_Ï_ÌÌ_È_ËÂÌÚ_2-84);}.cls-97{fill:url(#ÅÂÁ_Ï_ÌÌ_È_ËÂÌÚ_3-11);}.cls-98{fill:url(#ÅÂÁ_Ï_ÌÌ_È_ËÂÌÚ_3-12);}.cls-99{fill:url(#ÅÂÁ_Ï_ÌÌ_È_ËÂÌÚ_3-13);}.cls-100{fill:url(#ÅÂÁ_Ï_ÌÌ_È_ËÂÌÚ_3-14);}.cls-101{fill:url(#ÅÂÁ_Ï_ÌÌ_È_ËÂÌÚ_3-15);}.cls-102{fill:url(#ÅÂÁ_Ï_ÌÌ_È_ËÂÌÚ_2-85);}.cls-103{fill:url(#ÅÂÁ_Ï_ÌÌ_È_ËÂÌÚ_3-16);}.cls-104{fill:url(#ÅÂÁ_Ï_ÌÌ_È_ËÂÌÚ_2-86);}.cls-105{fill:url(#ÅÂÁ_Ï_ÌÌ_È_ËÂÌÚ_2-87);}.cls-106{fill:url(#ÅÂÁ_Ï_ÌÌ_È_ËÂÌÚ_3-18);}.cls-107{fill:url(#ÅÂÁ_Ï_ÌÌ_È_ËÂÌÚ_3-19);}.cls-108{fill:url(#ÅÂÁ_Ï_ÌÌ_È_ËÂÌÚ_2-88);}.cls-109{fill:url(#ÅÂÁ_Ï_ÌÌ_È_ËÂÌÚ_3-20);}.cls-110{fill:url(#ÅÂÁ_Ï_ÌÌ_È_ËÂÌÚ_2-89);}.cls-111{fill:url(#ÅÂÁ_Ï_ÌÌ_È_ËÂÌÚ_2-90);}.cls-112{fill:url(#ÅÂÁ_Ï_ÌÌ_È_ËÂÌÚ_2-91);}.cls-113{fill:url(#ÅÂÁ_Ï_ÌÌ_È_ËÂÌÚ_2-92);}</style><linearGradient id="ÅÂÁ_Ï_ÌÌ_È_ËÂÌÚ_2" x1="138.38" y1="114.45" x2="184.98" y2="114.45" gradientUnits="userSpaceOnUse"><stop offset="0.17" stop-color="#eb4294"/><stop offset="0.47" stop-color="#f06867"/><stop offset="1" stop-color="#f9aa19"/></linearGradient><linearGradient id="ÅÂÁ_Ï_ÌÌ_È_ËÂÌÚ_2-2" x1="138.38" y1="115.73" x2="184.98" y2="115.73" xlink:href="#ÅÂÁ_Ï_ÌÌ_È_ËÂÌÚ_2"/><linearGradient id="ÅÂÁ_Ï_ÌÌ_È_ËÂÌÚ_2-3" x1="157.99" y1="67.03" x2="184.78" y2="67.03" xlink:href="#ÅÂÁ_Ï_ÌÌ_È_ËÂÌÚ_2"/><linearGradient id="ÅÂÁ_Ï_ÌÌ_È_ËÂÌÚ_2-4" x1="138.38" y1="95.66" x2="184.98" y2="95.66" xlink:href="#ÅÂÁ_Ï_ÌÌ_È_ËÂÌÚ_2"/><linearGradient id="ÅÂÁ_Ï_ÌÌ_È_ËÂÌÚ_2-5" x1="157.99" y1="71.43" x2="184.78" y2="71.43" xlink:href="#ÅÂÁ_Ï_ÌÌ_È_ËÂÌÚ_2"/><linearGradient id="ÅÂÁ_Ï_ÌÌ_È_ËÂÌÚ_2-6" x1="138.38" y1="120.35" x2="184.98" y2="120.35" xlink:href="#ÅÂÁ_Ï_ÌÌ_È_ËÂÌÚ_2"/><linearGradient id="ÅÂÁ_Ï_ÌÌ_È_ËÂÌÚ_2-7" x1="138.38" y1="119.48" x2="184.98" y2="119.48" xlink:href="#ÅÂÁ_Ï_ÌÌ_È_ËÂÌÚ_2"/><linearGradient id="ÅÂÁ_Ï_ÌÌ_È_ËÂÌÚ_2-8" x1="116.03" y1="124.61" x2="182" y2="124.61" xlink:href="#ÅÂÁ_Ï_ÌÌ_È_ËÂÌÚ_2"/><linearGradient id="ÅÂÁ_Ï_ÌÌ_È_ËÂÌÚ_2-9" x1="138.38" y1="111.19" x2="184.98" y2="111.19" xlink:href="#ÅÂÁ_Ï_ÌÌ_È_ËÂÌÚ_2"/><linearGradient id="ÅÂÁ_Ï_ÌÌ_È_ËÂÌÚ_2-10" x1="157.99" y1="74.27" x2="184.78" y2="74.27" xlink:href="#ÅÂÁ_Ï_ÌÌ_È_ËÂÌÚ_2"/><linearGradient id="ÅÂÁ_Ï_ÌÌ_È_ËÂÌÚ_2-11" x1="138.38" y1="111.4" x2="184.98" y2="111.4" xlink:href="#ÅÂÁ_Ï_ÌÌ_È_ËÂÌÚ_2"/><linearGradient id="ÅÂÁ_Ï_ÌÌ_È_ËÂÌÚ_2-12" x1="138.38" y1="118.33" x2="184.98" y2="118.33" xlink:href="#ÅÂÁ_Ï_ÌÌ_È_ËÂÌÚ_2"/><linearGradient id="ÅÂÁ_Ï_ÌÌ_È_ËÂÌÚ_2-13" x1="116.03" y1="124.21" x2="182" y2="124.21" xlink:href="#ÅÂÁ_Ï_ÌÌ_È_ËÂÌÚ_2"/><linearGradient id="ÅÂÁ_Ï_ÌÌ_È_ËÂÌÚ_2-14" x1="138.38" y1="117" x2="184.98" y2="117" xlink:href="#ÅÂÁ_Ï_ÌÌ_È_ËÂÌÚ_2"/><linearGradient id="ÅÂÁ_Ï_ÌÌ_È_ËÂÌÚ_2-15" x1="116.03" y1="123.08" x2="182" y2="123.08" xlink:href="#ÅÂÁ_Ï_ÌÌ_È_ËÂÌÚ_2"/><linearGradient id="ÅÂÁ_Ï_ÌÌ_È_ËÂÌÚ_2-16" x1="157.99" y1="69.54" x2="184.78" y2="69.54" xlink:href="#ÅÂÁ_Ï_ÌÌ_È_ËÂÌÚ_2"/><linearGradient id="ÅÂÁ_Ï_ÌÌ_È_ËÂÌÚ_2-17" x1="157.99" y1="62.04" x2="184.78" y2="62.04" xlink:href="#ÅÂÁ_Ï_ÌÌ_È_ËÂÌÚ_2"/><linearGradient id="ÅÂÁ_Ï_ÌÌ_È_ËÂÌÚ_2-18" x1="157.99" y1="62.14" x2="184.78" y2="62.14" xlink:href="#ÅÂÁ_Ï_ÌÌ_È_ËÂÌÚ_2"/><linearGradient id="ÅÂÁ_Ï_ÌÌ_È_ËÂÌÚ_3" x1="147.76" y1="195.53" x2="168.02" y2="195.53" gradientUnits="userSpaceOnUse"><stop offset="0" stop-color="#f9aa19"/><stop offset="0.53" stop-color="#f06867"/><stop offset="0.83" stop-color="#eb4294"/></linearGradient><linearGradient id="ÅÂÁ_Ï_ÌÌ_È_ËÂÌÚ_2-19" x1="116.03" y1="120.3" x2="182" y2="120.3" xlink:href="#ÅÂÁ_Ï_ÌÌ_È_ËÂÌÚ_2"/><linearGradient id="ÅÂÁ_Ï_ÌÌ_È_ËÂÌÚ_3-2" x1="147.76" y1="187.5" x2="168.02" y2="187.5" xlink:href="#ÅÂÁ_Ï_ÌÌ_È_ËÂÌÚ_3"/><linearGradient id="ÅÂÁ_Ï_ÌÌ_È_ËÂÌÚ_3-3" x1="147.76" y1="180.35" x2="168.02" y2="180.35" xlink:href="#ÅÂÁ_Ï_ÌÌ_È_ËÂÌÚ_3"/><linearGradient id="ÅÂÁ_Ï_ÌÌ_È_ËÂÌÚ_2-20" x1="116.03" y1="117.04" x2="182" y2="117.04" xlink:href="#ÅÂÁ_Ï_ÌÌ_È_ËÂÌÚ_2"/><linearGradient id="ÅÂÁ_Ï_ÌÌ_È_ËÂÌÚ_3-4" x1="147.76" y1="171.88" x2="168.02" y2="171.88" xlink:href="#ÅÂÁ_Ï_ÌÌ_È_ËÂÌÚ_3"/><linearGradient id="ÅÂÁ_Ï_ÌÌ_È_ËÂÌÚ_3-5" x1="147.76" y1="170.68" x2="168.02" y2="170.68" xlink:href="#ÅÂÁ_Ï_ÌÌ_È_ËÂÌÚ_3"/><linearGradient id="ÅÂÁ_Ï_ÌÌ_È_ËÂÌÚ_3-6" x1="147.76" y1="172.36" x2="168.02" y2="172.36" xlink:href="#ÅÂÁ_Ï_ÌÌ_È_ËÂÌÚ_3"/><linearGradient id="ÅÂÁ_Ï_ÌÌ_È_ËÂÌÚ_3-7" x1="147.76" y1="178" x2="168.02" y2="178" xlink:href="#ÅÂÁ_Ï_ÌÌ_È_ËÂÌÚ_3"/><linearGradient id="ÅÂÁ_Ï_ÌÌ_È_ËÂÌÚ_2-21" x1="113.49" y1="61.99" x2="157.39" y2="61.99" xlink:href="#ÅÂÁ_Ï_ÌÌ_È_ËÂÌÚ_2"/><linearGradient id="ÅÂÁ_Ï_ÌÌ_È_ËÂÌÚ_2-22" x1="138.38" y1="78.79" x2="184.98" y2="78.79" xlink:href="#ÅÂÁ_Ï_ÌÌ_È_ËÂÌÚ_2"/><linearGradient id="ÅÂÁ_Ï_ÌÌ_È_ËÂÌÚ_2-23" x1="113.49" y1="55.73" x2="157.39" y2="55.73" xlink:href="#ÅÂÁ_Ï_ÌÌ_È_ËÂÌÚ_2"/><linearGradient id="ÅÂÁ_Ï_ÌÌ_È_ËÂÌÚ_2-24" x1="138.38" y1="79.03" x2="184.98" y2="79.03" xlink:href="#ÅÂÁ_Ï_ÌÌ_È_ËÂÌÚ_2"/><linearGradient id="ÅÂÁ_Ï_ÌÌ_È_ËÂÌÚ_2-25" x1="113.49" y1="61.78" x2="157.39" y2="61.78" xlink:href="#ÅÂÁ_Ï_ÌÌ_È_ËÂÌÚ_2"/><linearGradient id="ÅÂÁ_Ï_ÌÌ_È_ËÂÌÚ_3-8" x1="137.54" y1="180.12" x2="157.8" y2="180.12" xlink:href="#ÅÂÁ_Ï_ÌÌ_È_ËÂÌÚ_3"/><linearGradient id="ÅÂÁ_Ï_ÌÌ_È_ËÂÌÚ_3-9" x1="137.54" y1="186.99" x2="157.8" y2="186.99" xlink:href="#ÅÂÁ_Ï_ÌÌ_È_ËÂÌÚ_3"/><linearGradient id="ÅÂÁ_Ï_ÌÌ_È_ËÂÌÚ_3-10" x1="137.54" y1="195.28" x2="157.8" y2="195.28" xlink:href="#ÅÂÁ_Ï_ÌÌ_È_ËÂÌÚ_3"/><linearGradient id="ÅÂÁ_Ï_ÌÌ_È_ËÂÌÚ_2-26" x1="116.03" y1="115.73" x2="182" y2="115.73" xlink:href="#ÅÂÁ_Ï_ÌÌ_È_ËÂÌÚ_2"/><linearGradient id="ÅÂÁ_Ï_ÌÌ_È_ËÂÌÚ_2-27" x1="134.71" y1="59.55" x2="146.69" y2="59.55" xlink:href="#ÅÂÁ_Ï_ÌÌ_È_ËÂÌÚ_2"/><linearGradient id="ÅÂÁ_Ï_ÌÌ_È_ËÂÌÚ_2-28" x1="116.54" y1="42.1" x2="146.02" y2="42.1" xlink:href="#ÅÂÁ_Ï_ÌÌ_È_ËÂÌÚ_2"/><linearGradient id="ÅÂÁ_Ï_ÌÌ_È_ËÂÌÚ_2-29" x1="116.54" y1="38.44" x2="146.02" y2="38.44" xlink:href="#ÅÂÁ_Ï_ÌÌ_È_ËÂÌÚ_2"/><linearGradient id="ÅÂÁ_Ï_ÌÌ_È_ËÂÌÚ_2-30" x1="116.54" y1="53.12" x2="146.02" y2="53.12" xlink:href="#ÅÂÁ_Ï_ÌÌ_È_ËÂÌÚ_2"/><linearGradient id="ÅÂÁ_Ï_ÌÌ_È_ËÂÌÚ_2-31" x1="116.03" y1="113.73" x2="182" y2="113.73" xlink:href="#ÅÂÁ_Ï_ÌÌ_È_ËÂÌÚ_2"/><linearGradient id="ÅÂÁ_Ï_ÌÌ_È_ËÂÌÚ_2-32" x1="116.54" y1="56.72" x2="146.02" y2="56.72" xlink:href="#ÅÂÁ_Ï_ÌÌ_È_ËÂÌÚ_2"/><linearGradient id="ÅÂÁ_Ï_ÌÌ_È_ËÂÌÚ_2-33" x1="138.38" y1="77.09" x2="184.98" y2="77.09" xlink:href="#ÅÂÁ_Ï_ÌÌ_È_ËÂÌÚ_2"/><linearGradient id="ÅÂÁ_Ï_ÌÌ_È_ËÂÌÚ_2-34" x1="138.38" y1="73.22" x2="184.98" y2="73.22" xlink:href="#ÅÂÁ_Ï_ÌÌ_È_ËÂÌÚ_2"/><linearGradient id="ÅÂÁ_Ï_ÌÌ_È_ËÂÌÚ_2-35" x1="116.54" y1="50.23" x2="146.02" y2="50.23" xlink:href="#ÅÂÁ_Ï_ÌÌ_È_ËÂÌÚ_2"/><linearGradient id="ÅÂÁ_Ï_ÌÌ_È_ËÂÌÚ_2-36" x1="138.38" y1="77.94" x2="184.98" y2="77.94" xlink:href="#ÅÂÁ_Ï_ÌÌ_È_ËÂÌÚ_2"/><linearGradient id="ÅÂÁ_Ï_ÌÌ_È_ËÂÌÚ_2-37" x1="138.38" y1="73.3" x2="184.98" y2="73.3" xlink:href="#ÅÂÁ_Ï_ÌÌ_È_ËÂÌÚ_2"/><linearGradient id="ÅÂÁ_Ï_ÌÌ_È_ËÂÌÚ_2-38" x1="125.23" y1="69.73" x2="146.91" y2="69.73" xlink:href="#ÅÂÁ_Ï_ÌÌ_È_ËÂÌÚ_2"/><linearGradient id="ÅÂÁ_Ï_ÌÌ_È_ËÂÌÚ_2-39" x1="125.23" y1="63.1" x2="146.92" y2="63.1" xlink:href="#ÅÂÁ_Ï_ÌÌ_È_ËÂÌÚ_2"/><linearGradient id="ÅÂÁ_Ï_ÌÌ_È_ËÂÌÚ_2-40" x1="116.54" y1="52.62" x2="146.02" y2="52.62" xlink:href="#ÅÂÁ_Ï_ÌÌ_È_ËÂÌÚ_2"/><linearGradient id="ÅÂÁ_Ï_ÌÌ_È_ËÂÌÚ_2-41" x1="116.54" y1="40.3" x2="146.02" y2="40.3" xlink:href="#ÅÂÁ_Ï_ÌÌ_È_ËÂÌÚ_2"/><linearGradient id="ÅÂÁ_Ï_ÌÌ_È_ËÂÌÚ_2-42" x1="127.02" y1="63.28" x2="136.89" y2="63.28" xlink:href="#ÅÂÁ_Ï_ÌÌ_È_ËÂÌÚ_2"/><linearGradient id="ÅÂÁ_Ï_ÌÌ_È_ËÂÌÚ_2-43" x1="116.54" y1="58.97" x2="136.62" y2="58.97" xlink:href="#ÅÂÁ_Ï_ÌÌ_È_ËÂÌÚ_2"/><linearGradient id="ÅÂÁ_Ï_ÌÌ_È_ËÂÌÚ_2-44" x1="116.54" y1="62.87" x2="146.02" y2="62.87" xlink:href="#ÅÂÁ_Ï_ÌÌ_È_ËÂÌÚ_2"/><linearGradient id="ÅÂÁ_Ï_ÌÌ_È_ËÂÌÚ_2-45" x1="116.54" y1="62.89" x2="136.62" y2="62.89" xlink:href="#ÅÂÁ_Ï_ÌÌ_È_ËÂÌÚ_2"/><linearGradient id="ÅÂÁ_Ï_ÌÌ_È_ËÂÌÚ_2-46" x1="116.54" y1="51.59" x2="146.02" y2="51.59" xlink:href="#ÅÂÁ_Ï_ÌÌ_È_ËÂÌÚ_2"/><linearGradient id="ÅÂÁ_Ï_ÌÌ_È_ËÂÌÚ_2-47" x1="116.54" y1="53.56" x2="136.62" y2="53.56" xlink:href="#ÅÂÁ_Ï_ÌÌ_È_ËÂÌÚ_2"/><linearGradient id="ÅÂÁ_Ï_ÌÌ_È_ËÂÌÚ_2-48" x1="116.54" y1="54.67" x2="136.62" y2="54.67" xlink:href="#ÅÂÁ_Ï_ÌÌ_È_ËÂÌÚ_2"/><linearGradient id="ÅÂÁ_Ï_ÌÌ_È_ËÂÌÚ_2-49" x1="116.54" y1="32.94" x2="146.02" y2="32.94" xlink:href="#ÅÂÁ_Ï_ÌÌ_È_ËÂÌÚ_2"/><linearGradient id="ÅÂÁ_Ï_ÌÌ_È_ËÂÌÚ_2-50" x1="116.54" y1="58.72" x2="136.62" y2="58.72" xlink:href="#ÅÂÁ_Ï_ÌÌ_È_ËÂÌÚ_2"/><linearGradient id="ÅÂÁ_Ï_ÌÌ_È_ËÂÌÚ_2-51" x1="116.03" y1="110.91" x2="182" y2="110.91" xlink:href="#ÅÂÁ_Ï_ÌÌ_È_ËÂÌÚ_2"/><linearGradient id="ÅÂÁ_Ï_ÌÌ_È_ËÂÌÚ_2-52" x1="116.55" y1="41.47" x2="136.62" y2="41.47" xlink:href="#ÅÂÁ_Ï_ÌÌ_È_ËÂÌÚ_2"/><linearGradient id="ÅÂÁ_Ï_ÌÌ_È_ËÂÌÚ_2-53" x1="125.23" y1="65.68" x2="146.92" y2="65.68" xlink:href="#ÅÂÁ_Ï_ÌÌ_È_ËÂÌÚ_2"/><linearGradient id="ÅÂÁ_Ï_ÌÌ_È_ËÂÌÚ_2-54" x1="116.03" y1="109.75" x2="182" y2="109.75" xlink:href="#ÅÂÁ_Ï_ÌÌ_È_ËÂÌÚ_2"/><linearGradient id="ÅÂÁ_Ï_ÌÌ_È_ËÂÌÚ_2-55" x1="113.49" y1="61.42" x2="157.39" y2="61.42" xlink:href="#ÅÂÁ_Ï_ÌÌ_È_ËÂÌÚ_2"/><linearGradient id="ÅÂÁ_Ï_ÌÌ_È_ËÂÌÚ_2-56" x1="116.54" y1="59.2" x2="136.62" y2="59.2" xlink:href="#ÅÂÁ_Ï_ÌÌ_È_ËÂÌÚ_2"/><linearGradient id="ÅÂÁ_Ï_ÌÌ_È_ËÂÌÚ_2-57" x1="116.54" y1="57.34" x2="136.62" y2="57.34" xlink:href="#ÅÂÁ_Ï_ÌÌ_È_ËÂÌÚ_2"/><linearGradient id="ÅÂÁ_Ï_ÌÌ_È_ËÂÌÚ_2-58" x1="113.49" y1="53.93" x2="157.39" y2="53.93" xlink:href="#ÅÂÁ_Ï_ÌÌ_È_ËÂÌÚ_2"/><linearGradient id="ÅÂÁ_Ï_ÌÌ_È_ËÂÌÚ_2-59" x1="116.54" y1="31.45" x2="136.62" y2="31.45" xlink:href="#ÅÂÁ_Ï_ÌÌ_È_ËÂÌÚ_2"/><linearGradient id="ÅÂÁ_Ï_ÌÌ_È_ËÂÌÚ_2-60" x1="89.74" y1="29.31" x2="107.29" y2="29.31" xlink:href="#ÅÂÁ_Ï_ÌÌ_È_ËÂÌÚ_2"/><linearGradient id="ÅÂÁ_Ï_ÌÌ_È_ËÂÌÚ_2-61" x1="89.74" y1="40.29" x2="107.29" y2="40.29" xlink:href="#ÅÂÁ_Ï_ÌÌ_È_ËÂÌÚ_2"/><linearGradient id="ÅÂÁ_Ï_ÌÌ_È_ËÂÌÚ_2-62" x1="89.74" y1="25.46" x2="107.29" y2="25.46" xlink:href="#ÅÂÁ_Ï_ÌÌ_È_ËÂÌÚ_2"/><linearGradient id="ÅÂÁ_Ï_ÌÌ_È_ËÂÌÚ_2-63" x1="71.53" y1="22.79" x2="107.29" y2="22.79" xlink:href="#ÅÂÁ_Ï_ÌÌ_È_ËÂÌÚ_2"/><linearGradient id="ÅÂÁ_Ï_ÌÌ_È_ËÂÌÚ_2-64" x1="71.53" y1="26.06" x2="107.29" y2="26.06" xlink:href="#ÅÂÁ_Ï_ÌÌ_È_ËÂÌÚ_2"/><linearGradient id="ÅÂÁ_Ï_ÌÌ_È_ËÂÌÚ_2-65" x1="71.53" y1="31.22" x2="107.29" y2="31.22" xlink:href="#ÅÂÁ_Ï_ÌÌ_È_ËÂÌÚ_2"/><linearGradient id="ÅÂÁ_Ï_ÌÌ_È_ËÂÌÚ_2-66" x1="89.74" y1="42.79" x2="107.29" y2="42.79" xlink:href="#ÅÂÁ_Ï_ÌÌ_È_ËÂÌÚ_2"/><linearGradient id="ÅÂÁ_Ï_ÌÌ_È_ËÂÌÚ_2-67" x1="71.53" y1="43.03" x2="107.29" y2="43.03" xlink:href="#ÅÂÁ_Ï_ÌÌ_È_ËÂÌÚ_2"/><linearGradient id="ÅÂÁ_Ï_ÌÌ_È_ËÂÌÚ_2-68" x1="89.74" y1="49.31" x2="107.29" y2="49.31" xlink:href="#ÅÂÁ_Ï_ÌÌ_È_ËÂÌÚ_2"/><linearGradient id="ÅÂÁ_Ï_ÌÌ_È_ËÂÌÚ_2-69" x1="89.74" y1="51.72" x2="107.29" y2="51.72" xlink:href="#ÅÂÁ_Ï_ÌÌ_È_ËÂÌÚ_2"/><linearGradient id="ÅÂÁ_Ï_ÌÌ_È_ËÂÌÚ_2-70" x1="89.74" y1="51.87" x2="107.29" y2="51.87" xlink:href="#ÅÂÁ_Ï_ÌÌ_È_ËÂÌÚ_2"/><linearGradient id="ÅÂÁ_Ï_ÌÌ_È_ËÂÌÚ_2-71" x1="68.12" y1="52.17" x2="95.31" y2="52.17" xlink:href="#ÅÂÁ_Ï_ÌÌ_È_ËÂÌÚ_2"/><linearGradient id="ÅÂÁ_Ï_ÌÌ_È_ËÂÌÚ_2-72" x1="68.12" y1="67.28" x2="95.31" y2="67.28" xlink:href="#ÅÂÁ_Ï_ÌÌ_È_ËÂÌÚ_2"/><linearGradient id="ÅÂÁ_Ï_ÌÌ_È_ËÂÌÚ_2-73" x1="71.53" y1="51.99" x2="107.29" y2="51.99" xlink:href="#ÅÂÁ_Ï_ÌÌ_È_ËÂÌÚ_2"/><linearGradient id="ÅÂÁ_Ï_ÌÌ_È_ËÂÌÚ_2-74" x1="71.53" y1="52.13" x2="107.29" y2="52.13" xlink:href="#ÅÂÁ_Ï_ÌÌ_È_ËÂÌÚ_2"/><linearGradient id="ÅÂÁ_Ï_ÌÌ_È_ËÂÌÚ_2-75" x1="71.53" y1="52.14" x2="107.29" y2="52.14" xlink:href="#ÅÂÁ_Ï_ÌÌ_È_ËÂÌÚ_2"/><linearGradient id="ÅÂÁ_Ï_ÌÌ_È_ËÂÌÚ_2-76" x1="71.53" y1="51.79" x2="107.29" y2="51.79" xlink:href="#ÅÂÁ_Ï_ÌÌ_È_ËÂÌÚ_2"/><linearGradient id="ÅÂÁ_Ï_ÌÌ_È_ËÂÌÚ_2-77" x1="71.53" y1="52.04" x2="107.29" y2="52.04" xlink:href="#ÅÂÁ_Ï_ÌÌ_È_ËÂÌÚ_2"/><linearGradient id="ÅÂÁ_Ï_ÌÌ_È_ËÂÌÚ_2-78" x1="68.12" y1="45.45" x2="95.31" y2="45.45" xlink:href="#ÅÂÁ_Ï_ÌÌ_È_ËÂÌÚ_2"/><linearGradient id="ÅÂÁ_Ï_ÌÌ_È_ËÂÌÚ_2-79" x1="71.53" y1="27.05" x2="107.29" y2="27.05" xlink:href="#ÅÂÁ_Ï_ÌÌ_È_ËÂÌÚ_2"/><linearGradient id="ÅÂÁ_Ï_ÌÌ_È_ËÂÌÚ_2-80" x1="71.53" y1="35.92" x2="107.29" y2="35.92" xlink:href="#ÅÂÁ_Ï_ÌÌ_È_ËÂÌÚ_2"/><linearGradient id="ÅÂÁ_Ï_ÌÌ_È_ËÂÌÚ_2-81" x1="71.53" y1="34.07" x2="107.29" y2="34.07" xlink:href="#ÅÂÁ_Ï_ÌÌ_È_ËÂÌÚ_2"/><linearGradient id="ÅÂÁ_Ï_ÌÌ_È_ËÂÌÚ_2-82" x1="71.53" y1="35.76" x2="107.29" y2="35.76" xlink:href="#ÅÂÁ_Ï_ÌÌ_È_ËÂÌÚ_2"/><linearGradient id="ÅÂÁ_Ï_ÌÌ_È_ËÂÌÚ_2-83" x1="71.53" y1="37.58" x2="107.29" y2="37.58" xlink:href="#ÅÂÁ_Ï_ÌÌ_È_ËÂÌÚ_2"/><linearGradient id="ÅÂÁ_Ï_ÌÌ_È_ËÂÌÚ_2-84" x1="71.53" y1="23.55" x2="107.29" y2="23.55" xlink:href="#ÅÂÁ_Ï_ÌÌ_È_ËÂÌÚ_2"/><linearGradient id="ÅÂÁ_Ï_ÌÌ_È_ËÂÌÚ_3-11" x1="33.22" y1="169.14" x2="53.04" y2="169.14" xlink:href="#ÅÂÁ_Ï_ÌÌ_È_ËÂÌÚ_3"/><linearGradient id="ÅÂÁ_Ï_ÌÌ_È_ËÂÌÚ_3-12" x1="33.22" y1="169.07" x2="53.04" y2="169.07" xlink:href="#ÅÂÁ_Ï_ÌÌ_È_ËÂÌÚ_3"/><linearGradient id="ÅÂÁ_Ï_ÌÌ_È_ËÂÌÚ_3-13" x1="33.22" y1="168.85" x2="53.04" y2="168.85" xlink:href="#ÅÂÁ_Ï_ÌÌ_È_ËÂÌÚ_3"/><linearGradient id="ÅÂÁ_Ï_ÌÌ_È_ËÂÌÚ_3-14" x1="33.22" y1="168.8" x2="53.04" y2="168.8" xlink:href="#ÅÂÁ_Ï_ÌÌ_È_ËÂÌÚ_3"/><linearGradient id="ÅÂÁ_Ï_ÌÌ_È_ËÂÌÚ_3-15" x1="33.22" y1="169.09" x2="53.04" y2="169.09" xlink:href="#ÅÂÁ_Ï_ÌÌ_È_ËÂÌÚ_3"/><linearGradient id="ÅÂÁ_Ï_ÌÌ_È_ËÂÌÚ_2-85" x1="9.31" y1="112.9" x2="37.29" y2="112.9" xlink:href="#ÅÂÁ_Ï_ÌÌ_È_ËÂÌÚ_2"/><linearGradient id="ÅÂÁ_Ï_ÌÌ_È_ËÂÌÚ_3-16" x1="33.22" y1="162.27" x2="53.04" y2="162.27" xlink:href="#ÅÂÁ_Ï_ÌÌ_È_ËÂÌÚ_3"/><linearGradient id="ÅÂÁ_Ï_ÌÌ_È_ËÂÌÚ_2-86" x1="9.31" y1="91.32" x2="37.29" y2="91.32" xlink:href="#ÅÂÁ_Ï_ÌÌ_È_ËÂÌÚ_2"/><linearGradient id="ÅÂÁ_Ï_ÌÌ_È_ËÂÌÚ_2-87" x1="9.31" y1="140.29" x2="37.29" y2="140.29" xlink:href="#ÅÂÁ_Ï_ÌÌ_È_ËÂÌÚ_2"/><linearGradient id="ÅÂÁ_Ï_ÌÌ_È_ËÂÌÚ_3-18" x1="20.39" y1="180.79" x2="32.55" y2="180.79" xlink:href="#ÅÂÁ_Ï_ÌÌ_È_ËÂÌÚ_3"/><linearGradient id="ÅÂÁ_Ï_ÌÌ_È_ËÂÌÚ_3-19" x1="20.39" y1="178.8" x2="32.55" y2="178.8" xlink:href="#ÅÂÁ_Ï_ÌÌ_È_ËÂÌÚ_3"/><linearGradient id="ÅÂÁ_Ï_ÌÌ_È_ËÂÌÚ_2-88" x1="9.31" y1="144.48" x2="37.29" y2="144.48" xlink:href="#ÅÂÁ_Ï_ÌÌ_È_ËÂÌÚ_2"/><linearGradient id="ÅÂÁ_Ï_ÌÌ_È_ËÂÌÚ_3-20" x1="20.38" y1="178.85" x2="32.55" y2="178.85" xlink:href="#ÅÂÁ_Ï_ÌÌ_È_ËÂÌÚ_3"/><linearGradient id="ÅÂÁ_Ï_ÌÌ_È_ËÂÌÚ_2-89" x1="9.31" y1="89.74" x2="37.29" y2="89.74" xlink:href="#ÅÂÁ_Ï_ÌÌ_È_ËÂÌÚ_2"/><linearGradient id="ÅÂÁ_Ï_ÌÌ_È_ËÂÌÚ_2-90" x1="9.31" y1="94.37" x2="37.29" y2="94.37" xlink:href="#ÅÂÁ_Ï_ÌÌ_È_ËÂÌÚ_2"/><linearGradient id="ÅÂÁ_Ï_ÌÌ_È_ËÂÌÚ_2-91" x1="9.31" y1="152.86" x2="37.29" y2="152.86" xlink:href="#ÅÂÁ_Ï_ÌÌ_È_ËÂÌÚ_2"/><linearGradient id="ÅÂÁ_Ï_ÌÌ_È_ËÂÌÚ_2-92" x1="9.31" y1="154.02" x2="37.29" y2="154.02" xlink:href="#ÅÂÁ_Ï_ÌÌ_È_ËÂÌÚ_2"/></defs><title>Home2</title><path class="cls-1" d="M182.43,80.35a63.42,63.42,0,0,1,2.69,31.19l-.05.14-.09.19v-.11a12.68,12.68,0,0,0-.46-3.41C186,95,183.38,84.41,179.9,76.76l1.45,2.77A1.52,1.52,0,0,0,182.43,80.35Z"/><path class="cls-2" d="M185,111.76v.11l-2.49,5.24-.2,2.49c-.26.32-.53.64-.82,1l-.14-.13-.09-.14.27-3.44,2.63-5.52c.15-1,.27-2,.38-3A12.68,12.68,0,0,1,185,111.76Z"/><path class="cls-3" d="M182.49,117.11l2.49-5.24a12.76,12.76,0,0,1-2.69,7.73Z"/><path class="cls-1" d="M179.9,76.76c3.48,7.65,6,18.27,4.62,31.59a12.78,12.78,0,0,0-2.61-4.91l-.64-.74L157.5,87.55V79.23a10.38,10.38,0,0,0-.61-3.49l-2.67-4.69-.28-8.75a.47.47,0,0,0,0-.17l1.54-.12,1.15,0a21.19,21.19,0,0,0,3.8,3.22l.08,0a.45.45,0,0,0,.16,0l.13,0a.31.31,0,0,0,.12,0,.36.36,0,0,0,.14-.11h0l.05-.06a.21.21,0,0,0,0-.07,0,0,0,0,0,0,0,.48.48,0,0,0,0-.29h0c0-.07-.06-.29-.14-.63-.13-.59-.26-1.2-.41-1.84l8,.3h0l.09,0,5.7,14a2.13,2.13,0,0,0,2.47-2.17l-1.19-5.22q.85,1.21,1.71,2.64Z"/><path class="cls-4" d="M183.09,67.7a14.91,14.91,0,0,1,1.51,9.23l-.33,2.13a1.55,1.55,0,0,1-1.84,1.29c-3.5-9.69-8.74-15.76-11.49-17.84-1.6-1.21-5.28-1.8-10.68-1.72-.48-2.16-1-4.57-1.67-7.09L174.82,58C176.27,58.53,183.09,67.7,183.09,67.7Z"/><path class="cls-5" d="M184.52,108.35c-.11,1-.23,2-.38,3l-2.63,5.52-.27,3.44a4,4,0,0,0-.66-.76l-1-.89,1.27-6.65-12.66-8.22-.27.17a15.76,15.76,0,0,0-2.4,2l-19.2-17.59c-.32-.3-.64-.6-.93-.91l7.63-.24a1.7,1.7,0,0,0,1.18-.53,1.72,1.72,0,0,0,.46-1.22l-.46-14.42,2.67,4.69a10.38,10.38,0,0,1,.61,3.49v8.32l23.77,15.15.64.74A12.78,12.78,0,0,1,184.52,108.35Z"/><path class="cls-1" d="M182.29,119.6,180,148.72c0,.18-1.81,16.78-18.77,17l.45-1c15.62-.52,17.26-15.47,17.32-16.12L180.71,127l1-2.73a4.32,4.32,0,0,0-.39-3.82l.14.13C181.76,120.24,182,119.92,182.29,119.6Z"/><path class="cls-1" d="M181.33,120.42a4.32,4.32,0,0,1,.39,3.82l-1,2.73.52-6.64Z"/><path class="cls-6" d="M182.43,80.35a1.52,1.52,0,0,1-1.08-.82l-1.45-2.77a46.75,46.75,0,0,0-2.59-5l-1.95-3.72.24,1.07a27.3,27.3,0,0,0-5.26-5.83l.6-.8C173.69,64.59,178.93,70.66,182.43,80.35Z"/><path class="cls-7" d="M181.24,120.28l.09.14-.1-.09Z"/><path class="cls-8" d="M181.24,120.28v0l-1.66-1.52,0-.18,1,.89A4,4,0,0,1,181.24,120.28Z"/><path class="cls-9" d="M181.23,120.33l-.52,6.64-.55,1.47a3.06,3.06,0,0,1-3.17,2l.64-1.44,1.94-10.16Z"/><path class="cls-10" d="M180.87,112l-1.27,6.65-.86-.78,1-5.4L168.22,105a15.74,15.74,0,0,0-1.93,1.69l-.75-.69a15.76,15.76,0,0,1,2.4-2l.27-.17Z"/><path class="cls-11" d="M179.9,76.76l-2.59-5A46.75,46.75,0,0,1,179.9,76.76Z"/><path class="cls-12" d="M179.76,112.45l-1,5.4L176.68,116l-.17,0-10.22-9.36a15.74,15.74,0,0,1,1.93-1.69Z"/><polygon class="cls-13" points="179.6 118.63 179.57 118.81 178.7 118.02 178.74 117.84 179.6 118.63"/><path class="cls-14" d="M178.7,118l.87.79L177.63,129l-.64,1.44a3,3,0,0,1-.91-.23l-.07,0,.68-1.53Z"/><polygon class="cls-15" points="178.74 117.84 178.7 118.02 176.51 116 176.68 115.97 178.74 117.84"/><polygon class="cls-16" points="176.51 116 178.7 118.02 176.69 128.62 176.01 130.15 165.32 125.52 159.6 124.52 161.61 116.42 165.1 117.67 176.51 116"/><path class="cls-1" d="M175.36,68.07l1.95,3.72q-.85-1.42-1.71-2.64h0Z"/><path class="cls-1" d="M177,130.41l-15.32,34.34h-.84v1h.39l-3,6.74-.35-1.68L176,130.15l.07,0A3,3,0,0,0,177,130.41Z"/><path class="cls-17" d="M176.79,74.37a2.13,2.13,0,0,1-2.47,2.17l-5.7-14a5.28,5.28,0,0,1,1.72.78,27.3,27.3,0,0,1,5.26,5.83h0Z"/><path class="cls-18" d="M170.94,62.51l-.6.8a5.28,5.28,0,0,0-1.72-.78v0h-.09a29.61,29.61,0,0,0-8-.71c-.06-.32-.14-.66-.22-1C165.66,60.71,169.34,61.3,170.94,62.51Z"/><path class="cls-1" d="M170.23,202.84a6.72,6.72,0,0,1-6.34,9,6.75,6.75,0,0,1-6.38-4.55L154.09,192l1-.22L158,204.82l.48,2.16a5.74,5.74,0,0,0,7.27,3.51,5.64,5.64,0,0,0,3.29-2.9,5.7,5.7,0,0,0,.28-4.38l-6.65-14.09.9-.42Z"/><path class="cls-1" d="M169.31,203.21a5.7,5.7,0,0,1-.28,4.38,5.64,5.64,0,0,1-3.29,2.9,5.74,5.74,0,0,1-7.27-3.51l-.48-2.16-2.92-13.09h0v-.06a3.92,3.92,0,0,1-.14-2l.52,1.27,3,13.8,9.55-3.63-6.5-12.71-.24-1.18a3.91,3.91,0,0,1,1.36,1.88l0,.05Z"/><path class="cls-1" d="M168.61,62.5v0l-.09,0Z"/><path class="cls-19" d="M168.52,62.5l-8-.3a3.38,3.38,0,0,0-.09-.41A29.61,29.61,0,0,1,168.52,62.5Z"/><path class="cls-20" d="M161.52,188.37l6.5,12.71-9.55,3.63-3-13.8-.52-1.27a4,4,0,0,1,2.64-3.06,4.13,4.13,0,0,1,1.3-.22,4.05,4.05,0,0,1,1.76.41,3.22,3.22,0,0,1,.66.42h0Z"/><path class="cls-1" d="M165.54,106l.75.69a15,15,0,0,0-3.94,6.78l-.74,3-1-.34.72-2.9A15.79,15.79,0,0,1,165.54,106Z"/><path class="cls-1" d="M146.34,88.37,165.54,106a15.79,15.79,0,0,0-4.16,7.23l-.72,2.9-17.89-6.35c-1.49-2.77-4.25-5.89-9.06-5.89a8.92,8.92,0,0,0-4.4,1.1l-1.7-.6c-4.1-1.45-8-1-11.4,1.63a41.63,41.63,0,0,1-2.46-5c-.11-.25-.2-.51-.3-.76a22.61,22.61,0,0,1-.86-2.77c-.07-.27-.14-.55-.19-.83l-.06-.31c0-.17-.06-.35-.08-.52a5,5,0,0,1-.08-.54c0-.25-.05-.5-.07-.75s0-.58,0-.87c0-3.53.87-19.21,15.93-26.35a7.54,7.54,0,0,1-2.78,2.94l.56.57a15.48,15.48,0,0,0,13.11,4.67,24.82,24.82,0,0,0,1.8,5.29l.17,5.18a1.7,1.7,0,0,0,1.7,1.64h.05l2.79-.09C145.7,87.77,146,88.07,146.34,88.37Z"/><path class="cls-1" d="M163.56,188.7l-.9.42,0-.05a3.91,3.91,0,0,0-1.36-1.88h0l-.27-1.33.05,0A5,5,0,0,1,163.56,188.7Z"/><path class="cls-1" d="M161.67,164.75l-.45,1h-.39v-1Z"/><polygon class="cls-21" points="161.61 116.42 159.6 124.52 158.61 124.34 160.66 116.08 161.61 116.42"/><path class="cls-22" d="M161,185.86l.27,1.33a3.22,3.22,0,0,0-.66-.42,4.05,4.05,0,0,0-1.76-.41,4.13,4.13,0,0,0-1.3.22,4,4,0,0,0-2.64,3.06l-.58-1.44a5.05,5.05,0,0,1,2.89-2.56A5,5,0,0,1,161,185.86Z"/><path class="cls-1" d="M161.12,64.69a.48.48,0,0,1,0,.29,0,0,0,0,1,0,0,.35.35,0,0,1-.08.13h0a.36.36,0,0,1-.14.11.26.26,0,0,1-.12,0l-.13,0a.41.41,0,0,1-.16,0,.08.08,0,0,1-.07,0l.31-.46Z"/><path class="cls-1" d="M161.12,65a.48.48,0,0,0,0-.29A.48.48,0,0,1,161.12,65Z"/><path class="cls-1" d="M161.12,64.68h0l-.4.11-.31.46a.12.12,0,0,1-.08,0c-.14-.11-.14-.11-.33-1l-.12-.54h0a7.94,7.94,0,0,0,1,.69.51.51,0,0,1,.23.27Z"/><path class="cls-1" d="M161,64c.08.34.12.56.14.63a.51.51,0,0,0-.23-.27,7.94,7.94,0,0,1-1-.69c0-.19-.08-.37-.13-.57l-.38-1.72c-.14-.67-.3-1.36-.47-2.08-.08-.35-.16-.71-.25-1.08,0-.18-.09-.36-.13-.54-.13-.56-.26-1.13-.41-1.71-.09-.38-.18-.77-.28-1.16s-.19-.77-.29-1.17c-.35-1.4-.72-2.83-1.1-4.27l-.27-1c-.43-1.6-.89-3.21-1.37-4.8-.2-.7-.42-1.4-.63-2.09q-.42-1.32-.84-2.58c-.23-.7-.47-1.39-.71-2.06-.13-.37-.27-.74-.4-1.1s-.27-.73-.41-1.08c-.27-.71-.54-1.39-.82-2-.56-1.32-1.12-2.55-1.7-3.64a.5.5,0,0,0,.44.27.53.53,0,0,0,.24-.06.52.52,0,0,0,.26-.56c3.22,6.16,6.17,16.27,8.35,25l-.6-.16,1.86,7.85v.41H160l.09.38.53,0C160.72,62.84,160.85,63.45,161,64Z"/><path class="cls-1" d="M161.11,65a.21.21,0,0,1,0,.07l-.05.06A.35.35,0,0,0,161.11,65Z"/><path class="cls-23" d="M158.22,172.5,161,185.86a5,5,0,0,0-3.78-.22,5.05,5.05,0,0,0-2.89,2.56L152.62,184l4.88-11.27.52.23Z"/><path class="cls-1" d="M160.77,65.31a.26.26,0,0,0,.12,0A.31.31,0,0,1,160.77,65.31Z"/><path class="cls-1" d="M160.64,65.33l.13,0Z"/><path class="cls-24" d="M160.66,116.09l-2,8.26-12.19-2.12-2-8.27a16.75,16.75,0,0,0-1.6-4.22Z"/><path class="cls-1" d="M160.48,65.3a.41.41,0,0,0,.16,0A.45.45,0,0,1,160.48,65.3Z"/><path class="cls-1" d="M160.48,61.79a3.38,3.38,0,0,1,.09.41l-.53,0L160,61.8Z"/><path class="cls-1" d="M160.48,61.79H160l-.1-.41V60.8h.42C160.34,61.13,160.42,61.47,160.48,61.79Z"/><path class="cls-1" d="M160.48,65.3l-.08,0h0A.08.08,0,0,0,160.48,65.3Z"/><path class="cls-1" d="M160.41,65.26h0a21.19,21.19,0,0,1-3.8-3.22l.79,0-.81-.85,0-.29h-.23c-2.45-2.61-6.59-7.23-7.83-9.91l-.51-.13a22.57,22.57,0,0,1-1.52-3.16.5.5,0,0,1,.94-.36,27.72,27.72,0,0,0,2.73,5.13c.14.22.28.44.44.67a57.78,57.78,0,0,0,4,5.21c.26.3.51.59.77.87,1,1.1,1.92,2.08,2.78,2.89l.22.21c.33.31.64.59.94.84l.57.47,0,0h0l.12.54c.19.86.19.86.33,1A.12.12,0,0,0,160.41,65.26Z"/><path class="cls-1" d="M160.26,60.79h-.42v.59L158,53.54l.6.16C159.21,56.22,159.78,58.63,160.26,60.79Z"/><path class="cls-1" d="M159.85,61.39l.1.41h-.09Z"/><path class="cls-1" d="M159.76,63.14c.05.2.09.38.13.57h0Z"/><polygon class="cls-1" points="159.6 124.52 153.29 149.97 152.78 147.88 155.16 138.26 155.67 138.38 155.88 137.4 155.4 137.29 158.61 124.34 159.6 124.52"/><path class="cls-1" d="M159.85,63.68l-.57-.47Z"/><path class="cls-1" d="M159.38,61.42c-.15-.67-.31-1.36-.47-2.08C159.08,60.06,159.24,60.75,159.38,61.42Z"/><path class="cls-1" d="M158.91,59.34c-.08-.35-.17-.72-.25-1.08C158.75,58.63,158.83,59,158.91,59.34Z"/><polygon class="cls-1" points="158.61 124.34 155.4 137.29 149.86 136.1 146.42 122.22 158.61 124.34"/><path class="cls-1" d="M158.53,57.72c-.13-.56-.27-1.13-.41-1.71C158.27,56.59,158.4,57.16,158.53,57.72Z"/><path class="cls-1" d="M158.12,62.16l.22.21Z"/><polygon class="cls-25" points="157.87 170.81 158.22 172.5 158.02 172.94 157.5 172.71 157.8 172.01 157.34 172.01 157.87 170.81"/><polygon class="cls-1" points="153.29 149.97 158.05 169.18 157.61 169.31 157.47 168.88 157.46 168.84 157.3 168.37 156.86 168.5 152.24 149.85 152.29 149.84 153.26 150.09 153.29 149.97"/><polygon class="cls-1" points="155.07 191.72 157.99 204.81 155.06 191.72 155.07 191.72"/><polygon class="cls-26" points="157.87 170.81 157.34 172.01 149.37 172.01 157.56 169.34 157.87 170.81"/><path class="cls-1" d="M157.84,54.85c-.1-.39-.19-.78-.29-1.17C157.65,54.08,157.75,54.47,157.84,54.85Z"/><polygon class="cls-27" points="157.8 172.01 157.5 172.71 157.11 172.53 157.34 172.01 157.8 172.01"/><polygon class="cls-1" points="157.47 168.88 157.61 169.31 157.56 169.34 157.47 168.88"/><polygon class="cls-1" points="157.47 168.88 157.56 169.34 149.37 172.01 147.76 172.01 157.46 168.84 157.47 168.88"/><polygon class="cls-28" points="157.11 172.53 157.5 172.71 152.62 183.97 147.95 172.49 149.37 172.01 157.34 172.01 157.11 172.53"/><path class="cls-1" d="M157.46,168.85l-9.7,3.17-.15.58-.13,0-.18-.41-2.85-6.46h.3l-.05-1c-.23,0-.46,0-.68,0h0L124.3,120.05h0l-.2-2.88h0L148,171.41l8.83-2.9.44-.14Z"/><path class="cls-1" d="M157.39,62.08l-.79,0-.11-.11h.13l0-.7Z"/><path class="cls-1" d="M156.58,61.23l0,.7h-.13c-.29-.3-.59-.61-.89-.94l.73,0C156.41,61.05,156.5,61.14,156.58,61.23Z"/><path class="cls-29" d="M156.49,61.94l.11.11-1.15,0Z"/><path class="cls-1" d="M156.56,60.94l0,.29c-.08-.09-.17-.18-.25-.28Z"/><path class="cls-1" d="M156.45,49.41l-.27-1Z"/><polygon class="cls-1" points="155.88 137.4 155.67 138.38 155.16 138.26 155.4 137.29 155.88 137.4"/><path class="cls-1" d="M155.6,61c.3.33.6.64.89.94l-1,.07L153.88,62a1.65,1.65,0,0,0-.44-.78C154.19,61.1,154.91,61.05,155.6,61Z"/><path class="cls-1" d="M156.33,61l-.73,0A56,56,0,0,1,148,50.91l.51.13C149.74,53.72,153.88,58.34,156.33,61Z"/><path class="cls-1" d="M153.88,62l1.57.06-1.54.12A.38.38,0,0,0,153.88,62Z"/><polygon class="cls-1" points="155.4 137.29 155.16 138.26 150.12 137.19 149.86 136.1 155.4 137.29"/><path class="cls-1" d="M155.05,191.67v.06l-1,.22a4.91,4.91,0,0,1,.24-3.75l.58,1.44A3.92,3.92,0,0,0,155.05,191.67Z"/><path class="cls-1" d="M155.34,59.27c-.26-.28-.51-.57-.77-.87Z"/><path class="cls-30" d="M154.68,85.47a1.72,1.72,0,0,1-.46,1.22,1.7,1.7,0,0,1-1.18.53l-7.63.24c-.32-.31-.62-.64-.91-1l8.51-.27a.68.68,0,0,0,.48-.22.66.66,0,0,0,.19-.5l-.39-12.27.4-3.11.53.93Z"/><path class="cls-1" d="M154.18,41.54c.21.69.43,1.39.63,2.09Z"/><path class="cls-1" d="M154.22,71.05l-.53-.93-.4,3.11L153,63.59h.35l0-1H153v-.26a.71.71,0,0,0-.17-.42h.5l0,.27.62-.06a.47.47,0,0,1,0,.17Z"/><path class="cls-31" d="M155.6,61c-.69,0-1.41.1-2.16.17l0-.05a1.73,1.73,0,0,0-1.21-.46l-5.77.18a7,7,0,0,1-1.18-1.66l-1.67-3.24a18.35,18.35,0,0,0,2.1-5.64l2.32.61A56,56,0,0,0,155.6,61Z"/><path class="cls-1" d="M153.91,62.13l-.62.06,0-.27.61,0A.38.38,0,0,1,153.91,62.13Z"/><path class="cls-1" d="M153.88,62l-.61,0-.07-.73.24,0A1.65,1.65,0,0,1,153.88,62Z"/><path class="cls-32" d="M153.68,85.5a.66.66,0,0,1-.19.5.68.68,0,0,1-.48.22l-8.51.27a24.44,24.44,0,0,1-2.73-3.75l-.36-11.16,11.66,3.33.22-1.68Z"/><path class="cls-1" d="M153.4,61.12l0,.05-.24,0,.07.73h-.5l-.05-.06a.71.71,0,0,0-.5-.19l-3.23.1-7.17-.27,5.1-.16a5.81,5.81,0,0,1-.5-.49l5.77-.18A1.73,1.73,0,0,1,153.4,61.12Z"/><polygon class="cls-1" points="153.3 62.58 153.33 63.58 152.98 63.59 152.95 62.59 153.3 62.58"/><polygon class="cls-1" points="152.78 147.88 153.29 149.97 153.26 150.09 152.29 149.84 152.78 147.88"/><path class="cls-1" d="M153.34,39c-.23-.7-.47-1.39-.71-2.06C152.87,37.57,153.11,38.26,153.34,39Z"/><polygon class="cls-1" points="152.95 62.59 152.98 63.59 141.17 63.97 141.14 62.97 152.95 62.59"/><polygon class="cls-1" points="152.78 147.88 152.29 149.84 152.24 149.85 145.34 122.03 146.42 122.22 149.86 136.1 149.55 136.03 149.34 137.01 150.12 137.19 152.78 147.88"/><path class="cls-33" d="M152.72,61.85l.05.06L149,61.76l3.23-.1A.71.71,0,0,1,152.72,61.85Z"/><path class="cls-34" d="M152.62,184,151,187.76a5,5,0,0,0-6.66-2.42l3.29-12.74.34-.11Z"/><path class="cls-1" d="M152.23,35.8c-.14-.37-.27-.73-.41-1.08C152,35.07,152.1,35.43,152.23,35.8Z"/><path class="cls-1" d="M151.82,34.72c-.27-.71-.54-1.39-.82-2C151.28,33.33,151.55,34,151.82,34.72Z"/><path class="cls-1" d="M151,187.76a5,5,0,0,1,.23,3.68l-3.3,15.19,3.3-15.22-1-.21v-.06a4.07,4.07,0,0,0,.14-2Z"/><path class="cls-1" d="M151.21,191.41l-3.3,15.22v.05a3.71,3.71,0,0,1-.22.55,4,4,0,0,1-.22.47,4.39,4.39,0,0,1-.27.47,4.27,4.27,0,0,1-.3.44,7,7,0,0,1-1.09,1.15c-.11.1-.24.19-.36.28a5.21,5.21,0,0,1-.55.36,6.9,6.9,0,0,1-.86.43,6.64,6.64,0,0,1-.86.28l-.69.15-.45.05-.54,0a6.57,6.57,0,0,1-2.13-.36,6.73,6.73,0,0,1-4.24-8.52l6.6-14.23.91.42-6.58,14.18a5.73,5.73,0,0,0,10.88,3.6l.36-1.67,3-13.55Z"/><path class="cls-35" d="M151,187.76l-.59,1.37a4,4,0,0,0-2.66-3.06,4.08,4.08,0,0,0-1.28-.21,4,4,0,0,0-2.49.87l.36-1.39a5,5,0,0,1,6.66,2.42Z"/><path class="cls-1" d="M150.14,52.52l.44.67C150.42,53,150.28,52.74,150.14,52.52Z"/><path class="cls-1" d="M150.39,189.13a4.07,4.07,0,0,1-.14,2v.06h0l-2.94,13.55-.36,1.67a5.73,5.73,0,0,1-10.88-3.6l6.58-14.18,0,0a4,4,0,0,1,1.31-1.86l-.42,1.64-6,12.71,9.55,3.63,2.67-14.13Z"/><path class="cls-36" d="M150.39,189.13l-.63,1.45-2.67,14.13-9.55-3.63,6-12.71.42-1.64a4,4,0,0,1,2.49-.87,4.08,4.08,0,0,1,1.28.21A4,4,0,0,1,150.39,189.13Z"/><path class="cls-1" d="M150.24,28.68a.52.52,0,0,1-.26.56.53.53,0,0,1-.24.06.5.5,0,1,1,.45-.73A.54.54,0,0,1,150.24,28.68Z"/><polygon class="cls-1" points="150.24 191.19 147.29 204.75 150.23 191.19 150.24 191.19"/><polygon class="cls-1" points="149.86 136.1 150.12 137.19 149.34 137.01 149.55 136.03 149.86 136.1"/><path class="cls-1" d="M150.19,28.57a.5.5,0,0,0-.89.46c-5.85-11.12-13.54-15-17.15-15.6-3.2-.51-7.2.47-11.91,2.88l-.08,0-.14.07-.13.07-.26.14a12.2,12.2,0,0,0-1.44.94l-.34.27a7.5,7.5,0,0,0-1.53,1.64l0-.76a4.49,4.49,0,0,1-.67-.1l.2-.24.22-.26.22-.24c.16-.16.31-.31.47-.45a5.82,5.82,0,0,1,.48-.41c.24-.2.48-.38.71-.54a4.73,4.73,0,0,1,.44-.29l.21-.13a2.09,2.09,0,0,1,.27-.16l.29-.17.2-.11.21-.1.22-.11c.51-.25,1-.5,1.49-.72,4.28-2,7.9-2.73,11-2.25C136.1,13,144.15,17.09,150.19,28.57Z"/><polygon class="cls-1" points="149.37 172.01 147.95 172.49 147.76 172.01 149.37 172.01"/><path class="cls-1" d="M149,61.76,141.8,62a.71.71,0,0,0-.67.72V63l-.5,0v-.26a1.21,1.21,0,0,1,.54-1l.62-.2h0Z"/><polygon class="cls-1" points="147.76 172.01 147.95 172.49 147.61 172.59 147.76 172.01"/><path class="cls-1" d="M147.46,207.7a4,4,0,0,0,.22-.47A2.86,2.86,0,0,1,147.46,207.7Z"/><path class="cls-1" d="M147.19,208.17a4.39,4.39,0,0,0,.27-.47A4.39,4.39,0,0,1,147.19,208.17Z"/><path class="cls-1" d="M146.89,208.61a4.27,4.27,0,0,0,.3-.44A2.45,2.45,0,0,1,146.89,208.61Z"/><path class="cls-1" d="M147.41,47.39a.5.5,0,0,0-.94.36,10.83,10.83,0,0,0-.45-1v-.33a4.54,4.54,0,0,0-.81-2.55A12.07,12.07,0,0,1,147.41,47.39Z"/><path class="cls-1" d="M146.92,61.33l-5.1.16h0a1.2,1.2,0,0,0-.62.2l-.88.29a1.37,1.37,0,0,1,.3-.45,1.71,1.71,0,0,1,1.18-.54l4.65-.15A5.81,5.81,0,0,0,146.92,61.33Z"/><path class="cls-37" d="M144.37,114l2,8.27-1.08-.19-2-7.86a15.33,15.33,0,0,0-2-5l1.41.51A16.75,16.75,0,0,1,144.37,114Z"/><path class="cls-38" d="M146.42,60.84l-4.65.15a1.71,1.71,0,0,0-1.18.54,1.37,1.37,0,0,0-.3.45l-3.63,1.19-.13-.41a3.86,3.86,0,0,0,.95-.43,18.6,18.6,0,0,0,6.09-6.39l1.67,3.24A7,7,0,0,0,146.42,60.84Z"/><path class="cls-1" d="M145.8,209.76a7,7,0,0,0,1.09-1.15A6,6,0,0,1,145.8,209.76Z"/><path class="cls-39" d="M146,46.76v.09a18.77,18.77,0,0,1-.35,3.45l-4.83.35-.62-1.21L135.57,51l-5.3.39a1.73,1.73,0,0,1-.32-.92c-.1-2.48-.41-6.9-1.3-9.12a34.1,34.1,0,0,0-5.41-8.59,20.56,20.56,0,0,0,4.82,2.14C132.56,36.19,142.89,40.82,146,46.76Z"/><path class="cls-40" d="M146,46.43v.33c-3.13-5.94-13.46-10.57-18-11.83a20.56,20.56,0,0,1-4.82-2.14,24.78,24.78,0,0,0-2.65-2.67l1.41.64a21,21,0,0,0,6.34,3.2c.92.26,2.07.66,3.35,1.17h0l3.54,1.6a32.72,32.72,0,0,1,10,7.15A4.54,4.54,0,0,1,146,46.43Z"/><path class="cls-1" d="M145.44,210c.12-.09.25-.18.36-.28A1.93,1.93,0,0,1,145.44,210Z"/><path class="cls-41" d="M140.84,50.65l4.83-.35a18.35,18.35,0,0,1-2.1,5.64Z"/><path class="cls-1" d="M145.41,87.46l-2.79.09h-.05a1.7,1.7,0,0,1-1.7-1.64l-.17-5.18c.33.69.68,1.36,1.07,2l.1,3.14a.66.66,0,0,0,.72.67l1.91-.06C144.79,86.82,145.09,87.15,145.41,87.46Z"/><path class="cls-42" d="M143.39,114.18l2,7.86-16.13-2.81a10.94,10.94,0,0,1-5.09-2.36A19.19,19.19,0,0,1,126,110a9.08,9.08,0,0,1,4.6-4.56l10.73,3.81A15.33,15.33,0,0,1,143.39,114.18Z"/><path class="cls-1" d="M144.89,210.4l-.39.22a4.84,4.84,0,0,1-.47.21A6.9,6.9,0,0,0,144.89,210.4Z"/><path class="cls-1" d="M144.7,164.76l.05,1h-.3l-.43-1h0C144.24,164.78,144.47,164.77,144.7,164.76Z"/><path class="cls-1" d="M144.57,65.81a1.45,1.45,0,0,1-1.45,1.67,1.42,1.42,0,0,1-.87-.29,1.47,1.47,0,0,1-.3-2,1.5,1.5,0,0,1,1-.57,1.45,1.45,0,0,1,1.08.28A1.38,1.38,0,0,1,144.57,65.81Zm-1.07.49a.47.47,0,0,0,.09-.28.47.47,0,0,0-.46-.46h-.07a.5.5,0,0,0-.31.18.46.46,0,0,0,.1.65A.47.47,0,0,0,143.5,66.3Z"/><path class="cls-1" d="M144,164.78l.43,1h-.8a18.74,18.74,0,0,1-6.17-1,5.51,5.51,0,0,0,.06-.57l-1-.07a2.48,2.48,0,0,1,0,.27l-.58-.24a0,0,0,0,0,0,0,17.57,17.57,0,0,1-2.69-1.57h0l-.78-.6a16.43,16.43,0,0,1-2.08-2,17.65,17.65,0,0,1-1.13-1.39,4.22,4.22,0,0,1-.27-.36l-.47-.7c-.09-.12-.16-.24-.24-.36s-.23-.38-.33-.57a1.65,1.65,0,0,1-.15-.25l-.31-.56c-.12-.22-.23-.45-.34-.66s-.11-.22-.16-.33c-.2-.43-.38-.84-.54-1.22-.08-.19-.15-.38-.22-.56s-.13-.35-.19-.51-.16-.48-.22-.68-.09-.27-.12-.38l-.16-.57.27.08.35-.94a6.6,6.6,0,0,0-.75-.28l-2.27-32.35.06.06,1.12,2.55,2.11,30,0,.45a.51.51,0,0,0,0,.09q0,.09.06.27c0,.08,0,.16.07.26s.06.2.09.32.11.37.18.58l.24.69q.14.38.3.78a21.32,21.32,0,0,0,2,3.71c.14.22.29.43.45.65a16.25,16.25,0,0,0,1.32,1.63c.14.16.3.32.45.48l.15.15.32.31a15.52,15.52,0,0,0,3.43,2.47,15.3,15.3,0,0,0,2.86,1.18,18.64,18.64,0,0,0,5.35.74Z"/><path class="cls-1" d="M144.45,165.77a19,19,0,0,1-7-1h0a18.74,18.74,0,0,0,6.17,1Z"/><path class="cls-1" d="M144.32,185.34l-.36,1.39a4,4,0,0,0-1.31,1.86l0,0-.91-.42A4.91,4.91,0,0,1,144.32,185.34Z"/><path class="cls-1" d="M144,164.77h0Z"/><path class="cls-1" d="M144,164.78h0Z"/><path class="cls-1" d="M143.59,66a.47.47,0,0,1-.09.28.47.47,0,0,1-.65.09.46.46,0,0,1-.1-.65.5.5,0,0,1,.31-.18h.07a.47.47,0,0,1,.46.46Z"/><path class="cls-43" d="M140.84,50.65l2.73,5.29a18.6,18.6,0,0,1-6.09,6.39,3.86,3.86,0,0,1-.95.43.58.58,0,0,1-.19,0l.28-.08c-.37-1.34-.92-3.16-1.45-4.92l.08,0c3.47-1,4.62-5.67,4.89-7.08Z"/><path class="cls-1" d="M143.17,211.11a6.64,6.64,0,0,0,.86-.28A5.39,5.39,0,0,1,143.17,211.11Z"/><path class="cls-1" d="M142.77,109.74l-1.41-.51a8.83,8.83,0,0,0-7.65-4.38,8.15,8.15,0,0,0-3.08.57l-1.32-.47a8.92,8.92,0,0,1,4.4-1.1C138.52,103.85,141.28,107,142.77,109.74Z"/><path class="cls-1" d="M142,211.31l.45-.05Z"/><path class="cls-1" d="M141.79,61.49l-.62.2A1.2,1.2,0,0,1,141.79,61.49Z"/><path class="cls-44" d="M141.77,82.74c-.39-.65-.74-1.32-1.07-2l-.17-5.58L141,75l-.12-3.6.5.14Z"/><polygon class="cls-1" points="141.17 63.97 141.41 71.58 140.91 71.44 140.67 63.98 141.17 63.97"/><polygon class="cls-1" points="141.14 62.97 141.17 63.97 140.67 63.98 140.64 62.98 141.14 62.97"/><path class="cls-1" d="M140.29,62l.88-.29a1.21,1.21,0,0,0-.54,1V63h-.15v.45l-.09-.58-.27,0v-.17A1.62,1.62,0,0,1,140.29,62Z"/><path class="cls-45" d="M140.91,71.44,141,75l-.5.11-.13-3.85Z"/><path class="cls-1" d="M140.67,64l.24,7.45-.51-.14-.23-7.38.35-.06V64Z"/><path class="cls-46" d="M140.22,49.44l.62,1.21-.7.05c.05-.25.07-.4.07-.4a2.24,2.24,0,0,1-.21.41l-4.43.32Z"/><path class="cls-47" d="M140.53,75.15l.17,5.58a24.82,24.82,0,0,1-1.8-5.29A12.94,12.94,0,0,0,140.53,75.15Z"/><path class="cls-1" d="M140.64,63l0,1h-.15v-.13h0l-.07-.41V63Z"/><path class="cls-1" d="M140.5,63.44l.07.41h0Z"/><path class="cls-48" d="M140.4,71.3l.13,3.85a12.94,12.94,0,0,1-1.63.29c-.06-.28-.12-.57-.17-.85l-.33-1.8a1.38,1.38,0,0,1,1.74-1.57Z"/><path class="cls-1" d="M140.5,63.44l0,.42-.35.06,0-1,.27,0Z"/><path class="cls-49" d="M140.4,71.3l-.26-.08a1.38,1.38,0,0,0-1.74,1.57l.33,1.8c.05.28.11.57.17.85a15.48,15.48,0,0,1-13.11-4.67l-.56-.57A7.54,7.54,0,0,0,128,67.26a35.37,35.37,0,0,1,9.06-2.82c1.06-.19,2.1-.36,3.1-.52Z"/><path class="cls-50" d="M136.66,63.17,140.29,62a1.62,1.62,0,0,0-.16.76v.17c-1,.17-2.13.35-3.24.55s-2.33.46-3.43.76Z"/><path class="cls-51" d="M140.21,50.3s0,.15-.07.4H140A2.24,2.24,0,0,0,140.21,50.3Z"/><path class="cls-1" d="M140.14,62.91l0,1c-1,.16-2,.33-3.1.52l-.17-1C138,63.26,139.09,63.08,140.14,62.91Z"/><path class="cls-51" d="M140,50.71h.14c-.27,1.41-1.42,6-4.89,7.08l-.08,0c-.36-1.17-.72-2.31-1-3.27l.11,0C138.06,53.29,139.52,51.5,140,50.71Z"/><path class="cls-52" d="M135.57,51l4.43-.32c-.48.79-1.94,2.58-5.73,3.79l-.11,0c-.46-1.48-.79-2.51-.79-2.51l-.89.08Z"/><path class="cls-53" d="M145.21,43.88a32.72,32.72,0,0,0-10-7.15l1.06.48a10.84,10.84,0,0,1,2.85,1.47C141.12,40.12,143.86,41.79,145.21,43.88Z"/><path class="cls-1" d="M137.54,164.22a5.51,5.51,0,0,1-.06.57c-.33-.11-.66-.23-1-.36h0a2.48,2.48,0,0,0,0-.27Z"/><path class="cls-1" d="M137.48,164.79h0a10.22,10.22,0,0,1-1-.37C136.82,164.56,137.15,164.68,137.48,164.79Z"/><path class="cls-1" d="M136.9,63.46l.17,1A35.37,35.37,0,0,0,128,67.26a7,7,0,0,0,.54-1.33c.4-.18.81-.35,1.22-.5l3.63-1.19.07,0C134.57,63.92,135.71,63.67,136.9,63.46Z"/><path class="cls-1" d="M136.51,164.43a10.22,10.22,0,0,0,1,.37c-1.09,9.14-12.08,10.86-12.2,10.87H52.54v-1.39H53V164h-.5v-2.18l.4-.08c.56-.11,55.63-11.54,61.74-12.72a20.16,20.16,0,0,1,3.58-.37l-30.79-9.44.57.11.06-1,35.34,10.83a17.21,17.21,0,0,1,1.94.54l.06.84s0,.12.07.3l-2.18-.67a20.61,20.61,0,0,0-8.46-.2c-5.83,1.13-56.3,11.59-61.33,12.64v12h71.67S135.68,173,136.51,164.43Z"/><path class="cls-54" d="M136.53,62.76l.13.41-3.19,1-.07,0a34.3,34.3,0,0,0-3.63,1.19l-1.18.39a7.45,7.45,0,0,0,.21-3.23l-.28-1.84a17.23,17.23,0,0,0,5,1.92c.42.08,1,.16,1.6.22l.42,0a2.31,2.31,0,0,0,.37,0,.36.36,0,0,0,.14,0l.29-.06A.58.58,0,0,0,136.53,62.76Z"/><path class="cls-55" d="M136.62,62.72l-.28.08-.29.06-.14,0a2.31,2.31,0,0,1-.37,0l-.42,0c-.56-.06-1.18-.14-1.6-.22a17.23,17.23,0,0,1-5-1.92L128.26,59c1.43.38,2.33.52,2.36.53l.15-1a27.34,27.34,0,0,1-2.67-.62L127.67,55c1.56,1.37,4.63,3.57,7.5,2.76C135.7,59.56,136.25,61.38,136.62,62.72Z"/><path class="cls-1" d="M136.51,164.42h0l-.58-.25Z"/><path class="cls-1" d="M135.93,164.18l.58.25c-.83,8.6-11.27,10.24-11.3,10.25H53.54v-12c5-1,55.5-11.51,61.33-12.64a20.61,20.61,0,0,1,8.46.2l2.18.67.16.57c0,.11.07.24.12.38s.14.43.22.68l.19.51c.07.18.14.37.22.56.16.38.34.79.54,1.22.05.11.1.22.16.33s.22.44.34.66l.31.56a1.65,1.65,0,0,0,.15.25c.1.19.22.38.33.57s.15.24.24.36.3.47.47.7a4.22,4.22,0,0,0,.27.36,16,16,0,0,0,1.13,1.39,16.43,16.43,0,0,0,2.08,2q.38.31.78.6h0a15.68,15.68,0,0,0,2.69,1.57A0,0,0,0,1,135.93,164.18Z"/><path class="cls-56" d="M135.91,62.88l.14,0A.36.36,0,0,1,135.91,62.88Z"/><path class="cls-57" d="M135.54,62.91a2.31,2.31,0,0,0,.37,0A2.31,2.31,0,0,1,135.54,62.91Z"/><path class="cls-1" d="M135.46,162.86a16.45,16.45,0,0,0,2.86,1.18A15.3,15.3,0,0,1,135.46,162.86Z"/><path class="cls-58" d="M135.57,51l-3.09,1.07-.65,0a1.72,1.72,0,0,1-1.56-.73Z"/><path class="cls-1" d="M135.24,36.73l-3.54-1.6C132.81,35.58,134,36.12,135.24,36.73Z"/><path class="cls-51" d="M134.16,54.53c.29,1,.65,2.1,1,3.27-2.87.81-5.94-1.39-7.5-2.76l-.08-.48A9.57,9.57,0,0,0,134.16,54.53Z"/><path class="cls-1" d="M133.23,162.6a17.57,17.57,0,0,0,2.69,1.57A15.68,15.68,0,0,1,133.23,162.6Z"/><path class="cls-1" d="M133.4,64.24l-3.63,1.19A34.3,34.3,0,0,1,133.4,64.24Z"/><path class="cls-59" d="M133.37,52s.33,1,.79,2.51a9.57,9.57,0,0,1-6.57,0l-.11-.75,5-1.71Z"/><path class="cls-1" d="M132.44,162l.78.6Q132.82,162.31,132.44,162Z"/><path class="cls-60" d="M126.63,54.05l0,0a13.77,13.77,0,0,0,1,1l.43,2.88a35.35,35.35,0,0,1-5.83-2.23h0a20.29,20.29,0,0,1-1.46-1.81,8.51,8.51,0,0,1-1-1.69l10.41-.76a1.72,1.72,0,0,0,1.56.73l.65,0-5,1.71.11.75a5.55,5.55,0,0,1-.93-.48S126.64,54.05,126.63,54.05Z"/><path class="cls-1" d="M131.71,160.08l.32.31Z"/><path class="cls-61" d="M122,30.76l9.69,4.37c-1.28-.51-2.43-.91-3.35-1.17A21,21,0,0,1,122,30.76Z"/><path class="cls-1" d="M131.11,159.45q.21.24.45.48C131.41,159.77,131.25,159.61,131.11,159.45Z"/><path class="cls-62" d="M130.77,58.54l-.15,1s-.93-.15-2.36-.53l-.16-1.08A27.34,27.34,0,0,0,130.77,58.54Z"/><path class="cls-63" d="M129.31,105l1.32.47A9.08,9.08,0,0,0,126,110a19.19,19.19,0,0,0-1.91,6.89c-.2-.17-.41-.34-.6-.53l-.31-.36a19.89,19.89,0,0,1,1.93-6.46A10.55,10.55,0,0,1,129.31,105Z"/><path class="cls-64" d="M130.27,51.42l-10.41.76a10.08,10.08,0,0,1-.76-2.58l-.65-4.19c-.85-2.12-2.56-4.61-1.64-6.69l3.5-8a26.4,26.4,0,0,0,2.93,2,34.1,34.1,0,0,1,5.41,8.59c.89,2.22,1.2,6.64,1.3,9.12A1.73,1.73,0,0,0,130.27,51.42Z"/><path class="cls-1" d="M129.34,157.17c.15.22.29.43.45.65C129.63,157.6,129.48,157.39,129.34,157.17Z"/><path class="cls-65" d="M128.59,65.82l1.18-.39c-.41.15-.82.32-1.22.5A.36.36,0,0,0,128.59,65.82Z"/><path class="cls-1" d="M129.23,158.61a17.65,17.65,0,0,0,1.13,1.39A16,16,0,0,1,129.23,158.61Z"/><path class="cls-66" d="M127.61,104.35l1.7.6a10.55,10.55,0,0,0-4.17,4.57,19.89,19.89,0,0,0-1.93,6.46c-.69-.83-1.8-2.2-3-3.93-.16-.21-.32-.43-.47-.66s-.26-.44-.38-.66l-1.44-2a.83.83,0,0,1-.08-.12l-.36-.57c-.19-.3-.37-.59-.55-.9s-.45-.75-.67-1.14C119.59,103.3,123.51,102.9,127.61,104.35Z"/><path class="cls-67" d="M128.8,62.59a7.45,7.45,0,0,1-.21,3.23L115,70.27l-.49-8.95-.48-8.72.27,0h1.35a31,31,0,0,0,8.55,5.07,24.65,24.65,0,0,0,4.3,3.1Z"/><path class="cls-1" d="M128.49,157.55l.47.7C128.79,158,128.64,157.79,128.49,157.55Z"/><path class="cls-68" d="M128.26,59l.26,1.75a24.65,24.65,0,0,1-4.3-3.1A34.56,34.56,0,0,0,128.26,59Z"/><path class="cls-69" d="M128.1,57.92l.16,1.08a34.56,34.56,0,0,1-4-1.35,25.75,25.75,0,0,1-2-2A35.35,35.35,0,0,0,128.1,57.92Z"/><path class="cls-1" d="M128.55,65.93a7,7,0,0,1-.54,1.33C113,74.4,112.08,90.08,112.08,93.61q0,.44,0,.87c0,.25,0,.5.07.75a5,5,0,0,0,.08.54c0,.17,0,.35.08.52l.06.31c0,.27.12.55.19.83a22.61,22.61,0,0,0,.86,2.77c.09.25.19.51.3.76a41.63,41.63,0,0,0,2.46,5l-.18.14,1.76,2.47a.83.83,0,0,0,.08.12l.2.31c.31.49.63,1,.94,1.41.21.3.41.6.62.88l.08.13a.21.21,0,0,1,0,.06,20.57,20.57,0,0,0,3.77,4.84c.27.33.44.51.45.53l.09.13,0,.09v0l0,0h0l-1,.08v.16l-.15-.16-.2-.24-.25-.29c-.72-.86-1.91-2.32-3.27-4.18-.62-.86-1.27-1.8-1.94-2.81l-.54-.84q-.54-.85-1.08-1.77a43.81,43.81,0,0,1-2.54-5c-.25-.57-.48-1.15-.69-1.72l0-.12c-.12-.33-.23-.65-.33-1s-.2-.65-.29-1a18.6,18.6,0,0,1-.58-2.84c0-.25-.06-.49-.08-.73,0-.4,0-.79,0-1.18C111.08,83.25,115.83,71.47,128.55,65.93Z"/><path class="cls-1" d="M127.92,156.62c.1.19.22.38.33.57C128.14,157,128,156.81,127.92,156.62Z"/><path class="cls-51" d="M127.59,54.56l.08.48a13.77,13.77,0,0,1-1-1A5.55,5.55,0,0,0,127.59,54.56Z"/><path class="cls-1" d="M127.46,155.81l.31.56Z"/><path class="cls-1" d="M127.12,155.15c.11.21.22.44.34.66C127.34,155.59,127.22,155.36,127.12,155.15Z"/><path class="cls-1" d="M127.09,152.68q.14.38.3.78Q127.23,153.06,127.09,152.68Z"/><path class="cls-1" d="M127.09,152.68l-.24-.69C126.92,152.2,127,152.44,127.09,152.68Z"/><path class="cls-1" d="M126.67,151.41c0,.17.11.37.18.58C126.78,151.78,126.72,151.58,126.67,151.41Z"/><path class="cls-51" d="M126.66,54.08l0,0S126.65,54.06,126.66,54.08Z"/><path class="cls-1" d="M126.58,151.09c0,.09.06.2.09.32C126.64,151.29,126.61,151.19,126.58,151.09Z"/><path class="cls-1" d="M126.51,150.83c0,.07,0,.16.07.26C126.55,151,126.53,150.91,126.51,150.83Z"/><path class="cls-1" d="M126.42,153.6c.16.38.34.79.54,1.22C126.76,154.39,126.58,154,126.42,153.6Z"/><path class="cls-1" d="M126.51,150.83q0-.18-.06-.27C126.46,150.62,126.49,150.71,126.51,150.83Z"/><polygon class="cls-1" points="124.3 120.05 126.4 150.01 124.29 120.02 124.3 120.03 124.3 120.05"/><path class="cls-1" d="M126.13,150l-.35.94-.27-.08c0-.18-.07-.29-.07-.3l-.06-.84A6.6,6.6,0,0,1,126.13,150Z"/><path class="cls-1" d="M126,152.53c.06.16.13.33.19.51Z"/><path class="cls-1" d="M125.67,151.47c0,.11.07.24.12.38C125.74,151.71,125.7,151.58,125.67,151.47Z"/><path class="cls-1" d="M124.3,120v0l-1.12-2.55-.06-.06h0v-.16l1-.08Z"/><path class="cls-1" d="M124.22,57.65a31,31,0,0,1-8.55-5.07h.63v-.14l.7-.06a28.21,28.21,0,0,0,5.27,3.3h0A25.75,25.75,0,0,0,124.22,57.65Z"/><path class="cls-1" d="M124.1,117.09l0,.06,0,0Z"/><path class="cls-1" d="M124.12,116.87c0,.08,0,.15,0,.22l0-.09-.09-.13s-.18-.2-.45-.53C123.71,116.53,123.92,116.7,124.12,116.87Z"/><path class="cls-1" d="M123.52,116.34a20.57,20.57,0,0,1-3.77-4.84l.41.55c1.25,1.73,2.36,3.1,3,3.93Z"/><path class="cls-1" d="M123.11,117.4s-.09-.1-.15-.16Z"/><path class="cls-1" d="M122.76,117l-.25-.29Z"/><path class="cls-70" d="M120.81,53.87a20.29,20.29,0,0,0,1.46,1.81,28.21,28.21,0,0,1-5.27-3.3l2.86-.2A8.51,8.51,0,0,0,120.81,53.87Z"/><path class="cls-1" d="M122,30.76l-1.41-.64-.28.64c-2.74-2.22-5-5-5.65-7.7a.49.49,0,0,0,.6.37.5.5,0,0,0,.37-.61C116.31,25.61,118.92,28.55,122,30.76Z"/><path class="cls-71" d="M120.59,30.12a24.78,24.78,0,0,1,2.65,2.67,26.4,26.4,0,0,1-2.93-2Z"/><path class="cls-1" d="M119.81,15.41c.5-.26,1-.5,1.49-.72C120.81,14.91,120.32,15.16,119.81,15.41Z"/><path class="cls-1" d="M119.69,111.39c.15.23.31.45.47.66l-.41-.55a.21.21,0,0,0,0-.06S119.7,111.41,119.69,111.39Z"/><path class="cls-1" d="M120.16,16.35l-.14.07Z"/><path class="cls-1" d="M119.89,16.49l-.26.14Z"/><path class="cls-1" d="M119.71,111.44l-.08-.13a.21.21,0,0,0,.06.08S119.71,111.42,119.71,111.44Z"/><path class="cls-1" d="M119.38,15.62l.21-.1Z"/><path class="cls-1" d="M118.89,15.9l.29-.17Z"/><path class="cls-1" d="M118.62,16.06l-.21.13Z"/><path class="cls-1" d="M118.07,109c.31.48.62,1,.94,1.41C118.7,110,118.38,109.51,118.07,109Z"/><path class="cls-1" d="M87.47,139.24l30.79,9.44a20.16,20.16,0,0,0-3.58.37c-6.11,1.18-61.18,12.61-61.74,12.72l-.4.08V164H43.31l-1-.22a8.49,8.49,0,0,0-1.52-2A9.14,9.14,0,0,0,35,159.35c.14-1.72.28-3.49.43-5.29l.43-.34a1.69,1.69,0,0,0,.62-1.14,1.63,1.63,0,0,0-.36-1.24l-.41-.52c.11-1.29.21-2.53.32-3.74.05-.65.11-1.28.17-1.9q.16-1.81.33-3.51.33-3.43.64-6.33c.05-.48.1-.94.15-1.4.08-.75.16-1.46.24-2.15,0-.28.07-.56.1-.82.12-1,.24-2,.35-2.86.06-.39.11-.76.16-1.12.64-4.56,1-9.64,1.2-14.48,0,0,0,.1.07.16l.42,1c.17.4.35.84.55,1.3.06.15.12.31.19.47l.12.3c.06.15.13.31.19.47.78,1.92,1.7,4.26,2.64,6.79.15.4.31.81.46,1.23.6,1.62,1.2,3.31,1.77,5,.11.32.22.64.32,1a4,4,0,0,1,.15.45c.1.3.2.6.29.89.59,1.83,1.14,3.65,1.6,5.39.11.39.21.77.3,1.15s.21.82.3,1.23.13.57.2.85.09.42.13.62.11.57.16.85a27.17,27.17,0,0,1,.42,3l0,.44c0,.17,0,.34,0,.5v.51l.51,0c.72,0,17.72-.67,24.57-4.27a21.36,21.36,0,0,1,12.69-2.58Z"/><path class="cls-1" d="M117.85,17.84l.34-.27Z"/><path class="cls-1" d="M117.3,109.72c.67,1,1.32,2,1.94,2.81C118.62,111.67,118,110.73,117.3,109.72Z"/><path class="cls-1" d="M117.43,108l.36.57Z"/><path class="cls-1" d="M117.79,108.59,116,106.12l.18-.14c.22.39.44.77.67,1.14s.36.61.55.9Z"/><path class="cls-1" d="M118,16.48c-.23.16-.47.34-.71.54C117.5,16.82,117.74,16.64,118,16.48Z"/><path class="cls-1" d="M116.88,107.12c.18.31.36.6.55.9C117.24,107.73,117.06,107.43,116.88,107.12Z"/><path class="cls-1" d="M117,52.38l-.7.06v-.63C116.53,52,116.77,52.2,117,52.38Z"/><path class="cls-1" d="M116.76,108.88q-.56-.85-1.08-1.77Q116.22,108,116.76,108.88Z"/><path class="cls-1" d="M116.78,17.43c-.16.14-.31.29-.47.45C116.46,17.72,116.62,17.57,116.78,17.43Z"/><path class="cls-1" d="M116.34,18.72l0,.76a2.07,2.07,0,0,0-.15.25,6.61,6.61,0,0,0-1.28.27,4,4,0,0,1,.32-.66c.08-.15.17-.28.26-.42l.2-.3A4.49,4.49,0,0,0,116.34,18.72Z"/><path class="cls-1" d="M116.32,19.48v.23l-.15,0A2.07,2.07,0,0,1,116.32,19.48Z"/><path class="cls-1" d="M116.3,52.44v.14h-.63l-.1-.09Z"/><path class="cls-1" d="M116.3,51.81v.63l-.73.05c-.34-.29-.68-.59-1-.91H116Z"/><path class="cls-1" d="M116.3,51.58v.23l-.26-.23Z"/><path class="cls-1" d="M116.09,18.12l-.22.26Z"/><path class="cls-1" d="M116.17,19.73a2.46,2.46,0,0,0-.22.39,3.46,3.46,0,0,0-.23.56,5.66,5.66,0,0,0-.15.59,3.9,3.9,0,0,0,.06,1.55.5.5,0,0,1-.37.61.49.49,0,0,1-.6-.37,4.82,4.82,0,0,1-.07-2.06,1.55,1.55,0,0,1,0-.23,5.28,5.28,0,0,1,.24-.77h0A6.61,6.61,0,0,1,116.17,19.73Z"/><path class="cls-1" d="M116,51.58h-1.47a23.14,23.14,0,0,1-3.12-3.64c-3.41-5-4.72-11-3.91-18.12A5.62,5.62,0,0,0,109,27c-1.55,8.12-.45,15,3.28,20.39A22.94,22.94,0,0,0,116,51.58Z"/><path class="cls-1" d="M116,20.12a3.46,3.46,0,0,0-.23.56A3.46,3.46,0,0,1,116,20.12Z"/><path class="cls-1" d="M115.67,18.62l-.2.3a3,3,0,0,0-.26.42,4,4,0,0,0-.32.66h0a8.54,8.54,0,0,0-5.63,5.7l-.53-.11-.43-.15a9.62,9.62,0,0,1,5.92-6.25c-2.28-1.09-3.36-3.83-4.83-8C107.56,6,100.06,3.05,96,1.45,92.48,0,82.42,2.35,80.88,2.72l-.21.35c0,.07-.09.15-.14.23-.27.43-.62,1-1,1.7l-.42.72q-.14.21-.27.45l-.27.46-.11.19-.29.5c-.23.41-.47.84-.72,1.27l-.16-.25-.84.54.45.71C76.22,10.77,75.6,12,75.09,13c-.13.26-.24.5-.35.74a1.54,1.54,0,0,1-.08.19c-.13.29-.25.56-.34.81a4,4,0,0,0-.15.4,2.91,2.91,0,0,0-.12.35,4.52,4.52,0,0,0-.16.6l-1-.19c.6-3.21,7-13.47,7.23-13.91l.1-.17.2-.05c.48-.12,11.83-2.91,16-1.27s11.95,4.75,13.92,10.34C112.09,15.85,113.14,18.13,115.67,18.62Z"/><path class="cls-1" d="M115.67,52.58h-1.35l1.25-.09Z"/><path class="cls-1" d="M115.72,20.68a5.66,5.66,0,0,0-.15.59A5.66,5.66,0,0,1,115.72,20.68Z"/><path class="cls-1" d="M115.57,52.49l-1.25.09h-.27l0-.42-1,.05,0,.37H93.24l.14-.71a6.56,6.56,0,0,0,.81-.29h20.38C114.89,51.9,115.23,52.2,115.57,52.49Z"/><path class="cls-1" d="M115.21,19.34a3,3,0,0,1,.26-.42C115.38,19.06,115.29,19.19,115.21,19.34Z"/><path class="cls-1" d="M115,70.27l.27,5L101,87.87l-11.06,20-1.8,30.48-.38-.12-.29,1a21.36,21.36,0,0,0-12.69,2.58c-6.85,3.6-23.85,4.25-24.57,4.27l-.51,0v-.51c0-.16,0-.33,0-.5l0-.44a27.17,27.17,0,0,0-.42-3c0-.28-.1-.56-.16-.85s-.09-.41-.13-.62-.13-.56-.2-.85-.19-.81-.3-1.23-.19-.76-.3-1.15c-.46-1.74-1-3.56-1.6-5.39-.09-.3-.19-.59-.29-.89a4,4,0,0,0-.15-.45c-.1-.32-.21-.65-.32-1-.57-1.7-1.17-3.39-1.77-5-.15-.41-.3-.83-.46-1.23-.94-2.53-1.86-4.87-2.64-6.79-.06-.16-.13-.32-.19-.47l-.12-.3c-.07-.16-.13-.32-.19-.47-.2-.46-.38-.9-.55-1.3s-.29-.7-.42-1c0-.06,0-.11-.07-.16h0c0-.71.06-1.41.08-2.1a1.42,1.42,0,0,1,.17.26c.09.16.2.39.33.67s.25.54.4.87l.15.34.16.37.18.4.35.85c.17.41.35.85.55,1.31.5,1.23,1.05,2.62,1.63,4.13.16.41.32.84.49,1.27,1.3,3.46,2.7,7.39,3.88,11.2.08.24.15.47.22.71.59,1.91,1.12,3.78,1.55,5.53.09.4.19.78.27,1.16.13.54.24,1.07.34,1.58,0,.24.1.48.14.71l0,.2c0,.15,0,.3.08.44.11.68.2,1.32.25,1.92,0,.26,0,.5.06.74,2.9-.14,17.63-1,23.65-4.14a22.49,22.49,0,0,1,12.82-2.74l1.82-30.56,0-.1,11.26-20.35,14-12.32-.73-13.48.46,0,.53,9.08Z"/><polygon class="cls-1" points="114.53 61.31 115.02 70.27 114.52 70.42 113.99 61.34 114.53 61.31"/><path class="cls-1" d="M114.64,20.77a1.55,1.55,0,0,0,0,.23A1.55,1.55,0,0,1,114.64,20.77Z"/><polygon class="cls-1" points="114.05 52.59 114.53 61.31 113.99 61.34 113.49 52.63 114.05 52.59"/><polygon class="cls-1" points="114.05 52.58 114.05 52.59 113.49 52.63 113.99 61.34 113.53 61.37 113.05 52.58 114.05 52.58"/><polygon class="cls-1" points="114.03 52.16 114.05 52.58 113.05 52.58 113.03 52.2 114.03 52.16"/><path class="cls-1" d="M113.45,100.2c.1.25.19.51.3.76C113.64,100.71,113.54,100.45,113.45,100.2Z"/><path class="cls-1" d="M113.14,102.14c-.25-.57-.48-1.14-.69-1.72C112.66,101,112.89,101.57,113.14,102.14Z"/><path class="cls-1" d="M112.4,96.6c0,.28.12.56.19.83C112.52,97.15,112.45,96.87,112.4,96.6Z"/><path class="cls-1" d="M112.08,99.33c.1.32.21.64.33,1C112.29,100,112.18,99.65,112.08,99.33Z"/><path class="cls-1" d="M112.26,95.77c0,.17,0,.35.08.52C112.31,96.12,112.28,95.94,112.26,95.77Z"/><path class="cls-1" d="M112.18,95.23a5,5,0,0,0,.08.54A5,5,0,0,1,112.18,95.23Z"/><path class="cls-1" d="M112.08,93.61q0,.44,0,.87Q112.08,94,112.08,93.61Z"/><path class="cls-1" d="M111.79,98.36c.09.32.18.64.29,1C112,99,111.88,98.68,111.79,98.36Z"/><path class="cls-1" d="M109.38,11.19c1.47,4.17,2.55,6.91,4.83,8a9.62,9.62,0,0,0-5.92,6.25.43.43,0,0,0,0,0h0s0,0,0,.05c-.11.49-.21,1-.29,1.45,0,0,0,0,0,.06a5,5,0,0,1-.85,1.8,13.55,13.55,0,0,0-1.62-3.74,13.84,13.84,0,0,0-3.23-3.6l-.31-.24a32.93,32.93,0,0,0-7.39-1,27.4,27.4,0,0,1-6-.77,27,27,0,0,1-5.36-1.92h0l-5.71-9h0c.25-.43.49-.86.72-1.27l.29-.5.11-.19c.1-.16.19-.31.27-.46s.18-.31.27-.45L79.5,5c.41-.69.76-1.27,1-1.7,0-.08.09-.16.14-.23l.21-.35C82.42,2.35,92.48,0,96,1.45,100.06,3.05,107.56,6,109.38,11.19Z"/><path class="cls-1" d="M111.13,94.79c0,.24,0,.48.08.73C111.17,95.27,111.15,95,111.13,94.79Z"/><path class="cls-1" d="M109.25,25.7h0l0,.05-.51-.17Z"/><path class="cls-1" d="M109.23,25.76l0-.05,0,.11Z"/><path class="cls-1" d="M109.23,25.76v.11c-.09.37-.16.74-.23,1.11a5.62,5.62,0,0,1-1.45,2.84c.11-.91.24-1.83.41-2.77,0,0,0,0,0-.06a11.79,11.79,0,0,0,.26-1.27,1.64,1.64,0,0,1,0-.18s0,0,0-.05l.44.1Z"/><path class="cls-1" d="M109.22,25.87A10.3,10.3,0,0,1,109,27C109.06,26.61,109.13,26.24,109.22,25.87Z"/><path class="cls-1" d="M108.29,25.44l.43.15-.44-.1A.43.43,0,0,1,108.29,25.44Z"/><path class="cls-1" d="M108.28,25.49s0,0,0,.05,0,0,0-.05Z"/><path class="cls-1" d="M108.26,25.54a1.64,1.64,0,0,0,0,.18A11.79,11.79,0,0,1,108,27C108.05,26.51,108.15,26,108.26,25.54Z"/><path class="cls-1" d="M108,27.05c-.17.94-.3,1.86-.41,2.77a2.09,2.09,0,0,1-.51.4l.26-.61a6.49,6.49,0,0,0-.19-.76A5,5,0,0,0,108,27.05Z"/><path class="cls-72" d="M107.29,29.61l-.26.61a2.89,2.89,0,0,1-2,.39,18.19,18.19,0,0,1-4.2-1.6l.16-1a18.5,18.5,0,0,0,4.19,1.65,2,2,0,0,0,2-.78A6.49,6.49,0,0,1,107.29,29.61Z"/><path class="cls-73" d="M97.32,43.57a7.09,7.09,0,0,1-2.37.22L95.31,42,95,41.8a2,2,0,0,1,1.56.07,2.06,2.06,0,0,0,2.55-1.71L100.79,29a18.19,18.19,0,0,0,4.2,1.6,2.89,2.89,0,0,0,2-.39L99.36,48.31a3,3,0,0,1-1.54,1.59L94.4,51.49l-.21.09h-.76L94.32,47A24.07,24.07,0,0,0,97.32,43.57Z"/><path class="cls-74" d="M105.48,25.11a13.55,13.55,0,0,1,1.62,3.74,2,2,0,0,1-2,.78A18.5,18.5,0,0,1,101,28l1-6.71.31.24A13.84,13.84,0,0,1,105.48,25.11Z"/><path class="cls-75" d="M101.94,21.27,101,28c-6-2.9-15.15-8.6-15.43-8.78l-2.36-1.56,0,0a27,27,0,0,0,5.36,1.92,27.4,27.4,0,0,0,6,.77A32.93,32.93,0,0,1,101.94,21.27Z"/><path class="cls-76" d="M101,28l-.16,1c-5.17-2.48-12.73-7.07-15.09-8.53-.18,2.48-.87,9.71-3.26,14L81.59,34c2.43-4.41,3-12.52,3.14-14.12L82.42,18.3l0-.08.77-.49-.06-.09,2.36,1.56C85.8,19.38,95,25.08,101,28Z"/><path class="cls-77" d="M100.79,29,99.14,40.16a2.06,2.06,0,0,1-2.55,1.71A2,2,0,0,0,95,41.8L82.44,34.49c2.39-4.3,3.08-11.53,3.26-14C88.06,21.94,95.62,26.53,100.79,29Z"/><path class="cls-51" d="M97.32,43.57a24.07,24.07,0,0,1-3,3.47L95,43.79A7.09,7.09,0,0,0,97.32,43.57Z"/><path class="cls-78" d="M95.31,42,95,43.79a9.93,9.93,0,0,1-1.24-.12l0-.17A2,2,0,0,1,95,41.8Z"/><path class="cls-79" d="M82.44,34.49,95,41.8a2,2,0,0,0-1.3,1.7l0,.17c-.81-.12-2.21-.22-6.44-4.87,0,1.67.69,9.1,6.1,8.76l0,.18a4.85,4.85,0,0,1-2.54,3.84H88.35a7.43,7.43,0,0,1-1.78-1.08L75.13,41.1a3.85,3.85,0,0,1-1.29-2c.32-.81.63-1.6.93-2.34a7.57,7.57,0,0,0,1.23.66,5,5,0,0,0,1.94.42,4,4,0,0,0,2.16-.64A7.16,7.16,0,0,0,82.44,34.49Z"/><path class="cls-51" d="M95,43.79,94.32,47a2,2,0,0,1-.94.52h0l.34-3.89A9.93,9.93,0,0,0,95,43.79Z"/><path class="cls-80" d="M94.32,47l-.89,4.54H90.81a4.85,4.85,0,0,0,2.54-3.84l0-.18h0A2,2,0,0,0,94.32,47Z"/><path class="cls-81" d="M93.43,51.58h.76a6.56,6.56,0,0,1-.81.29Z"/><path class="cls-51" d="M93.71,43.67l-.34,3.89c-5.41.34-6.1-7.09-6.1-8.76C91.5,43.45,92.9,43.55,93.71,43.67Z"/><path class="cls-82" d="M93.43,51.58l-.05.29-.22.06-.56.13-.24,0a7.55,7.55,0,0,1-1.06.07h-.4l-.39,0-.39-.05L89.74,52a4.79,4.79,0,0,0,1.07-.43Z"/><path class="cls-83" d="M93.38,51.87l-.14.71H78.64a71.83,71.83,0,0,0-10.16.26l.39-1a71.05,71.05,0,0,1,9.81-.23h9.67a6.21,6.21,0,0,0,1.39.43,1.69,1.69,0,0,0,.38.07l.39.05.39,0a6.52,6.52,0,0,0,1.46-.06l.24,0,.56-.13Z"/><path class="cls-84" d="M93.24,52.58l-.41,2.09L88.11,82c-3.51,1.61-22-20.56-19.82-28.58,0-.08.09-.27.19-.55a71.83,71.83,0,0,1,10.16-.26Z"/><path class="cls-85" d="M92.6,52.06l.56-.13Z"/><path class="cls-86" d="M91.3,52.17a7.55,7.55,0,0,0,1.06-.07,6.52,6.52,0,0,1-1.46.06Z"/><path class="cls-87" d="M90.51,52.13l.39,0Z"/><path class="cls-88" d="M88.35,51.58h2.46a4.79,4.79,0,0,1-1.07.43A6.21,6.21,0,0,1,88.35,51.58Z"/><path class="cls-89" d="M89.74,52l.38.07A1.69,1.69,0,0,1,89.74,52Z"/><path class="cls-90" d="M88.35,51.58H78.68a71.05,71.05,0,0,0-9.81.23c1-2.66,3.15-8.1,5-12.71a3.85,3.85,0,0,0,1.29,2l11.44,9.4A7.43,7.43,0,0,0,88.35,51.58Z"/><polygon class="cls-1" points="87.72 138.26 88.1 138.38 88.04 139.34 87.47 139.24 87.43 139.22 87.72 138.26"/><path class="cls-91" d="M82.42,18.3l2.31,1.58c-.1,1.6-.71,9.71-3.14,14.12l-4.65-2.7-1.79,4.51a5.92,5.92,0,0,1-1.13-1l.56-5.19-.77-.22A3.24,3.24,0,0,1,72,28a38.21,38.21,0,0,1,1.2-8.88,2.07,2.07,0,0,1,3.69,1.29,1.84,1.84,0,0,1,0,.33l-.94,6,3.32-.25Z"/><path class="cls-1" d="M83.16,17.64l.06.09-.77.49.31-.8.37.18h0Z"/><path class="cls-1" d="M77.42,8.6l5.71,9-.37-.18-.31.8-.08.05-5.5-8.68Z"/><polygon class="cls-1" points="82.45 18.21 82.42 18.3 82.37 18.27 82.45 18.21"/><path class="cls-92" d="M81.59,34l.85.49A7.16,7.16,0,0,1,80.1,37.2a4,4,0,0,1-2.16.64A5,5,0,0,1,76,37.42a7.57,7.57,0,0,1-1.23-.66c.13-.33.25-.65.38-.95a6.41,6.41,0,0,0,1.24.69,3.23,3.23,0,0,0,3.17-.14A6.38,6.38,0,0,0,81.59,34Z"/><path class="cls-1" d="M82.42,18.3l-3.19,8.16-3.32.25.94-6a1.84,1.84,0,0,0,0-.33,2.07,2.07,0,0,0-3.69-1.29c.11-.49.22-.94.32-1.35.17-.69.31-1.26.38-1.65a4.52,4.52,0,0,1,.16-.6,2.91,2.91,0,0,1,.12-.35,4,4,0,0,1,.15-.4c.1-.25.21-.53.34-.81a1.54,1.54,0,0,0,.08-.19l.35-.74c.51-1.06,1.13-2.25,1.78-3.43l5.5,8.68Z"/><path class="cls-93" d="M76.94,31.3,81.59,34a6.38,6.38,0,0,1-2,2.36,3.23,3.23,0,0,1-3.17.14,6.41,6.41,0,0,1-1.24-.69Z"/><path class="cls-1" d="M80.67,3.07c0,.07-.09.15-.14.23C80.58,3.22,80.62,3.14,80.67,3.07Z"/><path class="cls-1" d="M79.5,5l-.42.72Z"/><path class="cls-1" d="M78.54,6.63l.27-.46C78.73,6.32,78.64,6.47,78.54,6.63Z"/><path class="cls-1" d="M78.14,7.32l.29-.5Z"/><path class="cls-1" d="M77.42,8.59h0l-.55,1-.45-.71.84-.54Z"/><path class="cls-1" d="M74.74,13.76c.11-.24.22-.48.35-.74Z"/><path class="cls-94" d="M75.15,35.81c-.13.3-.25.62-.38.95a5.43,5.43,0,0,1-.89-.69l.14-1.3A5.92,5.92,0,0,0,75.15,35.81Z"/><path class="cls-1" d="M74.58,29.58,74,34.77c-1.48-1.72-2-4.19-2-6.78a3.24,3.24,0,0,0,1.82,1.37Z"/><path class="cls-1" d="M74.66,14c-.13.28-.24.56-.34.81C74.41,14.51,74.53,14.24,74.66,14Z"/><path class="cls-1" d="M74.17,15.16a2.91,2.91,0,0,0-.12.35A2.91,2.91,0,0,1,74.17,15.16Z"/><path class="cls-95" d="M73.88,36.07a5.43,5.43,0,0,0,.89.69c-.3.74-.61,1.53-.93,2.34a3.82,3.82,0,0,1-.13-1.47Z"/><path class="cls-1" d="M74,34.77l-.14,1.3c-4.8-4.33-2.43-14.1-1.34-18.54.16-.68.3-1.22.37-1.61l1,.19c-.07.39-.21,1-.38,1.65-.1.41-.21.86-.32,1.35a2.1,2.1,0,0,0-.42.89l-1.15,5.66a3.12,3.12,0,0,0,.11,1.84A2.87,2.87,0,0,0,72,28C72,30.58,72.54,33.05,74,34.77Z"/><path class="cls-96" d="M72.77,20a2.1,2.1,0,0,1,.42-.89A38.21,38.21,0,0,0,72,28a2.87,2.87,0,0,1-.26-.49,3.12,3.12,0,0,1-.11-1.84Z"/><path class="cls-1" d="M68.87,51.81l-.39,1c-11.77,1-31.07,5.17-43,20.37l-.23-.3-.4.3-.4.3-.23-.31.23-.3C36.74,57,56.9,52.81,68.87,51.81Z"/><rect class="cls-1" x="52.54" y="164.03" width="0.5" height="10.26"/><path class="cls-97" d="M52.54,164v10.26l-9.08.09-.72.1a13.13,13.13,0,0,0,.84-4.94,11.93,11.93,0,0,0-1.26-5.73l1,.22Z"/><path class="cls-1" d="M50.63,145.06c0-.24,0-.48-.06-.74C50.6,144.58,50.62,144.82,50.63,145.06Z"/><path class="cls-1" d="M50.32,142.4c0-.14,0-.29-.08-.44C50.27,142.11,50.3,142.26,50.32,142.4Z"/><path class="cls-1" d="M50.21,141.76c0-.23-.09-.47-.14-.71C50.12,141.29,50.16,141.53,50.21,141.76Z"/><path class="cls-1" d="M49.63,145.09l0-.44Z"/><path class="cls-1" d="M49.73,139.47c-.08-.38-.18-.76-.27-1.16C49.56,138.71,49.65,139.09,49.73,139.47Z"/><path class="cls-1" d="M49.18,141.63c0-.28-.1-.56-.16-.85C49.08,141.07,49.13,141.35,49.18,141.63Z"/><path class="cls-1" d="M48.89,140.16c-.07-.28-.13-.57-.2-.85C48.76,139.6,48.83,139.88,48.89,140.16Z"/><path class="cls-1" d="M48.69,139.31q-.13-.62-.3-1.23Q48.56,138.71,48.69,139.31Z"/><path class="cls-1" d="M48.39,138.08c-.09-.38-.19-.76-.3-1.15C48.2,137.32,48.3,137.7,48.39,138.08Z"/><path class="cls-1" d="M47.91,132.78c-.07-.24-.14-.47-.22-.71C47.77,132.31,47.84,132.55,47.91,132.78Z"/><path class="cls-1" d="M46.49,131.54c-.09-.29-.19-.59-.29-.89C46.3,131,46.4,131.24,46.49,131.54Z"/><path class="cls-1" d="M46.05,130.2c-.1-.33-.21-.65-.32-1C45.84,129.55,46,129.88,46.05,130.2Z"/><path class="cls-1" d="M44,124.22c-.15-.42-.31-.83-.46-1.23C43.66,123.39,43.81,123.81,44,124.22Z"/><path class="cls-1" d="M43.81,120.87c-.17-.43-.33-.86-.49-1.27C43.48,120,43.65,120.44,43.81,120.87Z"/><path class="cls-98" d="M42.32,163.81a11.93,11.93,0,0,1,1.26,5.73,13.13,13.13,0,0,1-.84,4.94l-1.18.17a11.4,11.4,0,0,0,1-5.11,10.18,10.18,0,0,0-1.63-6Z"/><path class="cls-1" d="M41.56,174.65l1.18-.17a7.76,7.76,0,0,1-1.94,2.84,8.1,8.1,0,0,1-5.36,2h-.38l-2.51-.17v-.25l.9,0,0-.48s0-.09,0-.24l1.65.11a7.18,7.18,0,0,0,5-1.75A6.47,6.47,0,0,0,41.56,174.65Z"/><path class="cls-1" d="M42.32,163.81,41,163.5a6.18,6.18,0,0,0-.84-1,8.25,8.25,0,0,0-5.23-2.15c0-.33,0-.67.07-1a9.14,9.14,0,0,1,5.85,2.43A8.49,8.49,0,0,1,42.32,163.81Z"/><path class="cls-99" d="M42.58,169.54a11.4,11.4,0,0,1-1,5.11l-4.6.64a10.45,10.45,0,0,0,1.59-6,9.73,9.73,0,0,0-2.4-6.91L41,163.5A10.18,10.18,0,0,1,42.58,169.54Z"/><path class="cls-1" d="M41.69,115.47c-.2-.46-.38-.9-.55-1.31C41.32,114.57,41.5,115,41.69,115.47Z"/><path class="cls-1" d="M40.79,113.31l.35.85Z"/><path class="cls-1" d="M40.86,116.2c-.06-.16-.13-.32-.19-.47C40.73,115.88,40.8,116,40.86,116.2Z"/><path class="cls-1" d="M40.61,112.91l-.16-.37C40.51,112.66,40.56,112.78,40.61,112.91Z"/><path class="cls-1" d="M40.36,115c.06.15.12.31.19.47C40.48,115.27,40.42,115.11,40.36,115Z"/><path class="cls-1" d="M40.3,112.2c-.15-.33-.28-.62-.4-.87C40,111.58,40.16,111.87,40.3,112.2Z"/><path class="cls-1" d="M39.45,108.67c.07.65.11,1.32.12,2a1.42,1.42,0,0,0-.17-.26h0C39.42,109.81,39.44,109.24,39.45,108.67Z"/><path class="cls-1" d="M39.39,112.67c.13.29.27.63.42,1Z"/><path class="cls-1" d="M39.39,92c0,.12.3,7.57.06,16.7a26.31,26.31,0,0,0-.92-4.77c.06-6.16-.1-10.84-.13-11.73l-1.53-2.06.42-.27L24.89,73.21l.4-.3.23.3L39.39,91.82Z"/><path class="cls-1" d="M39.45,108.67c0,.57,0,1.14-.05,1.72l0,0-.44-.08.15.51-.42.25s.08.15.15.31l-.23.07v-.65c0-.68,0-1.35-.12-2v-.06c0-1.66.07-3.27.08-4.79A26.31,26.31,0,0,1,39.45,108.67Z"/><path class="cls-1" d="M39.4,110.39h0c0,.69,0,1.39-.08,2.1l-.27-.61-.09-.2-.15-.34c-.07-.16-.13-.27-.15-.31l.42-.25-.15-.51.44.08Z"/><path class="cls-1" d="M39.32,112.5h0c-.2,4.84-.56,9.92-1.2,14.48,0,.36-.1.73-.16,1.12-.11.88-.23,1.83-.35,2.86,0,.26-.07.54-.1.82-.08.68-.16,1.4-.24,2.15-.05.45-.1.92-.15,1.4q-.32,2.9-.64,6.33-.16,1.68-.33,3.51c-.06.62-.12,1.25-.17,1.9-.11,1.2-.22,2.44-.33,3.73l-.9-1.12q.24-2.81.48-5.34.1-1.18.21-2.31c0-.35.07-.7.1-1,.26-2.65.5-5,.74-7.18,0-.46.1-.9.15-1.34.25-2.16.48-4,.7-5.62h0a166.66,166.66,0,0,0,1.32-18.1c.07.67.11,1.34.12,2v.65l.23-.07.15.34.09.2Z"/><path class="cls-1" d="M39.05,111.89l-.09-.2Z"/><path class="cls-1" d="M38.53,103.9c0,1.52,0,3.13-.08,4.79-.68-6.5-4-12.18-6.37-15.49l.86-.55A37.34,37.34,0,0,1,38.53,103.9Z"/><path class="cls-1" d="M38.45,108.69v.06a166.66,166.66,0,0,1-1.32,18.1h0c-.22,1.59-.46,3.47-.7,5.62,0,.44-.1.88-.15,1.34-.24,2.15-.48,4.54-.74,7.18,0,.34-.06.69-.1,1q-.11,1.13-.21,2.31-.24,2.53-.48,5.34l-2-2.49a18.4,18.4,0,0,0,.16-2.34,17.35,17.35,0,0,0-.92-5.57l-2.27-6.75-.66-7.18L25.91,97.19l6.17-4C34.45,96.51,37.77,102.19,38.45,108.69Z"/><path class="cls-100" d="M38.55,169.33a10.45,10.45,0,0,1-1.59,6l-1.46.21a8.74,8.74,0,0,0,2-6.17c0-3-1-5.34-2.84-6.89l0-.34,1.41.32A9.73,9.73,0,0,1,38.55,169.33Z"/><path class="cls-1" d="M38,128.11c-.11.88-.23,1.83-.35,2.86C37.73,129.94,37.85,129,38,128.11Z"/><path class="cls-1" d="M37.51,131.79c-.08.69-.16,1.4-.24,2.15C37.35,133.19,37.43,132.47,37.51,131.79Z"/><polygon class="cls-1" points="24.89 73.2 37.29 89.83 36.87 90.11 28.28 78.59 24.53 73.56 24.89 73.2"/><path class="cls-1" d="M37.27,133.94c-.05.46-.1.92-.15,1.4C37.17,134.86,37.22,134.39,37.27,133.94Z"/><path class="cls-1" d="M35.5,175.5l1.46-.21a7.76,7.76,0,0,1-1.12,1.31,8,8,0,0,1-2.34,1.5c0-.25,0-.63.08-1.12h.06v-.06a6.62,6.62,0,0,0,1.52-1.06C35.28,175.74,35.4,175.62,35.5,175.5Z"/><path class="cls-101" d="M34.71,162.44c1.88,1.55,2.84,3.87,2.84,6.89a8.74,8.74,0,0,1-2,6.17l-1.77.25C33.88,173.55,34.24,168.55,34.71,162.44Z"/><path class="cls-102" d="M36.87,90.11l-3.93,2.54a33.08,33.08,0,0,0-2.59-3.21l-.72.69a33.12,33.12,0,0,1,2.45,3.07l-6.17,4,3.17,28.17.66,7.18L32,139.29a17.35,17.35,0,0,1,.92,5.57,18.4,18.4,0,0,1-.16,2.34l-11.16-14a1.51,1.51,0,0,0-.49-.42l.57-1.29-7.87-21.94L13,99.09,26.72,79.76l1.56-1.16Z"/><path class="cls-1" d="M37.13,126.86c-.22,1.58-.45,3.46-.7,5.62C36.67,130.33,36.91,128.45,37.13,126.86Z"/><path class="cls-1" d="M36.07,151.34a1.63,1.63,0,0,1,.36,1.24,1.69,1.69,0,0,1-.62,1.14l-.43.34c0-.07,0-.14,0-.21h0l-1-.08h0c0,.39-.06.78-.1,1.16l-6.63,5.29a1.69,1.69,0,0,1-1.06.37,1.67,1.67,0,0,1-1.32-.64l-3.16-4a1.45,1.45,0,0,0,.6-.58l.08-.17,2.47,3.1-.28.22.63.78.27-.22.17.21a.69.69,0,0,0,1,.11l8.15-6.5a.68.68,0,0,0,.26-.47.69.69,0,0,0-.15-.51l-.17-.21.51-.4-.29-.37.29,0h0c0-.06,0-.13,0-.19Z"/><path class="cls-1" d="M36.48,141.67q-.16,1.7-.33,3.51Q36.32,143.35,36.48,141.67Z"/><path class="cls-1" d="M34.81,188.83c.25,1.06,2.37,10,1.33,12.51-1.33,2.33-4.77,3-8.42,3a43.58,43.58,0,0,1-10.92-1.58c-3-.94-2.83-5.1-2.83-5.28l0-.19c2.29-4.88,5.73-12.22,6-12.92a6,6,0,0,1,.45-1.58l0,1.71s.5-4.44,4.66-4.4S30.62,183,30.62,183l1.19.43-.44,0,0,.3-1.08-.43-.09-.14a6,6,0,0,0-4.53-2.55,4.36,4.36,0,0,0-4.67,4H21c-.19.7-1.3,3.07-5.82,12.7l-.48-.2-.4.92.73.3c.08,1.08.48,3,2.1,3.54,3.29,1,15.7,3.31,18.15-1,.75-1.76-.76-9.11-1.41-11.79l-1.22-3.66-.22-1.83.15,0v-.54l.4.16Z"/><path class="cls-1" d="M36.15,162.42l-1.41-.32.06-.84A7.94,7.94,0,0,1,36.15,162.42Z"/><path class="cls-1" d="M36.28,133.82c-.24,2.14-.48,4.53-.74,7.18C35.8,138.36,36,136,36.28,133.82Z"/><path class="cls-1" d="M36,147.08c-.11,1.21-.21,2.45-.32,3.74h0C35.76,149.52,35.87,148.28,36,147.08Z"/><path class="cls-1" d="M35.66,150.82c0,.06,0,.13,0,.19h0c0-.07,0-.14,0-.2Z"/><path class="cls-1" d="M35.65,150.81c0,.06,0,.13,0,.2l-.29,0-.33-.41-.35.28.09-1.16Z"/><path class="cls-1" d="M35.34,151l.29.37-.51.4L34.5,151l.15-.11a.13.13,0,0,0,0,.06h0Z"/><path class="cls-1" d="M35.4,153.85c0,.07,0,.14,0,.21h0c0-.07,0-.15,0-.22Z"/><path class="cls-1" d="M35.39,153.85c0,.07,0,.15,0,.22l-1,.83.09-1.13Z"/><path class="cls-1" d="M35.37,154.07h0c-.15,1.8-.29,3.57-.43,5.29h0C35.07,157.63,35.22,155.86,35.37,154.07Z"/><path class="cls-1" d="M34.32,154.9l1-.83c-.15,1.79-.3,3.56-.43,5.28h-.36l0,1h.24c0,.3,0,.6-.07.89l-.17-.12-.56.83a1.33,1.33,0,0,1,.19.14l-1,13.73.46-.06c0,.45-.07.85-.1,1.2h0l-.91-.06c0-.11.71-10.37,1.68-22Z"/><path class="cls-1" d="M35.34,151l-.69-.06v-.06h0l.35-.28Z"/><path class="cls-1" d="M35.44,142q-.11,1.13-.21,2.31Q35.33,143.17,35.44,142Z"/><polygon class="cls-1" points="35.12 151.75 25.89 159.12 25.27 158.34 34.5 150.97 35.12 151.75"/><path class="cls-1" d="M35,159.35c0,.33-.05.67-.07,1h0l.09-1Z"/><path class="cls-1" d="M34.58,159.34h.36l-.09,1h-.24Z"/><path class="cls-1" d="M34.85,160.35h0c0,.3-.05.61-.08.91l0,0C34.81,161,34.83,160.65,34.85,160.35Z"/><path class="cls-1" d="M34.78,161.24l0,0-.06.84h0Z"/><path class="cls-1" d="M34.61,161.12l.17.12-.06.86-.47-.11v.1a1.33,1.33,0,0,0-.19-.14Z"/><path class="cls-1" d="M34.75,149.69l-.09,1.16h0C34.68,150.47,34.71,150.08,34.75,149.69Z"/><path class="cls-1" d="M32.77,147.2l2,2.49c0,.39-.07.78-.1,1.17l-.15.11L31,146.52a4.65,4.65,0,0,1,1.73,1.27Z"/><path class="cls-103" d="M34.74,162.1l0,.34h0l0-.33Z"/><path class="cls-1" d="M34.25,162l.47.11,0,.33a3.79,3.79,0,0,0-.45-.34Z"/><path class="cls-101" d="M34.69,162.43h0c-.47,6.11-.83,11.11-1,13.31h0C33.88,172.92,34.24,168.07,34.69,162.43Z"/><path class="cls-1" d="M34.65,150.86v.06h0A.13.13,0,0,1,34.65,150.86Z"/><path class="cls-1" d="M34.24,162.09a3.79,3.79,0,0,1,.45.34c-.45,5.64-.81,10.49-1,13.33l-.46.06Z"/><path class="cls-1" d="M34.41,153.77l-.09,1.13h0l0,0c0-.38.07-.77.1-1.16Z"/><path class="cls-1" d="M34.29,154.93l0,0c-1,11.63-1.67,21.89-1.68,22l.91.06a8.47,8.47,0,0,1-1,.43C32.76,174.4,33.44,165.08,34.29,154.93Z"/><path class="cls-1" d="M27.66,160.22l6.63-5.29c-.85,10.15-1.53,19.47-1.73,22.47a9.83,9.83,0,0,1-1.88.44l-11.21-.43,0-.5-2.26-27.13,1.7,2.13h0a13.9,13.9,0,0,0,1.39,3.53,1.44,1.44,0,0,0,1.86.54l3.16,4a1.67,1.67,0,0,0,1.32.64A1.69,1.69,0,0,0,27.66,160.22Z"/><path class="cls-1" d="M34,197.85A2.1,2.1,0,0,1,33,199.92a11.12,11.12,0,0,1-5.46,1.2c-5,0-10.55-2-12.52-2.8a6.23,6.23,0,0,1,0-.65l.18-.37c2.31.92,12.28,4.61,17.34,1.75A1.09,1.09,0,0,0,33,198c-.33-3.07-1.42-12.43-1.63-14.21l.75.29.47,1.4C33,188.83,33.76,195.38,34,197.85Z"/><path class="cls-1" d="M33.68,175.76h0c0,.62-.08,1-.09,1.17l-.06,0C33.61,176.61,33.64,176.21,33.68,175.76Z"/><path class="cls-1" d="M33.58,177l.06,0V177h-.06Z"/><path class="cls-1" d="M33.58,177v0h0Z"/><path class="cls-1" d="M33.55,177h0c0,.49-.06.87-.08,1.12l-.23.1-4.2-.27h0a8.41,8.41,0,0,0,1.61-.08l1.84.07c0-.14,0-.31,0-.51A8.47,8.47,0,0,0,33.55,177Z"/><path class="cls-1" d="M33.27,178.2l.23-.1a.49.49,0,0,1,0,.12Z"/><path class="cls-1" d="M33.49,178.22c0,.15,0,.23,0,.24l0,.48-.9,0v-.26l-.6,0a9.53,9.53,0,0,0,1.32-.42Z"/><path class="cls-104" d="M32.94,92.65l-.86.55a33.12,33.12,0,0,0-2.45-3.07l.72-.69A33.08,33.08,0,0,1,32.94,92.65Z"/><path class="cls-105" d="M32.77,147.2l-.09.59A4.65,4.65,0,0,0,31,146.52L20.83,133.84l-.11-.12.4-.92a1.51,1.51,0,0,1,.49.42Z"/><path class="cls-1" d="M33.27,178.2a9.53,9.53,0,0,1-1.32.42L29,178.45l0-.52Z"/><path class="cls-1" d="M32.62,185.44l-.47-1.4-.75-.29,0-.3.44,0,.59.21Z"/><path class="cls-1" d="M32.55,183.12v.54l-.15,0,0-.28-.56.07L30.62,183s-1.26-2.79-5.42-2.82-4.66,4.4-4.66,4.4l0-1.71a5.27,5.27,0,0,1,5.2-3.21A6.77,6.77,0,0,1,31,182.5Z"/><path class="cls-106" d="M32.55,179.16v4L31,182.5a6.77,6.77,0,0,0-5.27-2.87,5.27,5.27,0,0,0-5.2,3.21l-.11-4.38C25,178.66,29.72,179,32.55,179.16Z"/><path class="cls-107" d="M32.55,178.91v.25c-2.83-.19-7.6-.5-12.16-.7h0l8.61.32v.15h.42a11.37,11.37,0,0,0,1.35-.09Z"/><path class="cls-1" d="M32.55,178.65v.26l-1.79-.07c.36-.05.76-.12,1.19-.22Z"/><path class="cls-1" d="M32.56,177.4c0,.2,0,.37,0,.51l-1.84-.07A9.83,9.83,0,0,0,32.56,177.4Z"/><path class="cls-1" d="M32.4,183.61l-.59-.21.56-.07Z"/><path class="cls-1" d="M31.71,149a1.47,1.47,0,1,1-1.46,1.46A1.47,1.47,0,0,1,31.71,149Zm.47,1.46a.47.47,0,1,0-.47.47A.47.47,0,0,0,32.18,150.5Z"/><path class="cls-1" d="M29,178.45l2.92.17c-.43.1-.83.17-1.19.22L29,178.77Z"/><path class="cls-1" d="M31.71,150a.47.47,0,1,1-.46.46A.47.47,0,0,1,31.71,150Z"/><path class="cls-108" d="M20.83,133.84,31,146.52a3.74,3.74,0,0,0-4.84,1.36l-3.31,7.36-4.4-5.51a55.17,55.17,0,0,1-.76-9l3.08-7Z"/><path class="cls-109" d="M29,178.77l1.76.07a11.37,11.37,0,0,1-1.35.09H29Z"/><path class="cls-1" d="M19.47,177.41l11.21.43a8.41,8.41,0,0,1-1.61.08h0c-3.13-.2-7-.42-10.6-.55l0-.39,1-.08Z"/><path class="cls-1" d="M29.07,177.93l0,.52L20.38,178v.49l-1.84-.07-.08-1C22,177.51,25.94,177.73,29.07,177.93Z"/><polygon class="cls-1" points="29.03 178.44 29 178.76 20.39 178.44 20.38 177.96 29.03 178.44"/><path class="cls-110" d="M24.53,73.57l3.75,5-1.56,1.16-.81-.58-14,19.63.59,7.11L9.31,97A29.07,29.07,0,0,1,17.4,80.77Z"/><polygon class="cls-111" points="26.72 79.75 12.95 99.08 13.82 109.56 12.51 105.92 11.92 98.81 25.91 79.17 26.72 79.75"/><polygon class="cls-1" points="25.27 158.34 25.89 159.12 25.62 159.34 24.99 158.56 25.27 158.34"/><polygon class="cls-1" points="24.89 73.2 24.53 73.56 24.49 73.5 24.89 73.2"/><path class="cls-112" d="M22.8,155.24l-.08.17a1.45,1.45,0,0,1-.6.58l-3.25-4.07h0c-.18-.69-.34-1.43-.47-2.18Z"/><path class="cls-113" d="M18.87,151.92,22.12,156a1.44,1.44,0,0,1-1.86-.54A13.9,13.9,0,0,1,18.87,151.92Z"/><path class="cls-1" d="M13.82,109.57l7.87,21.94-.57,1.29a1.73,1.73,0,0,0-.64-.21,1.67,1.67,0,0,0-1.25.36L16,135.54Z"/><path class="cls-1" d="M21.12,132.8l-.4.92a.64.64,0,0,0-.35-.14h-.08a.66.66,0,0,0-.43.15l-3.67,2.93-.13-.17-.08-1L19.23,133a1.67,1.67,0,0,1,1.25-.36A1.73,1.73,0,0,1,21.12,132.8Z"/><path class="cls-1" d="M20.39,178.45h0l-1.84-.08Z"/><polygon class="cls-1" points="17.17 149.78 19.43 176.91 18.43 176.99 17.03 160.09 17.48 160.09 17.48 159.09 16.94 159.09 16.05 148.38 17.17 149.78"/><path class="cls-1" d="M18.87,151.91l-1.7-2.13L17,148.16l.07-.06,1.3,1.63C18.53,150.48,18.69,151.22,18.87,151.91Z"/><path class="cls-1" d="M18.47,177.38l.08,1c-2.11-.08-4.1-.13-5.75-.13C5,178.25,0,170.69,0,165.49s6.71-6.37,6.78-6.38H16.94l.09,1H6.85S1,161.1,1,165.49c0,4.79,4.59,11.76,11.8,11.76C14.43,177.25,16.39,177.3,18.47,177.38Z"/><polygon class="cls-1" points="17.48 159.09 17.48 160.09 17.03 160.09 16.94 159.09 17.48 159.09"/><polygon class="cls-1" points="17.17 149.78 16.05 148.38 16.04 148.24 17.03 148.16 17.17 149.78"/><path class="cls-1" d="M17.1,148.1l-.07.06-1,.08v.15l-5.23-6.56a1.69,1.69,0,0,1,.27-2.38l4-3.16,0,.28,1-.08.13.17-4.48,3.57a.68.68,0,0,0-.26.47.69.69,0,0,0,.15.51Z"/><polygon class="cls-1" points="15.98 135.53 16.06 136.49 15.07 136.56 15.05 136.28 15.98 135.53"/><polygon class="cls-1" points="13.82 109.56 15.98 135.53 15.05 136.28 12.51 105.92 13.82 109.56"/><path class="cls-1" d="M15.15,197.3l-.18.37a6.23,6.23,0,0,0,0,.65l-.73-.3.4-.92Z"/></svg>