<svg xmlns="http://www.w3.org/2000/svg" xmlns:xlink="http://www.w3.org/1999/xlink" viewBox="0 0 518.19 342.89"><defs><style>.cls-1{fill:url(#New_Gradient_Swatch_2);}.cls-2{isolation:isolate;}.cls-3,.cls-4{fill:#f9f9fb;}.cls-4{opacity:0.5;}.cls-5{fill:url(#linear-gradient);}.cls-6{fill:url(#linear-gradient-2);}.cls-7{fill:#ffca06;}.cls-11,.cls-135,.cls-14,.cls-140,.cls-145,.cls-22,.cls-23,.cls-36,.cls-8{opacity:0.3;}.cls-11,.cls-135,.cls-14,.cls-140,.cls-145,.cls-149,.cls-22,.cls-23,.cls-36,.cls-8{mix-blend-mode:multiply;}.cls-8{fill:url(#linear-gradient-3);}.cls-9{fill:url(#linear-gradient-4);}.cls-10{fill:url(#linear-gradient-5);}.cls-11{fill:url(#linear-gradient-6);}.cls-12{fill:url(#linear-gradient-7);}.cls-13{fill:url(#linear-gradient-8);}.cls-14{fill:url(#linear-gradient-9);}.cls-15{fill:url(#New_Gradient_Swatch_2-2);}.cls-16{fill:url(#linear-gradient-10);}.cls-17{fill:url(#linear-gradient-11);}.cls-18{fill:url(#linear-gradient-12);}.cls-19{fill:url(#linear-gradient-13);}.cls-20{fill:url(#linear-gradient-14);}.cls-21{fill:url(#linear-gradient-15);}.cls-22{fill:url(#linear-gradient-16);}.cls-23{fill:url(#linear-gradient-17);}.cls-24{fill:#fdc913;}.cls-25{fill:#fff;}.cls-26{fill:#ff1494;}.cls-27{fill:url(#New_Gradient_Swatch_2-3);}.cls-28{fill:#272361;}.cls-29{fill:url(#linear-gradient-18);}.cls-30{fill:url(#linear-gradient-19);}.cls-31{fill:url(#linear-gradient-20);}.cls-32{fill:url(#linear-gradient-21);}.cls-33{fill:url(#linear-gradient-22);}.cls-34{fill:url(#linear-gradient-23);}.cls-35{fill:#fed107;}.cls-36{fill:url(#linear-gradient-24);}.cls-37{fill:url(#linear-gradient-25);}.cls-38{fill:url(#New_Gradient_Swatch_2-4);}.cls-39{fill:url(#New_Gradient_Swatch_2-5);}.cls-40{fill:url(#linear-gradient-26);}.cls-41{fill:url(#New_Gradient_Swatch_2-6);}.cls-42{clip-path:url(#clip-path);}.cls-43{fill:url(#linear-gradient-27);}.cls-44{fill:url(#linear-gradient-28);}.cls-45{fill:url(#linear-gradient-29);}.cls-46{fill:url(#linear-gradient-30);}.cls-47{fill:url(#linear-gradient-31);}.cls-48{fill:url(#linear-gradient-32);}.cls-49{fill:url(#linear-gradient-33);}.cls-50{fill:url(#linear-gradient-34);}.cls-51{fill:url(#linear-gradient-35);}.cls-52{fill:url(#linear-gradient-36);}.cls-53{fill:url(#linear-gradient-37);}.cls-54{fill:url(#linear-gradient-38);}.cls-55{fill:url(#linear-gradient-39);}.cls-56{fill:url(#linear-gradient-40);}.cls-57{fill:url(#linear-gradient-41);}.cls-58{fill:url(#linear-gradient-42);}.cls-59{fill:url(#linear-gradient-43);}.cls-60{fill:url(#linear-gradient-44);}.cls-61{fill:url(#linear-gradient-45);}.cls-62{fill:url(#linear-gradient-46);}.cls-63{fill:url(#linear-gradient-47);}.cls-64{fill:url(#linear-gradient-48);}.cls-65{fill:url(#linear-gradient-49);}.cls-66{fill:url(#linear-gradient-50);}.cls-67{fill:url(#linear-gradient-51);}.cls-68{fill:url(#linear-gradient-52);}.cls-69{fill:url(#linear-gradient-53);}.cls-70{fill:url(#linear-gradient-54);}.cls-71{fill:url(#linear-gradient-55);}.cls-72{fill:url(#linear-gradient-56);}.cls-73{fill:url(#linear-gradient-57);}.cls-74{fill:url(#linear-gradient-58);}.cls-75{fill:url(#linear-gradient-59);}.cls-76{fill:url(#linear-gradient-60);}.cls-77{fill:url(#linear-gradient-61);}.cls-78{fill:url(#linear-gradient-62);}.cls-79{fill:url(#linear-gradient-63);}.cls-80{fill:url(#linear-gradient-64);}.cls-81{fill:url(#linear-gradient-65);}.cls-82{fill:url(#linear-gradient-66);}.cls-83{fill:url(#linear-gradient-67);}.cls-84{fill:url(#linear-gradient-68);}.cls-85{fill:url(#linear-gradient-69);}.cls-86{fill:url(#linear-gradient-70);}.cls-87{fill:url(#linear-gradient-71);}.cls-88{fill:url(#linear-gradient-72);}.cls-89{fill:url(#linear-gradient-73);}.cls-90{fill:url(#linear-gradient-74);}.cls-91{fill:url(#linear-gradient-75);}.cls-92{fill:url(#linear-gradient-76);}.cls-93{fill:url(#linear-gradient-77);}.cls-94{fill:url(#linear-gradient-78);}.cls-95{fill:url(#linear-gradient-79);}.cls-96{fill:url(#linear-gradient-80);}.cls-97{fill:url(#linear-gradient-81);}.cls-98{fill:url(#linear-gradient-82);}.cls-99{fill:url(#linear-gradient-83);}.cls-100{fill:url(#linear-gradient-84);}.cls-101{fill:url(#linear-gradient-85);}.cls-102{fill:url(#linear-gradient-86);}.cls-103{fill:url(#linear-gradient-87);}.cls-104{fill:url(#linear-gradient-88);}.cls-105{fill:url(#linear-gradient-89);}.cls-106{fill:url(#linear-gradient-90);}.cls-107{fill:url(#linear-gradient-91);}.cls-108{fill:url(#linear-gradient-92);}.cls-109{fill:url(#linear-gradient-93);}.cls-110{fill:url(#linear-gradient-94);}.cls-111{fill:url(#linear-gradient-95);}.cls-112{fill:url(#linear-gradient-96);}.cls-113{fill:url(#linear-gradient-97);}.cls-114{fill:url(#linear-gradient-98);}.cls-115{fill:url(#linear-gradient-99);}.cls-116{fill:url(#linear-gradient-100);}.cls-117{fill:url(#linear-gradient-101);}.cls-118{fill:url(#linear-gradient-102);}.cls-119{fill:url(#linear-gradient-103);}.cls-120{fill:url(#linear-gradient-104);}.cls-121{fill:url(#linear-gradient-105);}.cls-122{fill:url(#linear-gradient-106);}.cls-123{fill:url(#linear-gradient-107);}.cls-124{fill:url(#linear-gradient-108);}.cls-125{fill:url(#linear-gradient-109);}.cls-126{fill:url(#linear-gradient-110);}.cls-127{fill:url(#linear-gradient-111);}.cls-128{fill:url(#linear-gradient-112);}.cls-129{fill:url(#linear-gradient-113);}.cls-130{fill:url(#linear-gradient-114);}.cls-131{fill:url(#linear-gradient-115);}.cls-132{fill:url(#linear-gradient-116);}.cls-133{fill:url(#linear-gradient-117);}.cls-134{fill:url(#linear-gradient-118);}.cls-135{fill:url(#linear-gradient-119);}.cls-136{fill:url(#linear-gradient-120);}.cls-137{fill:url(#linear-gradient-121);}.cls-138{fill:url(#linear-gradient-122);}.cls-139,.cls-140{fill:url(#linear-gradient-123);}.cls-141{fill:url(#linear-gradient-125);}.cls-142{fill:url(#linear-gradient-126);}.cls-143{fill:url(#linear-gradient-127);}.cls-144{fill:url(#linear-gradient-128);}.cls-145{fill:url(#linear-gradient-129);}.cls-146{fill:url(#linear-gradient-130);}.cls-147{fill:url(#linear-gradient-131);}.cls-148{fill:url(#New_Gradient_Swatch_2-8);}.cls-149{opacity:0.1;fill:url(#linear-gradient-132);}.cls-150{fill:url(#linear-gradient-133);}.cls-151{fill:url(#linear-gradient-134);}.cls-152{fill:url(#New_Gradient_Swatch_2-9);}</style><linearGradient id="New_Gradient_Swatch_2" x1="-1696.7" y1="-2715.66" x2="3550.96" y2="5036.55" gradientUnits="userSpaceOnUse"><stop offset="0" stop-color="#ff13e6"/><stop offset="0.09" stop-color="#ff19df"/><stop offset="0.23" stop-color="#ff29cb"/><stop offset="0.4" stop-color="#ff43aa"/><stop offset="0.59" stop-color="#ff687c"/><stop offset="0.8" stop-color="#ff9642"/><stop offset="1" stop-color="#ffc902"/></linearGradient><linearGradient id="linear-gradient" x1="50.56" y1="295.15" x2="74.73" y2="295.15" gradientUnits="userSpaceOnUse"><stop offset="0" stop-color="#24def3"/><stop offset="1" stop-color="#2662aa"/></linearGradient><linearGradient id="linear-gradient-2" x1="-1402.61" y1="517.4" x2="-1377.09" y2="517.4" gradientTransform="matrix(0.79, 0.61, -0.61, 0.79, 1484.54, 765.87)" gradientUnits="userSpaceOnUse"><stop offset="0" stop-color="#001eb0"/><stop offset="1" stop-color="#020f6b"/></linearGradient><linearGradient id="linear-gradient-3" x1="90.12" y1="313.4" x2="42.02" y2="170.43" gradientUnits="userSpaceOnUse"><stop offset="0" stop-color="#ffbd2c"/><stop offset="1" stop-color="#cd0c38"/></linearGradient><linearGradient id="linear-gradient-4" x1="127.33" y1="304.46" x2="156.73" y2="304.46" xlink:href="#linear-gradient"/><linearGradient id="linear-gradient-5" x1="-1336.55" y1="466.48" x2="-1311.03" y2="466.48" xlink:href="#linear-gradient-2"/><linearGradient id="linear-gradient-6" x1="166.96" y1="275.21" x2="46.04" y2="186.36" xlink:href="#linear-gradient-3"/><linearGradient id="linear-gradient-7" x1="-3298.28" y1="4744.25" x2="-3311.38" y2="4711.69" gradientTransform="matrix(0.33, 0.94, 0.94, -0.33, -3367.76, 4834.91)" xlink:href="#linear-gradient"/><linearGradient id="linear-gradient-8" x1="30.69" y1="102.18" x2="120.71" y2="102.18" gradientTransform="matrix(1, 0, 0, 1, 0, 0)" xlink:href="#linear-gradient-2"/><linearGradient id="linear-gradient-9" x1="107.6" y1="164.1" x2="61.5" y2="75.91" gradientTransform="matrix(1, 0, 0, 1, 0, 0)" xlink:href="#linear-gradient-2"/><linearGradient id="New_Gradient_Swatch_2-2" x1="146.88" y1="98.71" x2="-21.75" y2="293.39" xlink:href="#New_Gradient_Swatch_2"/><linearGradient id="linear-gradient-10" x1="112.84" y1="105.48" x2="122.11" y2="88.44" xlink:href="#linear-gradient"/><linearGradient id="linear-gradient-11" x1="130.82" y1="79.59" x2="96.75" y2="127.19" gradientUnits="userSpaceOnUse"><stop offset="0" stop-color="#ffd600"/><stop offset="1" stop-color="#fbb72c"/></linearGradient><linearGradient id="linear-gradient-12" x1="107.56" y1="82.74" x2="113.59" y2="82.74" gradientTransform="matrix(1, 0, 0, 1, 0, 0)" xlink:href="#linear-gradient-2"/><linearGradient id="linear-gradient-13" x1="119.9" y1="96.23" x2="114.97" y2="73.18" xlink:href="#linear-gradient"/><linearGradient id="linear-gradient-14" x1="111.35" y1="88.12" x2="123.06" y2="88.12" gradientTransform="matrix(1, 0, 0, 1, 0, 0)" xlink:href="#linear-gradient-2"/><linearGradient id="linear-gradient-15" x1="115.63" y1="97.14" x2="110.7" y2="74.1" xlink:href="#linear-gradient"/><linearGradient id="linear-gradient-16" x1="135.39" y1="88.75" x2="-33.24" y2="283.44" gradientUnits="userSpaceOnUse"><stop offset="0" stop-color="#ff1494"/><stop offset="1" stop-color="#020f6b"/></linearGradient><linearGradient id="linear-gradient-17" x1="130.82" y1="79.6" x2="96.75" y2="127.2" xlink:href="#linear-gradient-11"/><linearGradient id="New_Gradient_Swatch_2-3" x1="324.52" y1="50.12" x2="337.49" y2="50.12" xlink:href="#New_Gradient_Swatch_2"/><linearGradient id="linear-gradient-18" x1="218.05" y1="349.42" x2="500.93" y2="369.25" gradientTransform="translate(-9.85 -268.07) rotate(-0.57)" xlink:href="#linear-gradient-16"/><linearGradient id="linear-gradient-19" x1="1498.16" y1="58.12" x2="1523.55" y2="58.12" gradientTransform="translate(-1112.86 -372.46) rotate(16.34)" xlink:href="#linear-gradient-11"/><linearGradient id="linear-gradient-20" x1="217.95" y1="350.86" x2="500.83" y2="370.68" gradientTransform="translate(-9.85 -268.07) rotate(-0.57)" xlink:href="#linear-gradient-16"/><linearGradient id="linear-gradient-21" x1="222.26" y1="289.43" x2="505.13" y2="309.26" gradientTransform="translate(-9.85 -268.07) rotate(-0.57)" xlink:href="#linear-gradient-16"/><linearGradient id="linear-gradient-22" x1="1516.06" y1="19.85" x2="1523.12" y2="19.85" gradientTransform="translate(-1112.86 -372.46) rotate(16.34)" xlink:href="#linear-gradient-11"/><linearGradient id="linear-gradient-23" x1="282.52" y1="304.66" x2="328.56" y2="363.71" gradientTransform="translate(-9.85 -268.07) rotate(-0.57)" xlink:href="#linear-gradient"/><linearGradient id="linear-gradient-24" x1="-1085.48" y1="5.96" x2="-1166.33" y2="79.92" gradientTransform="translate(1210.21 591.57) rotate(29.37)" gradientUnits="userSpaceOnUse"><stop offset="0" stop-color="#ff5d7d"/><stop offset="1" stop-color="#81007f"/></linearGradient><linearGradient id="linear-gradient-25" x1="188.05" y1="89.43" x2="177.6" y2="104.55" xlink:href="#linear-gradient"/><linearGradient id="New_Gradient_Swatch_2-4" x1="225.72" y1="182.95" x2="292.8" y2="215.29" xlink:href="#New_Gradient_Swatch_2"/><linearGradient id="New_Gradient_Swatch_2-5" x1="248.64" y1="135.39" x2="315.73" y2="167.73" xlink:href="#New_Gradient_Swatch_2"/><linearGradient id="linear-gradient-26" x1="332.73" y1="205.5" x2="352.47" y2="196.02" xlink:href="#linear-gradient"/><linearGradient id="New_Gradient_Swatch_2-6" x1="220.22" y1="194.34" x2="287.31" y2="226.68" xlink:href="#New_Gradient_Swatch_2"/><clipPath id="clip-path"><path class="cls-1" d="M339.87,154.1c-23.58-10.87-60.47-.15-60.47-.15-17.22,3.63-33,9.83-47,19.11-14.59,36.47-50,32.52-50,32.52l1,3.24c27.56,16,49.81.33,57-5.91-3.79,12.72-17.06,15.06-16.91,23.91.2,12.11,25.38,26.85,48.78,23.2,1.79-.28,22.52-3.83,32.27-20.75,8.12-14.11,6.64-34.08-4.27-52.24,3.62-1.12,11-2.38,22.66.25,21,4.72,15.32,25.45,15.32,25.45l1.84,2.06C355.93,193.67,365.64,166,339.87,154.1Z"/></clipPath><linearGradient id="linear-gradient-27" x1="267.63" y1="121.78" x2="436.83" y2="371.74" xlink:href="#linear-gradient-3"/><linearGradient id="linear-gradient-28" x1="257.82" y1="128.43" x2="427.01" y2="378.38" xlink:href="#linear-gradient-3"/><linearGradient id="linear-gradient-29" x1="246.87" y1="135.84" x2="416.07" y2="385.79" xlink:href="#linear-gradient-3"/><linearGradient id="linear-gradient-30" x1="237.05" y1="142.49" x2="406.25" y2="392.44" xlink:href="#linear-gradient-3"/><linearGradient id="linear-gradient-31" x1="226.1" y1="149.9" x2="395.3" y2="399.85" xlink:href="#linear-gradient-3"/><linearGradient id="linear-gradient-32" x1="216.28" y1="156.54" x2="385.48" y2="406.5" xlink:href="#linear-gradient-3"/><linearGradient id="linear-gradient-33" x1="205.34" y1="163.95" x2="374.53" y2="413.91" xlink:href="#linear-gradient-3"/><linearGradient id="linear-gradient-34" x1="195.52" y1="170.6" x2="364.72" y2="420.56" xlink:href="#linear-gradient-3"/><linearGradient id="linear-gradient-35" x1="184.57" y1="178.01" x2="353.77" y2="427.97" xlink:href="#linear-gradient-3"/><linearGradient id="linear-gradient-36" x1="174.75" y1="184.66" x2="343.95" y2="434.61" xlink:href="#linear-gradient-3"/><linearGradient id="linear-gradient-37" x1="163.8" y1="192.07" x2="333" y2="442.02" xlink:href="#linear-gradient-3"/><linearGradient id="linear-gradient-38" x1="153.98" y1="198.72" x2="323.18" y2="448.67" xlink:href="#linear-gradient-3"/><linearGradient id="linear-gradient-39" x1="274.1" y1="117.41" x2="443.3" y2="367.36" xlink:href="#linear-gradient-3"/><linearGradient id="linear-gradient-40" x1="264.28" y1="124.05" x2="433.48" y2="374.01" xlink:href="#linear-gradient-3"/><linearGradient id="linear-gradient-41" x1="253.33" y1="131.46" x2="422.53" y2="381.42" xlink:href="#linear-gradient-3"/><linearGradient id="linear-gradient-42" x1="243.51" y1="138.11" x2="412.71" y2="388.06" xlink:href="#linear-gradient-3"/><linearGradient id="linear-gradient-43" x1="232.57" y1="145.52" x2="401.77" y2="395.47" xlink:href="#linear-gradient-3"/><linearGradient id="linear-gradient-44" x1="222.75" y1="152.17" x2="391.95" y2="402.12" xlink:href="#linear-gradient-3"/><linearGradient id="linear-gradient-45" x1="211.8" y1="159.58" x2="381" y2="409.53" xlink:href="#linear-gradient-3"/><linearGradient id="linear-gradient-46" x1="201.98" y1="166.22" x2="371.18" y2="416.18" xlink:href="#linear-gradient-3"/><linearGradient id="linear-gradient-47" x1="191.03" y1="173.63" x2="360.23" y2="423.59" xlink:href="#linear-gradient-3"/><linearGradient id="linear-gradient-48" x1="181.22" y1="180.28" x2="350.42" y2="430.24" xlink:href="#linear-gradient-3"/><linearGradient id="linear-gradient-49" x1="170.27" y1="187.69" x2="339.47" y2="437.65" xlink:href="#linear-gradient-3"/><linearGradient id="linear-gradient-50" x1="160.45" y1="194.34" x2="329.65" y2="444.29" xlink:href="#linear-gradient-3"/><linearGradient id="linear-gradient-51" x1="286.42" y1="109.07" x2="455.62" y2="359.02" xlink:href="#linear-gradient-3"/><linearGradient id="linear-gradient-52" x1="276.6" y1="115.72" x2="445.8" y2="365.67" xlink:href="#linear-gradient-3"/><linearGradient id="linear-gradient-53" x1="265.65" y1="123.13" x2="434.85" y2="373.08" xlink:href="#linear-gradient-3"/><linearGradient id="linear-gradient-54" x1="255.83" y1="129.77" x2="425.03" y2="379.73" xlink:href="#linear-gradient-3"/><linearGradient id="linear-gradient-55" x1="244.88" y1="137.18" x2="414.08" y2="387.14" xlink:href="#linear-gradient-3"/><linearGradient id="linear-gradient-56" x1="235.06" y1="143.83" x2="404.26" y2="393.78" xlink:href="#linear-gradient-3"/><linearGradient id="linear-gradient-57" x1="224.12" y1="151.24" x2="393.32" y2="401.19" xlink:href="#linear-gradient-3"/><linearGradient id="linear-gradient-58" x1="214.3" y1="157.89" x2="383.5" y2="407.84" xlink:href="#linear-gradient-3"/><linearGradient id="linear-gradient-59" x1="203.35" y1="165.3" x2="372.55" y2="415.25" xlink:href="#linear-gradient-3"/><linearGradient id="linear-gradient-60" x1="193.53" y1="171.95" x2="362.73" y2="421.9" xlink:href="#linear-gradient-3"/><linearGradient id="linear-gradient-61" x1="182.58" y1="179.36" x2="351.78" y2="429.31" xlink:href="#linear-gradient-3"/><linearGradient id="linear-gradient-62" x1="172.76" y1="186" x2="341.96" y2="435.96" xlink:href="#linear-gradient-3"/><linearGradient id="linear-gradient-63" x1="280.92" y1="112.79" x2="450.12" y2="362.74" xlink:href="#linear-gradient-3"/><linearGradient id="linear-gradient-64" x1="271.1" y1="119.43" x2="440.3" y2="369.39" xlink:href="#linear-gradient-3"/><linearGradient id="linear-gradient-65" x1="260.16" y1="126.84" x2="429.36" y2="376.8" xlink:href="#linear-gradient-3"/><linearGradient id="linear-gradient-66" x1="250.34" y1="133.49" x2="419.54" y2="383.44" xlink:href="#linear-gradient-3"/><linearGradient id="linear-gradient-67" x1="239.39" y1="140.9" x2="408.59" y2="390.85" xlink:href="#linear-gradient-3"/><linearGradient id="linear-gradient-68" x1="229.57" y1="147.55" x2="398.77" y2="397.5" xlink:href="#linear-gradient-3"/><linearGradient id="linear-gradient-69" x1="218.62" y1="154.96" x2="387.82" y2="404.91" xlink:href="#linear-gradient-3"/><linearGradient id="linear-gradient-70" x1="208.8" y1="161.6" x2="378.01" y2="411.56" xlink:href="#linear-gradient-3"/><linearGradient id="linear-gradient-71" x1="197.86" y1="169.02" x2="367.06" y2="418.97" xlink:href="#linear-gradient-3"/><linearGradient id="linear-gradient-72" x1="188.04" y1="175.66" x2="357.24" y2="425.62" xlink:href="#linear-gradient-3"/><linearGradient id="linear-gradient-73" x1="177.09" y1="183.07" x2="346.29" y2="433.03" xlink:href="#linear-gradient-3"/><linearGradient id="linear-gradient-74" x1="167.27" y1="189.72" x2="336.47" y2="439.67" xlink:href="#linear-gradient-3"/><linearGradient id="linear-gradient-75" x1="317.35" y1="88.13" x2="486.54" y2="338.09" xlink:href="#linear-gradient-3"/><linearGradient id="linear-gradient-76" x1="307.53" y1="94.78" x2="476.72" y2="344.73" xlink:href="#linear-gradient-3"/><linearGradient id="linear-gradient-77" x1="296.58" y1="102.19" x2="465.78" y2="352.14" xlink:href="#linear-gradient-3"/><linearGradient id="linear-gradient-78" x1="286.76" y1="108.84" x2="455.96" y2="358.79" xlink:href="#linear-gradient-3"/><linearGradient id="linear-gradient-79" x1="275.81" y1="116.25" x2="445.01" y2="366.2" xlink:href="#linear-gradient-3"/><linearGradient id="linear-gradient-80" x1="265.99" y1="122.89" x2="435.19" y2="372.85" xlink:href="#linear-gradient-3"/><linearGradient id="linear-gradient-81" x1="255.05" y1="130.3" x2="424.25" y2="380.26" xlink:href="#linear-gradient-3"/><linearGradient id="linear-gradient-82" x1="245.23" y1="136.95" x2="414.43" y2="386.9" xlink:href="#linear-gradient-3"/><linearGradient id="linear-gradient-83" x1="234.28" y1="144.36" x2="403.48" y2="394.32" xlink:href="#linear-gradient-3"/><linearGradient id="linear-gradient-84" x1="224.46" y1="151.01" x2="393.66" y2="400.96" xlink:href="#linear-gradient-3"/><linearGradient id="linear-gradient-85" x1="213.51" y1="158.42" x2="382.71" y2="408.37" xlink:href="#linear-gradient-3"/><linearGradient id="linear-gradient-86" x1="203.69" y1="165.06" x2="372.89" y2="415.02" xlink:href="#linear-gradient-3"/><linearGradient id="linear-gradient-87" x1="306.64" y1="95.38" x2="475.84" y2="345.34" xlink:href="#linear-gradient-3"/><linearGradient id="linear-gradient-88" x1="296.82" y1="102.03" x2="466.02" y2="351.98" xlink:href="#linear-gradient-3"/><linearGradient id="linear-gradient-89" x1="285.87" y1="109.44" x2="455.07" y2="359.39" xlink:href="#linear-gradient-3"/><linearGradient id="linear-gradient-90" x1="276.05" y1="116.08" x2="445.25" y2="366.04" xlink:href="#linear-gradient-3"/><linearGradient id="linear-gradient-91" x1="265.1" y1="123.5" x2="434.3" y2="373.45" xlink:href="#linear-gradient-3"/><linearGradient id="linear-gradient-92" x1="255.28" y1="130.14" x2="424.49" y2="380.1" xlink:href="#linear-gradient-3"/><linearGradient id="linear-gradient-93" x1="244.34" y1="137.55" x2="413.54" y2="387.51" xlink:href="#linear-gradient-3"/><linearGradient id="linear-gradient-94" x1="234.52" y1="144.2" x2="403.72" y2="394.15" xlink:href="#linear-gradient-3"/><linearGradient id="linear-gradient-95" x1="223.57" y1="151.61" x2="392.77" y2="401.56" xlink:href="#linear-gradient-3"/><linearGradient id="linear-gradient-96" x1="213.75" y1="158.26" x2="382.95" y2="408.21" xlink:href="#linear-gradient-3"/><linearGradient id="linear-gradient-97" x1="202.81" y1="165.67" x2="372.01" y2="415.62" xlink:href="#linear-gradient-3"/><linearGradient id="linear-gradient-98" x1="192.99" y1="172.31" x2="362.19" y2="422.27" xlink:href="#linear-gradient-3"/><linearGradient id="linear-gradient-99" x1="321.86" y1="85.08" x2="491.06" y2="335.03" xlink:href="#linear-gradient-3"/><linearGradient id="linear-gradient-100" x1="312.04" y1="91.72" x2="481.24" y2="341.68" xlink:href="#linear-gradient-3"/><linearGradient id="linear-gradient-101" x1="301.09" y1="99.13" x2="470.29" y2="349.09" xlink:href="#linear-gradient-3"/><linearGradient id="linear-gradient-102" x1="291.27" y1="105.78" x2="460.47" y2="355.73" xlink:href="#linear-gradient-3"/><linearGradient id="linear-gradient-103" x1="280.33" y1="113.19" x2="449.53" y2="363.15" xlink:href="#linear-gradient-3"/><linearGradient id="linear-gradient-104" x1="270.51" y1="119.84" x2="439.71" y2="369.79" xlink:href="#linear-gradient-3"/><linearGradient id="linear-gradient-105" x1="259.56" y1="127.25" x2="428.76" y2="377.2" xlink:href="#linear-gradient-3"/><linearGradient id="linear-gradient-106" x1="249.74" y1="133.9" x2="418.94" y2="383.85" xlink:href="#linear-gradient-3"/><linearGradient id="linear-gradient-107" x1="238.79" y1="141.31" x2="407.99" y2="391.26" xlink:href="#linear-gradient-3"/><linearGradient id="linear-gradient-108" x1="228.97" y1="147.95" x2="398.17" y2="397.91" xlink:href="#linear-gradient-3"/><linearGradient id="linear-gradient-109" x1="218.03" y1="155.36" x2="387.23" y2="405.32" xlink:href="#linear-gradient-3"/><linearGradient id="linear-gradient-110" x1="208.21" y1="162.01" x2="377.41" y2="411.96" xlink:href="#linear-gradient-3"/><linearGradient id="linear-gradient-111" x1="260.8" y1="167.31" x2="255.47" y2="147.75" gradientTransform="matrix(1, 0, 0, 1, 0, 0)" xlink:href="#linear-gradient-24"/><linearGradient id="linear-gradient-112" x1="252.22" y1="155.91" x2="262.96" y2="155.91" xlink:href="#linear-gradient"/><linearGradient id="linear-gradient-113" x1="252.28" y1="152" x2="273.71" y2="168.37" gradientTransform="matrix(1, 0, 0, 1, 0, 0)" xlink:href="#linear-gradient-24"/><linearGradient id="linear-gradient-114" x1="251.24" y1="152.82" x2="271.09" y2="135.03" xlink:href="#linear-gradient"/><linearGradient id="linear-gradient-115" x1="-934.41" y1="164.68" x2="-924.46" y2="135.07" gradientTransform="matrix(-1, 0, 0, 1, -671.67, 0)" xlink:href="#linear-gradient-2"/><linearGradient id="linear-gradient-116" x1="253.8" y1="155.68" x2="273.65" y2="137.89" xlink:href="#linear-gradient"/><linearGradient id="linear-gradient-117" x1="222.7" y1="323.85" x2="226.3" y2="281.52" xlink:href="#linear-gradient"/><linearGradient id="linear-gradient-118" x1="205.69" y1="328.03" x2="227.7" y2="328.03" gradientTransform="matrix(1, 0, 0, 1, 0, 0)" xlink:href="#linear-gradient-2"/><linearGradient id="linear-gradient-119" x1="315.14" y1="278.59" x2="171.92" y2="253.57" gradientUnits="userSpaceOnUse"><stop offset="0" stop-color="#8a008b"/><stop offset="1" stop-color="#010080"/></linearGradient><linearGradient id="linear-gradient-120" x1="323.04" y1="322.72" x2="287.9" y2="285.98" xlink:href="#linear-gradient"/><linearGradient id="linear-gradient-121" x1="305.52" y1="321.37" x2="318.24" y2="321.37" gradientTransform="matrix(1, 0, 0, 1, 0, 0)" xlink:href="#linear-gradient-2"/><linearGradient id="linear-gradient-122" x1="177.93" y1="206.44" x2="206.13" y2="222.97" xlink:href="#linear-gradient"/><linearGradient id="linear-gradient-123" x1="401.39" y1="106.1" x2="518.19" y2="106.1" gradientTransform="matrix(1, 0, 0, 1, 0, 0)" xlink:href="#linear-gradient-2"/><linearGradient id="linear-gradient-125" x1="374.78" y1="92.73" x2="374.54" y2="114.56" xlink:href="#linear-gradient"/><linearGradient id="linear-gradient-126" x1="479.93" y1="180.52" x2="522.12" y2="149.24" xlink:href="#linear-gradient"/><linearGradient id="linear-gradient-127" x1="412.18" y1="154.7" x2="423.58" y2="102.81" xlink:href="#linear-gradient"/><linearGradient id="linear-gradient-128" x1="416.95" y1="134.47" x2="430.29" y2="116.04" xlink:href="#linear-gradient"/><linearGradient id="linear-gradient-129" x1="378.53" y1="151.05" x2="538.23" y2="277.13" gradientUnits="userSpaceOnUse"><stop offset="0" stop-color="#ffbd2c"/><stop offset="0.11" stop-color="#fdb42d"/><stop offset="0.29" stop-color="#f69d2e"/><stop offset="0.51" stop-color="#eb7731"/><stop offset="0.76" stop-color="#dd4334"/><stop offset="1" stop-color="#cd0c38"/></linearGradient><linearGradient id="linear-gradient-130" x1="431.39" y1="257.49" x2="392.35" y2="213.85" xlink:href="#linear-gradient"/><linearGradient id="linear-gradient-131" x1="368.28" y1="348.76" x2="440.71" y2="233.52" xlink:href="#linear-gradient-119"/><linearGradient id="New_Gradient_Swatch_2-8" x1="349.42" y1="221.74" x2="419.33" y2="221.74" xlink:href="#New_Gradient_Swatch_2"/><linearGradient id="linear-gradient-132" x1="349.42" y1="220.33" x2="419.33" y2="220.33" xlink:href="#linear-gradient-16"/><linearGradient id="linear-gradient-133" x1="358.15" y1="325.72" x2="394.52" y2="253.46" xlink:href="#linear-gradient"/><linearGradient id="linear-gradient-134" x1="352.98" y1="334.26" x2="422.95" y2="222.92" xlink:href="#linear-gradient-119"/><linearGradient id="New_Gradient_Swatch_2-9" x1="373.96" y1="259.1" x2="461.11" y2="161.91" xlink:href="#New_Gradient_Swatch_2"/></defs><title>Home4</title><g class="cls-2"><g id="Layer_1" data-name="Layer 1"><path class="cls-3" d="M393.31,156.86H3.84A3.85,3.85,0,0,1,0,153V20.22a3.84,3.84,0,0,1,3.84-3.83H393.31a3.84,3.84,0,0,1,3.83,3.83V153A3.85,3.85,0,0,1,393.31,156.86ZM3.84,17.91a2.31,2.31,0,0,0-2.31,2.31V153a2.31,2.31,0,0,0,2.31,2.31H393.31a2.32,2.32,0,0,0,2.31-2.31V20.22a2.32,2.32,0,0,0-2.31-2.31Z"/><path class="cls-3" d="M184.64,148.25H98.35a3.84,3.84,0,0,1-3.84-3.83v-1.95a3.84,3.84,0,0,1,3.84-3.83h86.29a3.84,3.84,0,0,1,3.83,3.83v1.95A3.84,3.84,0,0,1,184.64,148.25Zm-86.29-8.08a2.31,2.31,0,0,0-2.31,2.3v1.95a2.32,2.32,0,0,0,2.31,2.31h86.29a2.32,2.32,0,0,0,2.31-2.31v-1.95a2.31,2.31,0,0,0-2.31-2.3Z"/><path class="cls-3" d="M290.86,148.25H217.67a3.84,3.84,0,0,1-3.84-3.83v-1.95a3.84,3.84,0,0,1,3.84-3.83h73.19a3.84,3.84,0,0,1,3.84,3.83v1.95A3.84,3.84,0,0,1,290.86,148.25Zm-73.19-8.08a2.3,2.3,0,0,0-2.31,2.3v1.95a2.31,2.31,0,0,0,2.31,2.31h73.19a2.32,2.32,0,0,0,2.31-2.31v-1.95a2.31,2.31,0,0,0-2.31-2.3Z"/><path class="cls-3" d="M384.68,148.25h-73.2a3.84,3.84,0,0,1-3.83-3.83v-1.95a3.84,3.84,0,0,1,3.83-3.83h73.2a3.85,3.85,0,0,1,3.84,3.83v1.95A3.85,3.85,0,0,1,384.68,148.25Zm-73.2-8.08a2.3,2.3,0,0,0-2.3,2.3v1.95a2.31,2.31,0,0,0,2.3,2.31h73.2a2.32,2.32,0,0,0,2.31-2.31v-1.95a2.31,2.31,0,0,0-2.31-2.3Z"/><circle class="cls-4" cx="48.21" cy="129.77" r="38.51" transform="translate(-89.96 138.31) rotate(-73.15)"/><rect class="cls-4" x="0.76" y="159.66" width="395.62" height="17.56" rx="7.12"/><path class="cls-3" d="M147,303.54H3.84A3.84,3.84,0,0,1,0,299.71V189.38a3.84,3.84,0,0,1,3.84-3.83H147a3.84,3.84,0,0,1,3.84,3.83V299.71A3.84,3.84,0,0,1,147,303.54ZM3.84,187.08a2.3,2.3,0,0,0-2.31,2.3V299.71A2.3,2.3,0,0,0,3.84,302H147a2.31,2.31,0,0,0,2.31-2.3V189.38a2.31,2.31,0,0,0-2.31-2.3Z"/><path class="cls-3" d="M393.31,303.54H160.51a3.85,3.85,0,0,1-3.84-3.83V189.38a3.85,3.85,0,0,1,3.84-3.83h232.8a3.84,3.84,0,0,1,3.83,3.83V299.71A3.84,3.84,0,0,1,393.31,303.54ZM160.51,187.08a2.31,2.31,0,0,0-2.31,2.3V299.71a2.31,2.31,0,0,0,2.31,2.3h232.8a2.31,2.31,0,0,0,2.31-2.3V189.38a2.31,2.31,0,0,0-2.31-2.3Z"/><rect class="cls-4" x="14.24" y="212.5" width="122.63" height="11.4" rx="4.62"/><path class="cls-3" d="M100.51,235.45H50.6a3.69,3.69,0,0,1,0-7.38h49.91a3.69,3.69,0,1,1,0,7.38ZM50.6,229.59a2.17,2.17,0,0,0,0,4.33h49.91a2.17,2.17,0,1,0,0-4.33Z"/><path class="cls-3" d="M86.43,257.17H12.77a3.84,3.84,0,0,1-3.83-3.84v-1.55a3.84,3.84,0,0,1,3.83-3.84H86.43a3.84,3.84,0,0,1,3.83,3.84v1.55A3.84,3.84,0,0,1,86.43,257.17Zm-73.66-7.7a2.31,2.31,0,0,0-2.31,2.31v1.55a2.31,2.31,0,0,0,2.31,2.31H86.43a2.31,2.31,0,0,0,2.31-2.31v-1.55a2.31,2.31,0,0,0-2.31-2.31Z"/><path class="cls-3" d="M100.91,269.8H12.77A3.84,3.84,0,0,1,8.94,266v-1.56a3.84,3.84,0,0,1,3.83-3.84h88.14a3.84,3.84,0,0,1,3.83,3.84V266A3.84,3.84,0,0,1,100.91,269.8Zm-88.14-7.7a2.32,2.32,0,0,0-2.31,2.31V266a2.32,2.32,0,0,0,2.31,2.31h88.14a2.32,2.32,0,0,0,2.31-2.31v-1.56a2.32,2.32,0,0,0-2.31-2.31Z"/><rect class="cls-4" x="9.7" y="273.97" width="112.77" height="7.7" rx="3.12"/><circle class="cls-4" cx="174.08" cy="211.88" r="10.63" transform="translate(-67.83 82.74) rotate(-22.5)"/><path class="cls-3" d="M247,217.42H195.17a3.84,3.84,0,0,1-3.83-3.83v-3.41a3.84,3.84,0,0,1,3.83-3.83H247a3.84,3.84,0,0,1,3.84,3.83v3.41A3.84,3.84,0,0,1,247,217.42Zm-51.78-9.55a2.32,2.32,0,0,0-2.31,2.31v3.41a2.32,2.32,0,0,0,2.31,2.31H247a2.31,2.31,0,0,0,2.31-2.31v-3.41a2.31,2.31,0,0,0-2.31-2.31Z"/><path class="cls-3" d="M220.15,252.21H166.52a3.84,3.84,0,0,1-3.84-3.83v-8a3.84,3.84,0,0,1,3.84-3.83h53.63a3.84,3.84,0,0,1,3.83,3.83v8A3.84,3.84,0,0,1,220.15,252.21Zm-53.63-14.09a2.31,2.31,0,0,0-2.31,2.3v8a2.31,2.31,0,0,0,2.31,2.3h53.63a2.31,2.31,0,0,0,2.31-2.3v-8a2.31,2.31,0,0,0-2.31-2.3Z"/><path class="cls-3" d="M352.64,284H166.52a3.84,3.84,0,0,1-3.84-3.84v-20a3.84,3.84,0,0,1,3.84-3.84H352.64a3.84,3.84,0,0,1,3.83,3.84v20A3.84,3.84,0,0,1,352.64,284ZM166.52,257.8a2.31,2.31,0,0,0-2.31,2.31v20a2.32,2.32,0,0,0,2.31,2.31H352.64a2.31,2.31,0,0,0,2.3-2.31v-20a2.3,2.3,0,0,0-2.3-2.31Z"/><path class="cls-3" d="M286.39,252.21H232.76a3.84,3.84,0,0,1-3.83-3.83v-8a3.84,3.84,0,0,1,3.83-3.83h53.63a3.84,3.84,0,0,1,3.84,3.83v8A3.84,3.84,0,0,1,286.39,252.21Zm-53.63-14.09a2.31,2.31,0,0,0-2.31,2.3v8a2.31,2.31,0,0,0,2.31,2.3h53.63a2.31,2.31,0,0,0,2.31-2.3v-8a2.31,2.31,0,0,0-2.31-2.3Z"/><path class="cls-3" d="M352.64,252.21H299a3.84,3.84,0,0,1-3.84-3.83v-8a3.84,3.84,0,0,1,3.84-3.83h53.63a3.84,3.84,0,0,1,3.83,3.83v8A3.84,3.84,0,0,1,352.64,252.21ZM299,238.12a2.3,2.3,0,0,0-2.31,2.3v8a2.3,2.3,0,0,0,2.31,2.3h53.63a2.3,2.3,0,0,0,2.3-2.3v-8a2.3,2.3,0,0,0-2.3-2.3Z"/><circle class="cls-4" cx="426.91" cy="39.47" r="13.56"/><path class="cls-3" d="M500.17,43.72H449.88a4.26,4.26,0,0,1,0-8.51h50.29a4.26,4.26,0,1,1,0,8.51Zm-50.29-7a2.73,2.73,0,1,0,0,5.45h50.29a2.73,2.73,0,1,0,0-5.45Z"/><circle class="cls-4" cx="426.91" cy="74.01" r="13.56" transform="translate(18.95 219.94) rotate(-29.52)"/><path class="cls-3" d="M500.17,78.26H449.88a4.26,4.26,0,0,1,0-8.51h50.29a4.26,4.26,0,1,1,0,8.51Zm-50.29-7a2.73,2.73,0,1,0,0,5.45h50.29a2.73,2.73,0,1,0,0-5.45Z"/><circle class="cls-4" cx="426.91" cy="108.54" r="13.56" transform="translate(239.59 507.22) rotate(-79.1)"/><path class="cls-3" d="M500.17,112.8H449.88a4.26,4.26,0,0,1,0-8.51h50.29a4.26,4.26,0,1,1,0,8.51Zm-50.29-7a2.73,2.73,0,1,0,0,5.45h50.29a2.73,2.73,0,1,0,0-5.45Z"/><circle class="cls-4" cx="426.91" cy="143.08" r="13.56" transform="translate(-15.09 228.91) rotate(-29.52)"/><path class="cls-3" d="M500.17,147.34H449.88a4.26,4.26,0,0,1,0-8.51h50.29a4.26,4.26,0,1,1,0,8.51Zm-50.29-7a2.73,2.73,0,1,0,0,5.45h50.29a2.73,2.73,0,1,0,0-5.45Z"/><circle class="cls-4" cx="426.91" cy="177.62" r="13.56" transform="translate(155.95 552.3) rotate(-76.72)"/><path class="cls-3" d="M500.17,181.88H449.88a4.26,4.26,0,0,1,0-8.51h50.29a4.26,4.26,0,1,1,0,8.51Zm-50.29-7a2.73,2.73,0,1,0,0,5.45h50.29a2.73,2.73,0,1,0,0-5.45Z"/><circle class="cls-4" cx="426.91" cy="212.16" r="13.56" transform="translate(-13.97 30.8) rotate(-4.07)"/><path class="cls-3" d="M500.17,216.42H449.88a4.26,4.26,0,0,1,0-8.51h50.29a4.26,4.26,0,1,1,0,8.51Zm-50.29-7a2.73,2.73,0,1,0,0,5.45h50.29a2.73,2.73,0,1,0,0-5.45Z"/><circle class="cls-4" cx="426.91" cy="246.7" r="13.56" transform="translate(-49.41 374.13) rotate(-45)"/><path class="cls-3" d="M500.17,251H449.88a4.26,4.26,0,0,1,0-8.51h50.29a4.26,4.26,0,1,1,0,8.51Zm-50.29-7a2.73,2.73,0,1,0,0,5.45h50.29a2.73,2.73,0,1,0,0-5.45Z"/><circle class="cls-4" cx="426.91" cy="281.24" r="13.56" transform="matrix(0.18, -0.98, 0.98, 0.18, 72.46, 649.64)"/><path class="cls-3" d="M500.17,285.5H449.88a4.26,4.26,0,0,1,0-8.51h50.29a4.26,4.26,0,1,1,0,8.51Zm-50.29-7a2.73,2.73,0,1,0,0,5.45h50.29a2.73,2.73,0,1,0,0-5.45Z"/><path class="cls-5" d="M67.5,260.74s-1,40.24.87,49.07c2.08,9.58,3.33,16.46,6.36,19.76l-7.59-1.45L60.92,316.2l.09-.15a7.53,7.53,0,0,0,.54-6.87c-5.44-8.9-9.8-18.27-11-29Z"/><path class="cls-6" d="M62.39,315.06a.6.6,0,0,0-1-.19c-1,.95-2.82,3-2.5,5.44.38,3,3.54,9.71,4.13,11a.47.47,0,0,0,.32.25.45.45,0,0,0,.54-.51l-1.35-8.38L67,330.44a2.16,2.16,0,0,0,1.76,1.08l11.1.59a.53.53,0,0,0,.36-.94,22.76,22.76,0,0,0-8.66-4,8.87,8.87,0,0,1-5.95-4.92Z"/><path class="cls-7" d="M104.7,182.25S65.12,251,73.88,295.58a2.43,2.43,0,0,1-2.77,2.85,19.21,19.21,0,0,0-10.22.92c-6.13,2.46-9.8,3.16-14.29,1.54A2.4,2.4,0,0,1,45,298.65c-.16-10.91-.19-75,20-112.27Z"/><path class="cls-8" d="M52.23,281.09c.65-10.91,7.76-14.79,10.91-29.18,2.52-11.5-.2-17.41-.22-25.38,0-10.28,4.41-24.57,24-42.42l-21.79,2.27C44.84,223.66,44.87,287.74,45,298.65a2.4,2.4,0,0,0,1.57,2.24c3.73,1.35,6.9,1.09,11.38-.45C52.87,292.38,51.94,285.87,52.23,281.09Z"/><path class="cls-9" d="M140.07,282.16s16.93,41.11,16.66,47.18l-8.36-5.16s-4-7.08-3.85-7.62.57-.79.75-1.5c.6-2.39-2.12-5-2.94-5.82a62.5,62.5,0,0,1-14-21.85c-1.73-5.06-.8-6.36-.5-6.72C130.41,277.64,139.45,281.86,140.07,282.16Z"/><path class="cls-10" d="M145.8,315.06a.6.6,0,0,0-1-.19c-1,.95-2.82,3-2.51,5.44.39,3,3.54,9.71,4.14,11a.45.45,0,0,0,.86-.26L146,322.63l4.47,7.81a2.15,2.15,0,0,0,1.75,1.08l11.11.59a.53.53,0,0,0,.36-.94,22.84,22.84,0,0,0-8.66-4,8.85,8.85,0,0,1-5.95-4.92Z"/><path class="cls-7" d="M124.1,184.27s2.51,55.17,22.82,106.58a2.23,2.23,0,0,1-1.94,3.2c-2.82,0-6.62.38-9.23,1.91-4.63,2.73-12.34,4.44-14.16.41,0,0-28.11-59.19-27.13-109.91Z"/><path class="cls-11" d="M132.62,293.11c-2-3.56-.86-5.29-3.56-11.8-3.77-9.08-8-10.64-10.92-17.15-3.16-7.13-1-11.87-.66-20.71.84-23.43-13-30.49-10-43.87,1-4.46,3.87-9.69,11.23-14.91l-24.23,1.79c-1,50.72,27.13,109.91,27.13,109.91,1.74,3.85,8.85,2.46,13.52-.05A13.81,13.81,0,0,1,132.62,293.11Z"/><path class="cls-12" d="M14.92,150s1.27-.93,2.16,1.31-1.61,3.89-3,3.78a26.29,26.29,0,0,1-3.52-.62l-3.9,2.94a.38.38,0,0,1-.54-.5c1.15-1.86,3.06-4.8,3.92-5.22A50.74,50.74,0,0,1,14.92,150Z"/><path class="cls-13" d="M113.59,86.07s-2.65,4.63-10.27,1.74-18.57-22.9-39-20.61S30.66,82.74,30.69,101.37c0,21.74,9.52,35,39.42,35.95s50.42-33.16,50.42-33.16S122.49,85.29,113.59,86.07Z"/><path class="cls-14" d="M113.59,86.07s-2.65,4.63-10.27,1.74c-2.31-.87-4.94-3.33-8-6.27-4.9-.05-10.11.92-14,4.36-8.26,7.31-3.32,19.41-11,25-7,5.15-20.35,1.76-27.73-5.34-5.21-5-8-12.39-7.94-20.41a33.52,33.52,0,0,0-3.91,16.17c0,21.74,9.52,35,39.42,35.95s50.42-33.16,50.42-33.16S122.49,85.29,113.59,86.07Z"/><path class="cls-15" d="M12.57,149.84a118,118,0,0,1,47.29-35.31c10-4.06,41.42-16.71,72-5.24,14.05,5.28,21,13,31.62,10.31,11-2.85,17.55-14.8,21.28-24.23l5.09,1.39c4.11,18-3.21,36.2-17.69,45-17,10.39-35.5,2.71-37.31,1.93,2.8,6.59,21.79,52.42,4.18,67.87-4.17,3.65-8.94,4.34-19.62,5.15-45,3.39-67.54,5.08-73.51-3.28-9.26-13,3.46-43.92,32.19-72.58a54.69,54.69,0,0,0-25.27-4.24c-18.3,1.34-30.27,11.7-34,15.2Z"/><polygon class="cls-16" points="116.25 92.09 114.14 101.03 120.27 98.95 120.81 94.21 116.25 92.09"/><path class="cls-17" d="M99.73,122.71c-5.29-2.27-10.12-8.1-9.8-14,.44-8.27,10.83-15.18,18.7-14.69,4.63.28,6.57,3,11.59,2,4.61-.92,6.15-3.85,9-3.14s5.11,4.86,5.35,8C135.4,112.09,113.63,128.69,99.73,122.71Z"/><path class="cls-18" d="M113.59,84.41s.14-3.11-1.57-4.27-4.13-1.13-4.44,1.61c-.36,3.07,4.93,4.32,4.93,4.32Z"/><path class="cls-19" d="M121.23,84.59a12.81,12.81,0,0,1,2.85,4.66c.81,2.62.9,5.27-1.23,6.76s-5.07-.24-8.64-3.25S115,82.93,121.23,84.59Z"/><path class="cls-20" d="M112.64,84.35a6.43,6.43,0,0,0-1.27,4.26,6.82,6.82,0,0,0,3.51,5.13s-1.52-2.14.6-2.37,1.93-3.45.77-5a3.57,3.57,0,0,0,3.64.29c2.34-.87,3.17.36,3.17.36A6.66,6.66,0,0,0,120,83.3a6,6,0,0,0-7.35,1Z"/><path class="cls-21" d="M115.82,91.51s-.92-1.82-2.22-1.44-.69,3,2.07,2.61Z"/><path class="cls-22" d="M63.48,204.76c-1.79-3.42-3.76-7.18-4.11-12.06C57.6,168,100,153.13,96.29,137.21c-1.94-8.24-15-11.32-18.1-12.06-14-3.3-29.57,2.53-41.47,15.24a53.29,53.29,0,0,1,16.06-3.74,54.69,54.69,0,0,1,25.27,4.24c-28.73,28.66-41.45,59.59-32.19,72.58,3.61,5.05,13.26,6.43,30.26,6A43.7,43.7,0,0,1,63.48,204.76Z"/><path class="cls-23" d="M132.5,95.32a28.09,28.09,0,0,1-5.81,9.32c-5.66,6-15.77,11.17-20.51,8-3.09-2.09-2.65-6.89-5.07-7.23-2.88-.41-4.81,6.23-6.75,5.79-1.4-.32-2.67-4.27-2.24-8.62a12.18,12.18,0,0,0-2.19,6.14c-.32,5.93,4.51,11.76,9.8,14,13.9,6,35.67-10.62,34.85-21.82A11.55,11.55,0,0,0,132.5,95.32Z"/><path class="cls-24" d="M265.38,33.58a1,1,0,0,1-.64-1.65c2.28-2.11,5.38-5.86,5.38-10.71,0-7.67-1.22-22,13.87-21.19s39.2,4.73,46,10.78-.76,24.13-7.52,30.27-16.91,5.41-27.22.58C288.2,38.37,273.67,33.64,265.38,33.58Z"/><path class="cls-25" d="M282.61,20.5a5.52,5.52,0,1,1,6.85-3.74A5.52,5.52,0,0,1,282.61,20.5Zm2.62-8.92a3.78,3.78,0,1,0,2.57,4.69A3.79,3.79,0,0,0,285.23,11.58Z"/><path class="cls-25" d="M295.86,24.05a5.52,5.52,0,1,1,6.85-3.74A5.52,5.52,0,0,1,295.86,24.05Zm2.62-8.93a3.79,3.79,0,1,0,2.56,4.7A3.79,3.79,0,0,0,298.48,15.12Z"/><path class="cls-25" d="M309.1,27.6A5.52,5.52,0,1,1,316,23.85,5.54,5.54,0,0,1,309.1,27.6Zm2.62-8.93a3.78,3.78,0,1,0,2.57,4.7A3.79,3.79,0,0,0,311.72,18.67Z"/><path class="cls-7" d="M328.44,82.39C325,94.1,309.53,100.57,297.34,97S275.5,80.06,278.93,68.35,297.58,51,309.77,54.62,331.87,70.69,328.44,82.39Z"/><path class="cls-25" d="M293.47,69.1,297,81.78a2.46,2.46,0,0,0,3.58,1.48L314,75.67a2.45,2.45,0,0,0-.27-4.41c-4.44-1.82-11.4-4.36-17.55-5.25A2.46,2.46,0,0,0,293.47,69.1Z"/><path class="cls-24" d="M260.55,95.57l-3.45,15a3.1,3.1,0,0,0,2,3.64l20.59,6.86a3.11,3.11,0,0,0,3.94-2l5.24-15.77a3.12,3.12,0,0,0-1.67-3.81,66.9,66.9,0,0,0-23.45-6.37A3.12,3.12,0,0,0,260.55,95.57Z"/><path class="cls-25" d="M269.66,108.89a4.22,4.22,0,0,1-.91-1c-6.6-9.78-6.82-10.23-6.9-10.38a.82.82,0,0,1,1.47-.73c.21.4,2.75,4.21,6.79,10.2a2.35,2.35,0,0,0,2.83.88l12.24-4.84a.82.82,0,1,1,.6,1.52l-12.24,4.84A4,4,0,0,1,269.66,108.89Z"/><path class="cls-26" d="M274.88,59.41a.75.75,0,0,0-.75-.89l-.93,0a.76.76,0,0,1-.76-.74l0-2.61a.75.75,0,0,1,.74-.75H274a.75.75,0,0,0,.72-.93,13.28,13.28,0,0,0-.88-2.48.75.75,0,0,0-1.12-.28l-.66.48a.74.74,0,0,1-1.05-.16L269.49,49a.76.76,0,0,1,.16-1l.53-.39a.75.75,0,0,0,0-1.18,13.57,13.57,0,0,0-2.42-1.57.75.75,0,0,0-1.05.46l-.16.54a.75.75,0,0,1-.93.5l-2.5-.73a.75.75,0,0,1-.5-.93l.1-.34a.76.76,0,0,0-.7-1,13.42,13.42,0,0,0-2.29.14.74.74,0,0,0-.59,1l.09.27a.74.74,0,0,1-.46.95l-2.46.86a.74.74,0,0,1-1-.45l0-.11a.76.76,0,0,0-1.12-.38,13.62,13.62,0,0,0-1.69,1.34.75.75,0,0,0,.09,1.16l0,0a.74.74,0,0,1,.18,1l-1.49,2.14a.74.74,0,0,1-1,.18h0a.74.74,0,0,0-1.12.33,11.56,11.56,0,0,0-.41,1.17c-.08.28-.15.55-.21.83a.75.75,0,0,0,.74.91.73.73,0,0,1,.75.74l0,2.6a.75.75,0,0,1-.73.76h-.07a.75.75,0,0,0-.72.91,13.05,13.05,0,0,0,.64,2,.74.74,0,0,0,1.14.32l.08-.06a.75.75,0,0,1,1,.16l1.55,2.1a.75.75,0,0,1-.16,1l-.22.16a.75.75,0,0,0-.06,1.16,14.11,14.11,0,0,0,2.13,1.6.76.76,0,0,0,1.11-.43l.1-.34a.75.75,0,0,1,.93-.51l2.49.73a.75.75,0,0,1,.51.93l-.16.54a.74.74,0,0,0,.65,1,12.75,12.75,0,0,0,2.47,0,.74.74,0,0,0,.64-1l-.21-.61a.74.74,0,0,1,.46-1l2.45-.86a.75.75,0,0,1,1,.46l.26.76a.76.76,0,0,0,1.09.4,13.34,13.34,0,0,0,2.12-1.54.75.75,0,0,0-.06-1.18l-.71-.49a.75.75,0,0,1-.19-1l1.5-2.13a.75.75,0,0,1,1-.19l.76.54a.75.75,0,0,0,1.12-.32,14,14,0,0,0,.52-1.46C274.71,60.16,274.8,59.78,274.88,59.41ZM259.64,63a7.28,7.28,0,1,1,9-4.94A7.28,7.28,0,0,1,259.64,63Z"/><path class="cls-27" d="M337.49,51.44a.38.38,0,0,0-.37-.44h-.46a.36.36,0,0,1-.37-.36l0-1.29a.37.37,0,0,1,.37-.37h.43a.37.37,0,0,0,.35-.46A5.93,5.93,0,0,0,337,47.3a.36.36,0,0,0-.55-.14l-.32.24a.38.38,0,0,1-.52-.08l-.76-1a.36.36,0,0,1,.08-.51l.26-.2a.37.37,0,0,0,0-.58,6.73,6.73,0,0,0-1.19-.77.36.36,0,0,0-.52.22l-.08.27a.37.37,0,0,1-.46.25l-1.23-.36a.37.37,0,0,1-.25-.46l.05-.17a.36.36,0,0,0-.34-.47,7.2,7.2,0,0,0-1.14.06.37.37,0,0,0-.29.49l.05.13a.38.38,0,0,1-.23.47l-1.21.43a.38.38,0,0,1-.47-.23l0-.05a.37.37,0,0,0-.55-.19,7.51,7.51,0,0,0-.83.66.37.37,0,0,0,0,.57l0,0a.38.38,0,0,1,.09.51l-.74,1.06a.38.38,0,0,1-.51.09.37.37,0,0,0-.56.16c-.07.19-.14.38-.2.58s-.07.27-.1.41a.36.36,0,0,0,.36.44.37.37,0,0,1,.37.37l0,1.28a.38.38,0,0,1-.36.38h0a.37.37,0,0,0-.35.45,7.34,7.34,0,0,0,.31,1,.37.37,0,0,0,.56.15l.05,0a.37.37,0,0,1,.51.08l.76,1a.36.36,0,0,1-.08.51l-.1.08a.37.37,0,0,0,0,.57,7.48,7.48,0,0,0,1.06.79.36.36,0,0,0,.54-.21l0-.17a.37.37,0,0,1,.46-.25l1.23.36a.36.36,0,0,1,.25.46l-.07.26a.37.37,0,0,0,.31.48,7.11,7.11,0,0,0,1.22,0,.37.37,0,0,0,.32-.49l-.11-.3a.37.37,0,0,1,.23-.47L333.2,55a.36.36,0,0,1,.47.23l.13.37a.37.37,0,0,0,.54.2,7,7,0,0,0,1.05-.76.37.37,0,0,0,0-.58l-.34-.24a.38.38,0,0,1-.1-.52l.74-1.05a.37.37,0,0,1,.52-.09l.37.26a.37.37,0,0,0,.55-.15,6.93,6.93,0,0,0,.26-.72C337.4,51.8,337.45,51.62,337.49,51.44ZM330,53.22a3.59,3.59,0,1,1,4.46-2.44A3.59,3.59,0,0,1,330,53.22Z"/><path class="cls-26" d="M303.62,110.4a.27.27,0,0,0-.27-.31H303a.26.26,0,0,1-.27-.26v-.93a.26.26,0,0,1,.26-.27h.31a.27.27,0,0,0,.26-.33,4.4,4.4,0,0,0-.32-.88.27.27,0,0,0-.4-.1l-.23.17a.26.26,0,0,1-.37-.06l-.55-.75a.27.27,0,0,1,.05-.37l.19-.14a.27.27,0,0,0,0-.42,5.52,5.52,0,0,0-.86-.56.28.28,0,0,0-.38.17l-.05.19a.27.27,0,0,1-.33.18l-.89-.26a.25.25,0,0,1-.18-.33l0-.12a.26.26,0,0,0-.25-.34,4.4,4.4,0,0,0-.81,0,.27.27,0,0,0-.21.36l0,.09a.27.27,0,0,1-.16.34l-.88.31a.28.28,0,0,1-.34-.17v0a.26.26,0,0,0-.4-.14,5.39,5.39,0,0,0-.6.47.28.28,0,0,0,0,.42h0a.27.27,0,0,1,.07.37l-.54.76a.27.27,0,0,1-.37.07.26.26,0,0,0-.4.11c-.05.14-.1.28-.14.42s0,.2-.08.3a.28.28,0,0,0,.27.32.27.27,0,0,1,.27.26v.93a.27.27,0,0,1-.27.27h0a.27.27,0,0,0-.26.32,5.65,5.65,0,0,0,.23.73.27.27,0,0,0,.41.11l0,0a.26.26,0,0,1,.37.06l.55.75a.27.27,0,0,1-.06.37l-.08,0a.28.28,0,0,0,0,.42,5.38,5.38,0,0,0,.76.57.26.26,0,0,0,.39-.16l0-.12a.27.27,0,0,1,.33-.18l.89.26a.27.27,0,0,1,.18.33l-.06.19a.27.27,0,0,0,.23.34,4.41,4.41,0,0,0,.89,0,.26.26,0,0,0,.22-.35l-.07-.22a.26.26,0,0,1,.16-.34l.87-.31a.28.28,0,0,1,.34.17l.1.27a.26.26,0,0,0,.39.14,5,5,0,0,0,.75-.55.26.26,0,0,0,0-.41l-.26-.18a.27.27,0,0,1-.06-.37l.53-.76a.27.27,0,0,1,.37-.07l.27.19a.26.26,0,0,0,.4-.11c.07-.17.13-.34.19-.52S303.59,110.54,303.62,110.4Zm-5.43,1.29a2.59,2.59,0,1,1,3.22-1.76A2.59,2.59,0,0,1,298.19,111.69Z"/><path class="cls-28" d="M233.9,35.65c0-5.64,1.63-8.92,3.22-10.9,3.18-3.93,7-3.79,10.5-7.81a17.94,17.94,0,0,0,4.07-10l7.81,3.9c1,5.88-.34,9.08-1.7,10.89-2.9,3.91-7.31,3.36-12.7,7.4A24.23,24.23,0,0,0,238,37.72Z"/><path class="cls-29" d="M253.5,83.18s4.1-6,8.35-2.78,9.69-1.47,9.69-1.47l1.51,4.53s-6.89,4.27-10.64,2.24-8.11-.12-8.11-.12Z"/><path class="cls-30" d="M332.34,113.54S324,118.23,320.82,112,308.48,108,308.48,108l.86-6.26s10.66-1,13.91,3.57,9.55,4.88,9.55,4.88Z"/><path class="cls-31" d="M334.9,85.06s8.11-5.89,12.16.24,13.29,2.57,13.29,2.57l-.13,6.6s-10.94,2.38-14.88-2-10.51-3.9-10.51-3.9Z"/><path class="cls-28" d="M336.29,61.8s6.81-11.35,14.9-6,17.49-3.75,17.49-3.75l3.26,8.09s-12.08,8.55-19.13,5.25-14.79.7-14.79.7Z"/><path class="cls-32" d="M336.3,33s2.53-10,9.74-7.8,12.16-6.71,12.16-6.71l4.24,5.29s-7.07,9.06-13.05,8.19-10.84,3.83-10.84,3.83Z"/><path class="cls-26" d="M354.37,44.63c-.48,1.65-3.49,2.23-5.14,1.74a3.12,3.12,0,1,1,1.76-6C352.64,40.87,354.85,43,354.37,44.63Z"/><path class="cls-33" d="M343.49,72.77c.58,1.62-1.51,3.85-3.13,4.43a3.12,3.12,0,0,1-2.11-5.87C339.88,70.75,342.91,71.14,343.49,72.77Z"/><path class="cls-34" d="M283.71,49.91c-.91-1.46.66-4.08,2.12-5a3.12,3.12,0,1,1,3.3,5.3C287.66,51.12,284.62,51.37,283.71,49.91Z"/><path class="cls-26" d="M316.44,116.47c.52,1.64-1.66,3.79-3.3,4.3a3.12,3.12,0,0,1-1.87-6C312.91,114.31,315.92,114.83,316.44,116.47Z"/><path class="cls-28" d="M252,93.05c-1.31,1.13-4.14,0-5.27-1.32a3.12,3.12,0,1,1,4.72-4.07C252.53,89,253.25,91.93,252,93.05Z"/><path class="cls-26" d="M241.14,43.91c-1-1.4.39-4.12,1.78-5.13a3.12,3.12,0,1,1,3.64,5.06C245.17,44.85,242.14,45.3,241.14,43.91Z"/><path class="cls-28" d="M186,78.19s-2.29,14.84.48,24c2.24,7.39,12.89,5.44,10.17.87C189.45,91,197,85.25,194.38,79.9S186,78.19,186,78.19Z"/><path class="cls-28" d="M168.78,69.89h20.49a0,0,0,0,1,0,0v1.6a6.87,6.87,0,0,1-6.87,6.87h-6.75a6.87,6.87,0,0,1-6.87-6.87v-1.6A0,0,0,0,1,168.78,69.89Z" transform="translate(242.11 -109.07) rotate(86.51)"/><path class="cls-35" d="M231.28,94.59c-.3-17.38-2.47-31.42-3.05-49.89-11,9.71-24.39,14.76-40.84,13.8a6.16,6.16,0,0,0-6.58,6.17c0,.11,0,.22,0,.33l.93,15.21c0,.09,0,.19,0,.28a5.8,5.8,0,0,0,7.56,4.86C201.77,81.31,215.87,84.92,231.28,94.59Z"/><path class="cls-36" d="M230.19,74.13a16.48,16.48,0,0,1-9,4.35c-5.39.61-7.19-2.47-14.83-3.67-11.29-1.79-16.82,3.42-20.1.55-2-1.74-2.72-6.1,1.35-16.86h-.19a6.16,6.16,0,0,0-6.58,6.17c0,.11,0,.22,0,.33l.93,15.21c0,.09,0,.19,0,.28a5.8,5.8,0,0,0,7.56,4.86c12.44-4,26.54-.43,41.95,9.24C231.15,87.38,230.71,80.75,230.19,74.13Z"/><path class="cls-28" d="M226.35,42.65c1.45-.08,2.68,2.91,3.05,3.81,2.13,5.19.82,8.93.77,14.17-.11,9.95,4.49,9.61,3.73,18.54-.44,5.1-2.17,7.92-.59,12.19.47,1.28,1.49,3.4.58,4.52a2.51,2.51,0,0,1-2.69.6c-2.22-.94-1.24-5.67-2-14.32-.54-6-1.17-5.42-1.79-12.18-.81-8.82.4-8.29-.68-12.46-1.37-5.34-3.81-8-2.57-11.91C224.25,45.22,225.06,42.73,226.35,42.65Z"/><path class="cls-37" d="M184.72,95.37l-.28-1.73a2.65,2.65,0,0,1,1-2.52l3.83-3s.4,2.37-1.16,3.17-2.81,4.23-2.81,4.23Z"/><path class="cls-38" d="M232.4,173.06c5.59,7.85,10.88,18.31,8.36,28.73-3.31,13.71-17.36,15.93-17.21,25,.2,12.11,25.38,26.85,48.78,23.2,1.79-.28,22.52-3.83,32.27-20.75,11.85-20.58,3.27-53.63-25.2-75.32C262.18,157.58,246.42,163.78,232.4,173.06Z"/><path class="cls-39" d="M338.31,202.73S344,182,323,177.28c-17.43-3.93-25.32.83-25.32.83L279.4,154s36.89-10.72,60.47.15c25.77,11.88,16.06,39.57.28,50.69Z"/><path class="cls-40" d="M327.47,206.84l2-.64a5.83,5.83,0,0,1,4.19.28c1.52.7,3.6,1.42,4.83.83,2.1-1,2.26-2.77,1.35-3.87-.7-.85-5.25-1.69-7.35-2a1.92,1.92,0,0,0-1.76.63l-3.68,4.19A.38.38,0,0,0,327.47,206.84Z"/><path class="cls-41" d="M182.41,205.58c8.69,1.11,14.45-.68,18-2.42,11-5.36,16-17.41,28.28-27.29,7.73-6.23,10.12-5,10.12-5l.06.05h0a6.58,6.58,0,0,1,.83,2.13,51.47,51.47,0,0,1,1.8,7.7,79.65,79.65,0,0,0,1.4,19.8s-25.76,27.76-59.48,8.23Z"/><path class="cls-1" d="M339.87,154.1c-23.58-10.87-60.47-.15-60.47-.15-17.22,3.63-33,9.83-47,19.11-14.59,36.47-50,32.52-50,32.52l1,3.24c27.56,16,49.81.33,57-5.91-3.79,12.72-17.06,15.06-16.91,23.91.2,12.11,25.38,26.85,48.78,23.2,1.79-.28,22.52-3.83,32.27-20.75,8.12-14.11,6.64-34.08-4.27-52.24,3.62-1.12,11-2.38,22.66.25,21,4.72,15.32,25.45,15.32,25.45l1.84,2.06C355.93,193.67,365.64,166,339.87,154.1Z"/><g class="cls-42"><path class="cls-43" d="M268.58,132.33l-.2,0a.72.72,0,0,1-.69-.72,5.47,5.47,0,0,1,.52-2,3.84,3.84,0,0,1,3.48-2.2,2.83,2.83,0,0,0,2.46-1.53,4.46,4.46,0,0,0,.52-1.52.7.7,0,1,1,1.39.16,5.92,5.92,0,0,1-.68,2,4.21,4.21,0,0,1-3.63,2.25,2.79,2.79,0,0,0-2.65,2.83A.72.72,0,0,1,268.58,132.33Z"/><path class="cls-44" d="M261.77,136.36a1.55,1.55,0,1,1,2.25,1.69C263.2,138.45,261.62,137.25,261.77,136.36Z"/><path class="cls-45" d="M250.08,149.73a.64.64,0,0,1-.2,0,.7.7,0,0,1-.68-.72,5.13,5.13,0,0,1,.51-2,3.84,3.84,0,0,1,3.48-2.21,2.82,2.82,0,0,0,2.47-1.53,4.48,4.48,0,0,0,.51-1.51.7.7,0,0,1,.77-.62.7.7,0,0,1,.62.77,5.87,5.87,0,0,1-.68,2.05,4.2,4.2,0,0,1-3.63,2.24,2.81,2.81,0,0,0-2.65,2.84A.71.71,0,0,1,250.08,149.73Z"/><path class="cls-46" d="M243.28,153.77a1.55,1.55,0,1,1,2.24,1.69C244.7,155.85,243.12,154.66,243.28,153.77Z"/><path class="cls-47" d="M231.58,167.14a.41.41,0,0,1-.19,0,.69.69,0,0,1-.69-.71,5.13,5.13,0,0,1,.51-2,3.83,3.83,0,0,1,3.48-2.21,2.83,2.83,0,0,0,2.47-1.53,4.48,4.48,0,0,0,.51-1.51.7.7,0,0,1,.77-.62.69.69,0,0,1,.62.77,5.7,5.7,0,0,1-.68,2.05,4.21,4.21,0,0,1-3.63,2.24,2.81,2.81,0,0,0-2.65,2.84A.71.71,0,0,1,231.58,167.14Z"/><path class="cls-48" d="M224.78,171.18a1.54,1.54,0,1,1,2.24,1.68C226.2,173.26,224.62,172.06,224.78,171.18Z"/><path class="cls-49" d="M213.08,184.55a.62.62,0,0,1-.19,0,.7.7,0,0,1-.69-.71,5.13,5.13,0,0,1,.51-2,3.84,3.84,0,0,1,3.48-2.21,2.81,2.81,0,0,0,2.47-1.53,4.55,4.55,0,0,0,.51-1.51.7.7,0,0,1,1.4.15,6.15,6.15,0,0,1-.69,2.05,4.2,4.2,0,0,1-3.62,2.24,2.8,2.8,0,0,0-2.66,2.83A.7.7,0,0,1,213.08,184.55Z"/><path class="cls-50" d="M206.28,188.59a1.77,1.77,0,0,1,2.46-.89,1.75,1.75,0,0,1-.22,2.57C207.7,190.67,206.13,189.47,206.28,188.59Z"/><path class="cls-51" d="M194.58,202l-.19,0a.7.7,0,0,1-.69-.71,5.41,5.41,0,0,1,.51-2,3.85,3.85,0,0,1,3.49-2.2,2.83,2.83,0,0,0,2.46-1.53,5.13,5.13,0,0,0,.52-1.51.68.68,0,0,1,.77-.62.7.7,0,0,1,.62.77,6.06,6.06,0,0,1-.69,2,4.18,4.18,0,0,1-3.62,2.25,2.8,2.8,0,0,0-2.66,2.83A.7.7,0,0,1,194.58,202Z"/><path class="cls-52" d="M187.78,206a1.78,1.78,0,0,1,2.46-.9,1.76,1.76,0,0,1-.21,2.58C189.2,208.08,187.63,206.88,187.78,206Z"/><path class="cls-53" d="M176.08,219.36a.58.58,0,0,1-.19,0,.71.71,0,0,1-.69-.72,5.34,5.34,0,0,1,.51-2,3.85,3.85,0,0,1,3.49-2.2,2.83,2.83,0,0,0,2.46-1.53,4.74,4.74,0,0,0,.52-1.52.7.7,0,0,1,.77-.62.71.71,0,0,1,.62.78,5.81,5.81,0,0,1-.69,2,4.18,4.18,0,0,1-3.62,2.25,2.81,2.81,0,0,0-2.66,2.83A.68.68,0,0,1,176.08,219.36Z"/><path class="cls-54" d="M169.28,223.4a1.55,1.55,0,1,1,2.25,1.69C170.71,225.48,169.13,224.29,169.28,223.4Z"/><path class="cls-55" d="M284.52,142l-.2,0a.72.72,0,0,1-.69-.72,5.47,5.47,0,0,1,.52-2,3.84,3.84,0,0,1,3.48-2.2,2.83,2.83,0,0,0,2.46-1.53,4.46,4.46,0,0,0,.52-1.52.7.7,0,1,1,1.39.16,5.92,5.92,0,0,1-.68,2,4.21,4.21,0,0,1-3.63,2.25,2.79,2.79,0,0,0-2.65,2.83A.72.72,0,0,1,284.52,142Z"/><path class="cls-56" d="M277.71,146a1.55,1.55,0,1,1,2.25,1.69C279.14,148.07,277.56,146.87,277.71,146Z"/><path class="cls-57" d="M266,159.35a.64.64,0,0,1-.2,0,.7.7,0,0,1-.68-.72,5.13,5.13,0,0,1,.51-2,3.84,3.84,0,0,1,3.48-2.21,2.82,2.82,0,0,0,2.47-1.53,4.48,4.48,0,0,0,.51-1.51.7.7,0,0,1,.77-.62.7.7,0,0,1,.62.77,5.87,5.87,0,0,1-.68,2.05,4.2,4.2,0,0,1-3.63,2.24,2.81,2.81,0,0,0-2.65,2.84A.71.71,0,0,1,266,159.35Z"/><path class="cls-58" d="M259.22,163.39a1.55,1.55,0,1,1,2.24,1.69C260.64,165.47,259.06,164.28,259.22,163.39Z"/><path class="cls-59" d="M247.52,176.76a.41.41,0,0,1-.19,0,.69.69,0,0,1-.69-.71,5.13,5.13,0,0,1,.51-2,3.83,3.83,0,0,1,3.48-2.21,2.83,2.83,0,0,0,2.47-1.53,4.48,4.48,0,0,0,.51-1.51A.7.7,0,0,1,255,169a5.7,5.7,0,0,1-.68,2.05,4.21,4.21,0,0,1-3.63,2.24A2.81,2.81,0,0,0,248,176.1.71.71,0,0,1,247.52,176.76Z"/><path class="cls-60" d="M240.72,180.8a1.54,1.54,0,1,1,2.24,1.68C242.14,182.88,240.56,181.68,240.72,180.8Z"/><path class="cls-61" d="M229,194.17l-.19,0a.7.7,0,0,1-.69-.71,5.13,5.13,0,0,1,.51-2,3.84,3.84,0,0,1,3.48-2.21,2.81,2.81,0,0,0,2.47-1.53,4.55,4.55,0,0,0,.51-1.51.7.7,0,0,1,1.4.15,6.06,6.06,0,0,1-.69,2,4.19,4.19,0,0,1-3.62,2.25,2.8,2.8,0,0,0-2.66,2.83A.7.7,0,0,1,229,194.17Z"/><path class="cls-62" d="M222.22,198.21a1.77,1.77,0,0,1,2.46-.89,1.75,1.75,0,0,1-.22,2.57C223.64,200.29,222.07,199.09,222.22,198.21Z"/><path class="cls-63" d="M210.52,211.58l-.19,0a.7.7,0,0,1-.69-.71,5.41,5.41,0,0,1,.51-2,3.85,3.85,0,0,1,3.49-2.2,2.83,2.83,0,0,0,2.46-1.53,5.13,5.13,0,0,0,.52-1.51.68.68,0,0,1,.77-.62.7.7,0,0,1,.62.77,6.06,6.06,0,0,1-.69,2,4.18,4.18,0,0,1-3.62,2.25,2.8,2.8,0,0,0-2.66,2.83A.7.7,0,0,1,210.52,211.58Z"/><path class="cls-64" d="M203.72,215.62a1.78,1.78,0,0,1,2.46-.9,1.76,1.76,0,0,1-.21,2.58C205.14,217.7,203.57,216.5,203.72,215.62Z"/><path class="cls-65" d="M192,229a.58.58,0,0,1-.19,0,.71.71,0,0,1-.69-.72,5.24,5.24,0,0,1,.52-2,3.83,3.83,0,0,1,3.48-2.2,2.83,2.83,0,0,0,2.46-1.53,4.74,4.74,0,0,0,.52-1.52.7.7,0,1,1,1.39.16,5.81,5.81,0,0,1-.69,2,4.2,4.2,0,0,1-3.62,2.25,2.81,2.81,0,0,0-2.66,2.83A.68.68,0,0,1,192,229Z"/><path class="cls-66" d="M185.22,233a1.55,1.55,0,1,1,2.25,1.69C186.65,235.1,185.07,233.91,185.22,233Z"/><path class="cls-67" d="M303,142.74a.58.58,0,0,1-.19,0,.71.71,0,0,1-.69-.72,5.34,5.34,0,0,1,.51-2,3.84,3.84,0,0,1,3.49-2.21,2.81,2.81,0,0,0,2.46-1.53,4.64,4.64,0,0,0,.52-1.51.7.7,0,1,1,1.39.15,6,6,0,0,1-.69,2.05,4.17,4.17,0,0,1-3.62,2.24,2.82,2.82,0,0,0-2.66,2.84A.68.68,0,0,1,303,142.74Z"/><path class="cls-68" d="M296.21,146.78a1.55,1.55,0,1,1,2.25,1.69C297.63,148.86,296.06,147.67,296.21,146.78Z"/><path class="cls-69" d="M284.52,160.15a.68.68,0,0,1-.2,0,.7.7,0,0,1-.69-.71,5.47,5.47,0,0,1,.52-2,3.83,3.83,0,0,1,3.48-2.21,2.81,2.81,0,0,0,2.46-1.53,4.38,4.38,0,0,0,.52-1.51.7.7,0,0,1,1.39.15,5.94,5.94,0,0,1-.68,2,4.22,4.22,0,0,1-3.63,2.24,2.81,2.81,0,0,0-2.65,2.84A.71.71,0,0,1,284.52,160.15Z"/><path class="cls-70" d="M277.71,164.19a1.78,1.78,0,0,1,2.47-.89,1.76,1.76,0,0,1-.22,2.57C279.14,166.27,277.56,165.07,277.71,164.19Z"/><path class="cls-71" d="M266,177.56l-.2,0a.7.7,0,0,1-.68-.71,5.13,5.13,0,0,1,.51-2,3.83,3.83,0,0,1,3.48-2.21,2.84,2.84,0,0,0,2.47-1.53,4.55,4.55,0,0,0,.51-1.51.7.7,0,0,1,1.39.15,5.92,5.92,0,0,1-.68,2,4.21,4.21,0,0,1-3.63,2.25,2.79,2.79,0,0,0-2.65,2.83A.72.72,0,0,1,266,177.56Z"/><path class="cls-72" d="M259.22,181.6a1.54,1.54,0,1,1,2.24,1.68C260.64,183.68,259.06,182.48,259.22,181.6Z"/><path class="cls-73" d="M247.52,195l-.19,0a.7.7,0,0,1-.69-.71,5.12,5.12,0,0,1,.51-2,3.84,3.84,0,0,1,3.48-2.2,2.85,2.85,0,0,0,2.47-1.53,4.57,4.57,0,0,0,.51-1.52.7.7,0,1,1,1.39.16,5.68,5.68,0,0,1-.68,2,4.2,4.2,0,0,1-3.63,2.25A2.79,2.79,0,0,0,248,194.3.72.72,0,0,1,247.52,195Z"/><path class="cls-74" d="M240.72,199a1.54,1.54,0,1,1,2.24,1.68C242.14,201.09,240.56,199.89,240.72,199Z"/><path class="cls-75" d="M229,212.37a.63.63,0,0,1-.19,0,.7.7,0,0,1-.69-.72,5.13,5.13,0,0,1,.51-2,3.85,3.85,0,0,1,3.48-2.2,2.82,2.82,0,0,0,2.47-1.54,4.48,4.48,0,0,0,.51-1.51.71.71,0,0,1,.78-.62.7.7,0,0,1,.62.77,6,6,0,0,1-.69,2,4.21,4.21,0,0,1-3.62,2.25,2.8,2.8,0,0,0-2.66,2.83A.68.68,0,0,1,229,212.37Z"/><path class="cls-76" d="M222.22,216.41a1.55,1.55,0,1,1,2.24,1.69C223.64,218.49,222.07,217.3,222.22,216.41Z"/><path class="cls-77" d="M210.52,229.78a.4.4,0,0,1-.19,0,.69.69,0,0,1-.69-.71,5.34,5.34,0,0,1,.51-2,3.84,3.84,0,0,1,3.49-2.21,2.81,2.81,0,0,0,2.46-1.53,5,5,0,0,0,.52-1.51A.7.7,0,0,1,218,222a6.08,6.08,0,0,1-.69,2,4.17,4.17,0,0,1-3.62,2.24,2.82,2.82,0,0,0-2.66,2.84A.68.68,0,0,1,210.52,229.78Z"/><path class="cls-78" d="M203.72,233.82a1.77,1.77,0,0,1,2.46-.89,1.75,1.75,0,0,1-.21,2.57C205.14,235.9,203.57,234.71,203.72,233.82Z"/><path class="cls-79" d="M306.58,159.84a.63.63,0,0,1-.19,0,.7.7,0,0,1-.69-.72,5.13,5.13,0,0,1,.51-2,3.84,3.84,0,0,1,3.48-2.21,2.8,2.8,0,0,0,2.47-1.53,4.48,4.48,0,0,0,.51-1.51.71.71,0,0,1,.78-.62.7.7,0,0,1,.62.77,6,6,0,0,1-.69,2,4.18,4.18,0,0,1-3.62,2.24,2.81,2.81,0,0,0-2.66,2.84A.71.71,0,0,1,306.58,159.84Z"/><path class="cls-80" d="M299.78,163.88a1.55,1.55,0,1,1,2.24,1.69C301.2,166,299.63,164.77,299.78,163.88Z"/><path class="cls-81" d="M288.08,177.25a.58.58,0,0,1-.19,0,.69.69,0,0,1-.69-.71,5.34,5.34,0,0,1,.51-2,3.84,3.84,0,0,1,3.48-2.21,2.81,2.81,0,0,0,2.47-1.53,4.48,4.48,0,0,0,.51-1.51.7.7,0,0,1,1.4.15,6.08,6.08,0,0,1-.69,2,4.2,4.2,0,0,1-3.62,2.24,2.81,2.81,0,0,0-2.66,2.84A.68.68,0,0,1,288.08,177.25Z"/><path class="cls-82" d="M281.28,181.29a1.77,1.77,0,0,1,2.46-.89,1.75,1.75,0,0,1-.21,2.57C282.7,183.37,281.13,182.17,281.28,181.29Z"/><path class="cls-83" d="M269.58,194.66l-.19,0a.71.71,0,0,1-.69-.71,5.34,5.34,0,0,1,.51-2,3.84,3.84,0,0,1,3.49-2.21,2.81,2.81,0,0,0,2.46-1.53,4.72,4.72,0,0,0,.52-1.51.68.68,0,0,1,.77-.62.7.7,0,0,1,.62.77,6.06,6.06,0,0,1-.69,2,4.18,4.18,0,0,1-3.62,2.25A2.81,2.81,0,0,0,270.1,194,.7.7,0,0,1,269.58,194.66Z"/><path class="cls-84" d="M262.78,198.7a1.78,1.78,0,0,1,2.46-.9,1.76,1.76,0,0,1-.21,2.58C264.2,200.78,262.63,199.58,262.78,198.7Z"/><path class="cls-85" d="M251.09,212.07l-.2,0a.7.7,0,0,1-.68-.71,5.12,5.12,0,0,1,.51-2,3.84,3.84,0,0,1,3.48-2.2,2.83,2.83,0,0,0,2.46-1.53,4.46,4.46,0,0,0,.52-1.52.7.7,0,1,1,1.39.16,5.92,5.92,0,0,1-.68,2,4.21,4.21,0,0,1-3.63,2.25,2.79,2.79,0,0,0-2.65,2.83A.72.72,0,0,1,251.09,212.07Z"/><path class="cls-86" d="M244.28,216.11a1.79,1.79,0,0,1,2.47-.9,1.77,1.77,0,0,1-.22,2.58C245.71,218.19,244.13,217,244.28,216.11Z"/><path class="cls-87" d="M232.59,229.47a.64.64,0,0,1-.2,0,.7.7,0,0,1-.68-.72,5.13,5.13,0,0,1,.51-2,3.84,3.84,0,0,1,3.48-2.2,2.85,2.85,0,0,0,2.47-1.54,4.48,4.48,0,0,0,.51-1.51.7.7,0,0,1,.77-.62.69.69,0,0,1,.62.77,5.87,5.87,0,0,1-.68,2,4.23,4.23,0,0,1-3.63,2.25,2.79,2.79,0,0,0-2.65,2.83A.7.7,0,0,1,232.59,229.47Z"/><path class="cls-88" d="M225.79,233.51A1.55,1.55,0,1,1,228,235.2C227.21,235.59,225.63,234.4,225.79,233.51Z"/><path class="cls-89" d="M214.09,246.88a.63.63,0,0,1-.19,0,.7.7,0,0,1-.69-.72,5.13,5.13,0,0,1,.51-2A3.84,3.84,0,0,1,217.2,242a2.81,2.81,0,0,0,2.47-1.53,4.48,4.48,0,0,0,.51-1.51.7.7,0,0,1,.77-.62.69.69,0,0,1,.62.77,5.7,5.7,0,0,1-.68,2,4.19,4.19,0,0,1-3.63,2.24,2.81,2.81,0,0,0-2.65,2.84A.71.71,0,0,1,214.09,246.88Z"/><path class="cls-90" d="M207.29,250.92a1.77,1.77,0,0,1,2.46-.89,1.75,1.75,0,0,1-.22,2.57C208.71,253,207.14,251.81,207.29,250.92Z"/><path class="cls-91" d="M347.14,141.31l-.19,0a.71.71,0,0,1-.69-.72,5.34,5.34,0,0,1,.51-2,3.85,3.85,0,0,1,3.49-2.2,2.83,2.83,0,0,0,2.46-1.53,4.74,4.74,0,0,0,.52-1.52.7.7,0,0,1,.77-.62.71.71,0,0,1,.62.78,6.06,6.06,0,0,1-.69,2,4.18,4.18,0,0,1-3.62,2.25,2.8,2.8,0,0,0-2.66,2.83A.7.7,0,0,1,347.14,141.31Z"/><path class="cls-92" d="M340.34,145.35a1.55,1.55,0,1,1,2.25,1.68C341.76,147.43,340.19,146.23,340.34,145.35Z"/><path class="cls-93" d="M328.65,158.71a.69.69,0,0,1-.2,0,.72.72,0,0,1-.69-.72,5.47,5.47,0,0,1,.52-2,3.84,3.84,0,0,1,3.48-2.21,2.79,2.79,0,0,0,2.46-1.53,4.38,4.38,0,0,0,.52-1.51.7.7,0,0,1,.77-.62.7.7,0,0,1,.62.77,5.87,5.87,0,0,1-.68,2.05,4.2,4.2,0,0,1-3.63,2.24,2.81,2.81,0,0,0-2.65,2.84A.71.71,0,0,1,328.65,158.71Z"/><path class="cls-94" d="M321.84,162.75a1.55,1.55,0,1,1,2.25,1.69C323.27,164.83,321.69,163.64,321.84,162.75Z"/><path class="cls-95" d="M310.15,176.12a.44.44,0,0,1-.2,0,.69.69,0,0,1-.68-.71,5.13,5.13,0,0,1,.51-2,3.83,3.83,0,0,1,3.48-2.21,2.84,2.84,0,0,0,2.47-1.53,4.48,4.48,0,0,0,.51-1.51.7.7,0,0,1,.77-.62.7.7,0,0,1,.62.77,5.94,5.94,0,0,1-.68,2,4.22,4.22,0,0,1-3.63,2.24,2.81,2.81,0,0,0-2.65,2.84A.71.71,0,0,1,310.15,176.12Z"/><path class="cls-96" d="M303.35,180.16a1.54,1.54,0,1,1,2.24,1.68C304.77,182.24,303.19,181,303.35,180.16Z"/><path class="cls-97" d="M291.65,193.53a.62.62,0,0,1-.19,0,.7.7,0,0,1-.69-.71,5.13,5.13,0,0,1,.51-2,3.83,3.83,0,0,1,3.48-2.21,2.83,2.83,0,0,0,2.47-1.53,4.48,4.48,0,0,0,.51-1.51.7.7,0,0,1,1.39.15,5.75,5.75,0,0,1-.68,2,4.21,4.21,0,0,1-3.63,2.24,2.8,2.8,0,0,0-2.65,2.83A.72.72,0,0,1,291.65,193.53Z"/><path class="cls-98" d="M284.85,197.57a1.54,1.54,0,1,1,2.24,1.68C286.27,199.65,284.69,198.45,284.85,197.57Z"/><path class="cls-99" d="M273.15,210.94l-.19,0a.7.7,0,0,1-.69-.71,5.19,5.19,0,0,1,.51-2,3.85,3.85,0,0,1,3.48-2.2,2.83,2.83,0,0,0,2.47-1.53,4.63,4.63,0,0,0,.51-1.51.7.7,0,0,1,1.4.15,6.06,6.06,0,0,1-.69,2,4.19,4.19,0,0,1-3.62,2.25,2.8,2.8,0,0,0-2.66,2.83A.7.7,0,0,1,273.15,210.94Z"/><path class="cls-100" d="M266.35,215a1.78,1.78,0,0,1,2.46-.9,1.76,1.76,0,0,1-.22,2.58C267.77,217.06,266.2,215.86,266.35,215Z"/><path class="cls-101" d="M254.65,228.34a.58.58,0,0,1-.19,0,.7.7,0,0,1-.69-.72,5.34,5.34,0,0,1,.51-2,3.85,3.85,0,0,1,3.49-2.2,2.83,2.83,0,0,0,2.46-1.53,5,5,0,0,0,.52-1.52.7.7,0,0,1,.77-.62.71.71,0,0,1,.62.78,6.06,6.06,0,0,1-.69,2,4.18,4.18,0,0,1-3.62,2.25,2.8,2.8,0,0,0-2.66,2.83A.68.68,0,0,1,254.65,228.34Z"/><path class="cls-102" d="M247.85,232.38a1.55,1.55,0,1,1,2.25,1.69C249.27,234.46,247.7,233.27,247.85,232.38Z"/><path class="cls-103" d="M346.78,163.84l-.19,0a.7.7,0,0,1-.69-.72,5.13,5.13,0,0,1,.51-2,3.85,3.85,0,0,1,3.48-2.2,2.83,2.83,0,0,0,2.47-1.53,4.57,4.57,0,0,0,.51-1.52.7.7,0,0,1,.77-.62.71.71,0,0,1,.63.78,6.06,6.06,0,0,1-.69,2,4.2,4.2,0,0,1-3.63,2.25,2.79,2.79,0,0,0-2.65,2.83A.72.72,0,0,1,346.78,163.84Z"/><path class="cls-104" d="M340,167.88a1.54,1.54,0,1,1,2.24,1.68C341.4,170,339.83,168.76,340,167.88Z"/><path class="cls-105" d="M328.28,181.24a.58.58,0,0,1-.19,0,.7.7,0,0,1-.69-.72,5.34,5.34,0,0,1,.51-2,3.86,3.86,0,0,1,3.48-2.21,2.8,2.8,0,0,0,2.47-1.53,4.48,4.48,0,0,0,.51-1.51.71.71,0,0,1,.78-.62.7.7,0,0,1,.62.77,6,6,0,0,1-.69,2.05,4.18,4.18,0,0,1-3.62,2.24,2.81,2.81,0,0,0-2.66,2.84A.68.68,0,0,1,328.28,181.24Z"/><path class="cls-106" d="M321.48,185.28a1.55,1.55,0,1,1,2.25,1.69C322.9,187.36,321.33,186.17,321.48,185.28Z"/><path class="cls-107" d="M309.78,198.65a.4.4,0,0,1-.19,0,.7.7,0,0,1-.69-.71,5.34,5.34,0,0,1,.51-2,3.84,3.84,0,0,1,3.49-2.21,2.81,2.81,0,0,0,2.46-1.53,4.64,4.64,0,0,0,.52-1.51.7.7,0,0,1,1.39.15,6.08,6.08,0,0,1-.69,2,4.17,4.17,0,0,1-3.62,2.24A2.82,2.82,0,0,0,310.3,198,.68.68,0,0,1,309.78,198.65Z"/><path class="cls-108" d="M303,202.69a1.77,1.77,0,0,1,2.46-.89,1.75,1.75,0,0,1-.21,2.57C304.4,204.77,302.83,203.57,303,202.69Z"/><path class="cls-109" d="M291.29,216.06a.68.68,0,0,1-.2,0,.71.71,0,0,1-.69-.71,5.47,5.47,0,0,1,.52-2,3.83,3.83,0,0,1,3.48-2.21,2.81,2.81,0,0,0,2.46-1.53,4.45,4.45,0,0,0,.52-1.51.7.7,0,0,1,1.39.15,6,6,0,0,1-.68,2,4.22,4.22,0,0,1-3.63,2.24,2.8,2.8,0,0,0-2.65,2.83A.72.72,0,0,1,291.29,216.06Z"/><path class="cls-110" d="M284.48,220.1a1.78,1.78,0,0,1,2.47-.89,1.76,1.76,0,0,1-.22,2.57C285.91,222.18,284.33,221,284.48,220.1Z"/><path class="cls-111" d="M272.79,233.47l-.2,0a.7.7,0,0,1-.68-.71,5.19,5.19,0,0,1,.51-2,3.84,3.84,0,0,1,3.48-2.2,2.86,2.86,0,0,0,2.47-1.53,4.63,4.63,0,0,0,.51-1.51.7.7,0,0,1,1.39.15,5.92,5.92,0,0,1-.68,2A4.21,4.21,0,0,1,276,230a2.79,2.79,0,0,0-2.65,2.83A.72.72,0,0,1,272.79,233.47Z"/><path class="cls-112" d="M266,237.51a1.79,1.79,0,0,1,2.47-.9,1.77,1.77,0,0,1-.22,2.58C267.41,239.59,265.83,238.39,266,237.51Z"/><path class="cls-113" d="M254.29,250.87a.63.63,0,0,1-.19,0,.7.7,0,0,1-.69-.72,5.13,5.13,0,0,1,.51-2,3.84,3.84,0,0,1,3.48-2.2,2.85,2.85,0,0,0,2.47-1.53,4.57,4.57,0,0,0,.51-1.52.7.7,0,1,1,1.39.16,5.68,5.68,0,0,1-.68,2,4.2,4.2,0,0,1-3.63,2.25,2.79,2.79,0,0,0-2.65,2.83A.7.7,0,0,1,254.29,250.87Z"/><path class="cls-114" d="M247.49,254.91a1.55,1.55,0,1,1,2.24,1.69C248.91,257,247.33,255.8,247.49,254.91Z"/><path class="cls-115" d="M369.46,164.55a.58.58,0,0,1-.19,0,.71.71,0,0,1-.69-.72,5.34,5.34,0,0,1,.51-2,3.85,3.85,0,0,1,3.49-2.2,2.82,2.82,0,0,0,2.46-1.54,5,5,0,0,0,.52-1.51.7.7,0,1,1,1.39.15,6,6,0,0,1-.69,2.05,4.17,4.17,0,0,1-3.62,2.24,2.82,2.82,0,0,0-2.66,2.84A.68.68,0,0,1,369.46,164.55Z"/><path class="cls-116" d="M362.66,168.59a1.55,1.55,0,1,1,2.25,1.69C364.08,170.67,362.51,169.48,362.66,168.59Z"/><path class="cls-117" d="M351,182a.4.4,0,0,1-.19,0,.7.7,0,0,1-.69-.71,5.47,5.47,0,0,1,.52-2,3.83,3.83,0,0,1,3.48-2.21,2.81,2.81,0,0,0,2.46-1.53,4.38,4.38,0,0,0,.52-1.51.7.7,0,1,1,1.39.15,5.83,5.83,0,0,1-.69,2.05,4.17,4.17,0,0,1-3.62,2.24,2.81,2.81,0,0,0-2.65,2.84A.71.71,0,0,1,351,182Z"/><path class="cls-118" d="M344.16,186a1.77,1.77,0,0,1,2.46-.89,1.75,1.75,0,0,1-.21,2.57C345.59,188.08,344,186.89,344.16,186Z"/><path class="cls-119" d="M332.47,199.37a.65.65,0,0,1-.2,0,.69.69,0,0,1-.68-.71,5.13,5.13,0,0,1,.51-2,3.83,3.83,0,0,1,3.48-2.21,2.81,2.81,0,0,0,2.46-1.53,4.38,4.38,0,0,0,.52-1.51.7.7,0,0,1,1.39.15,6,6,0,0,1-.68,2,4.22,4.22,0,0,1-3.63,2.24,2.8,2.8,0,0,0-2.65,2.84A.71.71,0,0,1,332.47,199.37Z"/><path class="cls-120" d="M325.66,203.41a1.78,1.78,0,0,1,2.47-.89,1.75,1.75,0,0,1-.22,2.57C327.09,205.49,325.51,204.29,325.66,203.41Z"/><path class="cls-121" d="M314,216.78l-.19,0a.7.7,0,0,1-.69-.71,5.13,5.13,0,0,1,.51-2,3.83,3.83,0,0,1,3.48-2.21,2.86,2.86,0,0,0,2.47-1.53,4.55,4.55,0,0,0,.51-1.51.7.7,0,0,1,1.39.15,5.68,5.68,0,0,1-.68,2,4.21,4.21,0,0,1-3.63,2.25,2.79,2.79,0,0,0-2.65,2.83A.72.72,0,0,1,314,216.78Z"/><path class="cls-122" d="M307.17,220.82a1.54,1.54,0,1,1,2.24,1.68C308.59,222.9,307,221.7,307.17,220.82Z"/><path class="cls-123" d="M295.47,234.18a.63.63,0,0,1-.19,0,.7.7,0,0,1-.69-.72,5.13,5.13,0,0,1,.51-2,3.85,3.85,0,0,1,3.48-2.2,2.83,2.83,0,0,0,2.47-1.53,4.57,4.57,0,0,0,.51-1.52.7.7,0,1,1,1.4.16,6.06,6.06,0,0,1-.69,2,4.19,4.19,0,0,1-3.62,2.25,2.8,2.8,0,0,0-2.66,2.83A.7.7,0,0,1,295.47,234.18Z"/><path class="cls-124" d="M288.67,238.22a1.78,1.78,0,0,1,2.46-.89,1.76,1.76,0,0,1-.22,2.58C290.09,240.31,288.52,239.11,288.67,238.22Z"/><path class="cls-125" d="M277,251.59a.58.58,0,0,1-.19,0,.7.7,0,0,1-.69-.72,5.34,5.34,0,0,1,.51-2,3.84,3.84,0,0,1,3.48-2.21,2.8,2.8,0,0,0,2.47-1.53,4.48,4.48,0,0,0,.51-1.51.71.71,0,0,1,.78-.62.7.7,0,0,1,.62.77,6,6,0,0,1-.69,2,4.18,4.18,0,0,1-3.62,2.24,2.81,2.81,0,0,0-2.66,2.84A.68.68,0,0,1,277,251.59Z"/><path class="cls-126" d="M270.17,255.63a1.55,1.55,0,1,1,2.25,1.69C271.59,257.71,270,256.52,270.17,255.63Z"/></g><path class="cls-127" d="M254.52,159.91c16-1.07,21.27-12.27,14.22-11.65-1.13.61-2.44,1.7-4.37,2.87-9.93,6-18.43,2.73-21.06,8.12-.06.13-.17.36-.28.66C245.14,158.7,249,160.28,254.52,159.91Z"/><polygon class="cls-128" points="252.22 153.31 257.03 161.29 262.96 158.31 255.64 150.52 252.22 153.31"/><path class="cls-129" d="M271.16,147.9a3,3,0,0,0-2.42.36c7.05-.62-5.94,10.79-14.29,9.71A17.93,17.93,0,0,0,243,159.91a4.39,4.39,0,0,0-.15,2.76c1,3.28,6.55,4.15,8.27,4.43,9.42,1.53,22.07-2.84,23.61-10.29C275.49,153.24,273.77,148.71,271.16,147.9Z"/><path class="cls-130" d="M251.84,145a80.24,80.24,0,0,1-1.76,8.49c-.63,1.58,1.69,2.95,3.16,2.88s3.79-.07,5.05-4.14,2.25-4.32,1.48-5S251.84,145,251.84,145Z"/><path class="cls-131" d="M257.45,152.12a2.47,2.47,0,0,1-.28-2.11,11.75,11.75,0,0,1,1.12-2.38s-4.42-1.4-7.23-.94,1.62-4.82,6.36-4.43,1.72,2.42,3.4,2.77,3.19,1.3,1.68,4S257.45,152.12,257.45,152.12Z"/><path class="cls-132" d="M257,151.6s1-2.18,2.34-1.47-.05,2.79-1.44,3S257,151.6,257,151.6Z"/><path class="cls-133" d="M218.77,307.29c.3-.06,4,17.81,4,17.81l3.8.55,2.8-18Z"/><path class="cls-134" d="M227.42,325l.28,5.63a1.19,1.19,0,0,1-1.16,1.25c-3.71.08-14.94.22-20.54-.66a.36.36,0,0,1-.08-.7c2.77-1.12,10-3.9,14.51-4.44a1.07,1.07,0,0,0,.93-1l0-.4a.67.67,0,0,1,.74-.62l4.87.48A.46.46,0,0,1,227.42,325Z"/><path class="cls-28" d="M240.58,216.68s-20.5,16.69-30.4,28a13.52,13.52,0,0,0-3.31,10.08c.73,8.33,3.13,26.9,11,60.4a3.13,3.13,0,0,0,2.91,2.42,34.82,34.82,0,0,0,8.48-.55,3.14,3.14,0,0,0,2.4-2.49c1.58-8.36,7.07-42.15-3.74-57.72l23.9-20.34L259.3,214C246.44,212,240.58,216.68,240.58,216.68Z"/><path class="cls-135" d="M259.3,214a36.23,36.23,0,0,0-10.39-.23c.54,5.69,0,12-3.61,17.36-8.63,12.8-29.63,12.16-29.82,18.64-.1,3.46,5.9,3.51,8.52,9.58,3.32,7.71-4.26,12.49-3.46,24.49.55,8.19,4.29,9.18,5.59,17.84a35.32,35.32,0,0,1-1.4,15.87,28.5,28.5,0,0,0,4.57-.55,3.14,3.14,0,0,0,2.4-2.49c1.58-8.36,7.07-42.15-3.74-57.72l23.9-20.34Z"/><polygon class="cls-136" points="303.67 295.37 313.85 313.25 311.2 315.95 297.8 303.43 303.67 295.37"/><path class="cls-137" d="M312.8,310.69l4.85,2.88a1.18,1.18,0,0,1,.4,1.65c-2,3.14-8.06,12.58-11.89,16.77a.37.37,0,0,1-.63-.32c.6-2.93,2.25-10.46,4.31-14.55a1.06,1.06,0,0,0-.3-1.32l-.32-.25a.68.68,0,0,1-.11-1l3.09-3.79A.48.48,0,0,1,312.8,310.69Z"/><path class="cls-28" d="M268.49,258.82l12.81-25.61a7.4,7.4,0,0,0-.82-7.94c-2.81-3.52-8.14-8.29-17.35-10.47-1.34-.32-2.61-.57-3.83-.76-7,16.24-11.89,32.13-13.41,47.52a10.3,10.3,0,0,0,4.08,10.8l50.26,35.38s6.83-5.32,7.81-9C308,298.73,296.57,268.54,268.49,258.82Z"/><path class="cls-138" d="M184.47,207.1a1.27,1.27,0,0,1-.57,1.36c-1.4.87-4.42,2.59-6,2.36-1.75-.26-3.46-.37-4.36-1.85a.52.52,0,0,1,.54-.78,11.59,11.59,0,0,0,3.82.15c2.33-.36,3.77-2.89,3.24-3.78s-1.42-1.41-.76-2,2.83,2.52,3.66,3.63A2.22,2.22,0,0,1,184.47,207.1Z"/><path class="cls-139" d="M421.44,149.84c-2.75-1.53-20.64-11.41-20-24.57.3-6.5,5-11.31,6.6-12.8,12.87-12,32.89-1.58,38-9.83,4.47-7.28-9.83-17.57-5.28-31C443.58,63,452.13,59,454.26,58c14.07-6.59,29,1,33.13,3.07,19.87,10.08,35,36,29.75,57.87C508.65,154.2,450.16,165.7,421.44,149.84Z"/><path class="cls-140" d="M487.39,61.09C483.27,59,468.33,51.43,454.26,58l-.37.18c13,1.75,24.24,8.23,30.66,18.3,10,15.65,7.78,39.19-1.62,44-9.81,5-22.73-12.89-35.88-7.11-9,4-7.09,14.08-15.84,17.46-8.13,3.14-21.79-1-28.88-10.07a15,15,0,0,0-.93,4.53c-.6,13.16,17.29,23,20,24.57,28.72,15.86,87.21,4.36,95.7-30.88C522.39,97.13,507.26,71.17,487.39,61.09Z"/><path class="cls-141" d="M374.65,103.93a15.35,15.35,0,0,0,4.77-4c1.08-1.36,1.87-2.86,1.62-3.08s-2.05,2.44-4.47,2.41c-1.62,0-2.83-1.26-4.57-3.06a21.26,21.26,0,0,1-3.29-4.4c-.74,3.56,0,5.39.78,6.39,1.11,1.4,2.82,1.8,3.26,3.5a4,4,0,0,1-.35,2.6Z"/><path class="cls-142" d="M478.56,180a8.34,8.34,0,0,1,4.23-1.28c2.55,0,3.93,1.29,5,.64.61-.39,1.16-1.49.59-4.81l-1.14-.77c-.18,1-.57,2.24-1.51,2.65-1.56.66-3.23-1.57-4.86-1.07C480,175.6,479.05,176.63,478.56,180Z"/><path class="cls-7" d="M377.11,103.28c-.91,2.11-8,19.17.67,30.39,1.86,2.39,4.46,4.55,8.94,6.58,13.82,6.26,27.8,3.26,39.57,1.18,31.49-5.57,47.23-8.35,55.29-2.1,5,3.9,10.35,12.77,7.35,36.11l-2.42-.92a30,30,0,0,0-13.43-14.69c-10.26-5.23-23.28-3.56-33.52,4.15,20.91,10.47,35.72,27,33.84,41.47-2.75,21.19-40.32,30.12-64.56,28.76-27.07-1.52-53.51-16.76-52.54-27,.55-5.78,9.48-6.39,20.3-18.35a67.68,67.68,0,0,0,13.66-23.51c-17.91,1.41-33.6-10.83-36.38-27-2.37-13.74,5-28.14,18.39-35Z"/><path class="cls-143" d="M406.25,145.6c2.93,1.6,16.08,2.06,16.45-.42.12-.81-1.42-1.09-2.35-2.72-1.67-2.94.3-7.28,2.55-10.82L416.35,134c0,.42.33,5.38-3.56,8.41a9.55,9.55,0,0,1-6.34,1.92A.69.69,0,0,0,406.25,145.6Z"/><path class="cls-144" d="M416,125.65s-5.82,6.67-1.94,9.85,8.82-2.44,8.82-2.44,3.59,0,3.73-2.29-3-.53-3-.53.87-2,.42-2.74-.14-1.92-3.57-.42S416,125.65,416,125.65Z"/><path class="cls-145" d="M484.23,159.91c-1.93-1.44-5.37-1.94-7.76-5.5-2-3-1.21-5.08-2.27-6.79-4.34-7.06-37.86-3.9-44,13.58-2.66,7.62.8,15.34,2.91,20,8.1,18.08,23.41,20.53,22.63,26.51-1.49,11.42-60.27,26.42-76.62,1.29-1.64-2.51-4.76-8.37-4.09-18.54-10.12,10.4-18.25,11.22-18.77,16.72-1,10.23,25.47,25.47,52.54,27,24.24,1.36,61.81-7.57,64.56-28.76,1.88-14.47-12.93-31-33.84-41.47,10.24-7.71,23.26-9.38,33.52-4.15a30,30,0,0,1,13.43,14.69l0,0C488,165.4,486.43,161.54,484.23,159.91Z"/><path class="cls-146" d="M421.59,244l-5.47-.8-.48,2.55c3.22-.3,5.18.47,6.43,1.44,1.87,1.47,2,3.28,3.85,6.17a21,21,0,0,0,4.86,5.27c-.6-6.47-4.76-12.64-6.72-15.23A3.39,3.39,0,0,1,421.59,244Z"/><path class="cls-147" d="M427.19,243.67c-2.08-.95-3.09-.29-3.09-.29l0,0c2,2.6,6.12,8.77,6.72,15.24,1.78,2,2.66,2.37,3.12,2.16C436.11,259.78,430.17,245,427.19,243.67Z"/><path class="cls-148" d="M385.93,191.88c-9,4.16-31.24,16.34-35.67,38.13-.78,3.82-1.52,7.73.26,11.5,5.65,12,32.57,13.84,68.34,5.23.15-1.36.31-2.73.47-4.09l-47-10.94,39.58-37.58C402.41,190.75,391.82,191.22,385.93,191.88Z"/><path class="cls-149" d="M419.33,242.65l-47-10.94,39.58-37.58c-9.48-3.38-20.07-2.91-26-2.25-1.1.51-2.4,1.14-3.84,1.9a26.4,26.4,0,0,1-2,14.13c-6.53,14.19-25,15.41-25.22,24-.12,5.29,6.75,10.15,11.64,12.12,13.56,5.45,24.77-6.2,35.16-.24a15.61,15.61,0,0,1,5.46,5.44q5.65-1.05,11.69-2.5C419,245.38,419.17,244,419.33,242.65Z"/><path class="cls-150" d="M366.1,312.85l1.45-5.41-3.23-1.05a19.45,19.45,0,0,1-1.45,6c-1.69,4-4,5.47-5.76,8.29a21.42,21.42,0,0,0-.22,5.08s4.3-.7,8.93-8.12A18.64,18.64,0,0,0,366.1,312.85Z"/><path class="cls-151" d="M356.89,325.74a21.42,21.42,0,0,1,.22-5.08c-.17.26-.33.53-.49.82,0,0-.25.44-.46.91,0,0-3.3,7.12-1.65,8.45,1.33,1.06,6-1.44,8.12-4.91a24.6,24.6,0,0,0,1.77-3.87,40.23,40.23,0,0,0,1.42-4.44C361.19,325,356.89,325.74,356.89,325.74Z"/><path class="cls-152" d="M376.51,237.93a312.14,312.14,0,0,0-13.62,71.42l4.42.91a75,75,0,0,0,15.36-27.53c3.57-12,.53-13.61,3.86-25.08,4.55-15.66,15.09-29.37,21.85-38.17,0,0,4.94-5.6,9.05-18a6.36,6.36,0,0,0,.12-4.78c-.7-1.43-2.36-2.75-11.05-4.12-2.81-.45-6.58-.93-11.08-1.2A311.07,311.07,0,0,0,376.51,237.93Z"/><path class="cls-25" d="M23.81,332.21a233.51,233.51,0,0,0,29.28,7.09c29.93,5.25,55.16,3.65,78.38,2,20.88-1.45,24.21-3,43.61-3.42,14.95-.32,27.86.27,36.83.68,16.82.76,24.12,1.79,34.53,2.16,2.84.1,6.57.22,11.43.12a186.6,186.6,0,0,0,20.71-1.64c17-2.12,25.48-3.18,31-3.16,15.27.06,16.63,3.59,38.1,5,1.85.12,10.45.65,21.8.26,19.39-.68,24.13-3.28,42.3-4.2,4.57-.24.63.11,26.53.26,21.61.12,31.34-.09,43.53-2.61a131.59,131.59,0,0,0,13.21-3.47Z"/><path class="cls-25" d="M498.31,332.65H21.49a.77.77,0,0,1-.76-.77.76.76,0,0,1,.76-.76H498.31a.76.76,0,0,1,.76.76A.77.77,0,0,1,498.31,332.65Z"/></g></g></svg>