<svg id="Layer_1" data-name="Layer 1" xmlns="http://www.w3.org/2000/svg" xmlns:xlink="http://www.w3.org/1999/xlink" viewBox="0 0 595.36 200.33"><defs><style>.cls-1{fill:#272361;}.cls-2{fill:url(#ÅÂÁ_Ï_ÌÌ_È_ËÂÌÚ_2);}.cls-3{fill:none;stroke:#fff;stroke-linejoin:round;stroke-width:1.4px;}.cls-4{fill:#fff;}.cls-5{fill:url(#ÅÂÁ_Ï_ÌÌ_È_ËÂÌÚ_2-2);}.cls-6{fill:#f2d0a7;}.cls-7{fill:url(#ÅÂÁ_Ï_ÌÌ_È_ËÂÌÚ_3);}.cls-8{fill:url(#ÅÂÁ_Ï_ÌÌ_È_ËÂÌÚ_3-2);}.cls-9{fill:#f8f9fc;}</style><linearGradient id="ÅÂÁ_Ï_ÌÌ_È_ËÂÌÚ_2" x1="96.72" y1="300.13" x2="478.02" y2="-19.82" gradientUnits="userSpaceOnUse"><stop offset="0.17" stop-color="#eb4294"/><stop offset="0.47" stop-color="#f06867"/><stop offset="1" stop-color="#f9aa19"/></linearGradient><linearGradient id="ÅÂÁ_Ï_ÌÌ_È_ËÂÌÚ_2-2" x1="273.12" y1="154.31" x2="292.23" y2="138.27" xlink:href="#ÅÂÁ_Ï_ÌÌ_È_ËÂÌÚ_2"/><linearGradient id="ÅÂÁ_Ï_ÌÌ_È_ËÂÌÚ_3" x1="279.35" y1="138.16" x2="286.25" y2="138.16" gradientUnits="userSpaceOnUse"><stop offset="0" stop-color="#f9aa19"/><stop offset="0.53" stop-color="#f06867"/><stop offset="0.83" stop-color="#eb4294"/></linearGradient><linearGradient id="ÅÂÁ_Ï_ÌÌ_È_ËÂÌÚ_3-2" x1="275.31" y1="130.23" x2="290.29" y2="130.23" xlink:href="#ÅÂÁ_Ï_ÌÌ_È_ËÂÌÚ_3"/></defs><title>Home1</title><rect class="cls-1" x="393.06" y="49.87" width="1.77" height="30.44"/><rect class="cls-1" x="400.52" y="37.29" width="1.77" height="27.8"/><rect class="cls-1" x="411.78" y="138.62" width="26.46" height="1.77"/><rect class="cls-1" x="419.79" y="131.02" width="26.23" height="1.77"/><rect class="cls-1" x="119.03" y="194.24" width="18.04" height="1.77"/><rect class="cls-1" x="124.5" y="189.06" width="17.89" height="1.77"/><path class="cls-2" d="M482.8,176.24h-24l2-26.1h20Zm-314.29-73v33.19H115.87V103.2Zm-45.59,25.6h-4.65v3.81h4.65Zm0-7.27h-4.65v3.81h4.65Zm0-7.28h-4.65v3.82h4.65Zm0-7.27h-4.65v3.82h4.65Zm36.25,0h-34v25.63h34Zm6.94,21.82h-4.64v3.81h4.64Zm0-7.27h-4.64v3.81h4.64Zm0-7.28h-4.64v3.82h4.64Zm0-7.27h-4.64v3.82h4.64Zm-27.89,19.18,11.12-5.41a.89.89,0,0,0,0-1.59l-11.13-5.71a.88.88,0,0,0-.86,0,.9.9,0,0,0-.43.75v11.13a.88.88,0,0,0,.42.75.89.89,0,0,0,.47.14A.92.92,0,0,0,138.22,126.16Zm8.76-6.23-8.27,4v-8.27Zm153.61,52.46H310v-2.14h-3.4q-.51,0-1.14.06l-1.18.1c.69-.73,1.34-1.43,1.95-2.12a22.15,22.15,0,0,0,1.6-2,11.09,11.09,0,0,0,1.09-1.92,4.72,4.72,0,0,0,.08-3.61,3.86,3.86,0,0,0-.88-1.34,4,4,0,0,0-1.37-.86,5.17,5.17,0,0,0-1.81-.3,5,5,0,0,0-2.45.55,7.82,7.82,0,0,0-2,1.58l1.39,1.4a7,7,0,0,1,1.23-1.09,2.49,2.49,0,0,1,1.47-.46,2.18,2.18,0,0,1,1.7.64,2.53,2.53,0,0,1,.59,1.76,3.58,3.58,0,0,1-.44,1.65,9.85,9.85,0,0,1-1.25,1.88c-.54.67-1.2,1.39-2,2.18s-1.65,1.64-2.61,2.57Zm12,0H315v-2.72l1.68-1.92,2.75,4.64h2.72l-4-6.34,3.66-4.36H319l-4,4.92H315V157h-2.46Zm-4.47-28.69V113.93a6.35,6.35,0,0,0-6.34-6.34H263.67a6.35,6.35,0,0,0-6.34,6.34V143.7a6.35,6.35,0,0,0,6.34,6.34h38.06A6.34,6.34,0,0,0,308.07,143.7Zm-6.34-34.34a4.58,4.58,0,0,1,4.58,4.57V143.7a4.59,4.59,0,0,1-4.58,4.58H263.67a4.58,4.58,0,0,1-4.57-4.58V113.93a4.58,4.58,0,0,1,4.57-4.57ZM527.21,93h-14v1.77h14Zm-6.11-6.77h-1.77V101h1.77ZM205.26,110.29h-8.71v1.77h8.71Zm-3.47-3.89H200v9.2h1.77ZM47.23,65.66H38.52v1.77h8.71Zm-3.47-3.89H42V71h1.77ZM396.52,3.89H387.8V5.66h8.72ZM393,0h-1.76V9.2H393ZM496.83,48.05a12.06,12.06,0,1,0-12.06,12.06A12.07,12.07,0,0,0,496.83,48.05Zm-1.77,0a10.29,10.29,0,1,1-10.29-10.29A10.3,10.3,0,0,1,495.06,48.05ZM389,192.05a5.77,5.77,0,1,0-5.77,5.76A5.78,5.78,0,0,0,389,192.05Zm-1.77,0a4,4,0,1,1-4-4A4,4,0,0,1,387.23,192.05ZM455.44,26.22A5.77,5.77,0,1,0,449.68,32,5.77,5.77,0,0,0,455.44,26.22Zm-1.76,0a4,4,0,1,1-4-4A4,4,0,0,1,453.68,26.22Zm-152.31,54a6.85,6.85,0,1,0-6.85,6.85A6.85,6.85,0,0,0,301.37,80.23Zm-1.77,0a5.08,5.08,0,1,1-5.08-5.07A5.09,5.09,0,0,1,299.6,80.23ZM269.08,11.05a9.61,9.61,0,1,0-9.6,9.61A9.62,9.62,0,0,0,269.08,11.05Zm-1.77,0a7.84,7.84,0,1,1-7.83-7.84A7.84,7.84,0,0,1,267.31,11.05ZM136.16,75.9a3.71,3.71,0,1,0-3.7,3.7A3.71,3.71,0,0,0,136.16,75.9Zm-1.77,0A1.94,1.94,0,1,1,132.46,74,1.93,1.93,0,0,1,134.39,75.9Zm-111,106.94a10.89,10.89,0,1,0-10.88,10.88A10.89,10.89,0,0,0,23.39,182.84Zm-1.76,0a9.12,9.12,0,1,1-9.12-9.12A9.13,9.13,0,0,1,21.63,182.84Zm62.86-47.31a3.81,3.81,0,1,0-3.81,3.81A3.81,3.81,0,0,0,84.49,135.53Zm-1.77,0a2,2,0,1,1-2-2A2,2,0,0,1,82.72,135.53Zm81.62,60.21a4.58,4.58,0,1,0-4.58,4.58A4.59,4.59,0,0,0,164.34,195.74Zm-1.77,0a2.81,2.81,0,1,1-2.81-2.81A2.81,2.81,0,0,1,162.57,195.74ZM126.83,38.23a12.26,12.26,0,1,0-12.26,12.26A12.27,12.27,0,0,0,126.83,38.23Zm-1.77,0a10.49,10.49,0,1,1-10.49-10.49A10.5,10.5,0,0,1,125.06,38.23ZM231.78,147.28A2.77,2.77,0,1,0,229,150,2.77,2.77,0,0,0,231.78,147.28Zm-1.77,0a1,1,0,1,1-1-1A1,1,0,0,1,230,147.28ZM41.78,98.46,30.27,88.26a.32.32,0,0,0-.54.24v5.26h0A16.31,16.31,0,0,0,16,107.82l-.15,1.12a.33.33,0,0,0,.54.29l1.08-1a18.62,18.62,0,0,1,12.3-4.64h0v5.43a.32.32,0,0,0,.54.24L41.79,99A.33.33,0,0,0,41.78,98.46ZM30.86,110,42.38,99.6a1.24,1.24,0,0,0,.4-.9,1.21,1.21,0,0,0-.41-.9h0L30.85,87.6a1.19,1.19,0,0,0-1.3-.2,1.21,1.21,0,0,0-.71,1.1V93a17.27,17.27,0,0,0-13.76,14.69l-.14,1.12a1.2,1.2,0,0,0,2,1.06l1.09-1a17.72,17.72,0,0,1,10.82-4.39v4.52a1.23,1.23,0,0,0,1.21,1.21A1.24,1.24,0,0,0,30.86,110Zm-14-2.39a15.5,15.5,0,0,1,13-12.94.89.89,0,0,0,.75-.88v-4l10.12,9-10.12,9.1v-4.17a.89.89,0,0,0-.88-.88A19.52,19.52,0,0,0,16.88,107.58Zm539.2,60.73v8.14h4.3A5.92,5.92,0,0,1,557,182.7l-.16.07-2.07.87,1.39,3.07,2-.77a9.4,9.4,0,0,0,6-8.79v-8.84Zm.4,19.23,2-.77a10.35,10.35,0,0,0,6.61-9.62v-8.84a.87.87,0,0,0-.88-.88h-8.14a.87.87,0,0,0-.88.88v8.14a.87.87,0,0,0,.88.88h3.48a5,5,0,0,1-2.91,4.56l-2.22.93a.89.89,0,0,0-.48.49.91.91,0,0,0,0,.69l1.39,3.08a.9.9,0,0,0,.81.52A.85.85,0,0,0,556.48,187.54Zm.9-4a6.85,6.85,0,0,0,3.88-7.19.89.89,0,0,0-.88-.75H557V169.2h6.37v8a8.59,8.59,0,0,1-5.48,8l-1.23.47L556,184.1Zm10-15.2v8.14h4.3a5.93,5.93,0,0,1-3.37,6.25l-.17.07-2.07.87,1.39,3.07,2-.77a9.41,9.41,0,0,0,6-8.79v-8.84Zm.4,19.23,2-.77a10.37,10.37,0,0,0,6.61-9.62v-8.84a.88.88,0,0,0-.88-.88h-8.14a.88.88,0,0,0-.89.88v8.14a.88.88,0,0,0,.89.88h3.47a5,5,0,0,1-2.91,4.56l-2.21.93a.89.89,0,0,0-.48.49.87.87,0,0,0,0,.69l1.39,3.08a.9.9,0,0,0,.8.52A.87.87,0,0,0,567.76,187.54Zm.89-4a6.84,6.84,0,0,0,3.88-7.19.87.87,0,0,0-.87-.75h-3.42V169.2h6.37v8a8.59,8.59,0,0,1-5.48,8l-1.22.47-.68-1.49Zm-89.94-75.9H459.48l9.61,9.62Zm-4.27,1.77-5.35,5.35-5.34-5.35Zm82.9-34.67H545.59l5.88,5.88Zm-4.27,1.77-1.6,1.61-1.61-1.61ZM50.92,158.06l-5.87,5.88H56.8Zm0,2.5,1.61,1.61H49.32Zm60.13,39.69a1.09,1.09,0,0,0,.68-1V193.5a3.65,3.65,0,0,0,2.54-3.47V175a3.64,3.64,0,0,0-3.64-3.64H82.33A3.64,3.64,0,0,0,78.7,175v15a3.64,3.64,0,0,0,3.63,3.64h21.18l6.34,6.34a1.1,1.1,0,0,0,.78.32A1,1,0,0,0,111.05,200.25Zm-.42-26.69a1.43,1.43,0,0,1,1.43,1.43v15a1.43,1.43,0,0,1-1.43,1.43,1.11,1.11,0,0,0-1.11,1.1v4l-4.77-4.78a1.14,1.14,0,0,0-.78-.32H82.33A1.43,1.43,0,0,1,80.91,190V175a1.43,1.43,0,0,1,1.42-1.43ZM423.1,77.23a2,2,0,1,0,2-2A2,2,0,0,0,423.1,77.23Zm6.09,0a2,2,0,1,0,2-2A2,2,0,0,0,429.19,77.23Zm-12.19,0a2,2,0,1,0,2-2A2,2,0,0,0,417,77.23Zm-51.7,37.7v16.43a2.76,2.76,0,0,0,2.77,2.76h0v7.28l7.28-7.28H399a2.76,2.76,0,0,0,2.77-2.76V114.93a2.77,2.77,0,0,0-2.77-2.77h-30.9A2.77,2.77,0,0,0,365.3,114.93ZM187.11,44.43v7.83H216a6.44,6.44,0,0,0,6.44-6.44V44.43Zm36.2,1.39V44.43a.88.88,0,0,0-.88-.89H187.11a.89.89,0,0,0-.89.89v7.83a.89.89,0,0,0,.89.89H216A7.33,7.33,0,0,0,223.31,45.82ZM188,45.31h33.55v.51A5.56,5.56,0,0,1,216,51.38H188Zm21.46-34.23H174.13V45.72a6.54,6.54,0,0,0,6.54,6.54H216a6.54,6.54,0,0,1-6.54-6.54Zm7.42,41.18a.87.87,0,0,0-.88-.88h0a5.66,5.66,0,0,1-5.65-5.66V11.08a.88.88,0,0,0-.89-.88H174.13a.88.88,0,0,0-.89.88V45.72a7.43,7.43,0,0,0,7.43,7.43H216A.88.88,0,0,0,216.87,52.26ZM208.57,12V45.72a7.39,7.39,0,0,0,2.62,5.66H180.67A5.67,5.67,0,0,1,175,45.72V12Zm144-4.05a.88.88,0,0,0-.44-.51L341,1.78a.88.88,0,0,0-1.18.4L338,5.75l-1.36,2.69-9.76,19.38h0a.74.74,0,0,0-.08.29v.08a.28.28,0,0,0,0,.09l1,11.91a.88.88,0,0,0,.48.71,1,1,0,0,0,.4.1.92.92,0,0,0,.47-.14l10.14-6.27h0a.27.27,0,0,0,.08-.07.49.49,0,0,0,.13-.12.91.91,0,0,0,.11-.16h0l9.76-19.39,1.35-2.69,1.8-3.57A.85.85,0,0,0,352.61,7.91ZM341,3.76l9.57,4.82-1,2L340,5.75ZM337.85,10l4,2-9,17.8-4-2Zm-8.39,28.58-.74-8.89,8.33,4.2Zm9-6-4-2,9-17.81,4,2Z"/><rect class="cls-1" x="336" y="38.92" width="28.46" height="1.77"/><rect class="cls-1" x="324.93" y="49.35" width="40.07" height="1.77"/><rect class="cls-1" x="324.93" y="60.66" width="40.07" height="1.77"/><rect class="cls-1" x="324.93" y="72.19" width="18.11" height="1.77"/><rect class="cls-1" x="347.49" y="32.92" width="25.45" height="1.77"/><path class="cls-3" d="M465.89,155.13V146.9a5.28,5.28,0,0,1,5.28-5.27h0a5.27,5.27,0,0,1,5.28,5.27v8.23"/><rect class="cls-1" x="473.94" y="187.79" width="28.6" height="1.77"/><rect class="cls-1" x="489.4" y="180.48" width="16.93" height="1.77"/><rect class="cls-1" x="169.96" y="149.16" width="27.05" height="1.77"/><rect class="cls-1" x="99.6" y="87.46" width="14.42" height="1.77"/><polygon class="cls-4" points="148.96 119.95 137.83 125.36 137.83 114.23 148.96 119.95"/><rect class="cls-1" x="150.51" y="157.75" width="32.97" height="1.77"/><rect class="cls-1" x="75.79" y="79.65" width="31.02" height="1.77"/><rect class="cls-1" x="307.19" y="184.14" width="23.15" height="1.77"/><rect class="cls-1" x="236.55" y="93.09" width="42.8" height="1.77"/><rect class="cls-1" x="321.28" y="177.74" width="28.98" height="1.77"/><rect class="cls-1" x="223.4" y="100.09" width="23.31" height="1.77"/><path class="cls-4" d="M294.51,165.14,288,171.56l-6.77-6.27a3.63,3.63,0,0,1-.66-4.49l.13-.22a3.62,3.62,0,0,1,5.12-1.2l2.18,1.43,1.93-1.27a3.63,3.63,0,0,1,5.25,1.44h0A3.61,3.61,0,0,1,294.51,165.14Z"/><rect class="cls-4" x="258.21" y="108.47" width="48.98" height="40.69" rx="4.94"/><path class="cls-1" d="M296,149.16H270c0-4.51,2.77-10.81,7.28-10.81H288.7c4.51,0,7.29,6.3,7.29,10.81Z"/><path class="cls-5" d="M296,150H270a.87.87,0,0,1-.88-.88c0-4.78,2.9-11.69,8.16-11.69h11.48c5.25,0,8.16,6.91,8.16,11.69A.87.87,0,0,1,296,150Zm-25.12-1.76h24.2c-.33-4-2.74-9.05-6.36-9.05H277.23C273.6,139.23,271.19,144.31,270.87,148.28Z"/><path class="cls-6" d="M279.35,134.38h6.9a0,0,0,0,1,0,0v4.67a2.88,2.88,0,0,1-2.88,2.88h-1.13a2.88,2.88,0,0,1-2.88-2.88v-4.67A0,0,0,0,1,279.35,134.38Z"/><path class="cls-7" d="M279.35,134.38h6.9a0,0,0,0,1,0,0v4.67a2.88,2.88,0,0,1-2.88,2.88h-1.13a2.88,2.88,0,0,1-2.88-2.88v-4.67A0,0,0,0,1,279.35,134.38Z"/><path class="cls-8" d="M285.65,137.06l-.76.55a4.21,4.21,0,0,1-4.18,0l-.78-.6a8.16,8.16,0,0,1-3.13-5.35l-1.49-9.36h15L289,131.42A8.18,8.18,0,0,1,285.65,137.06Z"/><path class="cls-4" d="M276.54,128.53l2.12-5.84.47.29a10.56,10.56,0,0,0,8.87,1h0l1.38,4.85s3.67-4.75,1.93-8.44h0c-1.83-3.94-6.78-5.6-10.95-4.4l-2.53.73h0C270.38,120.38,276.54,128.53,276.54,128.53Z"/><path class="cls-1" d="M289.38,129.7h-.16a.89.89,0,0,1-.69-.63l-1.14-4a11.41,11.41,0,0,1-8.27-1.07l-1.75,4.83a.89.89,0,0,1-.7.58.91.91,0,0,1-.84-.35c-.14-.18-3.35-4.5-2.38-8.56a6.87,6.87,0,0,1,4-4.58l.15-.06,2.52-.72c4.81-1.39,10.09.74,12,4.86s-1.87,9.15-2,9.36A.88.88,0,0,1,289.38,129.7ZM288,123.09a.87.87,0,0,1,.42.1.88.88,0,0,1,.44.54l.84,2.94c.83-1.56,1.74-4,.82-5.92-1.56-3.35-5.91-5.07-9.91-3.92l-2.44.71a5.16,5.16,0,0,0-3,3.37c-.48,2,.4,4.19,1.16,5.61l1.5-4.13a.87.87,0,0,1,.53-.53.88.88,0,0,1,.76.08l.47.28a9.6,9.6,0,0,0,8.12.91A.9.9,0,0,1,288,123.09Z"/><rect class="cls-1" x="287.19" y="121.83" width="2.75" height="1.77" transform="translate(57.81 335.04) rotate(-65.66)"/><rect class="cls-1" x="0.6" y="122.24" width="30.02" height="1.77"/><rect class="cls-1" x="21.48" y="129.25" width="21.4" height="1.77"/><rect class="cls-1" y="80.75" width="19.87" height="1.77"/><rect class="cls-1" x="571.53" y="195.63" width="23.83" height="1.77"/><rect class="cls-1" x="514.59" y="160.3" width="49.18" height="1.77"/><rect class="cls-1" x="539.18" y="151.23" width="11.56" height="1.77"/><path class="cls-4" d="M110.63,172.46H82.33A2.53,2.53,0,0,0,79.8,175v15a2.53,2.53,0,0,0,2.53,2.53H104l6.66,6.67v-6.67h0a2.53,2.53,0,0,0,2.53-2.53V175A2.53,2.53,0,0,0,110.63,172.46Z"/><circle class="cls-1" cx="96.48" cy="183.41" r="1.9"/><path class="cls-1" d="M100.26,183.41a1.9,1.9,0,1,0,1.89-1.89A1.89,1.89,0,0,0,100.26,183.41Z"/><circle class="cls-1" cx="90.81" cy="183.41" r="1.9"/><path class="cls-1" d="M440.91,95.51a.87.87,0,0,1-.62-.26l-6.91-6.91H410.49a3.61,3.61,0,0,1-3.61-3.6V68.57A3.61,3.61,0,0,1,410.49,65h30.42a3.61,3.61,0,0,1,3.61,3.61V84.74a3.62,3.62,0,0,1-2.72,3.5v6.39a.88.88,0,0,1-.55.81A.8.8,0,0,1,440.91,95.51ZM410.49,66.73a1.84,1.84,0,0,0-1.84,1.84V84.74a1.85,1.85,0,0,0,1.84,1.84h23.26a.85.85,0,0,1,.62.26L440,92.49v-5a.88.88,0,0,1,.88-.88,1.84,1.84,0,0,0,1.84-1.84V68.57a1.84,1.84,0,0,0-1.84-1.84Z"/><path class="cls-4" d="M381.63,123.69a1.9,1.9,0,1,0,1.89-1.9A1.89,1.89,0,0,0,381.63,123.69Z"/><path class="cls-4" d="M387.3,123.69a1.9,1.9,0,1,0,1.89-1.9A1.89,1.89,0,0,0,387.3,123.69Z"/><path class="cls-4" d="M376,123.69a1.9,1.9,0,1,0,1.89-1.9A1.89,1.89,0,0,0,376,123.69Z"/><path class="cls-9" d="M178.6,15.16H180l1.55,3,.6,1.32h0c0-.32-.07-.67-.11-1.06a8.86,8.86,0,0,1-.07-1.12V15.16h1.29v6H181.9l-1.56-3-.58-1.3h0c0,.33.07.68.11,1.06a10.42,10.42,0,0,1,.06,1.1v2.12H178.6Z"/><path class="cls-9" d="M185.94,15.16h3.75V16.3H187.3v1.2h2v1.12h-2V20h2.48v1.14h-3.84Z"/><path class="cls-9" d="M191.63,15.16H193l.41,2.8c0,.31.09.62.12.94s.09.63.13.94h0c0-.31.11-.63.16-.94l.18-.94.65-2.8h1.14l.65,2.8q.09.45.18.93l.18.95h0c0-.32.07-.64.11-.95l.12-.93.42-2.8h1.29l-1.06,6h-1.7l-.59-2.72c0-.23-.09-.46-.13-.7s-.07-.46-.11-.68h0c0,.22-.08.45-.11.68s-.08.47-.13.7l-.57,2.72h-1.67Z"/><path class="cls-9" d="M201.29,19.46a3.28,3.28,0,0,0,.71.45,1.94,1.94,0,0,0,.76.17,1.08,1.08,0,0,0,.63-.15.51.51,0,0,0,.2-.43.41.41,0,0,0-.06-.23.48.48,0,0,0-.17-.18l-.27-.15-.36-.15-.77-.33a2,2,0,0,1-.45-.24,2.5,2.5,0,0,1-.39-.34,1.74,1.74,0,0,1-.27-.46,1.78,1.78,0,0,1-.1-.59,1.59,1.59,0,0,1,.16-.69,1.89,1.89,0,0,1,.44-.57,2.09,2.09,0,0,1,.67-.38,2.63,2.63,0,0,1,.86-.14,2.86,2.86,0,0,1,1,.2,2.57,2.57,0,0,1,.89.59l-.67.85a2.67,2.67,0,0,0-.6-.35,1.67,1.67,0,0,0-.65-.13,1,1,0,0,0-.56.15.45.45,0,0,0-.2.4.37.37,0,0,0,.07.23.64.64,0,0,0,.19.17l.29.15.36.15.77.31a2.13,2.13,0,0,1,.86.61,1.53,1.53,0,0,1,.32,1,1.67,1.67,0,0,1-.15.71,1.69,1.69,0,0,1-.44.59,2.22,2.22,0,0,1-.71.4,2.56,2.56,0,0,1-1,.16,3.46,3.46,0,0,1-1.17-.22,3.22,3.22,0,0,1-1.05-.65Z"/><rect class="cls-1" x="177.8" y="29.71" width="12.78" height="2.01"/><rect class="cls-1" x="177.8" y="34.77" width="12.78" height="2.01"/><rect class="cls-1" x="177.8" y="40.13" width="12.78" height="2.01"/><rect class="cls-1" x="177.8" y="45.19" width="12.78" height="2.01"/><rect class="cls-1" x="195.82" y="36.14" width="9.92" height="2.01"/><rect class="cls-1" x="195.82" y="40.81" width="9.92" height="2.01"/><rect class="cls-1" x="195.82" y="45.19" width="9.92" height="2.01"/><rect class="cls-1" x="195.06" y="29.42" width="11.32" height="4.03"/><rect class="cls-1" x="175.35" y="60.35" width="20.47" height="1.77"/><rect class="cls-1" x="189.48" y="68.5" width="26.11" height="1.77"/></svg>