<svg id="Layer_1" data-name="Layer 1" xmlns="http://www.w3.org/2000/svg" xmlns:xlink="http://www.w3.org/1999/xlink" viewBox="0 0 209.92 187.7"><defs><style>.cls-1,.cls-3{fill:#fff;}.cls-1{opacity:0.57;}.cls-2{fill:url(#linear-gradient);}.cls-4{fill:url(#linear-gradient-2);}.cls-5{fill:url(#linear-gradient-3);}.cls-6{fill:#1b1464;}.cls-7{fill:url(#linear-gradient-4);}.cls-8{fill:url(#linear-gradient-5);}.cls-9{fill:url(#linear-gradient-6);}.cls-10{fill:url(#linear-gradient-7);}.cls-11{fill:#ffca06;}.cls-12{fill:url(#linear-gradient-8);}.cls-13{fill:url(#linear-gradient-9);}.cls-14{fill:url(#linear-gradient-10);}.cls-15{fill:url(#linear-gradient-11);}.cls-16{fill:url(#linear-gradient-12);}.cls-17{fill:#dfc3de;}</style><linearGradient id="linear-gradient" x1="183.9" y1="-47.66" x2="35.82" y2="162.92" gradientTransform="translate(86.57 -39.29) rotate(45)" gradientUnits="userSpaceOnUse"><stop offset="0" stop-color="#ff13e6"/><stop offset="0.09" stop-color="#ff19df"/><stop offset="0.23" stop-color="#ff29cb"/><stop offset="0.4" stop-color="#ff43aa"/><stop offset="0.59" stop-color="#ff687c"/><stop offset="0.8" stop-color="#ff9642"/><stop offset="1" stop-color="#ffc902"/></linearGradient><linearGradient id="linear-gradient-2" x1="-434.4" y1="-64.34" x2="-456.58" y2="173.61" gradientTransform="translate(30.36 524.57) rotate(101.4)" gradientUnits="userSpaceOnUse"><stop offset="0" stop-color="#ffc902"/><stop offset="0.2" stop-color="#ff9642"/><stop offset="0.41" stop-color="#ff687c"/><stop offset="0.6" stop-color="#ff43aa"/><stop offset="0.77" stop-color="#ff29cb"/><stop offset="0.91" stop-color="#ff19df"/><stop offset="1" stop-color="#ff13e6"/></linearGradient><linearGradient id="linear-gradient-3" x1="64.73" y1="115.58" x2="107.52" y2="64.98" gradientTransform="translate(6.61 -6.56) rotate(4.3)" xlink:href="#linear-gradient-2"/><linearGradient id="linear-gradient-4" x1="-3883.66" y1="-312.3" x2="-3872" y2="-285.77" gradientTransform="translate(4041.64 264.7) rotate(-2.09)" gradientUnits="userSpaceOnUse"><stop offset="0" stop-color="#c34327"/><stop offset="1" stop-color="#5c0f17"/></linearGradient><linearGradient id="linear-gradient-5" x1="-3742.41" y1="206.5" x2="-3734.71" y2="116.49" gradientTransform="translate(3904.52)" xlink:href="#linear-gradient-4"/><linearGradient id="linear-gradient-6" x1="-3726.92" y1="207.84" x2="-3719.22" y2="117.8" gradientTransform="translate(3904.52)" xlink:href="#linear-gradient-4"/><linearGradient id="linear-gradient-7" x1="-3742.22" y1="115.73" x2="-3738.37" y2="151.45" gradientTransform="translate(3904.52)" xlink:href="#linear-gradient"/><linearGradient id="linear-gradient-8" x1="-3743.26" y1="117.77" x2="-3741.81" y2="107.19" gradientTransform="translate(3904.52)" xlink:href="#linear-gradient-4"/><linearGradient id="linear-gradient-9" x1="-3737.29" y1="122.93" x2="-3727.68" y2="122.93" gradientTransform="translate(3904.52)" xlink:href="#linear-gradient-4"/><linearGradient id="linear-gradient-10" x1="-3865.04" y1="-176.39" x2="-3852.42" y2="-198.86" gradientTransform="translate(3984.18 -472.93) rotate(-11.2)" xlink:href="#linear-gradient-4"/><linearGradient id="linear-gradient-11" x1="-3862.36" y1="-174.88" x2="-3849.73" y2="-197.35" gradientTransform="translate(3984.18 -472.93) rotate(-11.2)" xlink:href="#linear-gradient-4"/><linearGradient id="linear-gradient-12" x1="-3885.96" y1="-311.29" x2="-3874.3" y2="-284.76" xlink:href="#linear-gradient-4"/></defs><title>HowWeDoIt3</title><circle class="cls-1" cx="90.71" cy="84.86" r="74.82" transform="translate(-20.12 140.94) rotate(-69.93)"/><circle class="cls-2" cx="90.71" cy="84.86" r="63.85" transform="translate(-33.43 89) rotate(-45)"/><path class="cls-3" d="M90.73,150.08a65.23,65.23,0,0,1-54.85-29.92,65.21,65.21,0,1,1,54.85,29.92Zm0-127.72a62.49,62.49,0,1,0,61.09,75.72l1.33.29-1.33-.29A62.51,62.51,0,0,0,90.7,22.36Z"/><circle class="cls-4" cx="90.71" cy="84.86" r="38.93" transform="translate(4.56 174.34) rotate(-89.17)"/><path class="cls-3" d="M90.8,125.16A40.32,40.32,0,0,1,51.34,76.33,40.28,40.28,0,1,1,90.8,125.16Zm-.16-77.88a37.63,37.63,0,1,0,8,.86A38.46,38.46,0,0,0,90.64,47.28Z"/><circle class="cls-5" cx="90.71" cy="84.86" r="15.08" transform="translate(-6.1 7.03) rotate(-4.3)"/><path class="cls-3" d="M90.75,101.31a16.86,16.86,0,0,1-3.52-.38,16.44,16.44,0,1,1,19.56-12.59h0a16.48,16.48,0,0,1-16,13Zm-.06-30.18a13.72,13.72,0,1,0,13.43,16.63h0a13.71,13.71,0,0,0-10.5-16.31A14,14,0,0,0,90.69,71.13Z"/><rect class="cls-3" x="152.56" y="-8.38" width="2.85" height="107.98" transform="translate(199.01 199.77) rotate(-122.78)"/><path class="cls-6" d="M110.25,69.19c1.37-.88,5.55,5.6,4.17,6.49L91.29,86.94a.81.81,0,0,1-.87-1.35Z"/><path class="cls-6" d="M200.1,17.61l9.82,3.18L193.16,31.58A21.8,21.8,0,0,1,174.65,34h0Z"/><path class="cls-6" d="M198.56,15.22,199.73,5,183,15.76a21.8,21.8,0,0,0-9.86,15.84h0Z"/><path class="cls-6" d="M165.39,92.55s2.13,1,2.52,2.23c.32,1,2.67,1.07,2.9,3a2.15,2.15,0,0,0,1.8,1.89c2.4.37,6.11,1.62,6.7,5.79.45,3.18-1.17,4.39-2.87,4.81a2.4,2.4,0,0,0-1.83,2.79c.24,1.21-.12,2.61-2.22,3.72-4.71,2.48-9.4-5.88-9.4-5.88l-1-14.61Z"/><path class="cls-7" d="M143.63,86.24s6.65,16.27,17.14,21.05c0,0-3.23,5.72-5,6.13,0,0-11.53-13.69-13.07-25.2Z"/><path class="cls-6" d="M184.73,184.11l.3,2.5a1,1,0,0,0,.91.91,16.37,16.37,0,0,0,3.35,0,.89.89,0,0,0,.74-1.15,9.11,9.11,0,0,0-1.68-3.27h-2.77A.85.85,0,0,0,184.73,184.11Z"/><path class="cls-8" d="M163,154.79l-.47,2.76s1.57,15.89,1.85,22.25a5,5,0,0,1-.74,2.83l-2.73,4.43,6.93-4.09.14-.85-1.13-1.56,1.48-17.8a5.44,5.44,0,0,0-.62-3l-1.43-2.7Z"/><path class="cls-6" d="M160.44,187.7h2.22a1.34,1.34,0,0,0,1.05-.51c.69-.9,2.12-2.65,2.81-2.69.92-.07.8,3.2.8,3.2h.51l.66-4.06a2.4,2.4,0,0,0-1.27-2.51h0a3.4,3.4,0,0,1-1.35,2.24c-1.14.69-4.64,3.15-4.64,3.15a3.3,3.3,0,0,0-.9,0A.59.59,0,0,0,160.44,187.7Z"/><path class="cls-9" d="M172.48,156.1s9.19,17.44,10.66,21.42a38.15,38.15,0,0,1,2,7.62c0,.49.64,1,2.32,1a1.63,1.63,0,0,0,1.51-.69,1,1,0,0,0,0-.95c-.54-1.07-2.22-4.51-2.85-6.07-.74-1.86-2.35-10.3-3.23-13.24s-1.87-6.11-5.71-9.05C177.21,156.1,174.58,153.53,172.48,156.1Z"/><path class="cls-10" d="M166.68,127.53c-2.38-10,3.63-15.73,3.63-15.73-3.79-3.63-10.69-5.29-10.69-5.29s-6.59,4.82-5.81,8.59c.46,2.21,4.63,13.24,4.63,13.24A9.19,9.19,0,0,0,166.68,127.53Z"/><path class="cls-11" d="M171.93,132.51c-1-2.91-5.25-5-5.25-5a9.19,9.19,0,0,1-8.24.81,16.41,16.41,0,0,0-.27,6.38c.6,3.07,4.35,22.83,4.35,22.83,5.9,1.2,15-1.2,15-1.2C173.74,149.67,172.9,135.41,171.93,132.51Z"/><path class="cls-12" d="M163.92,99.87l1.93,8.66c.19.76-.51.64-1.28.49-1.26-.24-2.89-.73-3.43-1.71a.75.75,0,0,1-.1-.33l-.83-6a1.06,1.06,0,0,1,.63-1.13l1.6-.71A1.08,1.08,0,0,1,163.92,99.87Z"/><path class="cls-13" d="M170.31,111.8s13.46,9.63,1.72,19.74a3,3,0,0,1-1.33.77,15.38,15.38,0,0,0-2.42,1.65.46.46,0,0,1-.67-.12h0a.64.64,0,0,1,0-.6l1.66-3.52a1.29,1.29,0,0,1,1.67-.07h0a.63.63,0,0,0,1-.22c.91-1.85,2.62-7.28-4.39-13.42a.76.76,0,0,1-.17-.92C167.81,114.14,168.93,112.26,170.31,111.8Z"/><path class="cls-14" d="M160.23,92a8.54,8.54,0,0,0-2.93,4.92c-.88,3.54.55,4.81,2,4.73a6.77,6.77,0,0,0,5.44-3.07C166.61,96,162.92,90.28,160.23,92Z"/><path class="cls-6" d="M162.9,97.14s.75-5.07-3.46-4.3l-.85.89s-2.06-2.32.22-4.08,5.45-1.3,7.2,1.89,2.38,5.44.91,7.42-2.57.28-2.57.28.68-1.71.12-2.45-1.28.43-1.28.43Z"/><path class="cls-15" d="M163.48,97.57s.37-2.61,1.7-1.86-.48,2.43-1.21,3Z"/><path class="cls-16" d="M143.15,89.26c-.08.3,1,.71,1.59-.51,0-.58.26-3.06-.1-3.51a45.9,45.9,0,0,0-5.58-5.43A.85.85,0,0,0,139,81l1.78,1.73a8.68,8.68,0,0,0-.93,2,2.45,2.45,0,0,0,.31,1.77c.32.53.76,1.22,1.17,1.76A2.33,2.33,0,0,0,143.15,89.26Z"/><path class="cls-17" d="M9.65,7.75a.27.27,0,0,1-.19-.08.25.25,0,0,1,0-.35l.76-.66a.25.25,0,1,1,.32.38l-.75.65A.23.23,0,0,1,9.65,7.75Z"/><path class="cls-17" d="M56.92,29h0a.25.25,0,0,1-.25-.25v-.22c0-.6,0-1.21-.06-1.81a.25.25,0,0,1,.23-.26.26.26,0,0,1,.27.23c0,.61.06,1.23.06,1.84v.22A.26.26,0,0,1,56.92,29Zm-.47-5.34a.26.26,0,0,1-.25-.21c-.12-.66-.27-1.32-.44-2a.26.26,0,0,1,.18-.3.25.25,0,0,1,.3.18c.17.66.33,1.34.45,2a.24.24,0,0,1-.2.29ZM55,18.54a.26.26,0,0,1-.23-.16l-.05-.14c-.23-.58-.49-1.16-.75-1.72a.24.24,0,0,1,.12-.33.24.24,0,0,1,.33.12c.27.56.52,1.15.76,1.74l.06.15a.26.26,0,0,1-.15.32Zm-2.4-4.79a.24.24,0,0,1-.21-.12q-.54-.86-1.14-1.68a.24.24,0,0,1,.05-.34.24.24,0,0,1,.35.05c.4.55.79,1.13,1.16,1.71a.26.26,0,0,1-.08.34A.33.33,0,0,1,52.57,13.75ZM49.3,9.5a.25.25,0,0,1-.18-.08c-.46-.49-.95-1-1.44-1.43a.24.24,0,0,1,0-.35.25.25,0,0,1,.35,0c.5.47,1,1,1.46,1.46a.25.25,0,0,1,0,.35A.23.23,0,0,1,49.3,9.5Zm-4-3.56a.23.23,0,0,1-.14,0q-.82-.6-1.68-1.14a.24.24,0,0,1-.08-.34.25.25,0,0,1,.34-.08c.58.37,1.16.75,1.71,1.16a.24.24,0,0,1,0,.34A.23.23,0,0,1,45.28,5.94ZM13.07,5.12A.26.26,0,0,1,12.86,5a.25.25,0,0,1,.07-.34c.58-.38,1.17-.74,1.77-1.07a.25.25,0,0,1,.24.44c-.59.32-1.17.67-1.74,1A.2.2,0,0,1,13.07,5.12Zm27.6-1.91-.11,0c-.61-.29-1.23-.56-1.86-.8a.25.25,0,0,1,.18-.46c.64.24,1.27.52,1.9.81a.25.25,0,0,1,.11.33A.24.24,0,0,1,40.67,3.21ZM17.82,2.63a.25.25,0,0,1-.23-.15.26.26,0,0,1,.13-.33L18.05,2c.53-.21,1.07-.41,1.61-.58a.24.24,0,0,1,.31.15.26.26,0,0,1-.16.32c-.53.17-1.06.36-1.57.57l-.33.13Zm17.8-1.24h-.06c-.65-.16-1.32-.31-2-.43a.26.26,0,0,1-.2-.29.25.25,0,0,1,.29-.2c.68.12,1.35.27,2,.44a.25.25,0,0,1,.17.31A.23.23,0,0,1,35.62,1.39ZM23,1.07a.27.27,0,0,1-.25-.2.26.26,0,0,1,.2-.3c.67-.13,1.35-.25,2-.34a.26.26,0,0,1,.28.22A.25.25,0,0,1,25,.73c-.67.08-1.34.2-2,.33ZM30.33.55h0C29.73.51,29.15.5,28.58.5h-.3A.25.25,0,0,1,28,.25.25.25,0,0,1,28.28,0h.29c.59,0,1.18,0,1.77.05a.25.25,0,0,1,.23.27A.23.23,0,0,1,30.33.55Z"/><path class="cls-17" d="M56.55,33.35h0a.24.24,0,0,1-.2-.28c0-.33.1-.65.14-1a.23.23,0,0,1,.27-.21.25.25,0,0,1,.22.28c0,.33-.09.66-.14,1A.25.25,0,0,1,56.55,33.35Z"/><path class="cls-17" d="M44.87,52a.26.26,0,0,1-.21-.11.24.24,0,0,1,.06-.34c.27-.19.54-.38.8-.58a.25.25,0,0,1,.35,0,.24.24,0,0,1,0,.34c-.27.21-.54.4-.81.59A.24.24,0,0,1,44.87,52Z"/><path class="cls-17" d="M30.07,57.13a.25.25,0,0,1,0-.5c.66,0,1.33-.09,2-.17a.25.25,0,1,1,.07.49c-.67.08-1.35.14-2,.18Zm-3.27,0h0c-.67,0-1.35-.11-2-.2a.25.25,0,0,1-.21-.28.25.25,0,0,1,.28-.21c.66.08,1.32.15,2,.19a.26.26,0,0,1,.24.27A.25.25,0,0,1,26.8,57.11Zm8.49-.75a.26.26,0,0,1-.24-.19.25.25,0,0,1,.18-.3c.65-.16,1.29-.34,1.92-.55a.25.25,0,0,1,.31.16.25.25,0,0,1-.16.32c-.64.2-1.29.39-1.95.55Zm-13.7-.08h-.07c-.65-.16-1.3-.36-1.94-.57a.25.25,0,0,1,.15-.47c.63.21,1.27.4,1.92.56a.26.26,0,0,1,.18.31A.25.25,0,0,1,21.59,56.28Zm18.69-1.65a.27.27,0,0,1-.23-.14.25.25,0,0,1,.13-.33c.6-.28,1.2-.57,1.79-.89a.24.24,0,0,1,.33.1.25.25,0,0,1-.1.34c-.59.32-1.2.62-1.82.9Zm-23.66-.12a.2.2,0,0,1-.11,0c-.61-.28-1.22-.59-1.81-.92a.26.26,0,0,1-.1-.34.25.25,0,0,1,.34-.09c.58.32,1.18.62,1.78.9a.25.25,0,0,1,.12.33A.25.25,0,0,1,16.62,54.51Zm-4.56-2.67a.28.28,0,0,1-.15,0c-.54-.39-1.08-.81-1.6-1.24a.25.25,0,0,1,0-.35.24.24,0,0,1,.35,0c.52.42,1.05.83,1.58,1.21a.25.25,0,0,1,.06.35A.23.23,0,0,1,12.06,51.84Zm-4-3.46a.24.24,0,0,1-.18-.07c-.47-.49-.92-1-1.35-1.52a.25.25,0,0,1,.38-.32c.42.51.87,1,1.33,1.5a.25.25,0,0,1,0,.35A.27.27,0,0,1,8.08,48.38ZM4.81,44.24a.26.26,0,0,1-.21-.11c-.37-.57-.72-1.16-1-1.75A.24.24,0,1,1,4,42.15c.32.57.66,1.15,1,1.71a.25.25,0,0,1-.08.34A.22.22,0,0,1,4.81,44.24ZM2.37,39.56a.24.24,0,0,1-.23-.15L2,39.11c-.21-.52-.41-1.06-.59-1.61a.25.25,0,0,1,.16-.31.26.26,0,0,1,.32.16c.17.53.36,1.06.57,1.58l.12.29a.24.24,0,0,1-.14.32A.15.15,0,0,1,2.37,39.56ZM.83,34.51a.26.26,0,0,1-.25-.19c-.13-.67-.25-1.34-.33-2A.23.23,0,0,1,.46,32a.25.25,0,0,1,.28.21c.08.65.2,1.31.33,2a.25.25,0,0,1-.19.29ZM.25,29.27A.26.26,0,0,1,0,29v-.43c0-.53,0-1.07.05-1.6a.25.25,0,1,1,.49,0c0,.52,0,1.05,0,1.57V29a.25.25,0,0,1-.24.25Z"/><path class="cls-17" d="M.67,24h0a.26.26,0,0,1-.21-.29c.06-.33.12-.66.19-1a.25.25,0,0,1,.3-.19.24.24,0,0,1,.19.29c-.07.32-.13.64-.19,1A.24.24,0,0,1,.67,24Z"/><path class="cls-6" d="M8,21.47a.34.34,0,0,0,.07.39l3,2.88a18.1,18.1,0,0,0-.27,5.84L7.55,33.17a.34.34,0,0,0-.1.38l1.68,4.67a.32.32,0,0,0,.32.22l4.14,0a17.84,17.84,0,0,0,3.93,4.32l-.45,4.11a.34.34,0,0,0,.2.34l4.49,2.12a.34.34,0,0,0,.38-.07l2.89-3a17.78,17.78,0,0,0,5.83.28l2.6,3.22a.33.33,0,0,0,.38.11l4.67-1.68a.35.35,0,0,0,.22-.33l0-4.13A18,18,0,0,0,43,39.78l4.11.44a.33.33,0,0,0,.34-.19l2.12-4.49a.35.35,0,0,0-.07-.39l-3-2.89a18,18,0,0,0,.28-5.83L50,23.84a.33.33,0,0,0,.11-.38l-1.68-4.67a.35.35,0,0,0-.33-.23L44,18.62a18,18,0,0,0-3.93-4.32l.44-4.11a.34.34,0,0,0-.19-.35L35.83,7.73a.34.34,0,0,0-.39.07l-2.89,3a18,18,0,0,0-5.83-.27L24.13,7.26a.34.34,0,0,0-.38-.1L19.08,8.84a.34.34,0,0,0-.23.32l.06,4.14a17.84,17.84,0,0,0-4.32,3.93l-4.11-.45a.36.36,0,0,0-.35.2Z"/><path class="cls-3" d="M28.8,33.28a4.86,4.86,0,0,1-.92-.09,4.7,4.7,0,0,1-3.05-2,4.78,4.78,0,1,1,4,2.11Zm0-8.81a3.94,3.94,0,0,0-2.24.69,4,4,0,0,0-1.09,5.6h0a4,4,0,0,0,6.69-4.51,4,4,0,0,0-2.57-1.71A4.29,4.29,0,0,0,28.78,24.47Z"/><path class="cls-3" d="M28.9,40.89a12.37,12.37,0,0,1-11.63-8.17h0a12.33,12.33,0,0,1-.59-2.32v-.07a1,1,0,0,1,0-.16l.74-.1a11.2,11.2,0,0,0,.58,2.4h0a11.59,11.59,0,0,0,14.51,7.11l.05,0,.12,0,.17-.06A11.62,11.62,0,0,0,40.5,28.53a11.45,11.45,0,0,0-.69-3.92,11.6,11.6,0,0,0-19.9-3.42l-.57-.47a12.23,12.23,0,0,1,5.37-3.8,12.37,12.37,0,0,1,15.8,7.44,12.18,12.18,0,0,1,.73,4.17,12.37,12.37,0,0,1-8.17,11.63A12.14,12.14,0,0,1,28.9,40.89Z"/><path class="cls-17" d="M50.1,46.83a.23.23,0,0,1-.18-.09.25.25,0,0,1,0-.35c.25-.22.51-.44.78-.64a.24.24,0,0,1,.34,0,.24.24,0,0,1,0,.35c-.26.2-.51.41-.75.62A.28.28,0,0,1,50.1,46.83Z"/><path class="cls-17" d="M70.76,54a.24.24,0,0,1-.24-.2A14.35,14.35,0,0,0,70,51.91a.25.25,0,0,1,.15-.32.25.25,0,0,1,.32.16A12.57,12.57,0,0,1,71,53.67a.25.25,0,0,1-.2.29Zm-1.88-4.72a.25.25,0,0,1-.21-.12,12.08,12.08,0,0,0-1.17-1.5.25.25,0,0,1,.37-.34,14.33,14.33,0,0,1,1.22,1.57.25.25,0,0,1-.07.34A.27.27,0,0,1,68.88,49.24Zm-3.61-3.59a.22.22,0,0,1-.13,0,13.63,13.63,0,0,0-1.68-.91.25.25,0,0,1-.13-.33.24.24,0,0,1,.33-.12,12.86,12.86,0,0,1,1.75,1,.25.25,0,0,1,.07.34A.26.26,0,0,1,65.27,45.65Zm-11.67-1a.28.28,0,0,1-.23-.15.25.25,0,0,1,.14-.33l.25-.1a13.47,13.47,0,0,1,1.63-.53.25.25,0,0,1,.12.49,12.45,12.45,0,0,0-1.57.5l-.24.1Zm6.94-.81h0a10.91,10.91,0,0,0-1.9-.17.25.25,0,0,1-.24-.26.24.24,0,0,1,.24-.24h0a13.25,13.25,0,0,1,2,.18.25.25,0,0,1,0,.49Z"/><path class="cls-17" d="M70.79,58.12h0a.25.25,0,0,1-.21-.28c0-.32.09-.65.12-1a.25.25,0,0,1,.27-.22.24.24,0,0,1,.22.26,8.69,8.69,0,0,1-.12,1A.25.25,0,0,1,70.79,58.12Z"/><path class="cls-17" d="M65.17,66.66A.25.25,0,0,1,65,66.2c.27-.18.54-.36.8-.56a.25.25,0,0,1,.3.4c-.27.2-.55.4-.83.58A.37.37,0,0,1,65.17,66.66Z"/><path class="cls-17" d="M57.39,68.57h0a11.6,11.6,0,0,1-1.93-.32.25.25,0,0,1-.18-.3.25.25,0,0,1,.3-.18,13,13,0,0,0,1.85.31.25.25,0,0,1,.23.26A.25.25,0,0,1,57.39,68.57Zm3.11-.12a.25.25,0,0,1,0-.5,11.52,11.52,0,0,0,1.82-.45.25.25,0,0,1,.16.48,12.52,12.52,0,0,1-1.9.46Zm-7.91-1.29-.11,0a12.81,12.81,0,0,1-1.65-1,.23.23,0,0,1,0-.34.24.24,0,0,1,.34-.06,11.53,11.53,0,0,0,1.59,1,.24.24,0,0,1,.1.33A.24.24,0,0,1,52.59,67.16ZM48.74,64a.23.23,0,0,1-.2-.1,12.09,12.09,0,0,1-1.11-1.61.26.26,0,0,1,.1-.34.25.25,0,0,1,.33.1,12.8,12.8,0,0,0,1.07,1.54.25.25,0,0,1,0,.35A.22.22,0,0,1,48.74,64Zm-2.31-4.45a.24.24,0,0,1-.23-.18,12.44,12.44,0,0,1-.39-1.91.25.25,0,0,1,.21-.28.26.26,0,0,1,.28.22,12.76,12.76,0,0,0,.37,1.84.25.25,0,0,1-.17.31Z"/><path class="cls-17" d="M46.06,54.54h0a.25.25,0,0,1-.22-.27c0-.34.1-.67.17-1a.25.25,0,0,1,.3-.19.24.24,0,0,1,.19.29c-.07.32-.12.64-.17,1A.25.25,0,0,1,46.06,54.54Z"/><path class="cls-6" d="M49.38,52.74a.18.18,0,0,0,0,.17l1.31,1.27a7.89,7.89,0,0,0-.12,2.57L49.18,57.9a.14.14,0,0,0,0,.16l.74,2.06a.15.15,0,0,0,.15.1l1.82,0a8.27,8.27,0,0,0,1.73,1.9l-.19,1.82a.14.14,0,0,0,.08.15l2,.93a.14.14,0,0,0,.17,0l1.28-1.31a7.62,7.62,0,0,0,2.57.12l1.14,1.43a.15.15,0,0,0,.17,0l2.06-.74a.15.15,0,0,0,.1-.14l0-1.83a7.71,7.71,0,0,0,1.91-1.73l1.81.2a.17.17,0,0,0,.16-.09l.93-2a.17.17,0,0,0,0-.17L66.37,57.5a8,8,0,0,0,.12-2.58l1.42-1.14a.16.16,0,0,0,0-.17l-.74-2.06a.15.15,0,0,0-.14-.1l-1.83,0a7.91,7.91,0,0,0-1.73-1.91l.19-1.81a.14.14,0,0,0-.08-.15l-2-.93a.14.14,0,0,0-.17,0L60.2,48a7.89,7.89,0,0,0-2.57-.13l-1.14-1.42a.16.16,0,0,0-.17,0l-2.06.75a.14.14,0,0,0-.1.14l0,1.82a8,8,0,0,0-1.91,1.74l-1.81-.2a.13.13,0,0,0-.15.09Z"/><path class="cls-3" d="M58.55,58.15A2.31,2.31,0,1,1,59,53.57a2.28,2.28,0,0,1,1.48,1,2.33,2.33,0,0,1-.63,3.22A2.29,2.29,0,0,1,58.55,58.15Zm0-3.88a1.49,1.49,0,0,0-.87.27,1.55,1.55,0,0,0-.67,1,1.59,1.59,0,0,0,.24,1.18h0a1.57,1.57,0,1,0,1.3-2.45Z"/><path class="cls-3" d="M58.59,61.51a5.67,5.67,0,0,1-5.32-3.74A5.57,5.57,0,0,1,53,56.65v0l.74-.1a5.07,5.07,0,0,0,.25,1h0l0,.09a5,5,0,0,0,6.19,2.89h0l0,0a4.92,4.92,0,0,0,3.25-4.62,4.84,4.84,0,0,0-.29-1.66,4.93,4.93,0,0,0-6.28-3,5,5,0,0,0-2.14,1.51l-.58-.47a5.65,5.65,0,0,1,9.7,1.67,5.57,5.57,0,0,1,.33,1.91,5.64,5.64,0,0,1-3.74,5.32A5.54,5.54,0,0,1,58.59,61.51Z"/></svg>