<svg id="Layer_1" data-name="Layer 1" xmlns="http://www.w3.org/2000/svg" xmlns:xlink="http://www.w3.org/1999/xlink" viewBox="0 0 234.66 150.57"><defs><style>.cls-1,.cls-4,.cls-5,.cls-6,.cls-9{fill:#fff;}.cls-1{opacity:0.57;}.cls-2{fill:#1b1464;}.cls-3{fill:url(#linear-gradient);}.cls-5{opacity:0.37;}.cls-6{opacity:0.73;}.cls-7{fill:#ff13e6;}.cls-8{opacity:0.53;}.cls-9{opacity:0.44;}.cls-10{fill:url(#linear-gradient-2);}.cls-11{fill:url(#linear-gradient-3);}.cls-12{fill:url(#linear-gradient-4);}.cls-13{fill:url(#linear-gradient-5);}.cls-14{fill:url(#linear-gradient-6);}.cls-15{fill:url(#linear-gradient-7);}.cls-16{clip-path:url(#clip-path);}.cls-17{fill:url(#linear-gradient-8);}.cls-18{clip-path:url(#clip-path-2);}.cls-19{fill:url(#linear-gradient-9);}.cls-20{clip-path:url(#clip-path-3);}.cls-21{fill:url(#linear-gradient-10);}.cls-22{opacity:0.48;}.cls-23{fill:url(#linear-gradient-11);}.cls-24{fill:url(#linear-gradient-12);}.cls-25{fill:url(#linear-gradient-13);}.cls-26{fill:url(#linear-gradient-14);}.cls-27{fill:url(#linear-gradient-15);}.cls-28{fill:url(#linear-gradient-16);}.cls-29{fill:url(#linear-gradient-17);}.cls-30{fill:url(#linear-gradient-18);}.cls-31{fill:url(#linear-gradient-19);}.cls-32{fill:url(#linear-gradient-20);}.cls-33{fill:url(#linear-gradient-21);}.cls-34{fill:url(#linear-gradient-22);}.cls-35{fill:url(#linear-gradient-23);}.cls-36{fill:url(#linear-gradient-24);}</style><linearGradient id="linear-gradient" x1="205.14" y1="-27.91" x2="-63.55" y2="278.98" gradientUnits="userSpaceOnUse"><stop offset="0" stop-color="#ff13e6"/><stop offset="0.09" stop-color="#ff19df"/><stop offset="0.23" stop-color="#ff29cb"/><stop offset="0.4" stop-color="#ff43aa"/><stop offset="0.59" stop-color="#ff687c"/><stop offset="0.8" stop-color="#ff9642"/><stop offset="1" stop-color="#ffc902"/></linearGradient><linearGradient id="linear-gradient-2" x1="53.18" y1="87.77" x2="43.9" y2="115.82" xlink:href="#linear-gradient"/><linearGradient id="linear-gradient-3" x1="59.71" y1="99.01" x2="53.6" y2="117.48" xlink:href="#linear-gradient"/><linearGradient id="linear-gradient-4" x1="69.53" y1="88.92" x2="63.42" y2="107.4" xlink:href="#linear-gradient"/><linearGradient id="linear-gradient-5" x1="79.44" y1="99.33" x2="73.33" y2="117.8" xlink:href="#linear-gradient"/><linearGradient id="linear-gradient-6" x1="93.87" y1="83.83" x2="87.75" y2="102.3" xlink:href="#linear-gradient"/><linearGradient id="linear-gradient-7" x1="104.12" y1="94.17" x2="98.01" y2="112.65" gradientUnits="userSpaceOnUse"><stop offset="0" stop-color="#ca246d"/><stop offset="1" stop-color="#4c286e"/></linearGradient><clipPath id="clip-path"><path class="cls-1" d="M141.42,80a10.41,10.41,0,1,0,10.41,10.41A10.42,10.42,0,0,0,141.42,80Zm0,16.34a5.93,5.93,0,1,1,5.93-5.93A5.93,5.93,0,0,1,141.42,96.34Z"/></clipPath><linearGradient id="linear-gradient-8" x1="142.78" y1="81.84" x2="141.35" y2="123.83" xlink:href="#linear-gradient"/><clipPath id="clip-path-2"><path class="cls-1" d="M166.8,80a10.41,10.41,0,1,0,10.41,10.41A10.42,10.42,0,0,0,166.8,80Zm0,16.34a5.93,5.93,0,1,1,5.93-5.93A5.93,5.93,0,0,1,166.8,96.34Z"/></clipPath><linearGradient id="linear-gradient-9" x1="168.04" y1="82.7" x2="166.61" y2="124.69" xlink:href="#linear-gradient"/><clipPath id="clip-path-3"><path class="cls-1" d="M192.18,80a10.41,10.41,0,1,0,10.41,10.41A10.41,10.41,0,0,0,192.18,80Zm0,16.34a5.93,5.93,0,1,1,5.93-5.93A5.93,5.93,0,0,1,192.18,96.34Z"/></clipPath><linearGradient id="linear-gradient-10" x1="193.59" y1="83.57" x2="192.16" y2="125.56" xlink:href="#linear-gradient"/><linearGradient id="linear-gradient-11" x1="48.29" y1="128.42" x2="27.2" y2="144.98" gradientUnits="userSpaceOnUse"><stop offset="0" stop-color="#65ccf2"/><stop offset="1" stop-color="#4959a7"/></linearGradient><linearGradient id="linear-gradient-12" x1="26.01" y1="95.49" x2="33.74" y2="95.49" gradientUnits="userSpaceOnUse"><stop offset="0" stop-color="#f6b676"/><stop offset="1" stop-color="#f37960"/></linearGradient><linearGradient id="linear-gradient-13" x1="35.39" y1="128.66" x2="34.29" y2="138.32" xlink:href="#linear-gradient-12"/><linearGradient id="linear-gradient-14" x1="52.04" y1="133.19" x2="30.95" y2="149.75" xlink:href="#linear-gradient-11"/><linearGradient id="linear-gradient-15" x1="44.41" y1="129.69" x2="43.3" y2="139.36" xlink:href="#linear-gradient-12"/><linearGradient id="linear-gradient-16" x1="57.57" y1="85.51" x2="22.15" y2="140.46" gradientUnits="userSpaceOnUse"><stop offset="0" stop-color="#6e4e9f"/><stop offset="1" stop-color="#4255a4"/></linearGradient><linearGradient id="linear-gradient-17" x1="52.89" y1="67.51" x2="-22.29" y2="146.34" gradientUnits="userSpaceOnUse"><stop offset="0" stop-color="#8c509e"/><stop offset="1" stop-color="#ee497a"/></linearGradient><linearGradient id="linear-gradient-18" x1="37.86" y1="66.05" x2="33.31" y2="85.68" xlink:href="#linear-gradient-12"/><linearGradient id="linear-gradient-19" x1="-1828.4" y1="-1112.01" x2="-1835.9" y2="-1102.09" gradientTransform="translate(2099.98 -506.47) rotate(-46.73)" xlink:href="#linear-gradient-12"/><linearGradient id="linear-gradient-20" x1="-1839.38" y1="-1104.16" x2="-1833.37" y2="-1110.33" gradientTransform="translate(2099.98 -506.47) rotate(-46.73)" xlink:href="#linear-gradient-12"/><linearGradient id="linear-gradient-21" x1="34.28" y1="70.33" x2="25.53" y2="86.41" xlink:href="#linear-gradient-17"/><linearGradient id="linear-gradient-22" x1="56.45" y1="70.47" x2="-19.37" y2="149.97" xlink:href="#linear-gradient-17"/><linearGradient id="linear-gradient-23" x1="65.19" y1="59.05" x2="60.62" y2="73.99" xlink:href="#linear-gradient-12"/><linearGradient id="linear-gradient-24" x1="66.97" y1="59.59" x2="62.4" y2="74.54" xlink:href="#linear-gradient-12"/></defs><title>HowWeDoIt5</title><path class="cls-2" d="M218.51,136.22a3.86,3.86,0,0,1-3.68,4h-199a3.87,3.87,0,0,1-3.68-4L10.46,11.66c0-2.2,2.38-6.5,6.75-6.18L211.73,0a8.91,8.91,0,0,1,6.79,3,10.57,10.57,0,0,1,2.73,7.38Z"/><path class="cls-3" d="M214.88,132.38a3.65,3.65,0,0,1-3.48,3.79H20.59a3.65,3.65,0,0,1-3.48-3.79L15.55,19.31c.18-6.81,5.66-9.26,9-9.11L211,4.75a6.27,6.27,0,0,1,4.78,2.07,7.42,7.42,0,0,1,1.91,5.2Z"/><path class="cls-4" d="M19.17,78.37a.26.26,0,0,1-.26-.26l-.13-9.17a.27.27,0,0,1,.27-.27h0a.26.26,0,0,1,.26.26l.13,9.17a.27.27,0,0,1-.26.27Z"/><path class="cls-4" d="M18.87,55.9a.27.27,0,0,1-.27-.26l-.47-35.12a7.65,7.65,0,0,1,2.16-5.74,8.93,8.93,0,0,1,6-2.13l59.54-1.74a.25.25,0,0,1,.27.25.27.27,0,0,1-.25.28L26.3,13.18a8.38,8.38,0,0,0-5.64,2,7.12,7.12,0,0,0-2,5.35l.47,35.12a.25.25,0,0,1-.26.27Z"/><path class="cls-5" d="M25.52,126.11c.2-9.35.12-92.11-.37-99.26s9.73-8.48,25.42-9.29,148.12-4,151.53-4.29c7.66-.67,9.25,11.8,8.48,38.88-.58,20.35-1.53,53.86-2,69.27-.13,4.59-3.57,8.24-7.79,8.25-31.87.09-154,.47-162.13.74C29.34,130.71,25.44,129.81,25.52,126.11Z"/><rect class="cls-2" y="139.62" width="234.66" height="10.94" rx="2.35"/><path class="cls-6" d="M46.8,45.74a23,23,0,1,1,23,23A23.05,23.05,0,0,1,46.8,45.74Zm7.22,0A15.81,15.81,0,1,0,69.83,29.93,15.82,15.82,0,0,0,54,45.74Z"/><path class="cls-7" d="M69.83,61.55A15.81,15.81,0,1,0,66,30.41l-1.76-7A23,23,0,1,1,48.16,53.56L55,51.11A15.84,15.84,0,0,0,69.83,61.55Z"/><g class="cls-8"><rect class="cls-4" x="148.58" y="10.5" width="3.53" height="103.47" transform="translate(88.11 212.58) rotate(-90)"/><rect class="cls-4" x="148.58" y="4.59" width="3.53" height="103.47" transform="translate(94.02 206.68) rotate(-90)"/><rect class="cls-4" x="148.58" y="-1.31" width="3.53" height="103.47" transform="translate(99.92 200.77) rotate(-90)"/><rect class="cls-4" x="148.58" y="-7.21" width="3.53" height="103.47" transform="translate(105.83 194.87) rotate(-90)"/><rect class="cls-4" x="148.58" y="-13.12" width="3.53" height="103.47" transform="translate(111.73 188.96) rotate(-90)"/><rect class="cls-4" x="148.58" y="-19.02" width="3.53" height="103.47" transform="translate(117.63 183.06) rotate(-90)"/><rect class="cls-4" x="148.58" y="-24.93" width="3.53" height="103.47" transform="translate(123.54 177.16) rotate(-90)"/></g><rect class="cls-2" x="123.92" y="35.16" width="3.53" height="54.15" transform="translate(63.46 187.92) rotate(-90)"/><rect class="cls-2" x="114.62" y="38.56" width="3.53" height="35.54" transform="translate(60.05 172.71) rotate(-90)"/><rect class="cls-2" x="137.61" y="9.66" width="3.53" height="81.53" transform="translate(88.95 189.8) rotate(-90)"/><rect class="cls-2" x="106.64" y="34.73" width="3.53" height="19.59" transform="translate(63.89 152.93) rotate(-90)"/><rect class="cls-2" x="132.16" y="3.3" width="3.53" height="70.63" transform="translate(95.31 172.55) rotate(-90)"/><rect class="cls-2" x="126.05" y="3.51" width="3.53" height="58.4" transform="translate(95.1 160.53) rotate(-90)"/><rect class="cls-2" x="119.4" y="4.25" width="3.53" height="45.11" transform="translate(94.36 147.98) rotate(-90)"/><path class="cls-9" d="M114.85,126.41l-78.25-.59A2.81,2.81,0,0,1,33.81,123V82.81A2.81,2.81,0,0,1,36.62,80h78.25a2.81,2.81,0,0,1,2.81,2.81V123.6A2.81,2.81,0,0,1,114.85,126.41Z"/><path class="cls-9" d="M102.71,98.15,92.65,87.51,78.22,103.2,68,92.22,58.49,103l-7.32-8.89-14.43,15V120a2.61,2.61,0,0,0,2.6,2.61l72.77.55a2.61,2.61,0,0,0,2.63-2.61V91Z"/><rect class="cls-4" x="102.77" y="97.85" width="0.26" height="25.31"/><rect class="cls-4" x="92.52" y="87.51" width="0.26" height="35.5"/><rect class="cls-4" x="78.09" y="103.01" width="0.26" height="19.9"/><rect class="cls-4" x="68.18" y="92.61" width="0.26" height="30.3"/><rect class="cls-4" x="58.36" y="102.69" width="0.26" height="20.22"/><rect class="cls-4" x="51.2" y="93.36" width="0.26" height="29.35"/><circle class="cls-10" cx="51.33" cy="93.36" r="2.21"/><path class="cls-11" d="M60,102.69a1.46,1.46,0,1,1-1.46-1.46A1.45,1.45,0,0,1,60,102.69Z"/><path class="cls-12" d="M69.77,92.61a1.46,1.46,0,1,1-1.46-1.46A1.45,1.45,0,0,1,69.77,92.61Z"/><path class="cls-13" d="M79.68,103a1.46,1.46,0,1,1-1.46-1.46A1.46,1.46,0,0,1,79.68,103Z"/><path class="cls-14" d="M94.1,87.51a1.46,1.46,0,1,1-1.45-1.46A1.45,1.45,0,0,1,94.1,87.51Z"/><path class="cls-15" d="M104.36,97.85a1.46,1.46,0,1,1-1.46-1.45A1.46,1.46,0,0,1,104.36,97.85Z"/><path class="cls-1" d="M141.42,80a10.41,10.41,0,1,0,10.41,10.41A10.42,10.42,0,0,0,141.42,80Zm0,16.34a5.93,5.93,0,1,1,5.93-5.93A5.93,5.93,0,0,1,141.42,96.34Z"/><g class="cls-16"><rect class="cls-17" x="126.88" y="88.12" width="30.93" height="13.09"/></g><path class="cls-1" d="M166.8,80a10.41,10.41,0,1,0,10.41,10.41A10.42,10.42,0,0,0,166.8,80Zm0,16.34a5.93,5.93,0,1,1,5.93-5.93A5.93,5.93,0,0,1,166.8,96.34Z"/><g class="cls-18"><rect class="cls-19" x="152.26" y="83.06" width="30.93" height="18.15"/></g><path class="cls-1" d="M192.18,80a10.41,10.41,0,1,0,10.41,10.41A10.41,10.41,0,0,0,192.18,80Zm0,16.34a5.93,5.93,0,1,1,5.93-5.93A5.93,5.93,0,0,1,192.18,96.34Z"/><g class="cls-20"><rect class="cls-21" x="177.64" y="94.66" width="30.93" height="6.54"/></g><g class="cls-22"><path class="cls-4" d="M150.3,114.14H132c-.76,0-1.38.43-1.38,1s.62,1,1.38,1H150.3c.77,0,1.39-.43,1.39-1S151.07,114.14,150.3,114.14Z"/><path class="cls-4" d="M150.3,109.86H132c-.76,0-1.38.43-1.38,1s.62,1,1.38,1H150.3c.77,0,1.39-.43,1.39-1S151.07,109.86,150.3,109.86Z"/><path class="cls-4" d="M150.3,105.59H132c-.76,0-1.38.43-1.38,1s.62,1,1.38,1H150.3c.77,0,1.39-.44,1.39-1S151.07,105.59,150.3,105.59Z"/></g><g class="cls-22"><path class="cls-4" d="M175.75,114.14H157.44c-.76,0-1.38.43-1.38,1s.62,1,1.38,1h18.31c.77,0,1.39-.43,1.39-1S176.52,114.14,175.75,114.14Z"/><path class="cls-4" d="M175.75,109.86H157.44c-.76,0-1.38.43-1.38,1s.62,1,1.38,1h18.31c.77,0,1.39-.43,1.39-1S176.52,109.86,175.75,109.86Z"/><path class="cls-4" d="M175.75,105.59H157.44c-.76,0-1.38.43-1.38,1s.62,1,1.38,1h18.31c.77,0,1.39-.44,1.39-1S176.52,105.59,175.75,105.59Z"/></g><g class="cls-22"><path class="cls-4" d="M201.2,114.14H182.89c-.76,0-1.38.43-1.38,1s.62,1,1.38,1H201.2c.77,0,1.39-.43,1.39-1S202,114.14,201.2,114.14Z"/><path class="cls-4" d="M201.2,109.86H182.89c-.76,0-1.38.43-1.38,1s.62,1,1.38,1H201.2c.77,0,1.39-.43,1.39-1S202,109.86,201.2,109.86Z"/><path class="cls-4" d="M201.2,105.59H182.89c-.76,0-1.38.43-1.38,1s.62,1,1.38,1H201.2c.77,0,1.39-.44,1.39-1S202,105.59,201.2,105.59Z"/></g><path class="cls-2" d="M57.41,70.33a.59.59,0,0,1,0-.86l30.5-27.21a.28.28,0,0,1,.31,0h0a.29.29,0,0,1,.07.47L58.21,70.34a.59.59,0,0,1-.8,0Z"/><path class="cls-2" d="M39.58,137.32a.69.69,0,0,0,0-.13c-.65-2.59-3.89-4.2-3.89-4.2l-1.28.1a8.91,8.91,0,0,0-.53,4.31.43.43,0,0,1,0,0A31.14,31.14,0,0,0,39.58,137.32Z"/><path class="cls-23" d="M33.87,137.45a.58.58,0,0,0,.41.41,18,18,0,0,0,4.91-.07.48.48,0,0,0,.39-.47A31.14,31.14,0,0,1,33.87,137.45Z"/><path class="cls-24" d="M28.79,91.51a12.21,12.21,0,0,1-2.78,2,23.06,23.06,0,0,0,5.08,4.52l.63,1.41,2-2.41A10.94,10.94,0,0,1,28.79,91.51Z"/><path class="cls-25" d="M33.87,131.18l.54,2.62a.43.43,0,0,0,.37.35,4,4,0,0,0,.84,0,.55.55,0,0,0,.43-.64l-.38-2.32Z"/><path class="cls-26" d="M45.14,137.42a7.82,7.82,0,0,1-2.53-.36v.43a.29.29,0,0,0,.27.29l7.78-.05a.36.36,0,0,0,.29-.52C49.93,137.29,47.33,137.48,45.14,137.42Z"/><path class="cls-2" d="M51,137.21l0-.06a9.94,9.94,0,0,0-5.9-3.7l-1.66-.06a8,8,0,0,0-.75,3.67,7.82,7.82,0,0,0,2.53.36C47.33,137.48,49.93,137.29,51,137.21Z"/><path class="cls-27" d="M43.05,130.88c0,.12.25,2,.34,2.73a.36.36,0,0,0,.3.33,4,4,0,0,0,1.14,0,.48.48,0,0,0,.37-.49v-3Z"/><path class="cls-28" d="M41.72,96.56a147.93,147.93,0,0,1,3.93,34.36.74.74,0,0,1-.59.72,8.16,8.16,0,0,1-1.85.22.69.69,0,0,1-.66-.58c-.56-3.29-3.78-21.84-5.62-24.85,0,0-1.21,16.52-.82,25.09a.42.42,0,0,1-.36.43,7.37,7.37,0,0,1-1.49,0,.53.53,0,0,1-.48-.46c-.4-2.79-2.7-19.37-2.61-31.32,0-.67,1.79-3.6,1.79-3.6Z"/><path class="cls-29" d="M47.86,76.06a16,16,0,0,0-3.07-4.44C40.33,72.43,33,73.15,30,73.54a3.91,3.91,0,0,0-2.45,1.31C25,77.73,19.59,85.6,26,93.54a12.21,12.21,0,0,0,2.78-2,9.81,9.81,0,0,1,.72-7.7,6.7,6.7,0,0,0,.19.74A45.92,45.92,0,0,1,31.86,97.7a.42.42,0,0,0,.26.39c2.7,1.08,7.89.43,9.64.17a.58.58,0,0,0,.49-.66c-.86-6.21,3.54-16.41,4.7-19a1.72,1.72,0,0,1,.84-.84l.56-.26A14.9,14.9,0,0,0,47.86,76.06Z"/><path class="cls-30" d="M34.64,67.57l-.31,5.55a.34.34,0,0,0,.25.35A6.12,6.12,0,0,0,38.92,73a.55.55,0,0,0,.26-.63l-1.42-5Z"/><path class="cls-31" d="M38.11,61.51c.08.07,3,5.89,3,5.89L37.79,69l-3.63-5.1S36.91,60.37,38.11,61.51Z"/><path class="cls-2" d="M35.65,64.06a.52.52,0,0,0,0,.47l1.67,2.8a.52.52,0,0,0,.1.11.87.87,0,0,0,1.41,0A4.89,4.89,0,0,1,40.19,66a.52.52,0,0,1,.72.24A18.79,18.79,0,0,1,42.06,69a.53.53,0,0,1-.31.66,15.39,15.39,0,0,1-3.22.94.57.57,0,0,1-.51-.22c-.51-.7-2-2.67-2.45-3.16A1.82,1.82,0,0,0,33.88,67a.59.59,0,0,1-.43,0,1.18,1.18,0,0,1-.44-1.8.54.54,0,0,0-.17-.73,1.18,1.18,0,0,1-.45-1.68,1.66,1.66,0,0,1,1.81-.89.55.55,0,0,0,.58-.33.35.35,0,0,1,.28-.21.52.52,0,0,0,.42-.62,1.37,1.37,0,0,1,.77-1.57c1.45-.8,2.72.5,3,1.6s-1.3,1.87-2.32,2C36.22,62.82,35.81,63.63,35.65,64.06Z"/><path class="cls-32" d="M36.2,68.2s-.65-1.88-1.47-1.81-1.48.89-.45,1.81C35.55,69.35,36.2,68.2,36.2,68.2Z"/><path class="cls-33" d="M29.24,83.32a16.66,16.66,0,0,1-.69-6.61l.3,0a16.43,16.43,0,0,0,.67,6.48Z"/><path class="cls-2" d="M36.79,106.05a.16.16,0,0,1-.15-.12c-.33-1.28-2.82-2.69-2.84-2.7a.15.15,0,0,1-.06-.21.15.15,0,0,1,.2,0c.11.06,2.63,1.48,3,2.89a.15.15,0,0,1-.11.18Z"/><path class="cls-34" d="M58.06,73.35c-4.24,1.54-13.27-1.73-13.27-1.73L44.17,79c7.23,2.29,11.93,1.62,15-.29A10.11,10.11,0,0,0,58.06,73.35Z"/><path class="cls-35" d="M64.8,65.73,63,65.38S62.55,71,58.6,73.11a4.41,4.41,0,0,1-.54.24,10.11,10.11,0,0,1,1.1,5.36C65.38,74.81,64.8,65.73,64.8,65.73Z"/><path class="cls-36" d="M63.12,65.87,63,65.38A2.71,2.71,0,0,1,63.64,63c1.41-1.71,2.45-1.08,2.45-1.08a4.38,4.38,0,0,0-.07.69.31.31,0,0,0,.51.22l2.31-2.12s.65,3.37-4.3,5.68Z"/></svg>