<svg id="Layer_1" data-name="Layer 1" xmlns="http://www.w3.org/2000/svg" xmlns:xlink="http://www.w3.org/1999/xlink" viewBox="0 0 178.34 153.23"><defs><style>.cls-1{fill:#272361;}.cls-2{fill:url(#linear-gradient);}.cls-3,.cls-5{fill:#fff;}.cls-3{opacity:0.5;}.cls-4{opacity:0.85;}.cls-6{fill:url(#linear-gradient-2);}.cls-7{fill:url(#linear-gradient-3);}.cls-8{fill:url(#linear-gradient-4);}.cls-9{fill:url(#linear-gradient-5);}.cls-10{fill:url(#linear-gradient-6);}.cls-11{fill:url(#linear-gradient-7);}.cls-12{fill:#ffca06;}.cls-13{fill:url(#linear-gradient-8);}.cls-14{fill:url(#linear-gradient-9);}.cls-15{fill:url(#linear-gradient-10);}.cls-16{fill:url(#linear-gradient-11);}.cls-17{fill:url(#linear-gradient-12);}.cls-18{fill:url(#linear-gradient-13);}</style><linearGradient id="linear-gradient" x1="122.02" y1="140.87" x2="282.23" y2="-50.38" gradientTransform="matrix(-1, 0, 0, 1, 282.75, 0)" gradientUnits="userSpaceOnUse"><stop offset="0" stop-color="#c44e9c"/><stop offset="0.13" stop-color="#c75495"/><stop offset="0.31" stop-color="#cf6481"/><stop offset="0.54" stop-color="#dc7f60"/><stop offset="0.79" stop-color="#eea532"/><stop offset="1" stop-color="#ffc906"/></linearGradient><linearGradient id="linear-gradient-2" x1="213.13" y1="67.27" x2="134.05" y2="191.28" xlink:href="#linear-gradient"/><linearGradient id="linear-gradient-3" x1="7523.92" y1="140.64" x2="7496.22" y2="162.39" gradientTransform="matrix(-1, 0, 0, 1, 7649.36, 0)" gradientUnits="userSpaceOnUse"><stop offset="0" stop-color="#66cbf0"/><stop offset="1" stop-color="#495aa7"/></linearGradient><linearGradient id="linear-gradient-4" x1="7494.65" y1="97.38" x2="7504.8" y2="97.38" gradientTransform="matrix(-1, 0, 0, 1, 7649.36, 0)" gradientUnits="userSpaceOnUse"><stop offset="0" stop-color="#f4b576"/><stop offset="1" stop-color="#f37960"/></linearGradient><linearGradient id="linear-gradient-5" x1="7506.98" y1="140.95" x2="7505.52" y2="153.64" xlink:href="#linear-gradient-4"/><linearGradient id="linear-gradient-6" x1="7528.84" y1="146.91" x2="7501.14" y2="168.65" xlink:href="#linear-gradient-3"/><linearGradient id="linear-gradient-7" x1="7518.82" y1="142.31" x2="7517.37" y2="155" xlink:href="#linear-gradient-4"/><linearGradient id="linear-gradient-8" x1="7542.12" y1="44.56" x2="7531.99" y2="58.85" xlink:href="#linear-gradient-4"/><linearGradient id="linear-gradient-9" x1="7537.83" y1="41.53" x2="7527.71" y2="55.81" xlink:href="#linear-gradient-4"/><linearGradient id="linear-gradient-10" x1="7510.19" y1="58.84" x2="7504.64" y2="82.83" xlink:href="#linear-gradient-4"/><linearGradient id="linear-gradient-11" x1="3291.83" y1="4344.3" x2="3281.98" y2="4357.33" gradientTransform="matrix(-0.69, -0.73, -0.73, 0.69, 5559.4, -526.61)" xlink:href="#linear-gradient-4"/><linearGradient id="linear-gradient-12" x1="3277.4" y1="4354.62" x2="3285.3" y2="4346.51" gradientTransform="matrix(-0.69, -0.73, -0.73, 0.69, 5559.4, -526.61)" xlink:href="#linear-gradient-4"/><linearGradient id="linear-gradient-13" x1="7505.51" y1="64.34" x2="7494.02" y2="85.46" xlink:href="#linear-gradient-3"/></defs><title>HowWeDoIt2</title><path class="cls-1" d="M170,2.69,11.17,0A11.13,11.13,0,0,0,0,11.91l5.47,94A9.69,9.69,0,0,0,15,115.17l152.69,1.51a7,7,0,0,0,7-6.86l3.66-98.14A8.58,8.58,0,0,0,170,2.69Z"/><path class="cls-2" d="M167.58,5.08,12.88,2.53A10.69,10.69,0,0,0,2,13.86l5.33,89.46a9.34,9.34,0,0,0,9.22,8.78l148.71,1.43a6.78,6.78,0,0,0,6.85-6.52l3.55-93.37A8.25,8.25,0,0,0,167.58,5.08Z"/><path class="cls-3" d="M164.69,8.16,17.37,5.73A10.18,10.18,0,0,0,7,16.53l5.07,85.18a8.88,8.88,0,0,0,8.78,8.36l141.61,1.37a6.47,6.47,0,0,0,6.52-6.22l3.38-88.91A7.85,7.85,0,0,0,164.69,8.16Z"/><path class="cls-1" d="M12.52,2.45,167.87,5A8.27,8.27,0,0,1,176,13.61l-.25,6.58H2l-.38-6.36A10.75,10.75,0,0,1,12.52,2.45Z"/><g class="cls-4"><circle class="cls-5" cx="164.38" cy="8.2" r="1.4"/><circle class="cls-5" cx="164.38" cy="12.29" r="1.4"/><circle class="cls-5" cx="164.38" cy="16.39" r="1.4"/></g><path class="cls-6" d="M22.94,92.79l135.54,2.4a3.92,3.92,0,0,1,3.79,4.54l-.59,3.74a3.91,3.91,0,0,1-3.88,3.29l-134.34-.53a3.9,3.9,0,0,1-3.88-3.5L19,97.12A3.92,3.92,0,0,1,22.94,92.79Z"/><circle class="cls-5" cx="31.58" cy="70.03" r="5.84" transform="translate(-43.49 86.29) rotate(-77.95)"/><path class="cls-5" d="M58.8,43.56a5.06,5.06,0,1,1-5-5.05A5.05,5.05,0,0,1,58.8,43.56Z"/><path class="cls-5" d="M84.88,63.21a5.06,5.06,0,1,1-5.06-5.05A5.05,5.05,0,0,1,84.88,63.21Z"/><path class="cls-5" d="M115,38A5.06,5.06,0,1,1,110,33,5,5,0,0,1,115,38Z"/><path class="cls-5" d="M146.17,62.07a5.06,5.06,0,1,1-5-5.06A5,5,0,0,1,146.17,62.07Z"/><polygon class="cls-3" points="32.89 71.12 30.27 68.93 53.48 41.22 79.77 61.03 109.93 35.81 142.16 60.72 140.07 63.42 110.01 40.2 79.88 65.39 54.02 45.91 32.89 71.12"/><path class="cls-1" d="M136.89,152.33a1,1,0,0,1,0-.17c.86-3.4,5.11-5.52,5.11-5.52l1.69.13a11.8,11.8,0,0,1,.69,5.66s0,0,0,.06A39.32,39.32,0,0,1,136.89,152.33Z"/><path class="cls-7" d="M144.38,152.49a.71.71,0,0,1-.53.54,22.75,22.75,0,0,1-6.45-.09.62.62,0,0,1-.51-.61A39.32,39.32,0,0,0,144.38,152.49Z"/><path class="cls-8" d="M151.06,92.15a15.93,15.93,0,0,0,3.65,2.67,30,30,0,0,1-6.68,5.94l-.82,1.86-2.65-3.18A14.36,14.36,0,0,0,151.06,92.15Z"/><path class="cls-9" d="M144.39,144.26l-.72,3.44a.55.55,0,0,1-.48.46,4.52,4.52,0,0,1-1.1,0,.71.71,0,0,1-.56-.83l.49-3.06Z"/><path class="cls-10" d="M129.59,152.46a9.78,9.78,0,0,0,3.32-.48v.57a.37.37,0,0,1-.35.38l-10.23-.07a.47.47,0,0,1-.38-.68C123.29,152.29,126.71,152.54,129.59,152.46Z"/><path class="cls-1" d="M122,152.18a.2.2,0,0,0,0-.08,13.09,13.09,0,0,1,7.75-4.86l2.18-.07a10.49,10.49,0,0,1,1,4.81,9.78,9.78,0,0,1-3.32.48C126.71,152.54,123.29,152.29,122,152.18Z"/><path class="cls-11" d="M132.33,143.87c0,.16-.33,2.63-.44,3.59a.49.49,0,0,1-.4.43,5.11,5.11,0,0,1-1.5,0,.65.65,0,0,1-.49-.65v-3.87Z"/><path class="cls-1" d="M134.08,98.78a194.31,194.31,0,0,0-5.17,45.14,1,1,0,0,0,.78,1,10.81,10.81,0,0,0,2.43.28.9.9,0,0,0,.86-.75c.74-4.32,5-28.69,7.38-32.64,0,0,1.59,21.7,1.08,33a.55.55,0,0,0,.47.56,9.07,9.07,0,0,0,2,0,.71.71,0,0,0,.64-.6c.52-3.66,3.55-25.45,3.42-41.14,0-.89-2.34-4.74-2.34-4.74Z"/><path class="cls-12" d="M116.88,55.74c2.31,4.3,6.14,8.68,12.37,9.86,5.76,1.08,16.1,2.43,20.25,3a5.13,5.13,0,0,1,3.22,1.72c3.26,3.78,10.43,14.13,2,24.55a15.93,15.93,0,0,1-3.65-2.67c.93-2.63,1-6-.95-10.11a8.12,8.12,0,0,1-.25,1A60.35,60.35,0,0,0,147,100.29a.53.53,0,0,1-.34.5c-3.54,1.42-10.37.58-12.66.24a.78.78,0,0,1-.65-.88c1.13-8.15-4.65-21.55-6.17-24.91a2.26,2.26,0,0,0-1.11-1.11c-8.72-3.94-12.51-10-14-15.49A8.38,8.38,0,0,1,116.88,55.74Z"/><path class="cls-13" d="M112.05,58.64a26.46,26.46,0,0,1-.41-12.37h2a32.07,32.07,0,0,0,3.26,9.47A8.38,8.38,0,0,0,112.05,58.64Z"/><path class="cls-14" d="M112.93,47.33s3-3.92,2-6-4.35-1.84-4.35-1.84l-.48,1.59a2.1,2.1,0,0,0,0,1.29l1.86,4.92Z"/><path class="cls-15" d="M143.37,60.71l.68,7s-3.92,1.19-6.78-.83l2-6.35Z"/><path class="cls-16" d="M138.81,52.75c-.09.09-4,7.74-4,7.74l4.42,2.13,4.77-6.7S140.4,51.26,138.81,52.75Z"/><path class="cls-1" d="M142.05,56.1a.71.71,0,0,1-.05.62l-2.2,3.67a.61.61,0,0,1-.12.15,1.16,1.16,0,0,1-1.86,0,6.18,6.18,0,0,0-1.74-1.88.71.71,0,0,0-1,.31,26.74,26.74,0,0,0-1.5,3.58.71.71,0,0,0,.4.86,20.15,20.15,0,0,0,4.23,1.23.69.69,0,0,0,.67-.28c.68-.93,2.58-3.51,3.23-4.16s1.71-.37,2.21-.23a.71.71,0,0,0,.57-.07,1.55,1.55,0,0,0,.58-2.36.71.71,0,0,1,.22-1,1.56,1.56,0,0,0,.6-2.21A2.22,2.22,0,0,0,144,53.19a.72.72,0,0,1-.77-.42.46.46,0,0,0-.36-.29.69.69,0,0,1-.56-.8,1.81,1.81,0,0,0-1-2.07c-1.91-1-3.58.66-4,2.1s1.7,2.46,3,2.63C141.3,54.47,141.84,55.54,142.05,56.1Z"/><path class="cls-17" d="M141.33,61.54s.85-2.48,1.93-2.39,1.94,1.18.6,2.39C142.18,63.05,141.33,61.54,141.33,61.54Z"/><path class="cls-18" d="M150.47,81.4a22.22,22.22,0,0,0,.91-8.68l-.4,0a21.43,21.43,0,0,1-.88,8.5Z"/><path class="cls-1" d="M140.56,111.25a.19.19,0,0,0,.19-.15c.44-1.68,3.7-3.53,3.73-3.55a.2.2,0,0,0-.19-.35c-.14.08-3.45,2-3.92,3.8a.19.19,0,0,0,.14.24Z"/></svg>