<svg id="Layer_1" data-name="Layer 1" xmlns="http://www.w3.org/2000/svg" xmlns:xlink="http://www.w3.org/1999/xlink" viewBox="0 0 208.41 156.26"><defs><style>.cls-1{fill:#1b1464;}.cls-2{fill:url(#linear-gradient);}.cls-3{fill:url(#linear-gradient-2);}.cls-4{fill:url(#linear-gradient-3);}.cls-5{fill:url(#linear-gradient-4);}.cls-6{fill:url(#linear-gradient-5);}.cls-7{fill:#ff13e6;}.cls-8,.cls-9{fill:#fff;}.cls-9{opacity:0.72;}.cls-10{fill:url(#linear-gradient-6);}.cls-11{fill:url(#linear-gradient-7);}.cls-12{fill:url(#linear-gradient-8);}.cls-13{fill:url(#linear-gradient-9);}.cls-14{fill:url(#linear-gradient-10);}.cls-15{fill:url(#linear-gradient-11);}.cls-16{fill:url(#linear-gradient-12);}.cls-17{fill:url(#linear-gradient-13);}.cls-18{fill:url(#linear-gradient-14);}.cls-19{fill:url(#linear-gradient-15);}.cls-20{fill:url(#linear-gradient-16);}.cls-21{fill:url(#linear-gradient-17);}.cls-22{fill:url(#linear-gradient-18);}.cls-23{fill:url(#linear-gradient-19);}.cls-24{fill:url(#linear-gradient-20);}.cls-25{fill:url(#linear-gradient-21);}.cls-26{fill:url(#linear-gradient-22);}.cls-27{fill:url(#linear-gradient-23);}.cls-28{fill:url(#linear-gradient-24);}.cls-29{fill:url(#linear-gradient-25);}.cls-30{fill:url(#linear-gradient-26);}.cls-31{fill:url(#linear-gradient-27);}</style><linearGradient id="linear-gradient" x1="110.44" y1="170.21" x2="96.26" y2="99.64" gradientUnits="userSpaceOnUse"><stop offset="0" stop-color="#f6b676"/><stop offset="1" stop-color="#f37960"/></linearGradient><linearGradient id="linear-gradient-2" x1="106.28" y1="143.06" x2="109.4" y2="194.63" gradientUnits="userSpaceOnUse"><stop offset="0" stop-color="#ff13e6"/><stop offset="0.09" stop-color="#ff19df"/><stop offset="0.23" stop-color="#ff29cb"/><stop offset="0.4" stop-color="#ff43aa"/><stop offset="0.59" stop-color="#ff687c"/><stop offset="0.8" stop-color="#ff9642"/><stop offset="1" stop-color="#ffc902"/></linearGradient><linearGradient id="linear-gradient-3" x1="100.42" y1="114.74" x2="112.3" y2="-2.81" xlink:href="#linear-gradient"/><linearGradient id="linear-gradient-4" x1="131.37" y1="121.71" x2="143.62" y2="0.6" xlink:href="#linear-gradient"/><linearGradient id="linear-gradient-5" x1="-1431.14" y1="121.71" x2="-1418.9" y2="0.6" gradientTransform="matrix(-1, 0, 0, 1, -1350.35, 0)" xlink:href="#linear-gradient"/><linearGradient id="linear-gradient-6" x1="-1446.17" y1="95.83" x2="-1449.62" y2="99.18" gradientTransform="matrix(-1, 0.01, 0.01, 1, -1411.99, -28.29)" gradientUnits="userSpaceOnUse"><stop offset="0" stop-color="#ca246d"/><stop offset="1" stop-color="#4c286e"/></linearGradient><linearGradient id="linear-gradient-7" x1="37.43" y1="59.64" x2="37.89" y2="59.64" gradientTransform="matrix(1, 0, 0, 1, 0, 0)" xlink:href="#linear-gradient-6"/><linearGradient id="linear-gradient-8" x1="-1446.12" y1="102.67" x2="-1449.57" y2="106.02" xlink:href="#linear-gradient-6"/><linearGradient id="linear-gradient-9" x1="37.43" y1="66.48" x2="37.89" y2="66.48" gradientTransform="matrix(1, 0, 0, 1, 0, 0)" xlink:href="#linear-gradient-6"/><linearGradient id="linear-gradient-10" x1="-1446.08" y1="109.51" x2="-1449.53" y2="112.86" xlink:href="#linear-gradient-6"/><linearGradient id="linear-gradient-11" x1="37.43" y1="73.32" x2="37.89" y2="73.32" gradientTransform="matrix(1, 0, 0, 1, 0, 0)" xlink:href="#linear-gradient-6"/><linearGradient id="linear-gradient-12" x1="182.52" y1="90.08" x2="187.57" y2="101.1" xlink:href="#linear-gradient-2"/><linearGradient id="linear-gradient-13" x1="-1303.58" y1="147.74" x2="-1332.73" y2="179.45" gradientTransform="matrix(-1, 0, 0, 1, -1122.91, 0)" xlink:href="#linear-gradient-6"/><linearGradient id="linear-gradient-14" x1="-1313.04" y1="150.1" x2="-1310.45" y2="150.1" gradientTransform="matrix(-1, 0, 0, 1, -1122.91, 0)" xlink:href="#linear-gradient"/><linearGradient id="linear-gradient-15" x1="-1310.11" y1="141.73" x2="-1339.27" y2="173.44" gradientTransform="matrix(-1, 0, 0, 1, -1122.91, 0)" xlink:href="#linear-gradient-6"/><linearGradient id="linear-gradient-16" x1="-1322.37" y1="149.96" x2="-1320.13" y2="149.96" gradientTransform="matrix(-1, 0, 0, 1, -1122.91, 0)" xlink:href="#linear-gradient"/><linearGradient id="linear-gradient-17" x1="190.66" y1="89.26" x2="206.05" y2="122.85" xlink:href="#linear-gradient-2"/><linearGradient id="linear-gradient-18" x1="198.36" y1="84.42" x2="214.46" y2="119.56" xlink:href="#linear-gradient-2"/><linearGradient id="linear-gradient-19" x1="-1331.33" y1="101.28" x2="-1314.59" y2="101.28" gradientTransform="matrix(-1, 0, 0, 1, -1122.91, 0)" xlink:href="#linear-gradient"/><linearGradient id="linear-gradient-20" x1="-1309.52" y1="89.38" x2="-1300.32" y2="127.74" gradientTransform="matrix(-1, 0, 0, 1, -1122.91, 0)" gradientUnits="userSpaceOnUse"><stop offset="0" stop-color="#abdde4"/><stop offset="1" stop-color="#abdde4"/></linearGradient><linearGradient id="linear-gradient-21" x1="-1303.76" y1="83.34" x2="-1305.72" y2="91.94" gradientTransform="matrix(-1, 0, 0, 1, -1122.91, 0)" gradientUnits="userSpaceOnUse"><stop offset="0" stop-color="#65ccf2"/><stop offset="1" stop-color="#4959a7"/></linearGradient><linearGradient id="linear-gradient-22" x1="-1304.79" y1="86.95" x2="-1305.72" y2="92.57" xlink:href="#linear-gradient-21"/><linearGradient id="linear-gradient-23" x1="-1315.83" y1="99.53" x2="-1310.62" y2="99.53" gradientTransform="matrix(-1, 0, 0, 1, -1122.91, 0)" xlink:href="#linear-gradient"/><linearGradient id="linear-gradient-24" x1="-1371.89" y1="95.06" x2="-1366.68" y2="95.06" gradientTransform="translate(850.91 -1100.65) rotate(-56.7)" xlink:href="#linear-gradient"/><linearGradient id="linear-gradient-25" x1="-1318.83" y1="84.72" x2="-1312.21" y2="84.72" gradientTransform="matrix(-1, 0, 0, 1, -1122.91, 0)" xlink:href="#linear-gradient"/><linearGradient id="linear-gradient-26" x1="-7019.05" y1="-2912.85" x2="-7021.53" y2="-2921.01" gradientTransform="matrix(-0.75, -0.67, -0.67, 0.75, -6988.16, -2420.48)" xlink:href="#linear-gradient"/><linearGradient id="linear-gradient-27" x1="-7021.58" y1="-2912.89" x2="-7023.81" y2="-2920.23" gradientTransform="matrix(-0.75, -0.67, -0.67, 0.75, -6988.16, -2420.48)" xlink:href="#linear-gradient"/></defs><title>HowWeDoIt4</title><path class="cls-1" d="M165.21,107.45a18.8,18.8,0,0,0-3.35-29.87c-2.74-1.62-6.1-2.72-7.61-5.53-1.23-2.26-.89-5-.56-7.55,1.62-12.44,2.19-25.48-2.47-37.13-6.93-17.3-25.95-28.91-44.5-27.2-18.55-1.71-37.56,9.9-44.49,27.2C57.57,39,58.14,52.06,59.76,64.5c.33,2.55.67,5.29-.56,7.55-1.51,2.81-4.87,3.91-7.61,5.53a18.8,18.8,0,0,0-3.35,29.87c1.38,1.3,3,2.5,3.63,4.29.84,2.51-.63,5.12-1.42,7.64-2.64,8.47,2.95,17.76,10.58,22.29,7.16,4.24,15.67,5.29,24,6.06,3.63,1.1,7.32,2.15,11.1,2.08,4-.07,8.2-1.6,10.5-4.88a1,1,0,0,0,.11-.17l.12.17c2.3,3.28,6.49,4.81,10.5,4.88,3.78.07,7.47-1,11.09-2.08,8.32-.77,16.83-1.82,24-6.06,7.63-4.53,13.22-13.82,10.58-22.29-.79-2.52-2.26-5.13-1.42-7.64C162.19,110,163.83,108.75,165.21,107.45Z"/><path class="cls-2" d="M153.93,134.58c-10.88.31-25.18,5.6-31.71-3.11s-4-35.44-4-35.44a111,111,0,0,0-24.35,0s2.49,26.74-4,35.44S69,134.89,58.08,134.58c-8.61-.25-11.63,15.88-10.38,19.93a2.48,2.48,0,0,0,2.37,1.75H163.71a2.5,2.5,0,0,0,2.38-1.75C167.34,150.46,162.54,134.33,153.93,134.58Z"/><path class="cls-3" d="M153.93,134.58c-5.63.16-12.19,1.66-18.1,1.85-5.41,4.46-15.67,11-28.69,10.27a55.54,55.54,0,0,1-29.09-10.25c-6.38.12-13.74-1.69-20-1.87-8.61-.25-11.63,15.88-10.38,19.93a2.48,2.48,0,0,0,2.37,1.75H163.71a2.5,2.5,0,0,0,2.38-1.75C167.34,150.46,162.54,134.33,153.93,134.58Z"/><path class="cls-4" d="M79.58,34.21a7,7,0,0,0-1,3.53c-.19,8.33-.75,42.62,2.17,49.36,3.63,8.36,12.94,17.49,24.67,19.16s26.07-14.42,27.74-22.16c.89-4.08.79-37.22.74-46a7,7,0,0,0-1.37-4.17c-3.29-4.54-12.48-15.06-26.1-13.95C97.13,20.69,87.37,21.29,79.58,34.21Z"/><path class="cls-5" d="M132.06,62.92s0-15.08,8.37-6.7-8.37,20.1-8.37,20.1Z"/><path class="cls-6" d="M80.11,62.92s0-15.08-8.38-6.7,8.38,20.1,8.38,20.1Z"/><path class="cls-1" d="M76.76,49.75c0,.51,7.18-5,19.52-7.25,15-2.79,20.3-11,23.69-11,1.67,0,4.18,1,3.9,8.3s7.53,15.81,13.66,7.51S132.23,17.45,106,18,75.93,28.49,76.76,49.75Z"/><path class="cls-1" d="M82,61.65c1.38-.6,2.42-2,3.84-2.57A7.29,7.29,0,0,1,91,58.93c2.94,1,6,3.32,9.14,1.82.11-.06.09-.28,0-.28-4,.19-7.06-3.25-11-3.53a9.08,9.08,0,0,0-4.62.56c-1.22.62-4,2.56-4,2.56S81.7,61.78,82,61.65Z"/><path class="cls-1" d="M130.3,61.65c-1.38-.6-2.42-2-3.84-2.57a7.29,7.29,0,0,0-5.16-.15c-2.93,1-6,3.32-9.14,1.82-.11-.06-.09-.28,0-.28,4,.19,7.06-3.25,11-3.53a9.08,9.08,0,0,1,4.62.56c1.23.62,4,2.56,4,2.56S130.6,61.78,130.3,61.65Z"/><path class="cls-1" d="M111.88,50h0a1.08,1.08,0,0,0,1.42,1c3.39-1.13,12.16-3.4,18.78.51,0,0-3.7-8.51-19.5-2.55A1.08,1.08,0,0,0,111.88,50Z"/><path class="cls-1" d="M100.51,50h0a1.08,1.08,0,0,1-1.42,1c-3.38-1.13-12.15-3.4-18.78.51,0,0,3.7-8.51,19.51-2.55A1.07,1.07,0,0,1,100.51,50Z"/><path class="cls-7" d="M120.12,85.33S115,83,111.47,83.25s-4.64,1.19-4.64,1.19-1.12-.89-4.64-1.19-8.64,2.08-8.64,2.08a14.22,14.22,0,0,0,26.57,0Z"/><path class="cls-8" d="M116.78,87a19.34,19.34,0,0,1-10,3.12A19.28,19.28,0,0,1,96.89,87a67.2,67.2,0,0,1,19.89,0Z"/><path class="cls-9" d="M67.43,92.59a4.66,4.66,0,0,1-1-.11.22.22,0,1,1,.09-.43A6.06,6.06,0,0,0,73,87.83c.83-2.38.5-5.36-.93-8.38a39.91,39.91,0,0,0-3-5c-.55-.82-1.11-1.67-1.63-2.53a26.79,26.79,0,0,1-4.21-12.24,16.68,16.68,0,0,1,3.9-12.19C70.32,44,75,42.38,79.09,41.25c3-.82,6.08-1.49,9.07-2.14,3.71-.81,7.55-1.64,11.24-2.77,7.93-2.43,13.69-5.87,17.58-10.52a.23.23,0,0,1,.32,0,.22.22,0,0,1,0,.31c-3.95,4.71-9.77,8.2-17.79,10.66-3.7,1.13-7.55,2-11.28,2.77-3,.65-6.06,1.32-9,2.13-4.06,1.12-8.64,2.72-11.71,6.15a16.23,16.23,0,0,0-3.78,11.87,26.41,26.41,0,0,0,4.13,12c.52.85,1.09,1.69,1.63,2.51a41.35,41.35,0,0,1,3,5c1.48,3.13,1.82,6.22,1,8.71A6.82,6.82,0,0,1,67.43,92.59Z"/><path class="cls-9" d="M65.33,42.8h0a.12.12,0,0,1-.1-.12,9.18,9.18,0,0,1,4.11-6.31,20.43,20.43,0,0,1,7.13-2.8,101.94,101.94,0,0,1,12-1.73c1-.11,2-.21,3-.33a58.85,58.85,0,0,0,14.7-3.13c3.62-1.41,8.6-4.11,11.75-9a.11.11,0,0,1,.15,0,.13.13,0,0,1,0,.16c-3.18,4.93-8.2,7.65-11.86,9.07a58.46,58.46,0,0,1-14.76,3.15c-1,.12-2,.22-3,.33a103.56,103.56,0,0,0-11.93,1.72,20.13,20.13,0,0,0-7.05,2.78,8.89,8.89,0,0,0-4,6.14A.12.12,0,0,1,65.33,42.8Z"/><path class="cls-9" d="M146.55,129.68a.22.22,0,0,1-.07-.43,3.8,3.8,0,0,0,2.27-3.71,10.14,10.14,0,0,0-1.53-4.53l-.24-.45a14.25,14.25,0,0,1-1.73-4.12c-.84-4.43,2.56-8.19,4.06-9.6a43.72,43.72,0,0,1,3.94-3.17,40.43,40.43,0,0,0,4.32-3.54c2.93-2.92,4.19-6.42,3.37-9.34s-3.12-4.54-5.59-6.4A32.63,32.63,0,0,1,152,81.64a18,18,0,0,1-4.91-12.13,30.54,30.54,0,0,1,2.79-12.93.22.22,0,1,1,.41.17,29.85,29.85,0,0,0-2.75,12.75,17.5,17.5,0,0,0,4.77,11.83A34.85,34.85,0,0,0,155.62,84c2.42,1.82,4.92,3.7,5.75,6.62.86,3.09-.44,6.75-3.49,9.78a39.11,39.11,0,0,1-4.37,3.59,44.64,44.64,0,0,0-3.9,3.14c-1.45,1.36-4.73,5-3.92,9.19a14,14,0,0,0,1.68,4l.25.45a10.7,10.7,0,0,1,1.57,4.74,4.23,4.23,0,0,1-2.57,4.13Z"/><path class="cls-8" d="M81.13,63.79A1.78,1.78,0,1,0,82.91,62,1.78,1.78,0,0,0,81.13,63.79Z"/><path class="cls-8" d="M82.91,64a.21.21,0,0,1-.13,0L63.94,50.46H.22A.22.22,0,0,1,0,50.23.22.22,0,0,1,.22,50H64a.33.33,0,0,1,.13,0L83,63.61a.23.23,0,0,1-.13.41Z"/><path class="cls-10" d="M35.53,59.77a1.13,1.13,0,1,0,1.12-1.13A1.13,1.13,0,0,0,35.53,59.77Z"/><path class="cls-1" d="M35.57,59.77a1.09,1.09,0,1,0,1.08-1.1A1.09,1.09,0,0,0,35.57,59.77Z"/><path class="cls-11" d="M37.67,59.93a.23.23,0,0,1-.23-.21.34.34,0,0,0,0-.1.22.22,0,0,1,.44-.08.77.77,0,0,1,0,.15.22.22,0,0,1-.21.24Z"/><path class="cls-1" d="M37.56,59.53a.24.24,0,0,1-.2-.12.79.79,0,0,0-.7-.43h-.15a.22.22,0,0,1-.26-.17.23.23,0,0,1,.18-.26.82.82,0,0,1,.22,0,1.24,1.24,0,0,1,1.11.67.22.22,0,0,1-.1.29A.19.19,0,0,1,37.56,59.53Z"/><path class="cls-12" d="M35.53,66.61a1.13,1.13,0,1,0,1.12-1.13A1.13,1.13,0,0,0,35.53,66.61Z"/><path class="cls-1" d="M35.57,66.61a1.09,1.09,0,1,0,2.18,0,1.09,1.09,0,0,0-2.18,0Z"/><path class="cls-13" d="M37.67,66.77a.23.23,0,0,1-.23-.21.34.34,0,0,0,0-.1.22.22,0,0,1,.44-.08.77.77,0,0,1,0,.15.22.22,0,0,1-.21.24Z"/><path class="cls-1" d="M37.56,66.37a.22.22,0,0,1-.2-.12.78.78,0,0,0-.7-.43h0l-.15,0a.23.23,0,0,1-.26-.18.23.23,0,0,1,.18-.26.82.82,0,0,1,.22,0h0a1.22,1.22,0,0,1,1.1.67.22.22,0,0,1-.1.29A.19.19,0,0,1,37.56,66.37Z"/><path class="cls-14" d="M35.53,73.45a1.13,1.13,0,1,0,2.26,0,1.13,1.13,0,0,0-2.26,0Z"/><path class="cls-1" d="M35.57,73.45a1.09,1.09,0,1,0,2.18,0,1.09,1.09,0,0,0-2.18,0Z"/><path class="cls-15" d="M37.67,73.61a.23.23,0,0,1-.23-.21.34.34,0,0,0,0-.1.22.22,0,0,1,.44-.08.77.77,0,0,1,0,.15.22.22,0,0,1-.21.24Z"/><path class="cls-1" d="M37.56,73.21a.22.22,0,0,1-.2-.12.79.79,0,0,0-.7-.43h0l-.15,0a.23.23,0,0,1-.26-.18.23.23,0,0,1,.18-.26l.22,0h0a1.22,1.22,0,0,1,1.1.67.23.23,0,0,1-.1.3Z"/><path class="cls-1" d="M33.8,59.71v.2a.86.86,0,0,1-.73.93l-30.23,0a.88.88,0,0,1-.74-1h0a.88.88,0,0,1,.73-1L33,58.71C33.47,58.7,33.81,59.16,33.8,59.71Z"/><path class="cls-1" d="M33.8,66.52v.19a.87.87,0,0,1-.73.94l-30.23,0c-.41,0-.74-.43-.74-1h0a.88.88,0,0,1,.73-1L33,65.52C33.47,65.51,33.81,66,33.8,66.52Z"/><path class="cls-1" d="M33.8,73.33v.19a.88.88,0,0,1-.73.94l-30.23,0a.88.88,0,0,1-.74-1h0a.88.88,0,0,1,.73-1L33,72.33C33.47,72.31,33.81,72.77,33.8,73.33Z"/><path class="cls-1" d="M19.38,44.31c-8.13,0-14.55-7.41-14.82-7.72a.77.77,0,0,1,0-1c.27-.32,6.69-7.72,14.82-7.72s14.54,7.4,14.81,7.72a.77.77,0,0,1,0,1C33.92,36.9,27.5,44.31,19.38,44.31ZM6.21,36.08A26.7,26.7,0,0,0,9.8,39.2c2.25,1.62,5.74,3.55,9.58,3.55S26.7,40.82,29,39.2a26.7,26.7,0,0,0,3.59-3.12A27.56,27.56,0,0,0,29,33c-2.25-1.62-5.74-3.56-9.57-3.56S12.05,31.35,9.8,33A27.56,27.56,0,0,0,6.21,36.08Z"/><path class="cls-1" d="M19.38,42.75A6.67,6.67,0,1,1,26,36.08,6.67,6.67,0,0,1,19.38,42.75Zm0-11.78a5.12,5.12,0,1,0,5.11,5.11A5.12,5.12,0,0,0,19.38,31Z"/><circle class="cls-1" cx="19.38" cy="36.08" r="3.22"/><path class="cls-16" d="M185.76,87.17s-8.9,9.91-3.19,9.91h5Z"/><path class="cls-17" d="M189.87,150.1s.31,1.71.45,3.41a1.16,1.16,0,0,1-1.11,1.26c-2.25.09-7.07.27-8.8.2a.39.39,0,0,1-.34-.52h0a.86.86,0,0,1,.44-.46l8-3.66Z"/><path class="cls-18" d="M190.12,149.1l-.24,2a2.54,2.54,0,0,1-2.35-.08l.58-2.28Z"/><path class="cls-1" d="M189.94,110.67c.1.53.56,26.64-2.23,38.34a.4.4,0,0,0,.23.46,7,7,0,0,0,2.28.46.69.69,0,0,0,.68-.49c.79-2.71,4.62-16.31,5.11-29.31.56-14.51,0-.49,0-.49l-.32-9Z"/><path class="cls-19" d="M199,151a12.34,12.34,0,0,1,.95,3.15.71.71,0,0,1-.63.85,26.3,26.3,0,0,1-2.8.16.71.71,0,0,1-.71-.79,6,6,0,0,1,1.4-3.28Z"/><path class="cls-20" d="M199.45,148.37l-.56,3.09a2,2,0,0,1-1.67.11l.27-3.32Z"/><path class="cls-1" d="M201,111.47c2.29,13.77-.49,34-1.43,38a.61.61,0,0,1-.5.47,4.23,4.23,0,0,1-1.78-.07.56.56,0,0,1-.41-.52c-.12-3.21.1-22.9-2-30.68a1.7,1.7,0,0,0-.68-1L190,114.77l-.32-4.75Z"/><path class="cls-21" d="M185.76,87.17c6.72-2.12,15.07,0,15.07,0,2,11.89.35,25.61.35,25.61-5.29,1.39-11.26-.85-11.26-.85C189,107,183.75,87.81,185.76,87.17Z"/><path class="cls-22" d="M198.2,93.79l2.63-6.62s6.39,4.34,7.44,9.84a15.07,15.07,0,0,0-5.56,1.49C202.24,95.9,198.2,93.79,198.2,93.79Z"/><path class="cls-23" d="M192.62,100s7.17,4,9.6.59a2.69,2.69,0,0,0,.49-2.11A15.07,15.07,0,0,1,208.27,97a7.62,7.62,0,0,1-.83,5.21c-4.24,7.75-15.77-.43-15.77-.43Z"/><path class="cls-24" d="M193.48,105.15l-3.91-13.67a.41.41,0,0,0-.34-.29c-.71-.08-2.76-.31-5.14-.52a59.52,59.52,0,0,0-8.16-.27.4.4,0,0,0-.32.58c1.12,2.28,5.76,11.56,8.09,14.6a.36.36,0,0,0,.32.16l9.08-.08A.39.39,0,0,0,193.48,105.15Z"/><path class="cls-25" d="M183.69,89.49,180.85,89a.21.21,0,0,0-.23.26l.28.85a.2.2,0,0,0,.17.14l2.73.37a.21.21,0,0,0,.23-.25l-.18-.75A.19.19,0,0,0,183.69,89.49Z"/><path class="cls-26" d="M185.81,91.89l-.23-1.22a.27.27,0,0,0-.25-.22l-5.73-.58a.27.27,0,0,0-.3.34l.36,1.52a.28.28,0,0,0,.26.21l5.6.29A.28.28,0,0,0,185.81,91.89Z"/><path class="cls-27" d="M192.54,101.85a10,10,0,0,0,.32-3c-.22-.8-.64-1.82-2.06-1.59a20.27,20.27,0,0,0-3.1.82.81.81,0,0,0,1.16.7l-.66.52s.09.83,1,.39l-.62.69a.72.72,0,0,0,1.06.24C190.31,100.14,190.64,102.12,192.54,101.85Z"/><path class="cls-28" d="M179.34,99.12a10,10,0,0,1-2.72-1.39,1.75,1.75,0,0,1-.19-2.6A20.31,20.31,0,0,1,178.82,93a.81.81,0,0,1-.06,1.36l.8-.27s.65.53-.23,1l.92-.14a.73.73,0,0,1-.38,1C179.14,96.33,180.61,97.68,179.34,99.12Z"/><path class="cls-29" d="M193.72,81.15l2.18,6.3a.22.22,0,0,1-.1.27,5.1,5.1,0,0,1-5.31-.36,1,1,0,0,1-.49-.76l-.71-5.45Z"/><path class="cls-30" d="M189,75.33s-2.39,4.49-2.08,6.31,3.26,1.69,5.85.21L194.57,77Z"/><path class="cls-1" d="M192.65,79.47a.19.19,0,0,1-.09-.27,4.82,4.82,0,0,0,.67-1.42s.43-.27-1.09-.64-3.8-.93-4.28-2.22.76-4.45,2.71-1.91a.19.19,0,0,0,.3,0,1.9,1.9,0,0,1,2.32-.76A1.76,1.76,0,0,1,194.4,74a.18.18,0,0,0,.21.19,2.13,2.13,0,0,1,2.5,1.16,1.72,1.72,0,0,1-.12,2.06.18.18,0,0,0,.08.31,1.11,1.11,0,0,1,.78,1.27c-.06,1.18-1.38,1.07-1.75,1a.18.18,0,0,0-.17.06,6.31,6.31,0,0,1-3.33,2,.19.19,0,0,1-.2-.24l.68-2a.18.18,0,0,0-.1-.23Z"/><path class="cls-31" d="M192.37,79.75s1.7-1.17,1.83-.19-1.53,1.43-2.35,1.06Z"/><path class="cls-8" d="M76.77,43.27a1.45,1.45,0,0,1-1.45-1.45V32.89a4.52,4.52,0,0,1,4.52-4.51H86a1.44,1.44,0,1,1,0,2.88H79.84a1.63,1.63,0,0,0-1.63,1.63v8.93A1.44,1.44,0,0,1,76.77,43.27Z"/><path class="cls-8" d="M136.7,43.27a1.45,1.45,0,0,1-1.45-1.45V32.89a1.62,1.62,0,0,0-1.62-1.63h-6.18a1.44,1.44,0,1,1,0-2.88h6.18a4.51,4.51,0,0,1,4.51,4.51v8.93A1.44,1.44,0,0,1,136.7,43.27Z"/><path class="cls-8" d="M86,114H79.84a4.52,4.52,0,0,1-4.52-4.51V100.5a1.45,1.45,0,0,1,2.89,0v8.94a1.63,1.63,0,0,0,1.63,1.62H86A1.45,1.45,0,1,1,86,114Z"/><path class="cls-8" d="M133.63,114h-6.18a1.45,1.45,0,1,1,0-2.89h6.18a1.62,1.62,0,0,0,1.62-1.62V100.5a1.45,1.45,0,0,1,2.89,0v8.94A4.51,4.51,0,0,1,133.63,114Z"/><path class="cls-8" d="M132.14,109.47H81.24A1.53,1.53,0,0,1,79.72,108V34.15a1.52,1.52,0,0,1,1.52-1.51h50.9a1.52,1.52,0,0,1,1.52,1.51V108A1.52,1.52,0,0,1,132.14,109.47ZM81.24,33.08a1.07,1.07,0,0,0-1.07,1.07V108A1.07,1.07,0,0,0,81.24,109h50.9a1.08,1.08,0,0,0,1.08-1.07V34.15a1.08,1.08,0,0,0-1.08-1.07Z"/></svg>