<svg id="Layer_1" data-name="Layer 1" xmlns="http://www.w3.org/2000/svg" xmlns:xlink="http://www.w3.org/1999/xlink" viewBox="0 0 187.8 195.33"><defs><style>.cls-1{fill:#272361;}.cls-14,.cls-15,.cls-2{fill:#fff;}.cls-3{fill:url(#linear-gradient);}.cls-4{fill:url(#linear-gradient-2);}.cls-5{fill:url(#linear-gradient-3);}.cls-6{fill:url(#linear-gradient-4);}.cls-7{fill:url(#linear-gradient-5);}.cls-8{fill:#c54f9d;}.cls-9{fill:url(#linear-gradient-6);}.cls-10{fill:#ffca06;}.cls-11{fill:url(#linear-gradient-7);}.cls-12{fill:url(#linear-gradient-8);}.cls-13{fill:url(#linear-gradient-9);}.cls-14{opacity:0.6;}.cls-15{opacity:0.72;}</style><linearGradient id="linear-gradient" x1="28.63" y1="193.28" x2="47.21" y2="145.46" gradientUnits="userSpaceOnUse"><stop offset="0" stop-color="#f5b676"/><stop offset="1" stop-color="#f47a61"/></linearGradient><linearGradient id="linear-gradient-2" x1="28.35" y1="347.11" x2="89.75" y2="-370.48" xlink:href="#linear-gradient"/><linearGradient id="linear-gradient-3" x1="30.55" y1="117.63" x2="38.43" y2="117.63" xlink:href="#linear-gradient"/><linearGradient id="linear-gradient-4" x1="-3327.01" y1="180.09" x2="-3333.9" y2="191.75" gradientTransform="matrix(-1, 0, 0, 1, -3290.04, 0)" gradientUnits="userSpaceOnUse"><stop offset="0" stop-color="#67ccf1"/><stop offset="1" stop-color="#4a5aa8"/></linearGradient><linearGradient id="linear-gradient-5" x1="-4453.78" y1="-759.06" x2="-4460.67" y2="-747.4" gradientTransform="matrix(-0.92, -0.39, -0.39, 0.92, -4368.51, -851.08)" xlink:href="#linear-gradient-4"/><linearGradient id="linear-gradient-6" x1="39.15" y1="100.06" x2="44.75" y2="100.06" xlink:href="#linear-gradient"/><linearGradient id="linear-gradient-7" x1="71.97" y1="103.25" x2="23.6" y2="130.96" xlink:href="#linear-gradient"/><linearGradient id="linear-gradient-8" x1="76.77" y1="111.64" x2="28.4" y2="139.34" xlink:href="#linear-gradient"/><linearGradient id="linear-gradient-9" x1="48.47" y1="100.06" x2="37.6" y2="84.16" xlink:href="#linear-gradient"/></defs><title>HowWeDoIt1</title><path class="cls-1" d="M90.72,96.2,3,168.5a8.18,8.18,0,0,0-.69,12l.54.57a7.61,7.61,0,0,0,10.79.16L95.4,101.37Z"/><path class="cls-1" d="M110,3.44c-30.55,10.81-46.71,43.9-36.09,73.9s44,45.56,74.55,34.75,46.71-43.91,36.09-73.91S140.54-7.38,110,3.44Zm35.63,100.67c-26.06,9.22-54.54-4-63.6-29.64s4.73-53.83,30.8-63,54.54,4,63.6,29.64S171.68,94.88,145.61,104.11Z"/><path class="cls-2" d="M80.34,82.36a.16.16,0,0,1-.13-.08c-.62-1.22-1.19-2.49-1.72-3.76a.15.15,0,0,1,.09-.19.14.14,0,0,1,.19.08c.52,1.26,1.1,2.52,1.71,3.74a.14.14,0,0,1-.07.2ZM75.35,67a.14.14,0,0,1-.15-.13,52.67,52.67,0,0,1-.63-11.22A53.93,53.93,0,0,1,85.19,26.25,55.66,55.66,0,0,1,141.8,5.14a.16.16,0,0,1,.12.18.15.15,0,0,1-.18.11,55.38,55.38,0,0,0-56.31,21A53.7,53.7,0,0,0,74.87,55.71a52,52,0,0,0,.63,11.15.17.17,0,0,1-.13.18Z"/><path class="cls-2" d="M9.41,180.82c-3.37,0-5.56-1.18-6.49-3.5a6.09,6.09,0,0,1,1.79-6.88l10.43-9a.16.16,0,0,1,.21,0,.15.15,0,0,1,0,.21l-10.42,9a5.8,5.8,0,0,0-1.71,6.54c.89,2.22,3,3.33,6.32,3.31h0a.15.15,0,1,1,0,.3Z"/><path class="cls-2" d="M18.45,158.94a.15.15,0,0,1-.1-.27l1.35-1.16a.15.15,0,0,1,.2.22l-1.35,1.17A.21.21,0,0,1,18.45,158.94Z"/><path class="cls-3" d="M43.36,149.69l-6.58,1.64,1.65,12.34a14,14,0,0,0-3.29,5.76c-.82,3.29-1.58,17.1-1.58,17.1l-1.56.94-.19.79,4.54,6.11-.75-4.86c-.12-.77.08-2.34,0-2.37,2.47-6.58,7.74-25.12,7.74-25.12Z"/><path class="cls-4" d="M45.29,188.35h-.22c.32-4,1.77-21.43,3.23-28,1.64-7.4-2.47-22.21-2.47-22.21l-7.4,7.4,4.11,14c-2.82,4.22.46,29,.39,29v.05l-1.07,1.48.13.8,6.56,3.87L46,190.54A4.65,4.65,0,0,1,45.29,188.35Z"/><path class="cls-5" d="M37,105.34s-14.41,16.24,0,24.57l1.47-1.06s-7.16-6.85,0-15.24Z"/><path class="cls-6" d="M49,195.33H46.89a1.26,1.26,0,0,1-1-.49c-.65-.84-2-2.5-2.65-2.54-.87-.06-.76,3-.76,3H42l-.62-3.84a2.28,2.28,0,0,1,1.2-2.37h0a3.22,3.22,0,0,0,1.28,2.12c1.07.65,4.38,3,4.38,3a3,3,0,0,1,.85,0A.55.55,0,0,1,49,195.33Z"/><path class="cls-7" d="M36.51,195.1l-1.93-.82a1.26,1.26,0,0,1-.73-.83c-.27-1-.87-3.09-1.45-3.38-.78-.39-1.88,2.51-1.88,2.51l-.45-.19.92-3.78a2.27,2.27,0,0,1,2-1.73h0a3.24,3.24,0,0,0,.36,2.45c.74,1,2.89,4.44,2.89,4.44a3.11,3.11,0,0,1,.77.36A.55.55,0,0,1,36.51,195.1Z"/><path class="cls-8" d="M47.72,125.65a25.84,25.84,0,0,0,.11,5.56c.35,4.08,2.05,13.65,1.7,22.8a49.5,49.5,0,0,1-13.18.59s-3.53-14.29-2.67-19.72,5.52-9.34,5.52-9.34Z"/><polygon class="cls-9" points="44.16 98.42 44.75 105.34 39.15 105.34 40.55 94.78 44.16 98.42"/><path class="cls-10" d="M37.5,104.38c1.93-.1,6.24-.3,9.3-.13a3.54,3.54,0,0,1,3.29,2.82l.74,3.57a8.54,8.54,0,0,1-.12,4l-3,11s-2.67,1.61-8.52-.11c0,0-5.13-12.24-3-20.08A1.46,1.46,0,0,1,37.5,104.38Z"/><path class="cls-11" d="M49.94,106.43c.82,2.17,1.57,4.44,2.37,6.57.4,1.07.82,2.11,1.26,3.07.22.48.47.92.69,1.32a5.91,5.91,0,0,0,.61.87s-.06,0-.09,0l.73.12h.69a23.47,23.47,0,0,0,3.23-.44c2.26-.42,4.61-1,7-1.46h0a.84.84,0,0,1,1,.68.83.83,0,0,1-.27.79,24.75,24.75,0,0,1-3.08,2.25c-.53.33-1.08.65-1.64,1s-1.14.58-1.73.85a20.13,20.13,0,0,1-3.84,1.31l-1.12.17a10.9,10.9,0,0,1-1.29,0q-.37,0-.75-.09a3.63,3.63,0,0,1-.39-.07l-.51-.17a5.43,5.43,0,0,1-.87-.44c-.24-.16-.45-.32-.66-.49a8.92,8.92,0,0,1-1.68-1.94,14.34,14.34,0,0,1-1.06-1.88,24.47,24.47,0,0,1-1.46-3.68,34.08,34.08,0,0,1-1.52-7.46,2.24,2.24,0,0,1,4.32-1Z"/><path class="cls-12" d="M65.69,117.63l1-2.37L71.94,114s.42.91-1.78,1.31a1.92,1.92,0,0,1,.37,1.89C70.11,118.18,65.64,119.2,65.69,117.63Z"/><path class="cls-13" d="M46.53,90.43c.2.11,1.77,5.66.45,8s-5.34-.28-6.44-3.64S41.21,87.29,46.53,90.43Z"/><path class="cls-1" d="M36.09,94.78c-.9,4.42-3.89,3.21-6,5.18-3.44,3.19-8.35-.1-13.13,2.92-3.45,2.19-5.11,7.77-3.45,12.28,2.29,6.24,10.12,8.81,14.18,6.91,3.88-1.82,3.33-7.26,8.55-9.37,2.21-.89,3.31-.31,4.63-1.63,2.33-2.32,1.7-6.82,1.46-8.55-.52-3.76-1.79-4.44-1.18-6.09,1.17-3.22,6.63-2.55,7.09-4.82.41-2.07-3.55-6-7.27-5.37C35.19,87.2,36.49,92.8,36.09,94.78Z"/><path class="cls-14" d="M15.22,114.1a.16.16,0,0,1-.15-.12c-.74-3.06-.4-5.58,1-7.47,2.32-3.14,6.83-3.45,6.88-3.45s.15,0,.16.14a.16.16,0,0,1-.14.16s-4.42.3-6.66,3.33c-1.34,1.82-1.66,4.25-.95,7.22a.16.16,0,0,1-.11.19Z"/><path class="cls-15" d="M30,116.91h0a.07.07,0,0,1-.05-.09c.72-2.76,2-4.67,3.75-5.7a7.43,7.43,0,0,1,3.56-.87,4,4,0,0,0,2.62-.74c1.47-1.31,1.39-4.46-.25-9.36a.08.08,0,0,1,0-.1.08.08,0,0,1,.1,0c1.66,5,1.73,8.17.21,9.52a4.08,4.08,0,0,1-2.71.78,7.22,7.22,0,0,0-3.49.86c-1.74,1-3,2.88-3.68,5.6A.09.09,0,0,1,30,116.91Z"/><path class="cls-15" d="M38.23,93.68h0a.06.06,0,0,1,0-.09c.57-1.7,2.21-1.45,4-1.18a7.8,7.8,0,0,0,3.22.06c.72-.22,1.15-.55,1.27-1a2.07,2.07,0,0,0-.54-1.6.08.08,0,0,1,0-.1.08.08,0,0,1,.11,0,2.2,2.2,0,0,1,.57,1.74,1.81,1.81,0,0,1-1.38,1.09,7.74,7.74,0,0,1-3.28,0c-1.75-.27-3.27-.51-3.8,1.08A.08.08,0,0,1,38.23,93.68Z"/></svg>