<svg id="Layer_1" data-name="Layer 1" xmlns="http://www.w3.org/2000/svg" viewBox="0 0 26.27 27"><defs><style>.cls-1{fill:#ff13e6;}</style></defs><title>Buttons</title><path class="cls-1" d="M18.56,2a5.74,5.74,0,0,1,5.73,5.73V19.29A5.74,5.74,0,0,1,18.56,25H7.71A5.74,5.74,0,0,1,2,19.29V7.71A5.74,5.74,0,0,1,7.71,2Zm0,25a7.72,7.72,0,0,0,7.71-7.71V7.71A7.72,7.72,0,0,0,18.56,0H7.71A7.72,7.72,0,0,0,0,7.71V19.29A7.72,7.72,0,0,0,7.71,27H18.56M13,8.7h.13a5.06,5.06,0,0,1,3.67,1.41,4.6,4.6,0,0,1,1.12,3.32,4.76,4.76,0,1,1-9.51,0A4.84,4.84,0,0,1,9.85,10,4.46,4.46,0,0,1,13,8.7m.17,11.94a7,7,0,0,0,5-2.11,7.34,7.34,0,0,0,2.13-5,6.94,6.94,0,0,0-1.78-5,7.4,7.4,0,0,0-5.36-2.18,6.84,6.84,0,0,0-5,2A7.28,7.28,0,0,0,6,13.46a7.19,7.19,0,0,0,7.18,7.18m9-14.55a1.68,1.68,0,1,0-1.68,1.67,1.68,1.68,0,0,0,1.68-1.67"/></svg>