<svg xmlns="http://www.w3.org/2000/svg" xmlns:xlink="http://www.w3.org/1999/xlink" viewBox="0 0 25 19.03"><defs><style>.cls-1{fill:none;}.cls-2{clip-path:url(#clip-path);}.cls-3{fill:url(#linear-gradient);}</style><clipPath id="clip-path"><rect class="cls-1" x="-229.7" y="-774.18" width="1440" height="517.05"/></clipPath><linearGradient id="linear-gradient" y1="9.51" x2="25" y2="9.51" gradientUnits="userSpaceOnUse"><stop offset="0" stop-color="#ff13e6"/><stop offset="0.09" stop-color="#ff19df"/><stop offset="0.23" stop-color="#ff29cb"/><stop offset="0.4" stop-color="#ff43aa"/><stop offset="0.59" stop-color="#ff687c"/><stop offset="0.8" stop-color="#ff9642"/><stop offset="1" stop-color="#ffc902"/></linearGradient></defs><title>Contact Us</title><g id="Images"><g class="cls-2"><image width="5991" height="3994" transform="translate(-259.56 -953.74) scale(0.25)" xlink:href="../Google%20Drive/Social%20Chain/Data%20Chain/Data%20Chain%20Website/Assets/kelly-robinson-1421326-unsplash.jpg"/></g></g><g id="Copy"><path class="cls-3" d="M22,0H3.06A3.06,3.06,0,0,0,0,3.06V16A3.07,3.07,0,0,0,3.06,19H21.94A3.07,3.07,0,0,0,25,16V3.06A3.06,3.06,0,0,0,22,0Zm1.66,16A1.67,1.67,0,0,1,22,17.63H3.06A1.66,1.66,0,0,1,1.4,16V3.06A1.66,1.66,0,0,1,3.06,1.4H21.94A1.66,1.66,0,0,1,23.6,3.06V16ZM15.77,9.35l6.11-5.48a.7.7,0,0,0,.05-1,.71.71,0,0,0-1,0L12.51,10.4,10.87,8.93v0l-.12-.1-6.69-6a.71.71,0,0,0-1,.06.7.7,0,0,0,.06,1L9.31,9.4,3.15,15.17a.69.69,0,0,0,0,1,.71.71,0,0,0,.52.23.7.7,0,0,0,.47-.19l6.26-5.85,1.69,1.52a.75.75,0,0,0,.47.17.69.69,0,0,0,.46-.18l1.75-1.56,6.21,5.91a.7.7,0,0,0,.49.19.72.72,0,0,0,.5-.22.7.7,0,0,0,0-1Z"/></g></svg>