<svg xmlns="http://www.w3.org/2000/svg" xmlns:xlink="http://www.w3.org/1999/xlink" viewBox="0 0 13.99 25"><defs><style>.cls-1{fill:none;}.cls-2{clip-path:url(#clip-path);}.cls-3{fill:url(#linear-gradient);}</style><clipPath id="clip-path"><rect class="cls-1" x="-240.71" y="-716.44" width="1440" height="517.05"/></clipPath><linearGradient id="linear-gradient" y1="12.5" x2="13.99" y2="12.5" gradientUnits="userSpaceOnUse"><stop offset="0" stop-color="#ff13e6"/><stop offset="0.09" stop-color="#ff19df"/><stop offset="0.23" stop-color="#ff29cb"/><stop offset="0.4" stop-color="#ff43aa"/><stop offset="0.59" stop-color="#ff687c"/><stop offset="0.8" stop-color="#ff9642"/><stop offset="1" stop-color="#ffc902"/></linearGradient></defs><title>Contact Us</title><g id="Images"><g class="cls-2"><image width="5991" height="3994" transform="translate(-270.57 -896.01) scale(0.25)" xlink:href="../Google%20Drive/Social%20Chain/Data%20Chain/Data%20Chain%20Website/Assets/kelly-robinson-1421326-unsplash.jpg"/></g></g><g id="Copy"><path class="cls-3" d="M12.41,0H1.58A1.58,1.58,0,0,0,0,1.58V23.42A1.58,1.58,0,0,0,1.58,25H12.41A1.58,1.58,0,0,0,14,23.42V1.58A1.58,1.58,0,0,0,12.41,0ZM.79,4H13.2V20.51H.79ZM1.58.79H12.41a.8.8,0,0,1,.79.79V3.45H.79V1.58A.8.8,0,0,1,1.58.79ZM12.41,24.21H1.58a.8.8,0,0,1-.79-.79V21H13.2v2.38A.8.8,0,0,1,12.41,24.21ZM7,21.39a1.3,1.3,0,1,0,1.3,1.3A1.3,1.3,0,0,0,7,21.39Zm0,2.07a.77.77,0,0,1,0-1.54.77.77,0,0,1,0,1.54ZM5.2,2.52H8.79a.27.27,0,1,0,0-.53H5.2a.27.27,0,1,0,0,.53Zm-1,0a.27.27,0,0,0,.27-.27.27.27,0,0,0-.08-.18A.27.27,0,0,0,4.24,2,.27.27,0,0,0,4,2.25a.27.27,0,0,0,.08.19A.27.27,0,0,0,4.24,2.52Z"/></g></svg>