<?xml version="1.0" encoding="utf-8"?>
<!-- Generator: Adobe Illustrator 23.0.3, SVG Export Plug-In . SVG Version: 6.00 Build 0)  -->
<svg version="1.1" id="Layer_1" xmlns="http://www.w3.org/2000/svg" xmlns:xlink="http://www.w3.org/1999/xlink" x="0px" y="0px"
	 viewBox="0 0 1042.54 276.97" style="enable-background:new 0 0 1042.54 276.97;" xml:space="preserve">
<style type="text/css">
	.st0{fill:#FFFFFF;}
	.st1{fill:url(#SVGID_1_);}
	.st2{fill:url(#SVGID_2_);}
	.st3{fill:#F9F9FB;}
	.st4{fill:url(#SVGID_3_);}
	.st5{fill:url(#SVGID_4_);}
	.st6{fill:#1B1464;}
	.st7{fill:url(#SVGID_5_);}
</style>
<g>
	<g>
		<linearGradient id="SVGID_1_" gradientUnits="userSpaceOnUse" x1="-40.9248" y1="201.4528" x2="148.5719" y2="42.4462">
			<stop  offset="0" style="stop-color:#FF13E6"/>
			<stop  offset="0.0942" style="stop-color:#FF19DF"/>
			<stop  offset="0.234" style="stop-color:#FF29CB"/>
			<stop  offset="0.4023" style="stop-color:#FF43AA"/>
			<stop  offset="0.5928" style="stop-color:#FF687C"/>
			<stop  offset="0.7989" style="stop-color:#FF9642"/>
			<stop  offset="1" style="stop-color:#FFC902"/>
		</linearGradient>
		<path class="st1" d="M138.49,138.49L0,276.97h68.23l138.49-138.49H138.49z M0,0l138.49,138.49V70.25L68.23,0H0z"/>
	</g>
	<path class="st6" d="M330.5,56.79l-6.45,5.25c-2.5-7.1-6.22-12.25-11.17-15.45c-4.95-3.2-11.47-4.8-19.58-4.8
		c-5.8,0-10.85,0.9-15.15,2.7c-4.3,1.8-7.58,4.25-9.83,7.35c-2.25,3.1-3.38,6.6-3.38,10.5c0,3.8,0.95,6.95,2.85,9.45
		c1.9,2.5,5.12,4.63,9.68,6.38c4.55,1.75,10.82,3.33,18.82,4.73c12.9,2.2,22.05,5.4,27.45,9.6c5.4,4.2,8.1,10,8.1,17.4
		c0,5.3-1.55,10-4.65,14.1c-3.1,4.1-7.48,7.27-13.12,9.52c-5.65,2.25-12.13,3.38-19.42,3.38c-10.4,0-19.18-2.07-26.33-6.23
		c-7.15-4.15-12.03-9.98-14.62-17.48l6.6-5.1c2,7.1,6.02,12.52,12.08,16.27c6.05,3.75,13.52,5.62,22.42,5.62
		c8.6,0,15.62-1.75,21.08-5.25c5.45-3.5,8.17-8.3,8.17-14.4c0-5.3-2.23-9.5-6.67-12.6c-4.45-3.1-12.18-5.6-23.17-7.5
		c-9.3-1.6-16.65-3.55-22.05-5.85c-5.4-2.3-9.28-5.15-11.62-8.55c-2.35-3.4-3.53-7.65-3.53-12.75c0-5.1,1.47-9.8,4.42-14.1
		c2.95-4.3,7.15-7.73,12.6-10.27c5.45-2.55,11.82-3.83,19.12-3.83C311.75,34.89,324.2,42.19,330.5,56.79z"/>
	<path class="st6" d="M405.73,69.32c6.35,6.95,9.53,16.48,9.53,28.58c0,12.1-3.18,21.63-9.53,28.58
		c-6.35,6.95-15.08,10.42-26.17,10.42s-19.83-3.47-26.17-10.42c-6.35-6.95-9.53-16.47-9.53-28.58c0-12.1,3.17-21.62,9.53-28.58
		c6.35-6.95,15.08-10.42,26.17-10.42S399.37,62.37,405.73,69.32z M358.85,74.04c-5,5.8-7.5,13.75-7.5,23.85
		c0,10.1,2.5,18.05,7.5,23.85c5,5.8,11.9,8.7,20.7,8.7c8.8,0,15.7-2.9,20.7-8.7c5-5.8,7.5-13.75,7.5-23.85
		c0-10.1-2.5-18.05-7.5-23.85c-5-5.8-11.9-8.7-20.7-8.7C370.75,65.34,363.85,68.25,358.85,74.04z"/>
	<path class="st6" d="M482.38,64.22c5.25,3.55,9.02,8.53,11.33,14.92l-7.05,3.3c-1.7-5.5-4.55-9.7-8.55-12.6c-4-2.9-9-4.35-15-4.35
		c-8.7,0-15.5,2.88-20.4,8.62c-4.9,5.75-7.35,13.68-7.35,23.77c0,10.2,2.42,18.15,7.28,23.85c4.85,5.7,11.62,8.55,20.33,8.55
		c6.4,0,11.82-1.57,16.27-4.73c4.45-3.15,7.17-7.52,8.17-13.12l6.9,2.4c-2,6.8-5.78,12.18-11.33,16.12
		c-5.55,3.95-12.18,5.92-19.88,5.92c-11.1,0-19.75-3.45-25.95-10.35c-6.2-6.9-9.3-16.45-9.3-28.65c0-12.2,3.12-21.75,9.38-28.65
		c6.25-6.9,14.92-10.35,26.03-10.35C470.75,58.89,477.13,60.67,482.38,64.22z"/>
	<path class="st6" d="M509.08,44.12c-1.15-1.15-1.73-2.67-1.73-4.58c0-1.9,0.57-3.42,1.73-4.57c1.15-1.15,2.67-1.73,4.57-1.73
		c1.9,0,3.42,0.58,4.58,1.73c1.15,1.15,1.73,2.68,1.73,4.57c0,1.9-0.58,3.43-1.73,4.58c-1.15,1.15-2.68,1.73-4.58,1.73
		C511.75,45.84,510.22,45.27,509.08,44.12z M517.4,135.39h-7.5v-75h7.5V135.39z"/>
	<path class="st6" d="M605.9,129.39l-0.45,6c-1.8,1-4.25,1.5-7.35,1.5c-3.5,0-6.35-0.95-8.55-2.85c-2.2-1.9-3.45-5.2-3.75-9.9
		c-2.3,4-6,7.12-11.1,9.38c-5.1,2.25-10.45,3.38-16.05,3.38c-7.4,0-13.33-1.65-17.78-4.95c-4.45-3.3-6.67-8-6.67-14.1
		c0-11.6,9.5-19.1,28.5-22.5l22.95-4.05v-6.6c0-6-1.78-10.7-5.33-14.1c-3.55-3.4-8.58-5.1-15.08-5.1c-11.9,0-19.9,5.3-24,15.9
		l-5.7-4.2c2.2-5.9,5.85-10.42,10.95-13.57c5.1-3.15,11.35-4.73,18.75-4.73c8.7,0,15.53,2.13,20.48,6.37
		c4.95,4.25,7.42,10.42,7.42,18.52v38.7c0,5.3,2.3,7.95,6.9,7.95C602.55,130.44,604.5,130.09,605.9,129.39z M571.7,128.12
		c4-1.45,7.32-3.6,9.98-6.45c2.65-2.85,3.97-6.27,3.97-10.27V97.44l-20.55,3.75c-8.1,1.5-14,3.6-17.7,6.3
		c-3.7,2.7-5.55,6.15-5.55,10.35c0,4,1.55,7.08,4.65,9.22c3.1,2.15,7.4,3.23,12.9,3.23C563.6,130.29,567.7,129.57,571.7,128.12z"/>
	<path class="st6" d="M623.6,117.24c0,4.6,0.72,7.85,2.17,9.75c1.45,1.9,3.87,2.85,7.28,2.85c2,0,3.7-0.15,5.1-0.45
		c1.4-0.3,3-0.85,4.8-1.65l-1.05,7.2c-2.8,1.3-6.1,1.95-9.9,1.95c-5.4,0-9.4-1.52-12-4.58c-2.6-3.05-3.9-7.82-3.9-14.32v-92.1h7.5
		V117.24z"/>
	<path class="st6" d="M756.87,129.92c-6.95,4.65-15.28,6.98-24.98,6.98c-9,0-16.9-2.07-23.7-6.23c-6.8-4.15-12.05-10.07-15.75-17.77
		c-3.7-7.7-5.55-16.7-5.55-27c0-10.3,1.85-19.3,5.55-27c3.7-7.7,8.95-13.62,15.75-17.77c6.8-4.15,14.65-6.23,23.55-6.23
		c19.8,0,32.6,8.15,38.4,24.45l-7.35,3.45c-2.3-7-5.98-12.25-11.03-15.75c-5.05-3.5-11.58-5.25-19.58-5.25
		c-7.4,0-13.93,1.78-19.57,5.33c-5.65,3.55-10.03,8.65-13.12,15.3c-3.1,6.65-4.65,14.48-4.65,23.48s1.52,16.83,4.58,23.48
		c3.05,6.65,7.35,11.75,12.9,15.3c5.55,3.55,12.08,5.33,19.58,5.33c8,0,14.8-1.95,20.4-5.85c5.6-3.9,9.5-9.45,11.7-16.65l7.5,2.85
		C768.69,118.74,763.82,125.27,756.87,129.92z"/>
	<path class="st6" d="M842.67,66.09c5.25,4.8,7.88,11.65,7.88,20.55v48.75h-7.5V89.04c0-7.9-1.98-13.82-5.92-17.77
		c-3.95-3.95-9.28-5.92-15.97-5.92c-4.8,0-9.25,1.12-13.35,3.38c-4.1,2.25-7.38,5.47-9.82,9.67c-2.45,4.2-3.68,9.1-3.68,14.7v42.3
		h-7.5V25.89h7.5v49.35c2.4-5.3,6.02-9.35,10.88-12.15c4.85-2.8,10.43-4.2,16.73-4.2C830.49,58.89,837.42,61.29,842.67,66.09z"/>
	<path class="st6" d="M938.14,129.39l-0.45,6c-1.8,1-4.25,1.5-7.35,1.5c-3.5,0-6.35-0.95-8.55-2.85c-2.2-1.9-3.45-5.2-3.75-9.9
		c-2.3,4-6,7.12-11.1,9.38c-5.1,2.25-10.45,3.38-16.05,3.38c-7.4,0-13.33-1.65-17.78-4.95c-4.45-3.3-6.67-8-6.67-14.1
		c0-11.6,9.5-19.1,28.5-22.5l22.95-4.05v-6.6c0-6-1.78-10.7-5.33-14.1c-3.55-3.4-8.58-5.1-15.08-5.1c-11.9,0-19.9,5.3-24,15.9
		l-5.7-4.2c2.2-5.9,5.85-10.42,10.95-13.57c5.1-3.15,11.35-4.73,18.75-4.73c8.7,0,15.53,2.13,20.48,6.37
		c4.95,4.25,7.42,10.42,7.42,18.52v38.7c0,5.3,2.3,7.95,6.9,7.95C934.79,130.44,936.74,130.09,938.14,129.39z M903.94,128.12
		c4-1.45,7.32-3.6,9.98-6.45c2.65-2.85,3.97-6.27,3.97-10.27V97.44l-20.55,3.75c-8.1,1.5-14,3.6-17.7,6.3
		c-3.7,2.7-5.55,6.15-5.55,10.35c0,4,1.55,7.08,4.65,9.22c3.1,2.15,7.4,3.23,12.9,3.23C895.84,130.29,899.94,129.57,903.94,128.12z"
		/>
	<path class="st6" d="M948.12,44.12c-1.15-1.15-1.73-2.67-1.73-4.58c0-1.9,0.57-3.42,1.73-4.57c1.15-1.15,2.67-1.73,4.57-1.73
		c1.9,0,3.42,0.58,4.58,1.73c1.15,1.15,1.73,2.68,1.73,4.57c0,1.9-0.58,3.43-1.73,4.58c-1.15,1.15-2.68,1.73-4.58,1.73
		C950.79,45.84,949.27,45.27,948.12,44.12z M956.44,135.39h-7.5v-75h7.5V135.39z"/>
	<path class="st6" d="M1034.67,66.09c5.25,4.8,7.88,11.7,7.88,20.7v48.6h-7.5v-46.2c0-8-1.95-13.95-5.85-17.85
		c-3.9-3.9-9.25-5.85-16.05-5.85c-4.8,0-9.25,1.1-13.35,3.3c-4.1,2.2-7.38,5.4-9.82,9.6c-2.45,4.2-3.68,9.1-3.68,14.7v42.3h-7.5v-75
		h6.75l0.3,15.15c2.4-5.4,6.07-9.52,11.02-12.37c4.95-2.85,10.62-4.27,17.03-4.27C1022.49,58.89,1029.42,61.29,1034.67,66.09z"/>
	<linearGradient id="SVGID_2_" gradientUnits="userSpaceOnUse" x1="279.2559" y1="253.3798" x2="401.8986" y2="150.4703">
		<stop  offset="0" style="stop-color:#FF13E6"/>
		<stop  offset="0.0942" style="stop-color:#FF19DF"/>
		<stop  offset="0.234" style="stop-color:#FF29CB"/>
		<stop  offset="0.4023" style="stop-color:#FF43AA"/>
		<stop  offset="0.5928" style="stop-color:#FF687C"/>
		<stop  offset="0.7989" style="stop-color:#FF9642"/>
		<stop  offset="1" style="stop-color:#FFC902"/>
	</linearGradient>
	<path class="st2" d="M298.52,173.73c5.16,5.16,7.74,12.48,7.74,21.96c0,9.48-2.58,16.8-7.74,21.96
		c-5.16,5.16-12.42,7.74-21.78,7.74h-20.97v-59.4h20.97C286.1,165.99,293.36,168.57,298.52,173.73z M291.14,211.58
		c3.36-3.75,5.04-9.04,5.04-15.89c0-6.84-1.68-12.13-5.04-15.88c-3.36-3.75-8.16-5.62-14.4-5.62H265.4v43.02h11.34
		C282.98,217.2,287.78,215.33,291.14,211.58z M358.55,218.73l-0.63,6.48c-1.62,0.72-3.48,1.08-5.58,1.08
		c-2.58,0-4.63-0.51-6.17-1.53c-1.53-1.02-2.54-2.73-3.01-5.13c-1.38,2.1-3.42,3.73-6.12,4.9s-5.73,1.75-9.09,1.75
		c-4.38,0-7.92-1.02-10.62-3.06c-2.7-2.04-4.05-4.95-4.05-8.73c0-3.54,1.47-6.52,4.41-8.96c2.94-2.43,7.32-4.15,13.14-5.17
		l11.43-1.98v-2.43c0-2.76-0.81-4.93-2.43-6.52c-1.62-1.59-3.87-2.38-6.75-2.38c-5.94,0-9.81,2.7-11.61,8.1l-7.47-3.96
		c1.08-3.6,3.29-6.45,6.62-8.55c3.33-2.1,7.42-3.15,12.29-3.15c5.82,0,10.44,1.35,13.86,4.05c3.42,2.7,5.13,6.66,5.13,11.88v20.34
		c0,1.14,0.25,1.98,0.77,2.52c0.51,0.54,1.36,0.81,2.56,0.81C356.54,219.09,357.65,218.97,358.55,218.73z M338.57,216.66
		c2.46-1.56,3.69-3.63,3.69-6.21v-5.4l-9.81,1.98c-3.12,0.6-5.43,1.44-6.93,2.52c-1.5,1.08-2.25,2.52-2.25,4.32
		c0,1.68,0.58,2.96,1.75,3.83c1.17,0.87,2.83,1.3,5,1.3C333.26,219,336.11,218.22,338.57,216.66z M392.3,222.42
		c-1.44,1.2-3.2,2.15-5.26,2.84c-2.07,0.69-4.31,1.03-6.71,1.03c-4.14,0-7.46-1.03-9.95-3.1c-2.49-2.07-3.77-5.29-3.83-9.67v-25.56
		h-8.55v-7.56h8.55v-10.53l9.63-2.7v13.23h15.75v7.56h-15.75v23.94c0,2.16,0.59,3.77,1.76,4.81c1.17,1.05,2.77,1.58,4.81,1.58
		c2.76,0,5.19-0.96,7.29-2.88L392.3,222.42z M441.08,218.73l-0.63,6.48c-1.62,0.72-3.48,1.08-5.58,1.08c-2.58,0-4.63-0.51-6.17-1.53
		c-1.53-1.02-2.54-2.73-3.01-5.13c-1.38,2.1-3.42,3.73-6.12,4.9s-5.73,1.75-9.09,1.75c-4.38,0-7.92-1.02-10.62-3.06
		c-2.7-2.04-4.05-4.95-4.05-8.73c0-3.54,1.47-6.52,4.41-8.96c2.94-2.43,7.32-4.15,13.14-5.17l11.43-1.98v-2.43
		c0-2.76-0.81-4.93-2.43-6.52c-1.62-1.59-3.87-2.38-6.75-2.38c-5.94,0-9.81,2.7-11.61,8.1l-7.47-3.96c1.08-3.6,3.29-6.45,6.62-8.55
		c3.33-2.1,7.42-3.15,12.29-3.15c5.82,0,10.44,1.35,13.86,4.05c3.42,2.7,5.13,6.66,5.13,11.88v20.34c0,1.14,0.25,1.98,0.77,2.52
		c0.51,0.54,1.36,0.81,2.56,0.81C439.07,219.09,440.18,218.97,441.08,218.73z M421.1,216.66c2.46-1.56,3.69-3.63,3.69-6.21v-5.4
		l-9.81,1.98c-3.12,0.6-5.43,1.44-6.93,2.52c-1.5,1.08-2.25,2.52-2.25,4.32c0,1.68,0.58,2.96,1.75,3.83c1.17,0.87,2.83,1.3,5,1.3
		C415.79,219,418.64,218.22,421.1,216.66z"/>
</g>
</svg>
