<svg id="Layer_1" data-name="Layer 1" xmlns="http://www.w3.org/2000/svg" viewBox="0 0 27.05 22.01"><defs><style>.cls-1{fill:#ff13e6;}</style></defs><title>Buttons</title><path class="cls-1" d="M18.23,0s0,0-.06,0a3.81,3.81,0,0,0-.59,0,5.37,5.37,0,0,0-2.75,1.45,5.5,5.5,0,0,0-1.29,1.87,5.62,5.62,0,0,0-.43,2A6.11,6.11,0,0,0,13.2,6.6c0,.11,0,.16-.13.15l-1-.1A15.62,15.62,0,0,1,9.3,6,15.15,15.15,0,0,1,6.74,4.94a13.88,13.88,0,0,1-2-1.24,15.43,15.43,0,0,1-2-1.77c-.25-.27-.49-.54-.73-.82s-.2-.15-.3,0l0,.05a5.32,5.32,0,0,0-.6,2.06,5.71,5.71,0,0,0,0,1.24,5.33,5.33,0,0,0,.67,2.05A5.39,5.39,0,0,0,2.6,7.68a5.52,5.52,0,0,0,.77.67H3.29a.5.5,0,0,1-.17,0,5.52,5.52,0,0,1-1.9-.58c-.13-.06-.19,0-.2.11a3.43,3.43,0,0,0,0,.64,5.63,5.63,0,0,0,4.2,4.75,5.94,5.94,0,0,1-1,.14,4.56,4.56,0,0,1-1-.08c-.18,0-.23,0-.17.22a6.35,6.35,0,0,0,.38.84A5.66,5.66,0,0,0,7.6,17.22a1,1,0,0,1,.39.05.12.12,0,0,1-.06.06,12.37,12.37,0,0,1-1.51,1,11.38,11.38,0,0,1-2.76,1,11,11,0,0,1-2.21.25,11.49,11.49,0,0,1-1.31-.06c-.06,0-.13,0-.14.07a.25.25,0,0,0,.12.13c.29.19.6.36.9.52a16,16,0,0,0,2.84,1.18A14.36,14.36,0,0,0,8.18,22l1.43,0a10.39,10.39,0,0,0,1.68-.16A14.43,14.43,0,0,0,14,21.12a14.15,14.15,0,0,0,3.14-1.56,14.69,14.69,0,0,0,2.65-2.2c.29-.31.58-.63.85-1a16,16,0,0,0,1.69-2.54,16,16,0,0,0,1.15-2.65,16.93,16.93,0,0,0,.64-2.64,16.22,16.22,0,0,0,.18-2.1V5.65a.3.3,0,0,1,.12-.24,8.7,8.7,0,0,0,1-.83c.31-.31.62-.62.91-1s.43-.55.63-.84c0,0,.08-.13,0-.18s-.12,0-.18,0a11,11,0,0,1-2,.63l-.8.16h0l.11-.05a5.78,5.78,0,0,0,.67-.53,5.49,5.49,0,0,0,1-1.25,4.87,4.87,0,0,0,.47-1s0-.11,0-.15-.1,0-.14,0a12.36,12.36,0,0,1-1.21.6,11.24,11.24,0,0,1-2,.63.22.22,0,0,1-.22-.06A5.14,5.14,0,0,0,21,.44,4.2,4.2,0,0,0,19.58,0a1.34,1.34,0,0,1-.35,0h-.77a.11.11,0,0,1-.11,0h-.12"/></svg>