<svg xmlns="http://www.w3.org/2000/svg" xmlns:xlink="http://www.w3.org/1999/xlink" viewBox="0 0 424.74 265.41"><defs><style>.cls-1{isolation:isolate;}.cls-2{fill:#f9f9fb;mix-blend-mode:multiply;}.cls-3,.cls-5{opacity:0.43;}.cls-4{fill:url(#linear-gradient);}.cls-13,.cls-16,.cls-21,.cls-26,.cls-5,.cls-9{fill:#fff;}.cls-6{fill:url(#New_Gradient_Swatch);}.cls-7{opacity:0.37;}.cls-8{fill:url(#linear-gradient-2);}.cls-9{opacity:0.86;}.cls-10{fill:url(#New_Gradient_Swatch-2);}.cls-11{fill:#1b1464;}.cls-12{fill:url(#linear-gradient-3);}.cls-14{opacity:0.76;}.cls-15{fill:url(#New_Gradient_Swatch-3);}.cls-16{opacity:0.45;}.cls-17{fill:url(#New_Gradient_Swatch-4);}.cls-18{fill:#ffc902;}.cls-19{fill:url(#New_Gradient_Swatch-5);}.cls-20{fill:url(#linear-gradient-4);}.cls-21{opacity:0.51;}.cls-22{fill:#eac4f9;}.cls-23{fill:url(#linear-gradient-5);}.cls-24{fill:url(#linear-gradient-6);}.cls-25{fill:url(#linear-gradient-7);}.cls-26{opacity:0.47;}.cls-27{fill:url(#linear-gradient-8);}.cls-28{fill:url(#linear-gradient-9);}.cls-29{fill:#f79e6d;}.cls-30{fill:url(#linear-gradient-10);}.cls-31{fill:url(#linear-gradient-11);}.cls-32{fill:url(#linear-gradient-12);}.cls-33{fill:url(#linear-gradient-13);}.cls-34{fill:url(#linear-gradient-14);}.cls-35{fill:url(#linear-gradient-15);}.cls-36{fill:url(#linear-gradient-16);}.cls-37{fill:url(#linear-gradient-17);}.cls-38{fill:url(#linear-gradient-18);}.cls-39{fill:url(#linear-gradient-19);}.cls-40{fill:url(#linear-gradient-20);}.cls-41{fill:url(#linear-gradient-21);}.cls-42{fill:url(#linear-gradient-22);}.cls-43{fill:url(#linear-gradient-23);}.cls-44{fill:url(#linear-gradient-24);}.cls-45{fill:url(#linear-gradient-25);}.cls-46{fill:url(#linear-gradient-26);}.cls-47{fill:url(#linear-gradient-27);}.cls-48{fill:url(#linear-gradient-28);}.cls-49{fill:#50c7fe;}.cls-50{fill:url(#linear-gradient-29);}.cls-51{fill:url(#New_Gradient_Swatch-6);}.cls-52{fill:url(#linear-gradient-30);}.cls-53{fill:url(#linear-gradient-31);}.cls-54{fill:url(#linear-gradient-32);}.cls-55{fill:url(#linear-gradient-33);}.cls-56{fill:url(#linear-gradient-34);}.cls-57{fill:url(#linear-gradient-35);}.cls-58{fill:url(#linear-gradient-36);}.cls-59{fill:url(#linear-gradient-37);}.cls-60{fill:url(#linear-gradient-38);}.cls-61{fill:url(#linear-gradient-39);}.cls-62{fill:url(#linear-gradient-40);}.cls-63{fill:url(#linear-gradient-41);}.cls-64{fill:url(#linear-gradient-42);}.cls-65{fill:url(#linear-gradient-43);}.cls-66{fill:url(#linear-gradient-44);}.cls-67{fill:url(#linear-gradient-45);}.cls-68{fill:url(#linear-gradient-46);}.cls-69{fill:url(#linear-gradient-47);}.cls-70{fill:url(#linear-gradient-48);}.cls-71{fill:url(#linear-gradient-49);}.cls-72{fill:url(#linear-gradient-50);}.cls-73{fill:url(#linear-gradient-51);}.cls-74{fill:url(#linear-gradient-52);}.cls-75{fill:url(#linear-gradient-53);}</style><linearGradient id="linear-gradient" x1="405.55" y1="259.53" x2="288.93" y2="406.89" gradientTransform="matrix(0.99, -0.28, 0.39, 0.8, -91.6, 8.23)" gradientUnits="userSpaceOnUse"><stop offset="0" stop-color="#cb236d"/><stop offset="1" stop-color="#4c246d"/></linearGradient><linearGradient id="New_Gradient_Swatch" x1="-525.9" y1="447.43" x2="-640.43" y2="592.14" gradientTransform="matrix(0.83, -0.56, 0.56, 0.83, 555.56, -597.56)" gradientUnits="userSpaceOnUse"><stop offset="0" stop-color="#ff13e6"/><stop offset="0.09" stop-color="#ff19df"/><stop offset="0.23" stop-color="#ff29cb"/><stop offset="0.4" stop-color="#ff43aa"/><stop offset="0.59" stop-color="#ff687c"/><stop offset="0.8" stop-color="#ff9642"/><stop offset="1" stop-color="#ffc902"/></linearGradient><linearGradient id="linear-gradient-2" x1="2166.28" y1="-3216.44" x2="2320.23" y2="-3216.44" gradientTransform="matrix(-0.96, -0.27, -0.27, 0.96, 1374.39, 3849.33)" gradientUnits="userSpaceOnUse"><stop offset="0" stop-color="#53d8ff"/><stop offset="1" stop-color="#3840f7"/></linearGradient><linearGradient id="New_Gradient_Swatch-2" x1="1681.33" y1="-3832.91" x2="1810.67" y2="-3832.91" gradientTransform="matrix(-0.8, -0.59, -0.59, 0.8, -703.7, 4278.72)" xlink:href="#New_Gradient_Swatch"/><linearGradient id="linear-gradient-3" x1="385.13" y1="65.48" x2="149.16" y2="425.85" gradientTransform="matrix(1, 0, 0, 1, 0, 0)" xlink:href="#linear-gradient-2"/><linearGradient id="New_Gradient_Swatch-3" x1="3861.48" y1="5203.71" x2="3887.26" y2="5203.71" gradientTransform="matrix(0.3, 0.95, -0.76, 0.24, 3112.27, -4694.6)" xlink:href="#New_Gradient_Swatch"/><linearGradient id="New_Gradient_Swatch-4" x1="-1234.03" y1="-132.05" x2="-1261.76" y2="-61.14" gradientTransform="matrix(0.9, 0.44, -0.44, 0.9, 1410.78, 826.1)" xlink:href="#New_Gradient_Swatch"/><linearGradient id="New_Gradient_Swatch-5" x1="3200.1" y1="6501.9" x2="3222.79" y2="6501.9" gradientTransform="matrix(-0.76, 0.65, 0.52, 0.61, -866.93, -5827.52)" xlink:href="#New_Gradient_Swatch"/><linearGradient id="linear-gradient-4" x1="183.23" y1="159.1" x2="52.29" y2="359.08" gradientTransform="matrix(1, 0, 0, 1, 0, 0)" xlink:href="#linear-gradient-2"/><linearGradient id="linear-gradient-5" x1="-1648.96" y1="746.14" x2="-1676.68" y2="814.49" gradientTransform="matrix(-0.88, 0.47, 0.47, 0.88, -1697.25, 331.34)" xlink:href="#linear-gradient"/><linearGradient id="linear-gradient-6" x1="-1650.24" y1="717.06" x2="-1677.49" y2="794.97" gradientTransform="matrix(-0.88, 0.47, 0.47, 0.88, -1697.25, 331.34)" gradientUnits="userSpaceOnUse"><stop offset="0" stop-color="#a737d5"/><stop offset="0.87" stop-color="#e54786"/><stop offset="1" stop-color="#ef497a"/></linearGradient><linearGradient id="linear-gradient-7" x1="-1631.25" y1="753.32" x2="-1658.97" y2="821.67" gradientTransform="matrix(-0.88, 0.47, 0.47, 0.88, -1697.25, 331.34)" xlink:href="#linear-gradient"/><linearGradient id="linear-gradient-8" x1="204.67" y1="96.58" x2="179.85" y2="108.61" gradientUnits="userSpaceOnUse"><stop offset="0" stop-color="#f9b776"/><stop offset="1" stop-color="#f47960"/></linearGradient><linearGradient id="linear-gradient-9" x1="204.78" y1="96.83" x2="179.97" y2="108.85" xlink:href="#linear-gradient-8"/><linearGradient id="linear-gradient-10" x1="153.94" y1="135.88" x2="157.82" y2="135.88" gradientTransform="matrix(1, 0, 0, 1, 0, 0)" xlink:href="#linear-gradient-2"/><linearGradient id="linear-gradient-11" x1="156.39" y1="131.45" x2="159.43" y2="131.45" xlink:href="#linear-gradient-8"/><linearGradient id="linear-gradient-12" x1="200.8" y1="121.93" x2="206.62" y2="121.93" gradientTransform="matrix(1, 0, 0, 1, 0, 0)" xlink:href="#linear-gradient-2"/><linearGradient id="linear-gradient-13" x1="197.48" y1="121.67" x2="200.82" y2="121.67" xlink:href="#linear-gradient-8"/><linearGradient id="linear-gradient-14" x1="173.87" y1="104.7" x2="159.1" y2="78.59" xlink:href="#linear-gradient-8"/><linearGradient id="linear-gradient-15" x1="179.2" y1="93.77" x2="176.6" y2="95.03" xlink:href="#linear-gradient-8"/><linearGradient id="linear-gradient-16" x1="183.21" y1="93.53" x2="184.75" y2="89.12" xlink:href="#linear-gradient-8"/><linearGradient id="linear-gradient-17" x1="187.61" y1="84.44" x2="180.82" y2="89.63" xlink:href="#linear-gradient-8"/><linearGradient id="linear-gradient-18" x1="186.77" y1="83.34" x2="179.98" y2="88.53" xlink:href="#linear-gradient-8"/><linearGradient id="linear-gradient-19" x1="296.4" y1="110.54" x2="298.72" y2="110.54" gradientTransform="matrix(1, 0, 0, 1, 0, 0)" xlink:href="#linear-gradient-2"/><linearGradient id="linear-gradient-20" x1="322.39" y1="90.09" x2="326.79" y2="90.09" gradientTransform="matrix(1, 0, 0, 1, 0, 0)" xlink:href="#linear-gradient-2"/><linearGradient id="linear-gradient-21" x1="369.9" y1="9.4" x2="388.88" y2="9.4" xlink:href="#linear-gradient-8"/><linearGradient id="linear-gradient-22" x1="367.62" y1="16.15" x2="346.08" y2="52.01" gradientTransform="matrix(1, 0, 0, 1, 0, 0)" xlink:href="#linear-gradient-2"/><linearGradient id="linear-gradient-23" x1="300.88" y1="102.88" x2="307.1" y2="102.88" xlink:href="#linear-gradient-8"/><linearGradient id="linear-gradient-24" x1="328.64" y1="83.37" x2="334.92" y2="83.37" xlink:href="#linear-gradient-8"/><linearGradient id="linear-gradient-25" x1="363.06" y1="41.18" x2="322.43" y2="80.48" gradientTransform="matrix(1, 0, 0, 1, 0, 0)" xlink:href="#linear-gradient"/><linearGradient id="linear-gradient-26" x1="341.77" y1="68.75" x2="335.22" y2="74.41" gradientTransform="matrix(1, 0, 0, 1, 0, 0)" xlink:href="#linear-gradient"/><linearGradient id="linear-gradient-27" x1="334.14" y1="69.12" x2="330.62" y2="74.15" gradientTransform="matrix(1, 0, 0, 1, 0, 0)" xlink:href="#linear-gradient"/><linearGradient id="linear-gradient-28" x1="357.12" y1="34.26" x2="320.37" y2="65.35" gradientTransform="matrix(1, 0, 0, 1, 0, 0)" xlink:href="#linear-gradient-2"/><linearGradient id="linear-gradient-29" x1="321.29" y1="63.29" x2="334.45" y2="63.29" xlink:href="#linear-gradient-8"/><linearGradient id="New_Gradient_Swatch-6" x1="304.48" y1="43.03" x2="354.04" y2="43.03" gradientTransform="matrix(1, 0, 0, 1, 0, 0)" xlink:href="#New_Gradient_Swatch"/><linearGradient id="linear-gradient-30" x1="431.35" y1="-891.07" x2="439.17" y2="-899.09" gradientTransform="translate(-307.3 770.88) rotate(15.65)" xlink:href="#linear-gradient-8"/><linearGradient id="linear-gradient-31" x1="-676.44" y1="-82.36" x2="-686.34" y2="-69.26" gradientTransform="translate(878.97 -419.62) rotate(-46.73)" xlink:href="#linear-gradient-8"/><linearGradient id="linear-gradient-32" x1="-690.94" y1="-71.98" x2="-683" y2="-80.13" gradientTransform="translate(878.97 -419.62) rotate(-46.73)" xlink:href="#linear-gradient-8"/><linearGradient id="linear-gradient-33" x1="385.73" y1="3.23" x2="388.18" y2="3.23" xlink:href="#linear-gradient-8"/><linearGradient id="linear-gradient-34" x1="85.62" y1="188.85" x2="115.87" y2="188.85" gradientUnits="userSpaceOnUse"><stop offset="0" stop-color="#9cfffb"/><stop offset="1" stop-color="#9bfffa"/></linearGradient><linearGradient id="linear-gradient-35" x1="99.36" y1="188.8" x2="125.41" y2="188.8" xlink:href="#linear-gradient-34"/><linearGradient id="linear-gradient-36" x1="109.64" y1="171.04" x2="120.49" y2="171.04" xlink:href="#linear-gradient-34"/><linearGradient id="linear-gradient-37" x1="106.96" y1="177.26" x2="117.8" y2="177.26" xlink:href="#linear-gradient-34"/><linearGradient id="linear-gradient-38" x1="102.78" y1="184.71" x2="114.26" y2="184.71" xlink:href="#linear-gradient-34"/><linearGradient id="linear-gradient-39" x1="112.77" y1="165" x2="123.16" y2="165" xlink:href="#linear-gradient-34"/><linearGradient id="linear-gradient-40" x1="98.33" y1="193.29" x2="110.74" y2="193.29" xlink:href="#linear-gradient-34"/><linearGradient id="linear-gradient-41" x1="94.76" y1="199.93" x2="108.01" y2="199.93" xlink:href="#linear-gradient-34"/><linearGradient id="linear-gradient-42" x1="132.85" y1="140.04" x2="130.45" y2="142.55" xlink:href="#linear-gradient-8"/><linearGradient id="linear-gradient-43" x1="99.6" y1="189.8" x2="101.51" y2="189.8" xlink:href="#linear-gradient-8"/><linearGradient id="linear-gradient-44" x1="107.56" y1="179.21" x2="110.23" y2="179.21" xlink:href="#linear-gradient-8"/><linearGradient id="linear-gradient-45" x1="101.77" y1="176.34" x2="105.35" y2="168.7" gradientTransform="matrix(1, 0, 0, 1, 0, 0)" xlink:href="#linear-gradient-2"/><linearGradient id="linear-gradient-46" x1="117.37" y1="164.79" x2="121.27" y2="164.79" xlink:href="#linear-gradient-8"/><linearGradient id="linear-gradient-47" x1="125.98" y1="173.75" x2="108.03" y2="148.12" gradientTransform="matrix(1, 0, 0, 1, 0, 0)" xlink:href="#linear-gradient-6"/><linearGradient id="linear-gradient-48" x1="111.06" y1="149.41" x2="111.86" y2="146.81" xlink:href="#linear-gradient-8"/><linearGradient id="linear-gradient-49" x1="114.98" y1="142.23" x2="109.18" y2="146.67" xlink:href="#linear-gradient-8"/><linearGradient id="linear-gradient-50" x1="114.26" y1="141.29" x2="108.46" y2="145.73" xlink:href="#linear-gradient-8"/><linearGradient id="linear-gradient-51" x1="127.85" y1="143.12" x2="135.25" y2="143.12" xlink:href="#linear-gradient-8"/><linearGradient id="linear-gradient-52" x1="109.71" y1="144.83" x2="138.51" y2="192.29" gradientTransform="matrix(1, 0, 0, 1, 0, 0)" xlink:href="#linear-gradient-6"/><linearGradient id="linear-gradient-53" x1="113.55" y1="151.97" x2="113.15" y2="158.52" gradientTransform="matrix(1, 0, 0, 1, 0, 0)" xlink:href="#linear-gradient-2"/></defs><title>WhatWeDo3</title><g class="cls-1"><g id="Layer_1" data-name="Layer 1"><path class="cls-2" d="M285.91,22.25c24.57,22.34,95.77-14.59,100.64,31.57,5.71,54-65.67,78.91-37.27,113.89s7.41,80.69-88.11,91.62S6.32,241.55,37,185.35,42.62,129.52,38,106.9s7.94-75,87-42.31S223.69-34.32,285.91,22.25Z"/><path class="cls-2" d="M207.12,42.67c24.39,16.18,81.49-25.51,91.9,14,12.2,46.32-46.67,77.53-17.25,104.22s17.24,69.31-64.52,91.59S-7.17,271.1,12,218s-2.53-49.4-9.57-68.49-3.1-66.4,70.13-48.48S145.35,1.7,207.12,42.67Z"/><g class="cls-3"><path class="cls-4" d="M421.94,92.66a1.41,1.41,0,0,0-2.5-.29c-4.49,9.54-17.27,34.24-34.36,46.38-27.84,19.77-48.47,54.18-33.89,74.36C351.19,213.11,441.6,208.51,421.94,92.66Z"/><path class="cls-5" d="M418,106.53l-.08.32c-.06.22-.15.53-.27.94-.24.8-.62,2-1.12,3.45-1,3-2.49,7.17-4.5,12.14-1,2.48-2.13,5.16-3.36,8s-2.58,5.76-4,8.77-3,6.11-4.69,9.21-3.41,6.22-5.21,9.3-3.71,6.12-5.66,9.05c-1,1.47-1.94,2.92-2.94,4.33l-1.48,2.1-1.5,2-1.48,2-1.51,1.93L378.72,182l-1.5,1.79-1.46,1.75-1.46,1.65c-1,1.08-1.88,2.13-2.82,3.09s-1.8,1.92-2.66,2.78l-2.5,2.42c-1.57,1.51-3,2.73-4.18,3.79l-3.79,3.12a.19.19,0,0,1-.27,0,.19.19,0,0,1,0-.26h0l3.69-3.22c1.12-1.08,2.53-2.35,4.05-3.89.75-.78,1.56-1.6,2.41-2.47s1.7-1.83,2.6-2.8,1.81-2,2.75-3.13L375,184.9l1.42-1.76,1.46-1.8,1.45-1.89,1.49-1.93,1.46-2,1.48-2,1.46-2.11c1-1.4,1.94-2.85,2.9-4.32,1.92-2.92,3.78-6,5.62-9s3.57-6.16,5.23-9.25,3.23-6.15,4.71-9.14l2.15-4.43c.68-1.45,1.36-2.87,2-4.26,1.27-2.79,2.43-5.44,3.46-7.9s2-4.73,2.77-6.75,1.46-3.79,2-5.25.94-2.62,1.2-3.41c.13-.39.22-.69.29-.89l.08-.31v0a.19.19,0,0,1,.23-.13A.18.18,0,0,1,418,106.53Z"/></g><path class="cls-6" d="M378.28,54.83a1.2,1.2,0,0,0-2.31.25C374.37,67,369.21,98.14,357,116c-19.86,29.08-29.58,73.12-11.46,92.65C345.56,208.65,425.13,182.06,378.28,54.83Z"/><path class="cls-5" d="M378.31,71.53s0,.13,0,.37V73c0,.94-.05,2.31-.12,4.06-.14,3.48-.39,8.47-.89,14.43s-1.24,12.91-2.27,20.33c-.54,3.7-1.11,7.52-1.79,11.4q-.25,1.44-.51,2.91c-.18,1-.37,2-.55,2.92-.36,2-.77,3.91-1.17,5.87s-.85,3.9-1.28,5.84-.94,3.86-1.41,5.77c-1,3.81-2,7.54-3.1,11.12s-2.22,7-3.4,10.25-2.38,6.25-3.53,9l-1.72,3.94c-.57,1.24-1.15,2.4-1.68,3.49l-.77,1.59c-.27.5-.52,1-.77,1.45L352,189.93c-.84,1.53-1.56,2.7-2,3.52l-.73,1.24a.17.17,0,0,1-.25.06.18.18,0,0,1-.07-.25h0l.69-1.25c.44-.82,1.12-2,1.93-3.55.38-.78.81-1.64,1.28-2.58l.73-1.47.73-1.6c.49-1.1,1-2.27,1.58-3.52l1.66-3.94c1.1-2.78,2.27-5.79,3.38-9s2.23-6.66,3.29-10.23,2.08-7.3,3-11.09l1.38-5.75c.41-1.94.89-3.88,1.29-5.82s.82-3.9,1.18-5.85l.57-2.91.51-2.9c.7-3.86,1.29-7.67,1.84-11.36s1-7.27,1.45-10.67.76-6.61,1.06-9.58.55-5.7.74-8.12.34-4.53.45-6.27.17-3.11.2-4q0-.69,0-1v-.38a.19.19,0,0,1,.38,0Z"/><g class="cls-7"><path class="cls-8" d="M47.53,29.58C69.65,43,195.18,126.39,138.09,258.24c0,0-96.77-33.62-93.89-226.83A2.19,2.19,0,0,1,47.53,29.58Z"/><path class="cls-9" d="M57.29,53.69s7.28,10,17.6,25.51c2.58,3.86,5.35,8.07,8.25,12.54s5.92,9.21,9,14.14,6.21,10.06,9.36,15.29q2.34,3.93,4.7,7.93c1.54,2.67,3.11,5.34,4.64,8s3.06,5.39,4.54,8.1,3,5.4,4.41,8.1c.72,1.35,1.43,2.69,2.15,4s1.39,2.68,2.07,4c1.4,2.65,2.71,5.3,4,7.9,2.59,5.21,5,10.29,7.2,15.15s4.18,9.5,5.91,13.82c.9,2.15,1.67,4.25,2.42,6.23.37,1,.74,2,1.09,2.91s.65,1.87,1,2.76c.6,1.8,1.21,3.46,1.7,5s.93,3,1.33,4.3c.2.65.39,1.27.56,1.85s.31,1.13.44,1.65c.28,1,.51,1.89.69,2.59l.58,2.16a.75.75,0,0,1-1.45.39h0v0l-.57-2.15c-.18-.7-.4-1.56-.67-2.57-.13-.51-.27-1.05-.43-1.64s-.35-1.18-.55-1.83c-.39-1.29-.82-2.72-1.3-4.28s-1.07-3.22-1.67-5c-.31-.89-.61-1.81-.95-2.76s-.7-1.9-1.07-2.89c-.74-2-1.5-4.07-2.39-6.21-1.7-4.31-3.66-8.94-5.83-13.8s-4.54-9.93-7.11-15.13c-1.28-2.61-2.58-5.26-4-7.9l-2-4-2.13-4c-1.41-2.7-2.88-5.39-4.36-8.1s-3-5.41-4.51-8.11-3.07-5.38-4.6-8.06l-4.65-7.94c-3.12-5.23-6.22-10.37-9.28-15.31S85.3,96.68,82.43,92.2s-5.62-8.7-8.18-12.58C64,64.12,56.77,54.06,56.77,54.06a.31.31,0,0,1,.07-.44A.31.31,0,0,1,57.29,53.69Z"/></g><g class="cls-7"><path class="cls-10" d="M167.15,55.4c13.41,17.11,87.43,119.83,3.51,206.59,0,0-66.13-55.08-6.67-206.13A1.84,1.84,0,0,1,167.15,55.4Z"/><path class="cls-9" d="M167.73,77.23s2.76,10,6.3,25.27c.89,3.81,1.82,7.93,2.78,12.31s1.93,9,2.89,13.78,1.91,9.74,2.84,14.78q.68,3.8,1.35,7.63c.42,2.56.87,5.12,1.27,7.7.81,5.15,1.58,10.3,2.25,15.39.16,1.27.33,2.53.5,3.79s.3,2.52.44,3.77c.32,2.5.57,5,.82,7.4,1,9.72,1.57,18.84,1.74,26.67.07,1.95.06,3.83.06,5.61v2.61q0,1.27-.06,2.46c0,1.59-.06,3.08-.14,4.46s-.16,2.64-.23,3.78c0,.57-.07,1.11-.1,1.62s-.1,1-.15,1.43c-.08.88-.16,1.64-.22,2.25l-.19,1.87a.75.75,0,0,1-1.5-.15h0v0s.07-.64.19-1.85l.23-2.22q.08-.66.15-1.41c0-.5.07-1,.11-1.6.08-1.14.16-2.39.25-3.75s.11-2.85.17-4.42c0-.79,0-1.61.07-2.45s0-1.7,0-2.59c0-1.77,0-3.64,0-5.59-.13-7.78-.66-16.87-1.6-26.57-.24-2.43-.47-4.89-.77-7.38-.14-1.25-.28-2.5-.43-3.76l-.48-3.8c-.63-5.08-1.38-10.22-2.16-15.37-.39-2.57-.82-5.13-1.23-7.69s-.87-5.1-1.31-7.62c-.9-5-1.81-10-2.76-14.79s-1.89-9.4-2.81-13.78-1.84-8.5-2.71-12.3c-3.46-15.23-6.16-25.28-6.16-25.28a.32.32,0,0,1,.61-.17Z"/></g><path class="cls-11" d="M318.77,79.6h14.42a24.23,24.23,0,0,1,24.23,24.23V262.37a0,0,0,0,1,0,0H294.54a0,0,0,0,1,0,0V103.83A24.23,24.23,0,0,1,318.77,79.6Z"/><path class="cls-12" d="M303.27,79.6h14.42a24.23,24.23,0,0,1,24.23,24.23V262.37a0,0,0,0,1,0,0H279a0,0,0,0,1,0,0V103.83A24.23,24.23,0,0,1,303.27,79.6Z"/><path class="cls-13" d="M283.55,106.23a.57.57,0,0,1-.56-.57V94.43c0-6,4-10.87,8.92-10.87h13.83a.56.56,0,0,1,.56.56.57.57,0,0,1-.56.57H291.91c-4.3,0-7.79,4.37-7.79,9.74v11.23A.58.58,0,0,1,283.55,106.23Z"/><path class="cls-13" d="M283.55,118.14a.56.56,0,0,1-.56-.57V113a.57.57,0,0,1,.56-.57.58.58,0,0,1,.57.57v4.57A.57.57,0,0,1,283.55,118.14Z"/><g class="cls-14"><path class="cls-15" d="M263,260.07s4.28-10.62,18-15.12c12.75-4.18,43.55-13,53.51-22.58.44-.42,1.14.25.9.88C333,230,325.55,246.14,308.9,256,287.42,268.79,263,260.07,263,260.07Z"/><path class="cls-16" d="M326.52,232.08s-.11.24-.35.68a19.94,19.94,0,0,1-1.16,1.83,30,30,0,0,1-2.07,2.66c-.41.5-.9,1-1.4,1.53s-1.08,1-1.65,1.6-1.24,1.08-1.91,1.63-1.4,1.08-2.16,1.61-1.54,1.06-2.37,1.55-1.69,1-2.58,1.46-1.81.93-2.76,1.34-1.92.81-2.9,1.19l-3,1-3.05.91c-2,.58-4.1,1.16-6.13,1.67s-4,1-6,1.44l-5.6,1.22c-1.78.39-3.47.73-5,1.1s-2.94.7-4.18,1c-.61.18-1.17.38-1.7.54l-1.42.54a18,18,0,0,0-1.92.92l-.65.36h0a.18.18,0,0,1-.25-.07.19.19,0,0,1,.06-.25l.64-.43a17.15,17.15,0,0,1,1.9-1.08c.42-.19.9-.41,1.42-.63s1.09-.43,1.71-.65c1.23-.42,2.63-.88,4.17-1.28,3.08-.86,6.69-1.69,10.54-2.66s7.94-2,12-3.19l3-.91,2.95-1c1-.36,1.91-.76,2.85-1.13s1.82-.84,2.71-1.24,1.72-.91,2.56-1.35,1.59-1,2.37-1.43,1.46-1,2.17-1.47l1.94-1.49c.6-.52,1.19-1,1.72-1.47s1-.94,1.48-1.41a29.92,29.92,0,0,0,2.24-2.45c.59-.71,1-1.29,1.31-1.7a7.5,7.5,0,0,0,.42-.63s0,0,0,0S326.53,232.07,326.52,232.08Z"/></g><g class="cls-14"><path class="cls-17" d="M346.7,154.11a1,1,0,0,0-1.85-.8c-6.32,8.34-23.58,29.67-40.46,37.95-27.49,13.48-53.72,42.62-48.4,65.16C256,256.42,327.58,270.43,346.7,154.11Z"/><path class="cls-5" d="M339.59,166.77l-.15.28c-.11.19-.27.46-.47.82-.41.71-1,1.73-1.82,3-1.6,2.58-3.92,6.25-6.85,10.55s-6.47,9.24-10.42,14.41c-2,2.57-4.07,5.22-6.24,7.86s-4.42,5.29-6.71,7.9c-1.14,1.31-2.31,2.59-3.47,3.87l-3.54,3.76c-2.38,2.45-4.76,4.84-7.13,7.08s-4.69,4.36-7,6.29-4.48,3.7-6.53,5.3l-3,2.24c-1,.7-1.91,1.32-2.77,1.92l-1.27.87-1.21.77-2.13,1.35c-1.29.79-2.34,1.36-3,1.78l-1.08.62a.18.18,0,0,1-.26-.06.2.2,0,0,1,.07-.26h0l1.06-.66c.69-.43,1.71-1,3-1.86l2.07-1.41,1.18-.79,1.24-.9c.84-.63,1.75-1.29,2.7-2l2.94-2.28c2-1.62,4.19-3.41,6.41-5.38s4.54-4.08,6.88-6.32,4.69-4.63,7-7.09l3.51-3.76c1.14-1.28,2.33-2.54,3.47-3.84,2.29-2.6,4.55-5.21,6.72-7.84s4.26-5.25,6.26-7.8,3.9-5.05,5.67-7.44,3.41-4.68,4.92-6.79,2.86-4.07,4-5.82,2.21-3.28,3-4.54,1.46-2.28,1.89-3c.2-.34.36-.6.47-.77l.15-.28,0,0a.18.18,0,0,1,.25-.07A.19.19,0,0,1,339.59,166.77Z"/></g><path class="cls-18" d="M231.41,128.16H244a24.23,24.23,0,0,1,24.23,24.23v110a0,0,0,0,1,0,0h-61a0,0,0,0,1,0,0v-110A24.23,24.23,0,0,1,231.41,128.16Z"/><path class="cls-18" d="M215.91,128.16h12.57a24.23,24.23,0,0,1,24.23,24.23v110a0,0,0,0,1,0,0h-61a0,0,0,0,1,0,0v-110A24.23,24.23,0,0,1,215.91,128.16Z"/><path class="cls-13" d="M195.78,153.33a.57.57,0,0,1-.57-.57v-9.52c0-5.13,3.43-9.3,7.65-9.3h11.72a.57.57,0,0,1,.57.56.58.58,0,0,1-.57.57H202.86c-3.59,0-6.52,3.66-6.52,8.17v9.52A.57.57,0,0,1,195.78,153.33Z"/><path class="cls-13" d="M195.78,163.42a.56.56,0,0,1-.57-.56V159a.57.57,0,1,1,1.13,0v3.88A.56.56,0,0,1,195.78,163.42Z"/><g class="cls-14"><path class="cls-19" d="M57.76,243.5s1.82-9.9-6.27-19.74c-7.51-9.12-26.23-30.19-29.12-42-.13-.52-1-.35-1.08.23-1.34,6.19-3.44,21.68,4.27,36.88C35.51,238.47,57.76,243.5,57.76,243.5Z"/><path class="cls-16" d="M23.8,192.76s0,.23,0,.67.07,1.07.18,1.87a27.1,27.1,0,0,0,.53,2.88c.25,1.1.6,2.32,1,3.63.24.65.49,1.33.75,2s.59,1.4.92,2.12.7,1.44,1.1,2.17.8,1.47,1.26,2.2.93,1.47,1.43,2.2,1,1.45,1.58,2.17,1.15,1.41,1.73,2.12l1.83,2.1c2.46,2.78,5,5.51,7.4,8s4.69,4.87,6.57,7c.95,1,1.77,2,2.48,2.94.36.45.67.89,1,1.29s.52.8.75,1.14a13.16,13.16,0,0,1,.89,1.71c.18.41.28.62.28.62a.19.19,0,0,1-.1.25.19.19,0,0,1-.24-.08v0l-.32-.58a18.08,18.08,0,0,0-1-1.57c-.25-.32-.51-.69-.81-1.07s-.64-.78-1-1.2c-.75-.84-1.64-1.75-2.62-2.74s-2.07-2-3.21-3.17l-3.59-3.54c-1.23-1.25-2.5-2.55-3.77-3.88s-2.52-2.74-3.76-4.14c-.62-.7-1.23-1.41-1.84-2.11l-1.76-2.2c-.54-.75-1.06-1.52-1.59-2.26s-.95-1.55-1.42-2.31-.82-1.55-1.22-2.3-.7-1.54-1-2.28-.56-1.5-.83-2.22-.45-1.43-.65-2.11-.34-1.35-.47-2-.24-1.23-.3-1.8a26.52,26.52,0,0,1-.27-3,16.32,16.32,0,0,1,0-1.9c0-.44.06-.68.06-.68l0,0Z"/></g><g class="cls-14"><path class="cls-11" d="M45.53,125.3a.91.91,0,0,1,1.75.28c.77,9.18,3.53,33.17,12.17,47.28,14.07,23,19.83,57,5.24,71.24C64.69,244.1,4.89,220.75,45.53,125.3Z"/><path class="cls-5" d="M45.2,138.11l0,.28c0,.18,0,.44,0,.79,0,.72,0,1.76,0,3.1s.06,2.95.12,4.8.17,3.95.28,6.23.26,4.76.46,7.37.44,5.35.71,8.2.59,5.77,1,8.74.81,6,1.29,9,1,6,1.6,8.94,1.21,5.82,1.89,8.59,1.4,5.43,2.12,7.94,1.49,4.86,2.22,7c.39,1.07.76,2.1,1.11,3.08s.73,1.89,1.06,2.75l.5,1.25.49,1.15.88,2c.55,1.21,1,2.15,1.32,2.79l.48,1h0a.18.18,0,0,1-.09.25.19.19,0,0,1-.25-.08s-.17-.34-.51-1-.83-1.56-1.42-2.76c-.29-.6-.6-1.27-1-2l-.54-1.14-.53-1.24c-.37-.86-.78-1.76-1.16-2.73s-.77-2-1.18-3.08c-.78-2.16-1.59-4.51-2.37-7s-1.52-5.19-2.22-8-1.34-5.67-1.95-8.62c-.29-1.48-.58-3-.86-4.46s-.53-3-.76-4.52c-.47-3-.9-6-1.25-9s-.67-5.94-.94-8.79c-.49-5.71-.77-11.05-.93-15.62s-.13-8.4-.1-11.07c0-1.34,0-2.39.08-3.11,0-.36,0-.64,0-.83l0-.28a.19.19,0,0,1,.37,0Z"/></g><path class="cls-11" d="M154.65,167.39h4.13A24.23,24.23,0,0,1,183,191.61v70.56a0,0,0,0,1,0,0H130.42a0,0,0,0,1,0,0V191.61A24.23,24.23,0,0,1,154.65,167.39Z"/><path class="cls-20" d="M139.15,167.39h4.13a24.23,24.23,0,0,1,24.23,24.23v70.56a0,0,0,0,1,0,0H114.92a0,0,0,0,1,0,0V191.61A24.23,24.23,0,0,1,139.15,167.39Z"/><path class="cls-13" d="M119.26,194.48a.56.56,0,0,1-.56-.56V182.68c0-6,4-10.87,8.92-10.87h13.83a.57.57,0,0,1,0,1.13H127.62c-4.3,0-7.79,4.37-7.79,9.74v11.24A.57.57,0,0,1,119.26,194.48Z"/><path class="cls-13" d="M119.26,206.39a.56.56,0,0,1-.56-.56v-4.58a.56.56,0,0,1,.56-.56.57.57,0,0,1,.57.56v4.58A.57.57,0,0,1,119.26,206.39Z"/><path class="cls-21" d="M320.3,10.79l6.91,14a4.31,4.31,0,0,0,3.26,2.37l15.44,2.24a4.33,4.33,0,0,1,2.4,7.39L337.14,47.67a4.35,4.35,0,0,0-1.25,3.84l2.64,15.38a4.33,4.33,0,0,1-6.29,4.56l-13.81-7.26a4.35,4.35,0,0,0-4,0l-13.81,7.26a4.33,4.33,0,0,1-6.28-4.56l2.63-15.38a4.34,4.34,0,0,0-1.24-3.84L284.52,36.78a4.33,4.33,0,0,1,2.41-7.39l15.44-2.24a4.31,4.31,0,0,0,3.26-2.37l6.9-14A4.33,4.33,0,0,1,320.3,10.79Z"/><path class="cls-18" d="M334.26,69.34a1.79,1.79,0,0,1-.8-.2l-13.81-7.26a6.94,6.94,0,0,0-6.47,0l-13.81,7.26a1.79,1.79,0,0,1-.8.2,1.74,1.74,0,0,1-1.32-.63,1.64,1.64,0,0,1-.37-1.38L299.52,52a6.94,6.94,0,0,0-2-6.15L286.35,34.91A1.72,1.72,0,0,1,287.3,32l15.44-2.24a6.93,6.93,0,0,0,5.23-3.8l6.91-14A1.71,1.71,0,0,1,318,12l6.91,14a7,7,0,0,0,5.23,3.8L345.53,32a1.7,1.7,0,0,1,1.39,1.17,1.67,1.67,0,0,1-.44,1.76L335.31,45.8a6.94,6.94,0,0,0-2,6.15L336,67.33a1.68,1.68,0,0,1-.36,1.38A1.76,1.76,0,0,1,334.26,69.34Z"/><path class="cls-13" d="M301.77,48.21a.38.38,0,0,1-.37-.27,9.19,9.19,0,0,0-2.32-3.73l-4.25-4.15a.39.39,0,1,1,.54-.56l4.25,4.15a9.8,9.8,0,0,1,2.52,4.05.38.38,0,0,1-.25.49A.25.25,0,0,1,301.77,48.21Z"/><path class="cls-13" d="M310.12,60.92a.38.38,0,0,1-.35-.21.39.39,0,0,1,.16-.53l1.85-1a10,10,0,0,1,9.27,0,.39.39,0,1,1-.36.7,9.13,9.13,0,0,0-8.54,0l-1.85,1A.39.39,0,0,1,310.12,60.92Z"/><path class="cls-13" d="M329.34,64a3.31,3.31,0,0,1-.93-.13.41.41,0,0,1-.26-.49.39.39,0,0,1,.49-.26,2.38,2.38,0,0,0,2.29-.52,2.34,2.34,0,0,0,.78-2.21l-1.36-8a9.92,9.92,0,0,1,2.86-8.81L339,38a2.42,2.42,0,0,0-1.34-4.12l-8-1.16a10,10,0,0,1-7.5-5.45L318.58,20a2.36,2.36,0,0,0-2.16-1.35A2.39,2.39,0,0,0,314.25,20l-3.58,7.25a10,10,0,0,1-7.5,5.45l-8,1.16a2.44,2.44,0,0,0-1.26.58.39.39,0,0,1-.55,0,.41.41,0,0,1,0-.56,3.26,3.26,0,0,1,1.67-.77l8-1.16a9.17,9.17,0,0,0,6.91-5l3.58-7.25a3.2,3.2,0,0,1,5.74,0l3.58,7.25a9.13,9.13,0,0,0,6.9,5l8,1.16a3.2,3.2,0,0,1,1.78,5.46l-5.79,5.65a9.17,9.17,0,0,0-2.64,8.12l1.37,8a3.15,3.15,0,0,1-1,2.93A3.19,3.19,0,0,1,329.34,64Z"/><path class="cls-21" d="M233.85,68.61l6,12.13a3.78,3.78,0,0,0,2.83,2.06l13.39,1.94a3.76,3.76,0,0,1,2.08,6.41l-9.69,9.44a3.76,3.76,0,0,0-1.08,3.32l2.29,13.34a3.76,3.76,0,0,1-5.45,4l-12-6.3a3.8,3.8,0,0,0-3.5,0l-12,6.3a3.76,3.76,0,0,1-5.45-4l2.28-13.34a3.74,3.74,0,0,0-1.08-3.32l-9.68-9.44a3.76,3.76,0,0,1,2.08-6.41L218.3,82.8a3.74,3.74,0,0,0,2.82-2.06l6-12.13A3.76,3.76,0,0,1,233.85,68.61Z"/><path class="cls-18" d="M246,119.38a1.45,1.45,0,0,1-.69-.18l-12-6.3a6,6,0,0,0-5.6,0l-12,6.3a1.45,1.45,0,0,1-.69.18,1.54,1.54,0,0,1-1.15-.55,1.45,1.45,0,0,1-.32-1.2l2.29-13.33A6,6,0,0,0,214.1,99l-9.69-9.44a1.48,1.48,0,0,1,.83-2.53L218.62,85a6,6,0,0,0,4.54-3.3l6-12.13a1.48,1.48,0,0,1,2.66,0l6,12.13a6,6,0,0,0,4.54,3.3L255.72,87a1.42,1.42,0,0,1,1.2,1,1.44,1.44,0,0,1-.37,1.52L246.86,99a6,6,0,0,0-1.73,5.34l2.28,13.33a1.42,1.42,0,0,1-.31,1.2A1.54,1.54,0,0,1,246,119.38Z"/><path class="cls-13" d="M217.78,101.06a.33.33,0,0,1-.32-.24,8.07,8.07,0,0,0-2-3.24L211.76,94a.34.34,0,0,1,0-.48.34.34,0,0,1,.48,0l3.69,3.6a8.63,8.63,0,0,1,2.18,3.51.34.34,0,0,1-.21.43Z"/><path class="cls-13" d="M225,112.08a.35.35,0,0,1-.3-.18.33.33,0,0,1,.14-.46l1.6-.85a8.66,8.66,0,0,1,8,0,.34.34,0,0,1-.32.61,7.9,7.9,0,0,0-7.4,0l-1.6.84A.32.32,0,0,1,225,112.08Z"/><path class="cls-13" d="M241.68,114.78a2.72,2.72,0,0,1-.8-.12.33.33,0,0,1-.22-.42.34.34,0,0,1,.42-.23,2.08,2.08,0,0,0,2-.44,2,2,0,0,0,.67-1.92l-1.18-6.91A8.61,8.61,0,0,1,245,97.1l5-4.9a2.09,2.09,0,0,0-1.16-3.57l-6.94-1a8.64,8.64,0,0,1-6.5-4.72l-3.1-6.29a2.1,2.1,0,0,0-3.76,0l-3.1,6.29a8.64,8.64,0,0,1-6.5,4.72l-6.94,1a2.07,2.07,0,0,0-1.09.5.34.34,0,0,1-.45-.51A2.81,2.81,0,0,1,212,88l6.94-1a8,8,0,0,0,6-4.35l3.1-6.29a2.78,2.78,0,0,1,5,0l3.1,6.29a8,8,0,0,0,6,4.35L249,88a2.77,2.77,0,0,1,1.53,4.73l-5,4.89a7.94,7.94,0,0,0-2.28,7l1.18,6.91a2.75,2.75,0,0,1-.89,2.55A2.8,2.8,0,0,1,241.68,114.78Z"/><path class="cls-21" d="M148.09,115.31l5.07,10.27a3.17,3.17,0,0,0,2.39,1.74L166.89,129a3.18,3.18,0,0,1,1.76,5.42l-8.2,8a3.17,3.17,0,0,0-.92,2.81l1.94,11.29a3.18,3.18,0,0,1-4.62,3.35l-10.13-5.33a3.16,3.16,0,0,0-3,0l-10.14,5.33a3.17,3.17,0,0,1-4.61-3.35l1.93-11.29a3.16,3.16,0,0,0-.91-2.81l-8.2-8a3.18,3.18,0,0,1,1.76-5.42l11.33-1.65a3.19,3.19,0,0,0,2.4-1.74l5.06-10.27A3.19,3.19,0,0,1,148.09,115.31Z"/><path class="cls-18" d="M158.33,158.29a1.25,1.25,0,0,1-.58-.15l-10.14-5.33a5.15,5.15,0,0,0-4.75,0l-10.13,5.33a1.29,1.29,0,0,1-.59.15,1.3,1.3,0,0,1-1-.46,1.26,1.26,0,0,1-.26-1l1.93-11.28a5.09,5.09,0,0,0-1.46-4.52l-8.2-8a1.26,1.26,0,0,1,.69-2.15l11.34-1.65a5.08,5.08,0,0,0,3.84-2.79l5.07-10.27a1.23,1.23,0,0,1,1.13-.7,1.24,1.24,0,0,1,1.13.7l5.06,10.27a5.1,5.1,0,0,0,3.84,2.79l11.34,1.65a1.23,1.23,0,0,1,1,.86,1.25,1.25,0,0,1-.32,1.29l-8.2,8a5.07,5.07,0,0,0-1.47,4.52l1.93,11.28a1.22,1.22,0,0,1-.26,1A1.3,1.3,0,0,1,158.33,158.29Z"/><path class="cls-13" d="M134.49,142.78a.29.29,0,0,1-.28-.2,6.7,6.7,0,0,0-1.7-2.74l-3.12-3a.29.29,0,0,1,0-.41.3.3,0,0,1,.41,0l3.12,3a7.42,7.42,0,0,1,1.85,3,.29.29,0,0,1-.19.37Z"/><path class="cls-13" d="M140.61,152.11a.27.27,0,0,1-.25-.15.28.28,0,0,1,.12-.39l1.35-.71a7.32,7.32,0,0,1,6.81,0,.29.29,0,0,1,.12.39.3.3,0,0,1-.39.12,6.69,6.69,0,0,0-6.27,0l-1.35.71A.35.35,0,0,1,140.61,152.11Z"/><path class="cls-13" d="M154.72,154.4a2.29,2.29,0,0,1-.68-.1.29.29,0,0,1-.19-.36.29.29,0,0,1,.36-.19,1.77,1.77,0,0,0,2.25-2l-1-5.85a7.31,7.31,0,0,1,2.1-6.47l4.25-4.14a1.78,1.78,0,0,0-1-3l-5.87-.85a7.34,7.34,0,0,1-5.51-4l-2.62-5.32a1.77,1.77,0,0,0-3.18,0L141,127.41a7.32,7.32,0,0,1-5.5,4l-5.88.85a1.71,1.71,0,0,0-.92.43.3.3,0,0,1-.41,0,.29.29,0,0,1,0-.4,2.33,2.33,0,0,1,1.23-.57l5.87-.85a6.73,6.73,0,0,0,5.07-3.69l2.63-5.32a2.35,2.35,0,0,1,4.21,0l2.63,5.32a6.74,6.74,0,0,0,5.07,3.69l5.87.85a2.35,2.35,0,0,1,1.31,4L158,139.84a6.72,6.72,0,0,0-1.94,6l1,5.85a2.35,2.35,0,0,1-2.31,2.75Z"/><path class="cls-21" d="M71.36,169.31l4.15,8.41a2.6,2.6,0,0,0,2,1.42l9.28,1.35a2.61,2.61,0,0,1,1.45,4.44l-6.72,6.55a2.63,2.63,0,0,0-.75,2.3L82.32,203a2.6,2.6,0,0,1-3.78,2.74l-8.3-4.36a2.59,2.59,0,0,0-2.42,0l-8.31,4.36A2.59,2.59,0,0,1,55.74,203l1.58-9.25a2.57,2.57,0,0,0-.75-2.3l-6.71-6.55a2.6,2.6,0,0,1,1.44-4.44l9.28-1.35a2.58,2.58,0,0,0,2-1.42l4.15-8.41A2.6,2.6,0,0,1,71.36,169.31Z"/><path class="cls-18" d="M79.75,204.51a1.08,1.08,0,0,1-.48-.13L71,200a4.18,4.18,0,0,0-3.89,0l-8.3,4.36a1,1,0,0,1-.48.13,1.08,1.08,0,0,1-.8-.39,1,1,0,0,1-.21-.83l1.58-9.24a4.18,4.18,0,0,0-1.2-3.7L51,183.81a1,1,0,0,1-.26-1.06,1,1,0,0,1,.84-.7l9.28-1.35A4.18,4.18,0,0,0,64,178.42L68.1,170a1,1,0,0,1,.93-.58A1,1,0,0,1,70,170l4.15,8.41a4.19,4.19,0,0,0,3.15,2.28l9.28,1.35a1,1,0,0,1,.83.7,1,1,0,0,1-.26,1.06l-6.72,6.54a4.21,4.21,0,0,0-1.2,3.7l1.59,9.24a1,1,0,0,1-.22.83A1.07,1.07,0,0,1,79.75,204.51Z"/><path class="cls-13" d="M60.22,191.8a.22.22,0,0,1-.22-.16,5.52,5.52,0,0,0-1.4-2.24l-2.55-2.49a.24.24,0,1,1,.33-.34l2.55,2.49a6,6,0,0,1,1.52,2.43.24.24,0,0,1-.15.3Z"/><path class="cls-13" d="M65.24,199.44a.24.24,0,0,1-.21-.12.24.24,0,0,1,.1-.32l1.11-.58a6,6,0,0,1,5.57,0,.22.22,0,0,1,.1.31.23.23,0,0,1-.32.1,5.54,5.54,0,0,0-5.13,0l-1.11.59A.2.2,0,0,1,65.24,199.44Z"/><path class="cls-13" d="M76.79,201.32a2.09,2.09,0,0,1-.55-.08.24.24,0,0,1-.16-.3.24.24,0,0,1,.3-.15,1.44,1.44,0,0,0,1.37-.31,1.41,1.41,0,0,0,.47-1.33l-.82-4.79a6,6,0,0,1,1.72-5.3l3.48-3.39a1.45,1.45,0,0,0-.8-2.48l-4.81-.7a6,6,0,0,1-4.51-3.27l-2.15-4.36a1.45,1.45,0,0,0-2.6,0l-2.16,4.36a6,6,0,0,1-4.5,3.27l-4.81.7a1.41,1.41,0,0,0-.76.35.24.24,0,0,1-.33,0,.24.24,0,0,1,0-.34,2,2,0,0,1,1-.46L61,182a5.51,5.51,0,0,0,4.15-3l2.15-4.36A1.92,1.92,0,0,1,69,173.58a1.9,1.9,0,0,1,1.72,1.07L72.9,179a5.54,5.54,0,0,0,4.16,3l4.8.7A1.93,1.93,0,0,1,83.42,184a1.9,1.9,0,0,1-.49,2l-3.48,3.4a5.53,5.53,0,0,0-1.59,4.88l.83,4.79a1.91,1.91,0,0,1-.62,1.76A2,2,0,0,1,76.79,201.32Z"/><path class="cls-22" d="M278.8,159.74a.38.38,0,0,1-.29-.14.38.38,0,0,1,.05-.53l1.19-.95a.38.38,0,1,1,.46.6q-.6.45-1.17.93A.36.36,0,0,1,278.8,159.74Z"/><path class="cls-22" d="M347.62,194.16h0a.38.38,0,0,1-.36-.4c0-.65.05-1.32.05-2,0-.34,0-.68,0-1a.39.39,0,0,1,.37-.39.37.37,0,0,1,.39.37c0,.35,0,.69,0,1,0,.67,0,1.35-.05,2A.38.38,0,0,1,347.62,194.16Zm-.37-7.95a.38.38,0,0,1-.38-.32c-.14-1-.32-2-.53-3a.37.37,0,1,1,.73-.16c.22,1,.4,2,.55,3a.38.38,0,0,1-.32.43Zm-1.88-7.73a.37.37,0,0,1-.35-.26L345,178c-.31-.88-.65-1.75-1-2.61a.37.37,0,0,1,.69-.29c.37.87.72,1.76,1,2.66l.07.2a.38.38,0,0,1-.23.48Zm-3.28-7.25a.36.36,0,0,1-.32-.19c-.5-.87-1-1.73-1.59-2.55a.38.38,0,1,1,.62-.43q.85,1.27,1.62,2.61a.37.37,0,0,1-.14.51A.41.41,0,0,1,342.09,171.23Zm-4.59-6.5a.35.35,0,0,1-.28-.13c-.65-.76-1.34-1.5-2.05-2.21a.38.38,0,0,1,.54-.53c.72.72,1.42,1.48,2.08,2.25a.38.38,0,0,1,0,.53A.38.38,0,0,1,337.5,164.73Zm-5.73-5.51a.41.41,0,0,1-.24-.08c-.78-.62-1.59-1.22-2.42-1.78a.38.38,0,0,1-.1-.53.37.37,0,0,1,.52-.09c.85.57,1.68,1.18,2.47,1.81a.38.38,0,0,1,.06.53A.37.37,0,0,1,331.77,159.22ZM284.06,156a.36.36,0,0,1-.32-.18.38.38,0,0,1,.13-.52c.87-.52,1.77-1,2.68-1.47a.38.38,0,0,1,.51.17.37.37,0,0,1-.17.5c-.89.45-1.78.94-2.64,1.45A.41.41,0,0,1,284.06,156Zm41-1.14a.35.35,0,0,1-.17,0c-.88-.47-1.8-.9-2.71-1.3a.38.38,0,0,1-.2-.5.38.38,0,0,1,.5-.19c.93.4,1.86.85,2.76,1.32a.39.39,0,0,1,.16.51A.38.38,0,0,1,325.09,154.89Zm-33.84-2.26a.38.38,0,0,1-.13-.73l.48-.17c.8-.28,1.62-.54,2.44-.78a.38.38,0,0,1,.2.73c-.8.23-1.61.48-2.39.76l-.47.16A.31.31,0,0,1,291.25,152.63Zm26.48-.75h-.11c-1-.29-1.94-.55-2.91-.77a.39.39,0,0,1-.29-.45.38.38,0,0,1,.45-.28q1.5.33,3,.78a.37.37,0,0,1-.11.73ZM299,150.62a.38.38,0,0,1-.37-.31.39.39,0,0,1,.31-.44c1-.16,2-.28,3-.37a.37.37,0,0,1,.41.34.37.37,0,0,1-.34.41c-1,.08-2,.21-3,.37Zm11-.31h0c-1-.1-2-.17-3-.2a.38.38,0,1,1,0-.75h0c1,0,2,.1,3,.2a.38.38,0,0,1,.34.42A.37.37,0,0,1,309.93,150.31Z"/><path class="cls-22" d="M346.82,200.57h-.08a.38.38,0,0,1-.29-.44q.15-.74.27-1.47a.39.39,0,0,1,.44-.31.37.37,0,0,1,.3.43c-.08.51-.17,1-.27,1.5A.38.38,0,0,1,346.82,200.57Z"/><path class="cls-22" d="M328.32,227.56a.4.4,0,0,1-.32-.17.37.37,0,0,1,.12-.52c.42-.27.83-.55,1.24-.83a.36.36,0,0,1,.52.1.37.37,0,0,1-.09.52c-.42.29-.84.57-1.27.84A.36.36,0,0,1,328.32,227.56Z"/><path class="cls-22" d="M306.07,234.22a.38.38,0,0,1-.37-.37.37.37,0,0,1,.37-.38c1,0,2-.06,2.95-.14a.38.38,0,1,1,.07.75c-1,.08-2,.13-3,.14Zm-4.84-.23h-.05c-1-.1-2-.25-3-.42a.38.38,0,0,1-.3-.44.37.37,0,0,1,.43-.3c1,.17,2,.31,2.93.41a.38.38,0,0,1,.34.42A.38.38,0,0,1,301.23,234Zm12.63-.59a.37.37,0,0,1-.37-.3.38.38,0,0,1,.3-.45c1-.19,1.93-.42,2.87-.68a.38.38,0,1,1,.21.72c-1,.27-2,.51-2.94.7Zm-20.31-1-.11,0c-1-.28-1.92-.61-2.85-1a.38.38,0,0,1,.26-.71c.92.35,1.87.67,2.81,1a.38.38,0,0,1-.11.74Zm27.81-1.3a.38.38,0,0,1-.35-.24.37.37,0,0,1,.21-.48c.91-.37,1.82-.78,2.7-1.21a.38.38,0,0,1,.51.18.38.38,0,0,1-.18.5c-.89.44-1.82.85-2.75,1.22A.32.32,0,0,1,321.36,231.15Zm-35.07-1.64a.33.33,0,0,1-.17,0c-.89-.46-1.78-.95-2.63-1.48a.37.37,0,1,1,.39-.64c.84.51,1.71,1,2.58,1.45a.37.37,0,0,1,.16.51A.36.36,0,0,1,286.29,229.51Zm-6.59-4.22a.38.38,0,0,1-.23-.08c-.8-.62-1.57-1.27-2.31-1.94a.37.37,0,0,1,0-.53.38.38,0,0,1,.53,0c.73.66,1.49,1.3,2.27,1.91a.38.38,0,0,1,.06.53A.37.37,0,0,1,279.7,225.29Zm-5.7-5.37a.35.35,0,0,1-.28-.13c-.66-.75-1.3-1.53-1.91-2.33a.38.38,0,0,1,.08-.53.37.37,0,0,1,.52.08c.6.78,1.23,1.55,1.88,2.29a.38.38,0,0,1,0,.53A.38.38,0,0,1,274,219.92Zm-4.59-6.34a.38.38,0,0,1-.33-.18c-.5-.86-1-1.75-1.43-2.65a.37.37,0,0,1,.16-.5.37.37,0,0,1,.51.17c.44.88.91,1.75,1.41,2.6a.36.36,0,0,1-.13.51A.34.34,0,0,1,269.41,213.58Zm-3.34-7.08a.36.36,0,0,1-.35-.25l-.17-.46c-.28-.8-.53-1.6-.76-2.4a.38.38,0,0,1,.26-.47.37.37,0,0,1,.46.26c.23.79.48,1.58.75,2.36l.17.46a.38.38,0,0,1-.23.48Zm-2-7.57a.38.38,0,0,1-.37-.32c-.16-1-.29-2-.38-3a.37.37,0,0,1,.34-.41.38.38,0,0,1,.41.34c.09,1,.21,2,.37,2.94a.37.37,0,0,1-.31.43Zm-.54-7.82h0a.36.36,0,0,1-.36-.38c0-1,.08-2,.18-3a.38.38,0,1,1,.75.07c-.1,1-.16,2-.18,3A.38.38,0,0,1,263.55,191.11Z"/><path class="cls-22" d="M264.49,183.31h-.08a.37.37,0,0,1-.29-.45c.1-.49.22-1,.34-1.47a.38.38,0,0,1,.46-.28.38.38,0,0,1,.27.46c-.12.48-.23,1-.34,1.45A.37.37,0,0,1,264.49,183.31Z"/><path class="cls-11" d="M275.53,180a.5.5,0,0,0,.08.58l4.23,4.47a26.5,26.5,0,0,0-.77,8.63l-4.94,3.65a.52.52,0,0,0-.18.56l2.21,7a.48.48,0,0,0,.47.35l6.13.17a27,27,0,0,0,5.57,6.65l-.91,6.07a.52.52,0,0,0,.27.53l6.53,3.4a.5.5,0,0,0,.58-.08l4.46-4.22a26.82,26.82,0,0,0,8.64.77l3.65,4.94a.52.52,0,0,0,.56.18l7-2.21a.52.52,0,0,0,.35-.47l.17-6.14a26.49,26.49,0,0,0,6.64-5.57l6.08.92a.51.51,0,0,0,.52-.27l3.41-6.53a.5.5,0,0,0-.08-.58L332,198.33a26.75,26.75,0,0,0,.76-8.63l4.94-3.65a.5.5,0,0,0,.18-.56l-2.21-7a.49.49,0,0,0-.46-.35l-6.14-.17a27.15,27.15,0,0,0-5.57-6.65l.91-6.07a.49.49,0,0,0-.26-.52l-6.54-3.41a.5.5,0,0,0-.58.08l-4.46,4.22a26.82,26.82,0,0,0-8.64-.77l-3.65-4.93a.49.49,0,0,0-.55-.19l-7,2.21a.52.52,0,0,0-.36.47l-.17,6.14a26.49,26.49,0,0,0-6.64,5.57l-6.08-.91a.49.49,0,0,0-.52.26Z"/><path class="cls-13" d="M305.93,198.79a7.16,7.16,0,0,1-1.65-.2,7,7,0,0,1-4.41-3.19,7.09,7.09,0,1,1,6.06,3.39Zm0-13.09a5.91,5.91,0,0,0-3.12.88,6,6,0,0,0-2,8.23h0a6,6,0,1,0,5.08-9.11Z"/><path class="cls-13" d="M306.08,210.08a18.38,18.38,0,0,1-17.52-12.84l-.2-.68a19.88,19.88,0,0,1-.54-2.85v0l0-.27,1.13-.11a17,17,0,0,0,.72,3.6c.08.24.16.48.25.72a17.24,17.24,0,0,0,17.95,11.24,17.6,17.6,0,0,0,2.93-.56l.46-.14a17.24,17.24,0,0,0,12-16.43,17.05,17.05,0,0,0-.79-5.15,17.22,17.22,0,0,0-29.29-6.29l-.84-.75a18.35,18.35,0,1,1,13.72,30.54Z"/><path class="cls-22" d="M243.18,207.64a.37.37,0,0,1-.29-.14.38.38,0,0,1,.05-.53c.39-.32.8-.64,1.21-.93a.38.38,0,1,1,.44.61c-.4.28-.79.59-1.17.9A.38.38,0,0,1,243.18,207.64Z"/><path class="cls-22" d="M278.85,222.59a.37.37,0,0,1-.38-.34,20.81,20.81,0,0,0-.44-2.83.38.38,0,0,1,.74-.17,22.29,22.29,0,0,1,.45,2.93.37.37,0,0,1-.34.41Zm-2-7.36a.37.37,0,0,1-.34-.22,21.85,21.85,0,0,0-1.38-2.51.38.38,0,1,1,.63-.41,20.58,20.58,0,0,1,1.43,2.6.37.37,0,0,1-.18.5A.29.29,0,0,1,276.87,215.23ZM272.49,209a.4.4,0,0,1-.27-.11,20.34,20.34,0,0,0-2.16-1.88.37.37,0,0,1-.07-.53.36.36,0,0,1,.52-.07,21.9,21.9,0,0,1,2.25,1.94.4.4,0,0,1,0,.54A.4.4,0,0,1,272.49,209Zm-6.27-4.35-.15,0a21.77,21.77,0,0,0-2.68-1,.38.38,0,0,1,.22-.72,23.23,23.23,0,0,1,2.77,1.06.38.38,0,0,1-.16.72Zm-17.72-.24a.39.39,0,0,1-.35-.23.37.37,0,0,1,.2-.49c.47-.2,1-.39,1.41-.55s.93-.31,1.39-.44a.4.4,0,0,1,.47.27.38.38,0,0,1-.26.46c-.45.12-.91.27-1.35.42s-.91.34-1.36.53Zm10.35-1.7h0a22.88,22.88,0,0,0-2.87,0,.37.37,0,0,1-.4-.35.38.38,0,0,1,.36-.4,22.65,22.65,0,0,1,3,0,.38.38,0,0,1,.34.41A.36.36,0,0,1,258.85,202.7Z"/><path class="cls-22" d="M278.49,228.84h-.08a.37.37,0,0,1-.29-.45c.1-.48.18-1,.24-1.46a.38.38,0,0,1,.75.11c-.07.5-.15,1-.26,1.5A.37.37,0,0,1,278.49,228.84Z"/><path class="cls-22" d="M268.27,243.23a.38.38,0,0,1-.2-.7c.42-.25.84-.52,1.25-.8a.37.37,0,0,1,.52.09.38.38,0,0,1-.09.53c-.42.29-.86.57-1.29.83A.45.45,0,0,1,268.27,243.23Z"/><path class="cls-22" d="M256.61,246.3h0a21.85,21.85,0,0,1-2.91-.26.38.38,0,0,1-.31-.43.38.38,0,0,1,.43-.31,22.05,22.05,0,0,0,2.81.25.37.37,0,0,1,.37.38A.38.38,0,0,1,256.61,246.3Zm4.64-.4a.38.38,0,0,1-.37-.3.38.38,0,0,1,.3-.44,23.33,23.33,0,0,0,2.73-.72.38.38,0,0,1,.48.23.38.38,0,0,1-.24.48,23,23,0,0,1-2.82.75Zm-12-1.06a.3.3,0,0,1-.13,0,21.24,21.24,0,0,1-2.65-1.23.38.38,0,0,1-.16-.51.39.39,0,0,1,.52-.15,21.27,21.27,0,0,0,2.56,1.19.37.37,0,0,1,.21.48A.38.38,0,0,1,249.25,244.84ZM242.81,241a.38.38,0,0,1-.24-.09,22.38,22.38,0,0,1-2.08-2.05.38.38,0,1,1,.56-.5,22.11,22.11,0,0,0,2,2,.37.37,0,0,1,0,.53A.39.39,0,0,1,242.81,241Zm-4.74-5.81a.39.39,0,0,1-.33-.19,21.16,21.16,0,0,1-1.26-2.63.38.38,0,0,1,.7-.28,22.75,22.75,0,0,0,1.21,2.54.38.38,0,0,1-.14.52A.39.39,0,0,1,238.07,235.18Zm-2.51-7.07a.38.38,0,0,1-.37-.31,23.72,23.72,0,0,1-.3-2.91.38.38,0,0,1,.76,0,21.92,21.92,0,0,0,.28,2.81.37.37,0,0,1-.3.43Z"/><path class="cls-22" d="M235.61,220.59h-.07a.38.38,0,0,1-.31-.44c.1-.5.21-1,.33-1.49a.38.38,0,1,1,.73.18c-.12.48-.23,1-.31,1.45A.39.39,0,0,1,235.61,220.59Z"/><path class="cls-11" d="M241.48,218a.29.29,0,0,0,0,.31l2.19,2.31a14,14,0,0,0-.39,4.49L240.75,227a.27.27,0,0,0-.09.29l1.15,3.65a.26.26,0,0,0,.24.18l3.18.09a14,14,0,0,0,2.9,3.45l-.48,3.15a.27.27,0,0,0,.14.27l3.39,1.77a.24.24,0,0,0,.3,0l2.32-2.19a14,14,0,0,0,4.48.4l1.9,2.56a.25.25,0,0,0,.29.09l3.65-1.14a.27.27,0,0,0,.18-.24l.09-3.19a14,14,0,0,0,3.45-2.89l3.15.47a.25.25,0,0,0,.27-.14l1.77-3.39a.26.26,0,0,0,0-.3l-2.19-2.32a14,14,0,0,0,.4-4.48l2.56-1.89a.26.26,0,0,0,.09-.29l-1.14-3.65a.27.27,0,0,0-.25-.18l-3.18-.09a14,14,0,0,0-2.89-3.45l.47-3.16a.25.25,0,0,0-.14-.27l-3.39-1.77a.26.26,0,0,0-.3.05l-2.32,2.19a14,14,0,0,0-4.48-.4l-1.9-2.56a.26.26,0,0,0-.28-.1l-3.65,1.15a.27.27,0,0,0-.19.24l-.08,3.19a13.78,13.78,0,0,0-3.45,2.89l-3.16-.47a.25.25,0,0,0-.27.13Z"/><path class="cls-13" d="M257.26,228a3.67,3.67,0,0,1-.92-.11,3.93,3.93,0,0,1-2.46-1.77h0a4,4,0,1,1,5.45,1.3A3.91,3.91,0,0,1,257.26,228Zm-2.42-2.48a2.84,2.84,0,0,0,3.9.93,2.84,2.84,0,0,0,.93-3.9,2.84,2.84,0,0,0-4.83,3Z"/><path class="cls-13" d="M257.34,233.87A9.8,9.8,0,0,1,248,227a9.5,9.5,0,0,1-.4-1.89.86.86,0,0,1,0-.16l1.12-.1a9.36,9.36,0,0,0,.36,1.81h0s0,.09.05.13a8.7,8.7,0,0,0,9.32,5.87h0a8.68,8.68,0,0,0,7.54-8.58,8.67,8.67,0,0,0-11.27-8.28,8.57,8.57,0,0,0-3.87,2.51l-.85-.75a9.81,9.81,0,0,1,16.67,3.57,10,10,0,0,1,.45,3,9.83,9.83,0,0,1-9.79,9.79Z"/><path class="cls-18" d="M78.18,215.07h4.13a24.23,24.23,0,0,1,24.23,24.23v22.88a0,0,0,0,1,0,0H54a0,0,0,0,1,0,0V239.29A24.23,24.23,0,0,1,78.18,215.07Z"/><path class="cls-18" d="M62.68,215.07h4.13A24.23,24.23,0,0,1,91,239.29v22.88a0,0,0,0,1,0,0H38.45a0,0,0,0,1,0,0V239.29A24.23,24.23,0,0,1,62.68,215.07Z"/><path class="cls-13" d="M42.19,241.39a.57.57,0,0,1-.57-.57V229.59c0-6,4-10.87,8.93-10.87H64.38a.56.56,0,0,1,.56.56.57.57,0,0,1-.56.57H50.55c-4.3,0-7.8,4.37-7.8,9.74v11.23A.56.56,0,0,1,42.19,241.39Z"/><path class="cls-13" d="M42.19,253.3a.57.57,0,0,1-.57-.56v-4.58a.58.58,0,0,1,.57-.57.57.57,0,0,1,.56.57v4.58A.56.56,0,0,1,42.19,253.3Z"/><path class="cls-23" d="M143,259.25c1-2.26,10.55-25.87-7.38-44.3a.86.86,0,0,0-1.43.33A20.83,20.83,0,0,0,138,235.14c6.91,8.34,4.9,20,4,23.77a.55.55,0,0,0,.79.61h0A.55.55,0,0,0,143,259.25Z"/><path class="cls-24" d="M140.45,260.75a.5.5,0,0,0,.27-.39c.21-2.17,1.38-16.79-4.77-26.44C128.48,222.19,96,196,117.21,171.24a.54.54,0,0,0-.62-.85c-6.31,2.79-23.77,12.68-16.52,34.44,8.73,26.18,41.69,11.31,39.63,55.45a.51.51,0,0,0,.75.47Z"/><path class="cls-25" d="M138.56,261.77a.55.55,0,0,0,.27-.42c.17-3,1.24-27.86-10.4-29.29-12-1.48-26.37,10.18-41.86,6.68a.58.58,0,0,0-.62.89c2.33,3.43,9.9,12.49,22.85,9.11,15.85-4.13,19.32-8.59,24.18-1.48,3.6,5.26,4.59,11.89,4.82,14.11a.52.52,0,0,0,.76.4Z"/><path class="cls-26" d="M91.22,240.62s.2.09.59.23,1,.31,1.71.5a22.06,22.06,0,0,0,2.73.49c.53,0,1.09.12,1.69.14a16.51,16.51,0,0,0,1.87,0c.65,0,1.33-.07,2-.1s1.42-.19,2.16-.28,1.49-.27,2.25-.47,1.54-.39,2.31-.66a44.8,44.8,0,0,0,4.71-1.84c1.62-.72,3.31-1.42,5-2a29,29,0,0,1,5.31-1.41,15.85,15.85,0,0,1,2.75-.21,10,10,0,0,1,2.72.38,8.75,8.75,0,0,1,4.36,2.8,14,14,0,0,1,2.3,3.89,26,26,0,0,1,1.09,3.56c.26,1.08.43,2,.55,2.8s.19,1.4.24,1.81.07.65.07.65a.15.15,0,0,1-.13.16.14.14,0,0,1-.16-.11h0l-.15-.62c-.09-.41-.22-1-.42-1.77s-.43-1.67-.76-2.69a25.7,25.7,0,0,0-1.33-3.34,12.86,12.86,0,0,0-2.29-3.43,7.49,7.49,0,0,0-3.76-2.19,9.44,9.44,0,0,0-2.34-.23,13.76,13.76,0,0,0-2.45.25,31.89,31.89,0,0,0-5,1.44c-1.65.61-3.27,1.3-4.87,2a40.61,40.61,0,0,1-4.94,1.87,9,9,0,0,1-1.23.34l-1.23.29c-.81.18-1.62.27-2.4.4s-1.56.14-2.3.17-1.47,0-2.16,0-1.34-.1-2-.2a17.08,17.08,0,0,1-1.75-.32,19.68,19.68,0,0,1-2.76-.84,15.08,15.08,0,0,1-1.68-.78c-.38-.21-.57-.34-.57-.34h0a.16.16,0,0,1,0-.24A.17.17,0,0,1,91.22,240.62Z"/><path class="cls-26" d="M137.43,221.08s.37.39.94,1.12a30.17,30.17,0,0,1,2.11,3.22c.41.69.8,1.47,1.2,2.29s.78,1.71,1.13,2.65a41.43,41.43,0,0,1,1.81,6c.24,1,.41,2.09.56,3.13s.21,2.07.26,3.07c0,.5,0,1,0,1.48s0,.95-.05,1.41a24,24,0,0,1-.27,2.56c-.1.79-.28,1.5-.4,2.14s-.3,1.17-.43,1.62l-.46,1.38a.16.16,0,0,1-.2.09.15.15,0,0,1-.1-.18h0l.31-1.41c.09-.44.17-1,.29-1.61s.18-1.34.21-2.12.09-1.61.09-2.5,0-1.82-.12-2.79-.21-2-.39-3-.36-2-.62-3a45.29,45.29,0,0,0-1.86-5.77c-.71-1.8-1.45-3.46-2.11-4.86s-1.25-2.57-1.66-3.39l-.66-1.27a.24.24,0,0,1,.1-.33A.26.26,0,0,1,137.43,221.08Z"/><path class="cls-18" d="M190.84,92.23l-3.3,5.09c1.54,3,3.25,4.64,5,5.43a9.1,9.1,0,0,1,2.2-4.33C191.64,96.68,190.84,92.23,190.84,92.23Z"/><path class="cls-27" d="M202.19,97.5c-3.38,2-5.79,1.89-7.5.92a9.1,9.1,0,0,0-2.2,4.33c5.43,2.5,10.87-3.79,10.87-3.79Z"/><path class="cls-28" d="M202.38,98.37a2.32,2.32,0,0,1,.4-2.81s.42-.48.89.23c0,0,1.41-1.29,1.79-.77a2.62,2.62,0,0,1,.41,3.25A2.25,2.25,0,0,1,202.38,98.37Z"/><path class="cls-29" d="M203.76,97.7a1,1,0,0,1-.51-.13.91.91,0,0,1-.42-.7.37.37,0,0,1,.32-.42.37.37,0,0,1,.42.33.26.26,0,0,0,.06.14l.06,0-.24-.76a.38.38,0,0,1,.25-.47.37.37,0,0,1,.47.24l.37,1.18a.36.36,0,0,1-.22.46A1.51,1.51,0,0,1,203.76,97.7Z"/><path class="cls-30" d="M154.33,131.63a.88.88,0,0,0-.37.91c.27,1.44,1.18,5.24,3.38,7.48a.32.32,0,0,0,.48,0,12.9,12.9,0,0,1-2-3.25A11.48,11.48,0,0,1,154.33,131.63Z"/><path class="cls-11" d="M157.17,131.58a3.06,3.06,0,0,0-2.83,0h0a11.48,11.48,0,0,0,1.44,5.14,12.9,12.9,0,0,0,2,3.25.29.29,0,0,0,.1-.16C158.33,138.43,159.2,134.44,157.17,131.58Z"/><path class="cls-31" d="M159.22,131.67l-1.28,1.23a.68.68,0,0,1-.84.08,1.74,1.74,0,0,1-.66-.81.68.68,0,0,1,.13-.72l1.28-1.41a.69.69,0,0,1,1.09.11l.4.68A.68.68,0,0,1,159.22,131.67Z"/><path class="cls-32" d="M200.8,125.47a.87.87,0,0,0,1-.12c1.11-.95,4-3.62,4.83-6.64a.33.33,0,0,0-.24-.42,12.65,12.65,0,0,1-1.82,3.4A11.23,11.23,0,0,1,200.8,125.47Z"/><path class="cls-11" d="M199.34,123a3.1,3.1,0,0,0,1.45,2.44h0a11.23,11.23,0,0,0,3.75-3.78,12.65,12.65,0,0,0,1.82-3.4.31.31,0,0,0-.19,0C204.73,118.64,200.83,119.85,199.34,123Z"/><path class="cls-33" d="M199.25,120.36l1.34,1.17a.66.66,0,0,1,.15.82,1.73,1.73,0,0,1-.74.73.69.69,0,0,1-.73-.06l-1.52-1.15a.68.68,0,0,1,0-1.09l.65-.46A.66.66,0,0,1,199.25,120.36Z"/><path class="cls-11" d="M172.28,108.5s-2.62,8.94-4.32,12.87a16.55,16.55,0,0,0-4.8,1.52c-1.83,1.07-5.78,7-5.78,7s1,2,2.27,2.26l11.25-7.79,9-10.44-.43-4.84Z"/><path class="cls-11" d="M172.44,107.78l-.77,2.44s.71,6.42,8.79,5.34,9.1-2.41,9.1-2.41-.7,4.1,8.15,9a5,5,0,0,0,1.63-2.17l-6.19-10.21a2.73,2.73,0,0,0-3.24-1.45c-3.48.54-10,1.25-11,1.08Z"/><path class="cls-18" d="M178.76,89.58A14.82,14.82,0,0,0,170.27,93,27.72,27.72,0,0,1,173,96.49a7.48,7.48,0,0,1,3.38-1.68,100.32,100.32,0,0,1-4.79,14,.51.51,0,0,0,.29.69c1.48.52,5.83,1.74,9.33-.23l7.74-11.09a9.51,9.51,0,0,0,1.6-4l.3-2S183.89,89.32,178.76,89.58Z"/><path class="cls-34" d="M174.53,106.36a5.08,5.08,0,0,0-2-1.74c-.48-1-2.39-5.42.49-8.13A27.72,27.72,0,0,0,170.27,93c-2.78,2.55-3.79,6.57,1.07,12.19a3.72,3.72,0,0,0,1.07,3.22C172.63,108.56,175,107.35,174.53,106.36Z"/><path class="cls-35" d="M176.82,95a.38.38,0,0,1-.37-.3.38.38,0,0,1,.29-.44l2.15-.47a.38.38,0,0,1,.45.29.37.37,0,0,1-.29.45L176.9,95Z"/><path class="cls-36" d="M184,86.64l-2,4a.65.65,0,0,0,.1.73,3.28,3.28,0,0,0,3.66.8.61.61,0,0,0,.41-.5l.53-3.59Z"/><path class="cls-37" d="M187.36,82a17.63,17.63,0,0,1,1.26,4.16c.08,1.43.39,2.36-1.26,2.64a3.5,3.5,0,0,1-3.8-2s-1.19-2.19-.92-3.09S187.36,82,187.36,82Z"/><path class="cls-11" d="M184.12,85.86l.1,0a.24.24,0,0,0,.11-.32c-.24-.45-.69-1.48-.1-1.72.75-.31,3.75-.92,4.4-2a2,2,0,0,0-.76-2.71.11.11,0,0,0-.15,0l-.07.13a.11.11,0,0,1-.2,0h0a.12.12,0,0,0-.21,0,3,3,0,0,1-2.17,1.09c-2,.38-3.39,1.21-3.42,2.62a.11.11,0,0,1-.18.09c-.15-.09-.39-.14-.71.14-.56.47-.33,1.69.9,2.69a.11.11,0,0,1,0,.18c-.22.15-.55.49.31,1a2.9,2.9,0,0,0,1.81.4.12.12,0,0,0,.09-.14L183.59,86a.1.1,0,0,1,.11-.13Z"/><path class="cls-38" d="M184.17,86.12s-.45-1.74-1.23-1.25.4,1.95,1,2Z"/><path class="cls-39" d="M297.8,106a5.07,5.07,0,0,1,.92-2.68c-.92.3-1.26,1-1.48,2.8-.25,2.16-.7,8-.82,9.32a2.7,2.7,0,0,0,.82,2.36c.14.13.35.07.61-.13a4.23,4.23,0,0,1-.83-1.88C296.86,114.87,297.58,108.82,297.8,106Z"/><path class="cls-11" d="M303.79,104.25l-1.6-2.06a12.23,12.23,0,0,1-2.89.94,3.8,3.8,0,0,0-.58.14,5.07,5.07,0,0,0-.92,2.68c-.22,2.87-.94,8.92-.78,9.79a4.23,4.23,0,0,0,.83,1.88,8,8,0,0,0,1.69-2.35c.76-1.47,3.35-5.86,3.95-7.51A7.81,7.81,0,0,0,303.79,104.25Z"/><path class="cls-40" d="M325.43,85.51A5.13,5.13,0,0,1,326.79,83c-1,.14-1.41.76-1.92,2.51-.61,2.1-2,7.8-2.36,9.06a2.68,2.68,0,0,0,.43,2.46c.11.16.33.13.61,0a4.19,4.19,0,0,1-.5-2C323,94.15,324.75,88.3,325.43,85.51Z"/><path class="cls-11" d="M331.62,84.83l-1.23-2.3a12.74,12.74,0,0,1-3,.45,3.57,3.57,0,0,0-.59,0,5.13,5.13,0,0,0-1.36,2.49c-.68,2.79-2.39,8.64-2.38,9.53a4.19,4.19,0,0,0,.5,2,8,8,0,0,0,2.06-2c1-1.32,4.27-5.23,5.14-6.75A7.81,7.81,0,0,0,331.62,84.83Z"/><path class="cls-41" d="M370.08,15.26l12.61-9.84a.45.45,0,0,0,.16-.24L384.18.83a.49.49,0,0,1,.23-.28l.86-.49a.49.49,0,0,1,.29-.06l2.69.26a.49.49,0,0,1,.42.41l.21,1.25a.47.47,0,0,1-.08.35l-.36.53a.46.46,0,0,0,0,.5h0a.47.47,0,0,1-.06.55A9.69,9.69,0,0,1,385,6.22a.36.36,0,0,0-.16.11L373.49,18.65a.49.49,0,0,1-.69,0L370,16A.48.48,0,0,1,370.08,15.26Z"/><path class="cls-42" d="M351.57,30.3l17.94-15a.93.93,0,0,1,1.21,0,13.36,13.36,0,0,1,2.61,3,1,1,0,0,1-.2,1.22L354.58,37.24Z"/><path class="cls-43" d="M303.79,99.23c-.28.37-2.32,4.07-2.76,4.87a1.28,1.28,0,0,0-.14.43,1.8,1.8,0,0,0,.87,1.79,1.2,1.2,0,0,0,1.64-.28l3.7-4.86Z"/><path class="cls-44" d="M332.45,79.88c-.33.31-2.95,3.62-3.52,4.34a1.53,1.53,0,0,0-.21.4,1.82,1.82,0,0,0,.56,1.92,1.23,1.23,0,0,0,1.67,0l4-4.58Z"/><path class="cls-45" d="M337.43,62.44c0-1,5.89-.66,11.05-1.26a2.91,2.91,0,0,1,2.42,4.91L335.27,82.22a1.23,1.23,0,0,1-1.27.32,7.64,7.64,0,0,1-2.29-1.19,1.11,1.11,0,0,1-.21-1.51l7.19-10.24-6.56,1.89-24.88,30.78a1.3,1.3,0,0,1-1.69.29,10.66,10.66,0,0,1-2.35-1.92,1.2,1.2,0,0,1-.08-1.43c2.75-4.2,17.67-27,18.37-29.42.78-2.61,3.65-7.4,6.32-7.57S337.43,62.44,337.43,62.44Z"/><path class="cls-46" d="M339.08,69.47a.17.17,0,0,1,0-.33l5.9-1.56a.16.16,0,0,1,.2.11.18.18,0,0,1-.12.21l-5.9,1.56Z"/><path class="cls-47" d="M332.72,71.07a.21.21,0,0,1-.12,0,.17.17,0,0,1,0-.23l1.48-1.6a.16.16,0,0,1,.23,0,.15.15,0,0,1,0,.23L332.84,71A.16.16,0,0,1,332.72,71.07Z"/><path class="cls-48" d="M354.58,30a11.34,11.34,0,0,1,2.58,8.67,8.6,8.6,0,0,1-1.79,4.43l-15.73,20.3a2.21,2.21,0,0,1-1.49.85c-2.31.28-8.47.84-12.82-.61a.58.58,0,0,1-.32-.84l14.31-25.16L348,27.57A5.75,5.75,0,0,1,354.58,30Z"/><path class="cls-49" d="M334.92,56.62a.36.36,0,0,1-.22-.07.38.38,0,0,1-.08-.53c.14-.18,13.69-18.44,14.6-20.65.82-2-1.11-3.53-1.19-3.59a.38.38,0,0,1,.46-.6,4,4,0,0,1,1.43,4.47C349,38,335.79,55.71,335.23,56.47A.39.39,0,0,1,334.92,56.62Z"/><path class="cls-50" d="M329.6,54.85a14.12,14.12,0,0,0,4.85,1.89L327.82,65s-1,5.31-1.81,6-3.25,1.2-3.88,0a9.26,9.26,0,0,1-.84-2.48s.39-.62,1.1.5V67.74s1,.45,1,1.27c0,0-.91-3.43.53-4.56a15.18,15.18,0,0,1,1.82-1.3Z"/><path class="cls-51" d="M305.11,54a.57.57,0,0,0-.39.81,6.57,6.57,0,0,0,7.64,3.86c5.93-1.37,24-15,28.11-18.77s9.52-8.39,12.17-7.74,1.05-.89-.79-2.13-2.52-3-1.15-2.7c0,0-3.3-1.07-8.34,1.7s-29,12-37,9.31a.51.51,0,0,0-.67.4c-.32,1.84-.81,7.58,3.9,14A15.66,15.66,0,0,1,305.11,54Z"/><path class="cls-52" d="M355.33,20.54l-4.7,6.64a1.12,1.12,0,0,0,.1,1.4,5.87,5.87,0,0,0,2.85,1.85.88.88,0,0,0,.92-.39L357,26.2S357.48,20.17,355.33,20.54Z"/><path class="cls-53" d="M356.66,15c.09.09,4,7.78,4,7.78l-4.44,2.15-4.79-6.74S355.07,13.49,356.66,15Z"/><path class="cls-11" d="M353.45,19l2.22,3.69a.79.79,0,0,0,.12.15c.26.24,1.17,1,1.86,0a6.37,6.37,0,0,1,1.75-1.89.72.72,0,0,1,1,.32,26.23,26.23,0,0,1,1.51,3.59.71.71,0,0,1-.41.87,20,20,0,0,1-4.25,1.24.72.72,0,0,1-.67-.29c-.68-.93-2.59-3.52-3.24-4.17a2.38,2.38,0,0,0-2.23-.23.76.76,0,0,1-.57-.08,1.55,1.55,0,0,1-.58-2.37.72.72,0,0,0-.22-1,1.56,1.56,0,0,1-.6-2.22,2.21,2.21,0,0,1,2.39-1.17.73.73,0,0,0,.77-.43.48.48,0,0,1,.37-.29.67.67,0,0,0,.55-.8,1.81,1.81,0,0,1,1-2.08c1.92-1.05,3.6.66,4,2.11s-1.71,2.47-3.06,2.64c-1,.13-1.53,1.21-1.75,1.77A.73.73,0,0,0,353.45,19Z"/><path class="cls-54" d="M354.13,23.83s-.85-2.49-1.94-2.4-1.95,1.18-.6,2.4C353.27,25.35,354.13,23.83,354.13,23.83Z"/><path class="cls-55" d="M385.85,3.8h-.06a.11.11,0,0,1,0-.15c0-.05.66-1.19,1.46-1,.63.2.8.12.8.12a.11.11,0,0,1,.15,0,.1.1,0,0,1,0,.15c-.05,0-.27.13-1-.09s-1.19.82-1.2.83A.11.11,0,0,1,385.85,3.8Z"/><path class="cls-13" d="M315.68,103.44l-.6,1a.57.57,0,0,1-1-.6h0l.6-1a.57.57,0,0,1,.78-.17A.56.56,0,0,1,315.68,103.44Z"/><path class="cls-13" d="M313.63,106.63l-.64.93a.58.58,0,1,1-1-.66h0l.64-.93a.58.58,0,0,1,1,.66Z"/><path class="cls-13" d="M311.45,109.73l-.68.91a.59.59,0,0,1-.83.12.6.6,0,0,1-.13-.84h0l.68-.9a.59.59,0,0,1,.83-.12A.6.6,0,0,1,311.45,109.73Z"/><path class="cls-13" d="M309.15,112.74l-.71.88a.62.62,0,0,1-1-.77h0l.71-.88a.61.61,0,0,1,.86-.08A.6.6,0,0,1,309.15,112.74Z"/><path class="cls-13" d="M306.73,115.66l-.74.85a.63.63,0,0,1-.95-.82h0l.74-.85a.63.63,0,0,1,.88-.06A.62.62,0,0,1,306.73,115.66Z"/><path class="cls-13" d="M304.21,118.49l-.77.82a.64.64,0,0,1-.94-.88h0l.78-.82a.64.64,0,0,1,.9,0A.63.63,0,0,1,304.21,118.49Z"/><path class="cls-13" d="M301.58,121.22l-.8.79a.65.65,0,0,1-.93,0,.66.66,0,0,1,0-.93h0l.81-.79a.65.65,0,0,1,.91.93Z"/><path class="cls-13" d="M298.86,123.85l-.83.77a.67.67,0,1,1-.91-1h0l.84-.76a.67.67,0,0,1,.9,1Z"/><path class="cls-13" d="M296.05,126.39l-.86.74a.67.67,0,0,1-1-.07.68.68,0,0,1,.07-1h0l.86-.73a.68.68,0,0,1,.89,1Z"/><path class="cls-13" d="M293.15,128.83l-.88.71a.7.7,0,0,1-.88-1.09h0l.88-.7a.7.7,0,0,1,1,.11A.69.69,0,0,1,293.15,128.83Z"/><path class="cls-13" d="M290.17,131.18l-.9.68a.73.73,0,0,1-1-.14.71.71,0,0,1,.14-1h0l.9-.67a.71.71,0,1,1,.85,1.14Z"/><path class="cls-13" d="M287.12,133.42l-.92.66a.72.72,0,0,1-1-.18.71.71,0,0,1,.17-1h0l.92-.64a.72.72,0,0,1,1,.18A.71.71,0,0,1,287.12,133.42Z"/><path class="cls-13" d="M284,135.58l-.95.62a.74.74,0,1,1-.82-1.24h0l.95-.61a.73.73,0,0,1,1,.22A.75.75,0,0,1,284,135.58Z"/><path class="cls-13" d="M280.82,137.63l-1,.59a.75.75,0,1,1-.79-1.28h0l1-.58a.74.74,0,0,1,1,.25A.75.75,0,0,1,280.82,137.63Z"/><path class="cls-13" d="M277.58,139.59l-1,.57a.79.79,0,0,1-1.06-.28.78.78,0,0,1,.28-1.06h0l1-.56a.77.77,0,0,1,.76,1.33Z"/><path class="cls-13" d="M274.29,141.46l-1,.53a.79.79,0,1,1-.75-1.38h0l1-.53a.78.78,0,0,1,1.06.32A.79.79,0,0,1,274.29,141.46Z"/><path class="cls-13" d="M270.94,143.23l-1,.51a.8.8,0,1,1-.73-1.43h0l1-.5a.8.8,0,0,1,1.07.35A.81.81,0,0,1,270.94,143.23Z"/><path class="cls-13" d="M267.55,144.91l-1,.48a.81.81,0,0,1-1.08-.39.82.82,0,0,1,.39-1.08h0l1-.48a.81.81,0,0,1,.69,1.47Z"/><path class="cls-13" d="M264.1,146.49l-1,.46a.82.82,0,0,1-.66-1.5h0l1-.45a.81.81,0,0,1,1.07.42A.81.81,0,0,1,264.1,146.49Z"/><path class="cls-13" d="M260.62,148l-1.05.43a.82.82,0,1,1-.62-1.52h0l1.05-.42a.82.82,0,0,1,1.07.45A.81.81,0,0,1,260.62,148Z"/><path class="cls-13" d="M257.1,149.39l-1.06.4a.82.82,0,1,1-.58-1.54h0l1.06-.4a.82.82,0,0,1,.58,1.54Z"/><path class="cls-13" d="M253.55,150.7l-1.07.38a.83.83,0,1,1-.55-1.57h0l1.07-.37a.83.83,0,0,1,.55,1.56Z"/><path class="cls-13" d="M250,151.93l-1.08.35a.83.83,0,1,1-.51-1.59h0l1.08-.35a.83.83,0,1,1,.51,1.59Z"/><path class="cls-13" d="M246.35,153.07l-1.09.32a.84.84,0,0,1-.48-1.61h0l1.08-.32a.83.83,0,0,1,1,.56A.84.84,0,0,1,246.35,153.07Z"/><path class="cls-13" d="M242.71,154.12l-1.09.29a.84.84,0,0,1-1-.59.85.85,0,0,1,.59-1h0l1.1-.29a.84.84,0,0,1,1,.59A.85.85,0,0,1,242.71,154.12Z"/><path class="cls-13" d="M239.05,155.08l-1.1.27a.84.84,0,0,1-1-.62.86.86,0,0,1,.62-1h0l1.1-.27a.86.86,0,0,1,1,.63A.85.85,0,0,1,239.05,155.08Z"/><path class="cls-13" d="M235.37,156l-1.1.24a.85.85,0,1,1-.38-1.66h0l1.1-.24a.86.86,0,0,1,1,.65A.85.85,0,0,1,235.37,156Z"/><path class="cls-13" d="M231.67,156.77l-1.1.23a.86.86,0,0,1-1-.67.87.87,0,0,1,.67-1h0l1.11-.22a.86.86,0,0,1,1,.67A.84.84,0,0,1,231.67,156.77Z"/><path class="cls-13" d="M228,157.51l-1.11.2a.86.86,0,0,1-1-.69.88.88,0,0,1,.7-1h0l1.11-.2a.86.86,0,0,1,1,.69A.88.88,0,0,1,228,157.51Z"/><path class="cls-13" d="M224.24,158.17l-1.11.18a.87.87,0,1,1-.29-1.71h0l1.12-.18a.87.87,0,0,1,1,.71A.88.88,0,0,1,224.24,158.17Z"/><path class="cls-13" d="M220.51,158.76l-1.12.17a.88.88,0,0,1-1-.74.87.87,0,0,1,.74-1h0l1.12-.17a.89.89,0,0,1,1,.74A.87.87,0,0,1,220.51,158.76Z"/><path class="cls-13" d="M216.76,159.29l-1.12.15a.88.88,0,0,1-.23-1.75h0l1.12-.14a.88.88,0,0,1,.22,1.74Z"/><path class="cls-13" d="M213,159.76l-1.12.13a.89.89,0,0,1-1-.78.87.87,0,0,1,.78-1h0l1.12-.13a.89.89,0,1,1,.2,1.76Z"/><path class="cls-13" d="M209.25,160.16l-1.12.11a.9.9,0,0,1-1-.8.91.91,0,0,1,.8-1h0l1.12-.11a.9.9,0,0,1,1,.81A.88.88,0,0,1,209.25,160.16Z"/><path class="cls-13" d="M205.49,160.51l-1.13.1a.9.9,0,0,1-.14-1.79h0l1.12-.09a.89.89,0,1,1,.15,1.78Z"/><path class="cls-13" d="M201.72,160.81l-1.12.07a.9.9,0,0,1-.13-1.79h0l1.12-.08a.9.9,0,0,1,.12,1.8Z"/><path class="cls-13" d="M198,161.05l-1.13.06a.89.89,0,0,1-1-.85.91.91,0,0,1,.85-1h0l1.13-.06a.91.91,0,0,1,.1,1.81Z"/><path class="cls-13" d="M194.19,161.24l-1.13,0a.91.91,0,1,1-.08-1.82h0l1.13-.05a.91.91,0,0,1,.94.88A.9.9,0,0,1,194.19,161.24Z"/><path class="cls-13" d="M190.41,161.39l-1.12,0a.92.92,0,1,1-.06-1.83h0l1.13,0a.92.92,0,1,1,0,1.83Z"/><path class="cls-13" d="M186.64,161.49l-1.13,0a.94.94,0,0,1-.94-.9.93.93,0,0,1,.91-.94h0l1.13,0a.92.92,0,1,1,0,1.83Z"/><path class="cls-13" d="M182.87,161.56h-1.13a.93.93,0,1,1,0-1.85h1.13a.93.93,0,0,1,0,1.85Z"/><path class="cls-13" d="M179.1,161.59H178a.93.93,0,0,1,0-1.86h1.14a.93.93,0,0,1,0,1.86Z"/><path class="cls-13" d="M175.32,161.58h-1.13a.94.94,0,0,1,0-1.87h1.14a.94.94,0,0,1,0,1.87Z"/><path class="cls-13" d="M171.54,161.54l-1.13,0a.92.92,0,0,1-.92-1,.94.94,0,0,1,.95-.93h0l1.13,0a.94.94,0,1,1,0,1.88Z"/><path class="cls-13" d="M167.77,161.47l-1.13,0a.95.95,0,1,1,0-1.89h0l1.13,0a.94.94,0,0,1,0,1.88Z"/><path class="cls-13" d="M164,161.38l-1.13,0a1,1,0,0,1,.06-1.9h0l1.13,0a.95.95,0,1,1-.06,1.89Z"/><path class="cls-13" d="M160.22,161.27l-1.13,0a1,1,0,0,1,.06-1.91h0l1.13,0a1,1,0,1,1-.07,1.91Z"/><path class="cls-13" d="M156.45,161.13l-1.13,0a1,1,0,0,1,.07-1.91h0l1.13,0a1,1,0,0,1-.08,1.92Z"/><path class="cls-13" d="M152.68,161l-1.13,0a1,1,0,0,1-.92-1,1,1,0,0,1,1-.92h0l1.13.05a1,1,0,1,1-.08,1.92Z"/><path class="cls-13" d="M148.91,160.81l-1.13-.06a1,1,0,0,1,.09-1.94h0l1.12.06a1,1,0,0,1-.09,1.94Z"/><path class="cls-13" d="M145.15,160.62l-1.13-.05a1,1,0,1,1,.09-1.95h0l1.12.06a1,1,0,0,1,.93,1A1,1,0,0,1,145.15,160.62Z"/><path class="cls-13" d="M141.38,160.44l-1.13-.06a1,1,0,1,1,.1-1.95h0l1.13,0a1,1,0,0,1-.1,2Z"/><path class="cls-13" d="M137.62,160.26l-1.13,0a1,1,0,0,1,.09-2h0l1.13,0a1,1,0,1,1-.09,2Z"/><path class="cls-13" d="M133.86,160.1l-1.13,0a1,1,0,0,1-.95-1,1,1,0,0,1,1-1h0l1.12.05a1,1,0,1,1-.08,2Z"/><path class="cls-13" d="M130.11,160l-1.13,0a1,1,0,0,1-1-1,1,1,0,0,1,1-1h0l1.13,0a1,1,0,0,1-.06,2Z"/><path class="cls-13" d="M126.36,159.86l-1.14,0a1,1,0,0,1,0-2h0l1.14,0a1,1,0,0,1,0,2Z"/><path class="cls-13" d="M122.6,159.8h-1.13a1,1,0,0,1-1-1,1,1,0,0,1,1-1h1.13a1,1,0,1,1,0,2Z"/><path class="cls-13" d="M118.85,159.81h-1.13a1,1,0,0,1,0-2h1.13a1,1,0,0,1,1,1A1,1,0,0,1,118.85,159.81Z"/><path class="cls-13" d="M115.1,159.87l-1.13,0a1,1,0,1,1-.06-2h0l1.13,0a1,1,0,0,1,.06,2Z"/><path class="cls-13" d="M111.36,160l-1.13.06a1,1,0,0,1-.11-2h0l1.13-.06a1,1,0,0,1,.11,2Z"/><path class="cls-13" d="M107.63,160.25l-1.13.09a1,1,0,0,1-.16-2.05h0l1.13-.08a1,1,0,0,1,.16,2Z"/><path class="cls-13" d="M103.91,160.57l-1.13.12a1,1,0,1,1-.21-2.05h0l1.12-.11a1,1,0,0,1,.22,2Z"/><path class="cls-13" d="M100.2,161l-1.12.15a1,1,0,1,1-.28-2h0l1.12-.15a1,1,0,0,1,1.16.89A1,1,0,0,1,100.2,161Z"/><path class="cls-13" d="M96.51,161.56l-1.12.19A1,1,0,1,1,95,159.7h0l1.12-.19a1,1,0,0,1,1.2.85A1,1,0,0,1,96.51,161.56Z"/><path class="cls-13" d="M92.84,162.24l-1.1.23a1,1,0,0,1-.43-2.05h0l1.1-.23a1.06,1.06,0,0,1,1.24.81A1,1,0,0,1,92.84,162.24Z"/><path class="cls-13" d="M89.21,163.05l-1.1.28a1,1,0,0,1-1.27-.76,1.06,1.06,0,0,1,.76-1.28h0l1.1-.27a1,1,0,0,1,.51,2Z"/><path class="cls-13" d="M85.61,164l-1.08.32a1,1,0,0,1-.6-2L85,162a1,1,0,1,1,.59,2Z"/><path class="cls-13" d="M82.06,165.11l-1.07.37a1,1,0,0,1-.68-2l1.07-.36a1,1,0,1,1,.68,2Z"/><path class="cls-13" d="M78.56,166.37l-1,.41a1,1,0,0,1-.77-1.93l1.05-.42a1,1,0,0,1,.77,1.94Z"/><path class="cls-13" d="M75.12,167.78l-1,.46a1,1,0,1,1-.85-1.88l1-.47a1,1,0,0,1,.85,1.89Z"/><path class="cls-13" d="M71.76,169.36l-1,.52a1,1,0,0,1-.94-1.84l1-.52a1,1,0,1,1,.94,1.84Z"/><path class="cls-13" d="M68.49,171.11l-1,.57a1,1,0,1,1-1-1.77l1-.58a1,1,0,0,1,1,1.78Z"/><path class="cls-13" d="M65.32,173l-.95.62a1,1,0,0,1-1.41-.29,1,1,0,0,1,.28-1.41l.94-.63a1,1,0,0,1,1.43.29,1,1,0,0,1-.29,1.42Z"/><path class="cls-13" d="M62.27,175.14l-.9.68a1,1,0,0,1-1.23-1.63l.9-.68a1,1,0,1,1,1.23,1.63Z"/><path class="cls-13" d="M59.36,177.43l-.85.73a1,1,0,0,1-1.44-.11,1,1,0,0,1,.11-1.43l.86-.74a1,1,0,0,1,1.32,1.55Z"/><path class="cls-13" d="M56.61,179.89l-.81.79a1,1,0,1,1-1.41-1.44l.8-.79a1,1,0,0,1,1.42,1.44Z"/><path class="cls-13" d="M54,182.54l-.75.84a1,1,0,0,1-1.5-1.34l.74-.84A1,1,0,1,1,54,182.53Z"/><path class="cls-13" d="M51.65,185.35l-.68.9a1,1,0,0,1-1.6-1.21l.68-.9a1,1,0,1,1,1.61,1.21Z"/><path class="cls-13" d="M49.51,188.35l-.61,1a1,1,0,0,1-1.69-1.08l.61-.95a1,1,0,1,1,1.69,1.08Z"/><path class="cls-13" d="M47.61,191.51l-.52,1a1,1,0,1,1-1.76-.92l.52-1a1,1,0,0,1,1.77.92Z"/><path class="cls-13" d="M46,194.81l-.44,1a1,1,0,0,1-1.83-.77l.44-1a1,1,0,0,1,1.83.77Z"/><path class="cls-13" d="M44.68,198.24l-.34,1.08a1,1,0,0,1-1.23.64,1,1,0,0,1-.65-1.23l.34-1.08a1,1,0,1,1,1.88.59Z"/><path class="cls-13" d="M43.71,201.77l-.23,1.11a1,1,0,0,1-1.93-.4l.23-1.1a1,1,0,0,1,1.16-.77,1,1,0,0,1,.77,1.16Z"/><path class="cls-13" d="M43.11,205.38,43,206.5a1,1,0,0,1-1.06.89,1,1,0,0,1-.89-1.07l.11-1.12a1,1,0,0,1,1.06-.89,1,1,0,0,1,.89,1.07Z"/><path class="cls-13" d="M42.92,209l0,1.13a1,1,0,1,1-1.94,0l0-1.12a1,1,0,0,1,2-.07Z"/><path class="cls-13" d="M43.18,212.65l.17,1.12a1,1,0,0,1-1.9.3L41.27,213a1,1,0,0,1,1.9-.31Z"/><path class="cls-13" d="M43.89,216.21l.32,1.09a.95.95,0,0,1-1.82.54l-.32-1.09a.95.95,0,1,1,1.82-.54Z"/><path class="cls-13" d="M45.08,219.65l.45,1a.94.94,0,0,1-1.71.76l-.46-1a.94.94,0,1,1,1.71-.77Z"/><path class="cls-13" d="M46.69,222.93l.58,1a.92.92,0,0,1-1.58,1l-.59-1a.92.92,0,0,1,.31-1.27.93.93,0,0,1,1.28.31Z"/><path class="cls-13" d="M48.69,226l.69.89A.92.92,0,0,1,47.93,228l-.69-.89A.92.92,0,0,1,48.69,226Z"/><path class="cls-13" d="M51,228.81l.77.82a.9.9,0,1,1-1.3,1.25l-.78-.82a.9.9,0,1,1,1.3-1.25Z"/><path class="cls-13" d="M53.65,231.39l.85.74a.89.89,0,0,1-1.16,1.35l-.86-.74a.89.89,0,0,1,1.16-1.35Z"/><path class="cls-13" d="M56.51,233.72l.91.66a.87.87,0,0,1-1,1.42l-.93-.65a.88.88,0,0,1,1-1.44Z"/><path class="cls-13" d="M59.57,235.79l1,.58a.85.85,0,0,1,.29,1.18.86.86,0,0,1-1.18.3l-1-.57a.87.87,0,1,1,.88-1.5Z"/><path class="cls-13" d="M62.79,237.59l1,.51a.85.85,0,0,1,.39,1.14.86.86,0,0,1-1.14.38l-1-.49a.86.86,0,1,1,.75-1.54Z"/><path class="cls-13" d="M66.15,239.14l1,.42a.84.84,0,1,1-.62,1.56l-1-.41a.84.84,0,1,1,.61-1.57Z"/><path class="cls-13" d="M69.62,240.43l1.08.33a.83.83,0,0,1-.49,1.58L69.13,242a.83.83,0,0,1,.49-1.59Z"/><path class="cls-13" d="M73.19,241.44l1.09.25h0a.81.81,0,0,1-.35,1.59L72.82,243a.82.82,0,0,1-.62-1,.83.83,0,0,1,1-.63Z"/><path class="cls-13" d="M76.82,242.18l1.12.18a.8.8,0,0,1-.25,1.58l-1.12-.17a.8.8,0,0,1,.24-1.59Z"/><path class="cls-13" d="M80.51,242.71l1.12.12a.77.77,0,0,1-.15,1.54l-1.13-.1a.78.78,0,1,1,.15-1.56Z"/><path class="cls-13" d="M84.22,243l1.13.06a.76.76,0,0,1,.71.79.77.77,0,0,1-.79.72l-1.12,0a.76.76,0,0,1,.06-1.52Z"/><path class="cls-13" d="M88,243.16h1.13a.73.73,0,0,1,.72.74.74.74,0,0,1-.73.73H87.94a.74.74,0,0,1-.74-.73.75.75,0,0,1,.74-.75Z"/><path class="cls-13" d="M91.68,243.13l1.13,0a.71.71,0,0,1,.73.69.69.69,0,0,1-.67.73l-1.13.06a.72.72,0,0,1-.07-1.44Z"/><path class="cls-13" d="M95.42,243l1.13-.08a.69.69,0,0,1,.1,1.37l-1.13.09a.69.69,0,0,1-.75-.63.7.7,0,0,1,.64-.75Z"/><path class="cls-13" d="M99.15,242.66l1.13-.11a.67.67,0,0,1,.73.6.68.68,0,0,1-.6.73l-1.12.12a.67.67,0,0,1-.14-1.34Z"/><path class="cls-13" d="M102.88,242.26l1.12-.13a.64.64,0,0,1,.17,1.27l-1.12.15a.65.65,0,0,1-.74-.56.67.67,0,0,1,.56-.73Z"/><path class="cls-13" d="M106.61,241.78l1.12-.16a.63.63,0,0,1,.18,1.24l-1.12.17a.63.63,0,0,1-.72-.53.64.64,0,0,1,.53-.72Z"/><path class="cls-13" d="M110.33,241.24l1.12-.17a.6.6,0,0,1,.68.5.61.61,0,0,1-.49.69l-1.12.18a.61.61,0,0,1-.7-.5.62.62,0,0,1,.5-.7Z"/><path class="cls-13" d="M114.05,240.66l1.11-.18a.58.58,0,1,1,.19,1.14l-1.11.19a.58.58,0,0,1-.68-.47.59.59,0,0,1,.48-.68Z"/><path class="cls-13" d="M124.32,235.48l-1.06.39a.57.57,0,0,1-.39-1.07h0l1.07-.38a.56.56,0,0,1,.38,1.06Z"/><path class="cls-13" d="M120.7,236.69l-1.08.3a.59.59,0,1,1-.32-1.14h0l1.09-.29a.58.58,0,0,1,.3,1.13Z"/><path class="cls-13" d="M117,237.6l-1.11.21a.61.61,0,1,1-.23-1.2h0l1.11-.19a.61.61,0,1,1,.22,1.19Z"/><path class="cls-13" d="M113.22,238.19l-1.12.11a.65.65,0,0,1-.7-.57.65.65,0,0,1,.58-.7h0l1.12-.09a.63.63,0,0,1,.68.57A.62.62,0,0,1,113.22,238.19Z"/><path class="cls-13" d="M109.4,238.42h-1.13a.65.65,0,0,1-.65-.66.66.66,0,0,1,.66-.66h0l1.13,0a.63.63,0,0,1,.63.66A.65.65,0,0,1,109.4,238.42Z"/><path class="cls-13" d="M105.56,238.24l-1.12-.14a.68.68,0,1,1,.17-1.35h0l1.11.15a.68.68,0,0,1-.17,1.34Z"/><path class="cls-13" d="M101.76,237.6l-1.09-.28A.7.7,0,1,1,101,236h0l1.1.29a.69.69,0,0,1,.49.85A.71.71,0,0,1,101.76,237.6Z"/><path class="cls-13" d="M98.08,236.46l-.52-.21L97,236a.73.73,0,0,1,.56-1.34h0l.5.22.52.22a.71.71,0,0,1,.39.93A.72.72,0,0,1,98.08,236.46Z"/><path class="cls-13" d="M94.57,234.78l-1-.59a.75.75,0,0,1-.24-1,.74.74,0,0,1,1-.24h0l1,.61a.74.74,0,1,1-.79,1.25Z"/><path class="cls-13" d="M91.39,232.56l-.86-.74a.76.76,0,0,1-.08-1.08.77.77,0,0,1,1.08-.08h0l.85.74a.78.78,0,0,1,.07,1.08A.77.77,0,0,1,91.39,232.56Z"/><path class="cls-13" d="M88.59,229.87l-.73-.86A.77.77,0,0,1,88,227.9a.79.79,0,0,1,1.11.09h0l.72.86a.78.78,0,0,1-1.19,1Z"/><path class="cls-13" d="M86.24,226.76l-.58-1a.81.81,0,1,1,1.39-.83h0l.57,1a.8.8,0,0,1-1.38.82Z"/><path class="cls-13" d="M84.45,223.29l-.4-1.06a.83.83,0,0,1,1.56-.59h0l.39,1.07a.83.83,0,0,1-1.55.57Z"/><path class="cls-13" d="M83.33,219.52l-.18-1.11a.85.85,0,0,1,.71-1,.84.84,0,0,1,1,.71h0l.16,1.11a.85.85,0,0,1-1.67.26Z"/><path class="cls-13" d="M83,215.58l.07-1.12a.87.87,0,1,1,1.74.11h0l-.08,1.12a.87.87,0,0,1-1.73-.12Z"/><path class="cls-13" d="M83.56,211.68l.31-1.09a.89.89,0,1,1,1.71.49h0l-.32,1.09a.88.88,0,0,1-1.7-.49Z"/><path class="cls-13" d="M84.91,208l.51-1a.91.91,0,0,1,1.61.83h0l-.52,1a.9.9,0,1,1-1.59-.83Z"/><path class="cls-13" d="M86.93,204.62l.68-.89a.91.91,0,1,1,1.45,1.11h0l-.69.89a.91.91,0,1,1-1.44-1.11Z"/><path class="cls-13" d="M89.46,201.66l.8-.79a.93.93,0,0,1,1.3,1.33h0l-.81.79a.92.92,0,0,1-1.28-1.33Z"/><path class="cls-13" d="M92.34,199.08l.89-.69a.94.94,0,1,1,1.15,1.49h0l-.89.68a.93.93,0,0,1-1.14-1.48Z"/><path class="cls-13" d="M95.47,196.83l1-.6a1,1,0,1,1,1,1.61h0l-1,.6a1,1,0,0,1-1-1.61Z"/><path class="cls-13" d="M98.77,194.87l1-.52a1,1,0,0,1,.9,1.7h0l-1,.52a1,1,0,0,1-1.29-.4A1,1,0,0,1,98.77,194.87Z"/><path class="cls-13" d="M102.2,193.17l1-.46a1,1,0,0,1,.8,1.78h0l-1,.45a1,1,0,1,1-.79-1.77Z"/><path class="cls-13" d="M105.72,191.68l1.06-.4a1,1,0,1,1,.7,1.84h0l-1.06.4a1,1,0,0,1-.69-1.84Z"/><path class="cls-13" d="M109.29,190.38l1.07-.37a1,1,0,0,1,.64,1.89h0l-1.07.35a1,1,0,0,1-.64-1.88Z"/><path class="cls-13" d="M112.89,189.19l1.08-.34a1,1,0,0,1,1.26.66,1,1,0,0,1-.66,1.27h0l-1.08.33a1,1,0,0,1-1.26-.67A1,1,0,0,1,112.89,189.19Z"/><path class="cls-13" d="M116.52,188.09l1.09-.31a1,1,0,0,1,1.26.71,1,1,0,0,1-.71,1.26h0l-1.09.3a1,1,0,0,1-.55-2Z"/><path class="cls-13" d="M120.18,187.09l1.09-.28a1,1,0,0,1,.51,2h0l-1.1.28a1,1,0,0,1-.5-2Z"/><path class="cls-13" d="M123.86,186.19l1.1-.25a1,1,0,1,1,.47,2h0l-1.1.24a1,1,0,1,1-.46-2Z"/><path class="cls-13" d="M127.56,185.37l1.11-.23a1.06,1.06,0,0,1,.42,2.08h0l-1.11.22a1.06,1.06,0,0,1-.42-2.07Z"/><path class="cls-13" d="M131.28,184.64l1.11-.2a1.07,1.07,0,1,1,.38,2.11h0l-1.12.19a1.07,1.07,0,0,1-.37-2.1Z"/><path class="cls-13" d="M135,184l1.11-.18a1.08,1.08,0,1,1,.35,2.14h0l-1.12.17A1.08,1.08,0,1,1,135,184Z"/><path class="cls-13" d="M138.75,183.41l1.12-.15a1.1,1.1,0,1,1,.31,2.17h0l-1.12.15a1.09,1.09,0,0,1-1.23-.94A1.1,1.1,0,0,1,138.75,183.41Z"/><path class="cls-13" d="M142.5,182.92l1.13-.14a1.1,1.1,0,0,1,.26,2.19h0l-1.13.13a1.1,1.1,0,0,1-.26-2.18Z"/><path class="cls-13" d="M146.27,182.49l1.12-.12a1.11,1.11,0,0,1,.22,2.21h0l-1.12.11a1.11,1.11,0,1,1-.22-2.2Z"/><path class="cls-13" d="M150,182.13l1.13-.1a1.11,1.11,0,0,1,.19,2.21h0l-1.13.1a1.11,1.11,0,0,1-.19-2.21Z"/><path class="cls-13" d="M153.8,181.82l1.13-.08a1.12,1.12,0,0,1,.16,2.23h0L154,184a1.1,1.1,0,0,1-1.19-1A1.12,1.12,0,0,1,153.8,181.82Z"/><path class="cls-13" d="M157.57,181.57l1.13-.06a1.12,1.12,0,0,1,.13,2.23h0l-1.13.06a1.11,1.11,0,0,1-1.18-1.05A1.12,1.12,0,0,1,157.57,181.57Z"/><path class="cls-13" d="M161.35,181.37l1.12-.05a1.12,1.12,0,1,1,.11,2.24h0l-1.13.05a1.12,1.12,0,0,1-.09-2.24Z"/><path class="cls-13" d="M165.12,181.21l1.13,0a1.13,1.13,0,0,1,.08,2.26h0l-1.13,0a1.13,1.13,0,1,1-.08-2.25Z"/><path class="cls-13" d="M168.9,181.1l1.13,0a1.13,1.13,0,1,1,.05,2.26h0l-1.13,0a1.13,1.13,0,0,1,0-2.26Z"/><path class="cls-13" d="M172.67,181l1.13,0a1.14,1.14,0,1,1,0,2.27h-1.13a1.13,1.13,0,0,1,0-2.26Z"/><path class="cls-13" d="M176.45,181h1.13a1.14,1.14,0,0,1,0,2.28h-1.14a1.14,1.14,0,0,1,0-2.27Z"/><path class="cls-13" d="M180.22,181h1.13a1.14,1.14,0,1,1,0,2.28h-1.13a1.14,1.14,0,0,1,0-2.28Z"/><path class="cls-13" d="M184,181h1.13a1.15,1.15,0,1,1,0,2.3H184a1.15,1.15,0,1,1,0-2.29Z"/><path class="cls-13" d="M187.76,181h1.13a1.15,1.15,0,1,1,0,2.3h-1.14a1.15,1.15,0,0,1-1.13-1.16A1.14,1.14,0,0,1,187.76,181Z"/><path class="cls-13" d="M191.53,181l1.13,0a1.16,1.16,0,1,1,0,2.31h0l-1.12,0a1.16,1.16,0,0,1,0-2.31Z"/><path class="cls-13" d="M195.3,181.05l1.13,0a1.16,1.16,0,1,1,0,2.31h-1.13a1.16,1.16,0,0,1,0-2.32Z"/><path class="cls-13" d="M199.07,181.1l1.13,0a1.17,1.17,0,0,1,0,2.33h0l-1.13,0a1.17,1.17,0,0,1,0-2.33Z"/><path class="cls-13" d="M202.83,181.16l1.13,0a1.17,1.17,0,1,1,0,2.33h0l-1.13,0a1.17,1.17,0,0,1,0-2.33Z"/><path class="cls-13" d="M206.6,181.21l1.13,0a1.17,1.17,0,0,1,0,2.34h0l-1.13,0a1.17,1.17,0,0,1,0-2.34Z"/><path class="cls-13" d="M210.36,181.26l1.13,0a1.16,1.16,0,0,1,1.16,1.18,1.18,1.18,0,0,1-1.18,1.17h0l-1.13,0a1.18,1.18,0,0,1,0-2.35Z"/><path class="cls-13" d="M214.12,181.3h1.13a1.18,1.18,0,0,1,0,2.36H214.1a1.18,1.18,0,0,1,0-2.36Z"/><path class="cls-13" d="M217.89,181.33H219a1.19,1.19,0,0,1,0,2.37h-1.14a1.18,1.18,0,0,1,0-2.36Z"/><path class="cls-13" d="M221.64,181.33h1.13a1.19,1.19,0,0,1,0,2.38h-1.13a1.19,1.19,0,0,1,0-2.38Z"/><path class="cls-13" d="M225.4,181.32h1.13a1.19,1.19,0,0,1,1.2,1.18,1.18,1.18,0,0,1-1.18,1.2h-1.13a1.19,1.19,0,1,1,0-2.38Z"/><path class="cls-13" d="M229.16,181.28l1.13,0a1.2,1.2,0,0,1,0,2.39h0l-1.13,0a1.2,1.2,0,0,1,0-2.39Z"/><path class="cls-13" d="M232.91,181.21l1.13,0a1.2,1.2,0,0,1,.06,2.4h0l-1.13,0a1.2,1.2,0,1,1-.06-2.4Z"/><path class="cls-13" d="M236.67,181.11l1.13,0a1.19,1.19,0,1,1,.08,2.38l-1.13,0a1.2,1.2,0,0,1-.09-2.39Z"/><path class="cls-13" d="M240.42,181l1.13,0a1.19,1.19,0,1,1,.1,2.38l-1.13.05a1.19,1.19,0,0,1-.11-2.38Z"/><path class="cls-13" d="M244.16,180.8l1.13-.07a1.19,1.19,0,0,1,1.25,1.12,1.17,1.17,0,0,1-1.11,1.25l-1.13.07a1.19,1.19,0,0,1-.14-2.37Z"/><path class="cls-13" d="M247.91,180.57l1.12-.08a1.18,1.18,0,1,1,.17,2.36l-1.13.08a1.18,1.18,0,1,1-.16-2.36Z"/><path class="cls-13" d="M251.65,180.29l1.12-.09a1.16,1.16,0,0,1,1.27,1.07,1.18,1.18,0,0,1-1.07,1.28l-1.12.09a1.18,1.18,0,1,1-.21-2.35Z"/><path class="cls-13" d="M255.38,180l1.12-.12a1.18,1.18,0,0,1,.24,2.34l-1.12.12a1.18,1.18,0,0,1-1.29-1.05,1.17,1.17,0,0,1,1-1.29Z"/><path class="cls-13" d="M259.1,179.56l1.13-.13a1.17,1.17,0,1,1,.27,2.32l-1.12.14a1.17,1.17,0,0,1-.28-2.33Z"/><path class="cls-13" d="M262.82,179.1l1.12-.15a1.15,1.15,0,0,1,1.31,1,1.16,1.16,0,0,1-1,1.32l-1.12.15a1.17,1.17,0,1,1-.32-2.31Z"/><path class="cls-13" d="M266.52,178.57l1.12-.18a1.16,1.16,0,0,1,.36,2.3l-1.11.18a1.17,1.17,0,0,1-1.33-1,1.15,1.15,0,0,1,1-1.33Z"/><path class="cls-13" d="M270.21,178l1.11-.2a1.16,1.16,0,1,1,.41,2.28l-1.1.2a1.16,1.16,0,1,1-.42-2.28Z"/><path class="cls-13" d="M273.89,177.27l1.11-.22a1.16,1.16,0,0,1,1.36.91,1.15,1.15,0,0,1-.9,1.35l-1.11.23a1.15,1.15,0,1,1-.46-2.26Z"/><path class="cls-13" d="M277.55,176.51l1.1-.25a1.15,1.15,0,1,1,.51,2.24l-1.1.25a1.15,1.15,0,1,1-.51-2.24Z"/><path class="cls-13" d="M281.19,175.65l1.09-.28a1.15,1.15,0,0,1,.56,2.23l-1.09.28a1.15,1.15,0,0,1-.57-2.23Z"/><path class="cls-13" d="M284.8,174.7l1.09-.3a1.14,1.14,0,1,1,.62,2.2l-1.09.31a1.14,1.14,0,1,1-.62-2.2Z"/><path class="cls-13" d="M288.39,173.67l1.08-.34a1.14,1.14,0,0,1,.67,2.18l-1.08.33a1.14,1.14,0,0,1-.67-2.17Z"/><path class="cls-13" d="M292,172.53l1.06-.36a1.14,1.14,0,0,1,.74,2.15l-1.07.36a1.14,1.14,0,0,1-.74-2.15Z"/><path class="cls-13" d="M295.46,171.3l1.06-.4a1.13,1.13,0,1,1,.79,2.12l-1.05.4a1.13,1.13,0,0,1-.8-2.12Z"/><path class="cls-13" d="M299,170l1.05-.43a1.13,1.13,0,0,1,.85,2.09l-1.05.43A1.13,1.13,0,0,1,299,170Z"/><path class="cls-13" d="M302.39,168.52l1-.46a1.13,1.13,0,1,1,.92,2.06l-1,.45a1.12,1.12,0,1,1-.91-2Z"/><path class="cls-13" d="M305.79,167l1-.48a1.12,1.12,0,0,1,1,2l-1,.49a1.12,1.12,0,1,1-1-2Z"/><path class="cls-13" d="M309.14,165.33l1-.52a1.12,1.12,0,0,1,1,2l-1,.52a1.11,1.11,0,0,1-1-2Z"/><path class="cls-13" d="M312.44,163.58l1-.55A1.11,1.11,0,1,1,314.5,165l-1,.55a1.11,1.11,0,1,1-1.09-1.94Z"/><path class="cls-13" d="M315.68,161.74l1-.58a1.11,1.11,0,0,1,1.14,1.9l-1,.58a1.11,1.11,0,0,1-1.52-.38,1.1,1.1,0,0,1,.38-1.52Z"/><path class="cls-13" d="M318.87,159.8l1-.61a1.1,1.1,0,1,1,1.18,1.86l-.95.61a1.1,1.1,0,1,1-1.19-1.86Z"/><path class="cls-13" d="M322,157.76l.94-.63a1.1,1.1,0,1,1,1.23,1.82l-.93.63a1.09,1.09,0,0,1-1.53-.29,1.11,1.11,0,0,1,.29-1.53Z"/><path class="cls-13" d="M325.08,155.64,326,155a1.09,1.09,0,0,1,1.27,1.77l-.92.66a1.09,1.09,0,0,1-1.28-1.76Z"/><path class="cls-13" d="M328.09,153.43l.9-.68a1.07,1.07,0,0,1,1.31,1.7l-.9.69a1.08,1.08,0,0,1-1.32-1.7Z"/><path class="cls-13" d="M331,151.14l.87-.71a1.07,1.07,0,0,1,1.5.15,1.06,1.06,0,0,1-.15,1.49l-.88.72a1.07,1.07,0,0,1-1.35-1.65Z"/><path class="cls-13" d="M333.91,148.76l.86-.74a1.05,1.05,0,0,1,1.38,1.59l-.86.74a1.05,1.05,0,0,1-1.38-1.59Z"/><path class="cls-13" d="M336.72,146.29l.84-.76a1,1,0,0,1,1.4,1.53l-.83.77a1,1,0,0,1-1.41-1.53Z"/><path class="cls-13" d="M339.46,143.74l.81-.78a1,1,0,0,1,1.45,0,1,1,0,0,1,0,1.45l-.81.79a1,1,0,0,1-1.44-1.47Z"/><path class="cls-13" d="M342.11,141.12l.79-.81a1,1,0,0,1,1.44,0,1,1,0,0,1,0,1.43l-.78.81a1,1,0,1,1-1.47-1.41Z"/><path class="cls-13" d="M344.69,138.41l.76-.83a1,1,0,0,1,1.42-.06,1,1,0,0,1,.07,1.41l-.76.84a1,1,0,0,1-1.42.07,1,1,0,0,1-.07-1.42Z"/><path class="cls-13" d="M347.19,135.63l.74-.85a1,1,0,0,1,1.5,1.29l-.73.86a1,1,0,0,1-1.52-1.29Z"/><path class="cls-13" d="M349.6,132.78l.71-.87a1,1,0,0,1,1.53,1.23l-.71.88a1,1,0,0,1-1.53-1.23Z"/><path class="cls-13" d="M351.93,129.86l.68-.9a1,1,0,0,1,1.54,1.17l-.68.9a1,1,0,0,1-1.55-1.17Z"/><path class="cls-13" d="M354.16,126.86l.66-.91a1,1,0,0,1,1.56,1.1l-.66.93a1,1,0,1,1-1.56-1.11Z"/><path class="cls-13" d="M356.31,123.8l.63-.93a.94.94,0,0,1,1.57,1l-.63.94a.95.95,0,0,1-1.58-1Z"/><path class="cls-13" d="M358.36,120.68l.6-1a.93.93,0,0,1,1.58,1l-.6,1a.93.93,0,0,1-1.28.3.94.94,0,0,1-.31-1.29Z"/><path class="cls-13" d="M360.31,117.49l.57-1a.92.92,0,0,1,1.59.92l-.56,1a.92.92,0,0,1-1.6-.92Z"/><path class="cls-13" d="M362.17,114.25l.54-1a.91.91,0,0,1,1.6.86l-.54,1a.91.91,0,1,1-1.6-.87Z"/><path class="cls-13" d="M363.93,111l.51-1a.9.9,0,0,1,1.6.81l-.51,1a.9.9,0,1,1-1.6-.81Z"/><path class="cls-13" d="M365.59,107.6l.48-1a.89.89,0,0,1,1.18-.42.87.87,0,0,1,.42,1.17l-.47,1a.89.89,0,0,1-1.18.43.88.88,0,0,1-.43-1.18Z"/><path class="cls-13" d="M367.16,104.2l.45-1a.86.86,0,1,1,1.58.68l-.44,1a.87.87,0,1,1-1.6-.68Z"/><path class="cls-13" d="M368.62,100.76l.43-1.05a.83.83,0,0,1,1.09-.46.84.84,0,0,1,.47,1.09l-.41,1a.85.85,0,1,1-1.58-.62Z"/><path class="cls-13" d="M370,97.28l.39-1.06a.82.82,0,0,1,1.55.56l-.39,1.06a.82.82,0,0,1-1.55-.55Z"/><path class="cls-13" d="M371.26,93.76l.36-1.08a.8.8,0,0,1,1.51.51l-.35,1.07a.8.8,0,0,1-1,.52.82.82,0,0,1-.52-1Z"/><path class="cls-13" d="M372.42,90.2l.33-1.08a.76.76,0,0,1,1-.52.79.79,0,0,1,.52,1l-.32,1.09a.79.79,0,0,1-1.51-.45Z"/><path class="cls-13" d="M373.47,86.6l.3-1.09a.76.76,0,0,1,1.46.39l-.29,1.1a.75.75,0,0,1-.93.54.76.76,0,0,1-.54-.93Z"/><path class="cls-13" d="M374.42,83l.27-1.1a.73.73,0,0,1,.88-.54.75.75,0,0,1,.55.88l-.26,1.1a.74.74,0,1,1-1.44-.33Z"/><path class="cls-13" d="M375.26,79.33l.24-1.1a.71.71,0,0,1,1.39.28l-.22,1.11a.72.72,0,0,1-.84.57.73.73,0,0,1-.57-.85Z"/><path class="cls-13" d="M376,75.66l.2-1.11a.69.69,0,0,1,1.36.24l-.18,1.11a.7.7,0,0,1-.81.57.69.69,0,0,1-.57-.8Z"/><path class="cls-13" d="M376.62,72l.17-1.12a.67.67,0,1,1,1.33.19L378,72.16a.68.68,0,0,1-1.35-.19Z"/><path class="cls-13" d="M377.14,68.26l.14-1.13a.64.64,0,0,1,.72-.56.66.66,0,0,1,.57.71l-.12,1.12a.68.68,0,0,1-.73.59.66.66,0,0,1-.58-.73Z"/><path class="cls-13" d="M377.55,64.53l.1-1.12a.61.61,0,0,1,.68-.57.62.62,0,0,1,.57.67l-.09,1.13a.63.63,0,1,1-1.26-.1Z"/><path class="cls-13" d="M377.84,60.8l.07-1.13a.61.61,0,0,1,1.21.06l-.05,1.13a.62.62,0,0,1-.65.58.61.61,0,0,1-.58-.64Z"/><path class="cls-13" d="M378,57.05l0-1.13a.59.59,0,0,1,1.18,0l0,1.13a.6.6,0,0,1-1.19,0Z"/><path class="cls-13" d="M378.09,53.3V52.19a.57.57,0,0,1,.56-.57.57.57,0,0,1,.57.56V53.3a.57.57,0,0,1-1.14,0Z"/><path class="cls-56" d="M86.26,217.43a.67.67,0,0,1-.3-.08.64.64,0,0,1-.27-.86l29-55.88a.65.65,0,0,1,.87-.27.64.64,0,0,1,.27.86l-29,55.88A.65.65,0,0,1,86.26,217.43Z"/><path class="cls-57" d="M100,217.89a.74.74,0,0,1-.25,0,.65.65,0,0,1-.34-.35.62.62,0,0,1,0-.5l24.76-56.89a.63.63,0,0,1,.84-.33.63.63,0,0,1,.33.84l-24.76,56.9A.64.64,0,0,1,100,217.89Z"/><path class="cls-58" d="M120.09,171.44H110a.4.4,0,0,1,0-.8h10a.4.4,0,1,1,0,.8Z"/><path class="cls-59" d="M117.4,177.66h-10a.4.4,0,0,1,0-.8h10a.4.4,0,0,1,0,.8Z"/><path class="cls-60" d="M113.86,185.11H103.18a.4.4,0,0,1,0-.8h10.68a.4.4,0,0,1,0,.8Z"/><path class="cls-61" d="M122.76,165.4h-9.59a.39.39,0,0,1-.4-.4.4.4,0,0,1,.4-.4h9.59a.4.4,0,0,1,.4.4A.39.39,0,0,1,122.76,165.4Z"/><path class="cls-62" d="M110.34,193.69H98.73a.41.41,0,0,1,0-.81h11.61a.41.41,0,0,1,0,.81Z"/><path class="cls-63" d="M107.61,200.34H95.16a.41.41,0,0,1,0-.81h12.45a.41.41,0,0,1,0,.81Z"/><path class="cls-64" d="M128.88,142.23a1.38,1.38,0,0,1,1.24-.32c.8.14,1.52.42,2,0s.67.14.67.14l-1.49,1.14Z"/><path class="cls-11" d="M105.16,192.25a14.6,14.6,0,0,0-4-2l-1.66,0a4.13,4.13,0,0,0-.69,2,4.36,4.36,0,0,0,2,.4A15.82,15.82,0,0,0,105.16,192.25Z"/><path class="cls-11" d="M105.16,192.25a15.82,15.82,0,0,1-4.41.39,4.36,4.36,0,0,1-2-.4.69.69,0,0,0,0,.13.48.48,0,0,0,.34.53,23.36,23.36,0,0,0,6.14.24.35.35,0,0,0,.25-.56A2.57,2.57,0,0,0,105.16,192.25Z"/><path class="cls-65" d="M99.6,188.85v1.31a.54.54,0,0,0,.43.53,2.07,2.07,0,0,0,.93,0,.53.53,0,0,0,.38-.44l.17-1.41Z"/><path class="cls-11" d="M108,182.09c-.52-1.14-.37-1.66-1.39-1.54a1.31,1.31,0,0,0-.31.06,1,1,0,0,0,0,.6,11.48,11.48,0,0,0,1.78,3.25,1.12,1.12,0,0,0,.86.42l1.12,0A7.11,7.11,0,0,1,108,182.09Z"/><path class="cls-11" d="M110.13,183.2c-.87-.6-1.19-3.08-1.19-3.08l-1.33-.68-1,.73a.93.93,0,0,0-.32.44,1.31,1.31,0,0,1,.31-.06c1-.12.87.4,1.39,1.54a7.11,7.11,0,0,0,2.06,2.81h.78a.41.41,0,0,0,.33-.66A4.86,4.86,0,0,0,110.13,183.2Z"/><path class="cls-66" d="M108.42,178.2l-.81,1.24a.38.38,0,0,0,.08.49,1.21,1.21,0,0,0,1.25.19l1.29-.88Z"/><path class="cls-11" d="M102.4,165a34.8,34.8,0,0,0-1,5.36c-.62,4.17-1,7.21-1.35,8.86a71.58,71.58,0,0,0-.76,9.36.57.57,0,0,0,.59.56l1.58-.05a.51.51,0,0,0,.49-.42c.41-2.46,3.3-15.13,5-18.77,0,0,4.63,1.31,5.78,1.84,0,0-1.49.59-4.55,6.33a7.85,7.85,0,0,0,2.26,1.26l7.4-6.13c.7-.58,1.35-1.58-.46-3.4s-7.34-4.7-7.34-4.7Z"/><path class="cls-67" d="M106.7,170.07h0l-1.65-.63a2.1,2.1,0,0,1-1.18-1.86.09.09,0,0,1,.08-.08.08.08,0,0,1,.08.08,1.92,1.92,0,0,0,1.09,1.71l1.65.64a.08.08,0,0,1,0,.1A.1.1,0,0,1,106.7,170.07Z"/><path class="cls-68" d="M117.37,164.68s1.74-1.31,2.53-1.06a3.21,3.21,0,0,1,1.37,1h-1.74s-.42.8,0,.8h.61S118.51,167.12,117.37,164.68Z"/><path class="cls-69" d="M114.42,152.27s2,8.07,4.81,11.31a3.82,3.82,0,0,1-1.86,1.1s-4.24-3.71-5.54-6.3S114.42,152.27,114.42,152.27Z"/><path class="cls-70" d="M111.7,144.59l-2,3.71h3.2a6.56,6.56,0,0,1,1.1-2.71Z"/><path class="cls-71" d="M114.77,140.18a14.6,14.6,0,0,1,1.08,3.55c.07,1.23.34,2-1.08,2.27a3,3,0,0,1-3.26-1.68s-1-1.88-.78-2.65S114.77,140.18,114.77,140.18Z"/><path class="cls-11" d="M112,143.44h.18s-.74-1.51-.09-1.77,3.21-.79,3.77-1.7a1.7,1.7,0,0,0-.66-2.33.1.1,0,0,0-.12,0l-.06.11a.1.1,0,0,1-.18,0h0a.1.1,0,0,0-.17,0,2.62,2.62,0,0,1-1.86.94c-1.74.32-2.9,1-2.93,2.24a.1.1,0,0,1-.15.08c-.13-.08-.33-.12-.61.11-.48.41-.28,1.45.77,2.31a.1.1,0,0,1,0,.16c-.19.12-.48.42.26.81a2,2,0,0,0,1.36.32.11.11,0,0,0,.08-.1l-.07-1.07a.1.1,0,0,1,.1-.11Z"/><path class="cls-72" d="M112,143.67s-.38-1.49-1.05-1.07.34,1.67.88,1.72Z"/><path class="cls-73" d="M127.85,143s.29-1.25,1.19-1.08S132,143.2,132.5,143s1.19-.7,1.53-.52l-.6.75s1.56-.9,1.82-.35l-2.59,1.46S128.87,144,127.85,143Z"/><path class="cls-74" d="M109.22,148s.91-1.49,6.82-1.12c3.07.19,10-2.49,11.52-3.84a2.93,2.93,0,0,1,1.93,1s-6.39,6.74-13.83,7.6c0,0-5.65,11.64-5.61,13.53a9.29,9.29,0,0,1-7.9.64,20.5,20.5,0,0,1,1.64-7.7A49.86,49.86,0,0,1,109.22,148Z"/><path class="cls-75" d="M111.9,152a.09.09,0,0,1-.08-.08.08.08,0,0,1,.07-.08s2.87-.24,3.31-.29a.08.08,0,0,1,.09.07.07.07,0,0,1-.07.09c-.44,0-3.28.28-3.31.29Z"/></g></g></svg>