<svg xmlns="http://www.w3.org/2000/svg" xmlns:xlink="http://www.w3.org/1999/xlink" viewBox="0 0 449.8 285.21"><defs><style>.cls-1{mask:url(#mask);filter:url(#luminosity-noclip-9);}.cls-10,.cls-12,.cls-14,.cls-16,.cls-19,.cls-2,.cls-4,.cls-6,.cls-8{mix-blend-mode:multiply;}.cls-2{fill:url(#radial-gradient);}.cls-3{mask:url(#mask-2);filter:url(#luminosity-noclip-14);}.cls-4{fill:url(#radial-gradient-2);}.cls-5{mask:url(#mask-3);filter:url(#luminosity-noclip-15);}.cls-6{fill:url(#radial-gradient-3);}.cls-7{mask:url(#mask-4);filter:url(#luminosity-noclip-16);}.cls-8{fill:url(#radial-gradient-4);}.cls-9{mask:url(#mask-5);filter:url(#luminosity-noclip-10);}.cls-10{fill:url(#radial-gradient-5);}.cls-11{mask:url(#mask-6);filter:url(#luminosity-noclip-11);}.cls-12{fill:url(#radial-gradient-6);}.cls-13{mask:url(#mask-7);filter:url(#luminosity-noclip-12);}.cls-14{fill:url(#radial-gradient-7);}.cls-15{mask:url(#mask-8);filter:url(#luminosity-noclip-13);}.cls-16{fill:url(#radial-gradient-8);}.cls-17,.cls-22,.cls-27,.cls-40,.cls-42,.cls-43,.cls-46{fill:#fff;}.cls-17{opacity:0.57;}.cls-18{isolation:isolate;}.cls-19{fill:#f9f9fb;}.cls-20{opacity:0.79;}.cls-21{fill:url(#New_Gradient_Swatch);}.cls-22{opacity:0.86;}.cls-23,.cls-42{opacity:0.37;}.cls-24{fill:url(#linear-gradient);}.cls-25{fill:url(#linear-gradient-2);}.cls-26{fill:url(#linear-gradient-3);}.cls-27{opacity:0.69;}.cls-28{fill:url(#New_Gradient_Swatch-2);}.cls-29{fill:url(#linear-gradient-4);}.cls-30{fill:url(#linear-gradient-5);}.cls-31{fill:url(#linear-gradient-6);}.cls-32{fill:url(#linear-gradient-7);}.cls-33{fill:url(#linear-gradient-8);}.cls-34{fill:url(#linear-gradient-9);}.cls-35{fill:url(#linear-gradient-10);}.cls-36{fill:url(#linear-gradient-11);}.cls-37{fill:url(#New_Gradient_Swatch-3);}.cls-38{fill:url(#linear-gradient-12);}.cls-39{fill:#ffc902;}.cls-41{fill:#1b1464;}.cls-43{opacity:0.73;}.cls-44{fill:#ff13e6;}.cls-45{opacity:0.53;}.cls-46{opacity:0.44;}.cls-47{fill:url(#linear-gradient-13);}.cls-48{clip-path:url(#clip-path);}.cls-49{clip-path:url(#clip-path-2);}.cls-50{clip-path:url(#clip-path-3);}.cls-51{opacity:0.48;}.cls-52{fill:url(#linear-gradient-14);}.cls-53{fill:url(#New_Gradient_Swatch-4);}.cls-54{fill:url(#linear-gradient-15);}.cls-55{fill:url(#linear-gradient-16);}.cls-56{fill:url(#linear-gradient-17);}.cls-57{fill:url(#linear-gradient-18);}.cls-58{fill:url(#linear-gradient-19);}.cls-59{fill:url(#linear-gradient-20);}.cls-60{fill:url(#linear-gradient-21);}.cls-61{fill:url(#New_Gradient_Swatch-5);}.cls-62{fill:url(#linear-gradient-22);}.cls-63{fill:url(#linear-gradient-23);}.cls-64{fill:url(#linear-gradient-24);}.cls-65{fill:url(#New_Gradient_Swatch-6);}.cls-66{fill:url(#New_Gradient_Swatch-7);}.cls-67{fill:url(#linear-gradient-25);}.cls-68{fill:url(#linear-gradient-26);}.cls-69{fill:url(#linear-gradient-27);}.cls-70{fill:url(#linear-gradient-28);}.cls-71{fill:url(#linear-gradient-29);}.cls-72{fill:url(#linear-gradient-30);}.cls-73{fill:url(#New_Gradient_Swatch-8);}.cls-74{fill:url(#linear-gradient-31);}.cls-75{fill:url(#linear-gradient-32);}.cls-76{fill:url(#linear-gradient-33);}.cls-77{fill:url(#linear-gradient-34);}.cls-78{fill:url(#linear-gradient-35);}.cls-79{fill:url(#linear-gradient-36);}.cls-80{fill:url(#linear-gradient-37);}.cls-81{fill:url(#linear-gradient-38);}.cls-82{fill:url(#linear-gradient-39);}.cls-83{fill:url(#linear-gradient-40);}.cls-84{fill:url(#linear-gradient-41);}.cls-85{fill:url(#linear-gradient-42);}.cls-86{fill:url(#linear-gradient-43);}.cls-87{fill:url(#linear-gradient-44);}.cls-88{fill:url(#linear-gradient-45);}.cls-89{fill:url(#linear-gradient-46);}.cls-90{fill:url(#linear-gradient-47);}.cls-91{fill:url(#linear-gradient-48);}.cls-92{fill:url(#linear-gradient-49);}.cls-93{fill:url(#linear-gradient-50);}.cls-94{fill:url(#linear-gradient-51);}.cls-95{fill:url(#linear-gradient-52);}.cls-96{fill:url(#linear-gradient-53);}.cls-97{fill:url(#linear-gradient-54);}.cls-98{fill:url(#linear-gradient-55);}.cls-99{opacity:0.07;mix-blend-mode:screen;}.cls-100{mask:url(#mask-9);}.cls-101,.cls-103,.cls-105,.cls-107,.cls-109,.cls-111,.cls-113,.cls-115{mix-blend-mode:soft-light;}.cls-101{fill:url(#radial-gradient-9);}.cls-102{mask:url(#mask-10);}.cls-103{fill:url(#radial-gradient-10);}.cls-104{mask:url(#mask-11);}.cls-105{fill:url(#radial-gradient-11);}.cls-106{mask:url(#mask-12);}.cls-107{fill:url(#radial-gradient-12);}.cls-108{mask:url(#mask-13);}.cls-109{fill:url(#radial-gradient-13);}.cls-110{mask:url(#mask-14);}.cls-111{fill:url(#radial-gradient-14);}.cls-112{mask:url(#mask-15);}.cls-113{fill:url(#radial-gradient-15);}.cls-114{mask:url(#mask-16);}.cls-115{fill:url(#radial-gradient-16);}.cls-116{fill:url(#New_Gradient_Swatch-9);}.cls-117{fill:url(#New_Gradient_Swatch-10);}.cls-118{fill:url(#New_Gradient_Swatch-11);}.cls-119{fill:url(#New_Gradient_Swatch-12);}.cls-120{filter:url(#luminosity-noclip-8);}.cls-121{filter:url(#luminosity-noclip-7);}.cls-122{filter:url(#luminosity-noclip-6);}.cls-123{filter:url(#luminosity-noclip-5);}.cls-124{filter:url(#luminosity-noclip-4);}.cls-125{filter:url(#luminosity-noclip-3);}.cls-126{filter:url(#luminosity-noclip-2);}.cls-127{filter:url(#luminosity-noclip);}</style><filter id="luminosity-noclip" x="399.42" y="-8320.47" width="50.37" height="32766" filterUnits="userSpaceOnUse" color-interpolation-filters="sRGB"><feFlood flood-color="#fff" result="bg"/><feBlend in="SourceGraphic" in2="bg"/></filter><mask id="mask" x="399.42" y="-8320.47" width="50.37" height="32766" maskUnits="userSpaceOnUse"><g class="cls-127"/></mask><radialGradient id="radial-gradient" cx="424.61" cy="239.41" r="25.19" gradientUnits="userSpaceOnUse"><stop offset="0.19" stop-color="#fff"/><stop offset="0.8"/></radialGradient><filter id="luminosity-noclip-2" x="397.4" y="-8320.47" width="3.25" height="32766" filterUnits="userSpaceOnUse" color-interpolation-filters="sRGB"><feFlood flood-color="#fff" result="bg"/><feBlend in="SourceGraphic" in2="bg"/></filter><mask id="mask-2" x="397.4" y="-8320.47" width="3.25" height="32766" maskUnits="userSpaceOnUse"><g class="cls-126"/></mask><radialGradient id="radial-gradient-2" cx="392.25" cy="40.21" r="1.62" gradientTransform="translate(5.68 4.8)" xlink:href="#radial-gradient"/><filter id="luminosity-noclip-3" x="220.58" y="-8320.47" width="3.25" height="32766" filterUnits="userSpaceOnUse" color-interpolation-filters="sRGB"><feFlood flood-color="#fff" result="bg"/><feBlend in="SourceGraphic" in2="bg"/></filter><mask id="mask-3" x="220.58" y="-8320.47" width="3.25" height="32766" maskUnits="userSpaceOnUse"><g class="cls-125"/></mask><radialGradient id="radial-gradient-3" cx="215.92" cy="240.46" r="1.62" gradientTransform="translate(5.68 4.8)" xlink:href="#radial-gradient"/><filter id="luminosity-noclip-4" x="94.48" y="-8320.47" width="3.25" height="32766" filterUnits="userSpaceOnUse" color-interpolation-filters="sRGB"><feFlood flood-color="#fff" result="bg"/><feBlend in="SourceGraphic" in2="bg"/></filter><mask id="mask-4" x="94.48" y="-8320.47" width="3.25" height="32766" maskUnits="userSpaceOnUse"><g class="cls-124"/></mask><radialGradient id="radial-gradient-4" cx="90.17" cy="133.84" r="1.62" gradientTransform="translate(5.68 4.8)" xlink:href="#radial-gradient"/><filter id="luminosity-noclip-5" x="221.91" y="-8320.47" width="63.15" height="32766" filterUnits="userSpaceOnUse" color-interpolation-filters="sRGB"><feFlood flood-color="#fff" result="bg"/><feBlend in="SourceGraphic" in2="bg"/></filter><mask id="mask-5" x="221.91" y="-8320.47" width="63.15" height="32766" maskUnits="userSpaceOnUse"><g class="cls-123"/></mask><radialGradient id="radial-gradient-5" cx="253.48" cy="217.61" r="31.57" gradientTransform="translate(427.68 -67.46) rotate(80.78)" xlink:href="#radial-gradient"/><filter id="luminosity-noclip-6" x="17.28" y="-8320.47" width="63.15" height="32766" filterUnits="userSpaceOnUse" color-interpolation-filters="sRGB"><feFlood flood-color="#fff" result="bg"/><feBlend in="SourceGraphic" in2="bg"/></filter><mask id="mask-6" x="17.28" y="-8320.47" width="63.15" height="32766" maskUnits="userSpaceOnUse"><g class="cls-122"/></mask><radialGradient id="radial-gradient-6" cx="48.85" cy="53.88" r="31.57" gradientTransform="translate(94.21 -2.97) rotate(80.78)" xlink:href="#radial-gradient"/><filter id="luminosity-noclip-7" x="68.43" y="-8320.47" width="3.25" height="32766" filterUnits="userSpaceOnUse" color-interpolation-filters="sRGB"><feFlood flood-color="#fff" result="bg"/><feBlend in="SourceGraphic" in2="bg"/></filter><mask id="mask-7" x="68.43" y="-8320.47" width="3.25" height="32766" maskUnits="userSpaceOnUse"><g class="cls-121"/></mask><radialGradient id="radial-gradient-7" cx="64.2" cy="75.75" r="1.62" gradientTransform="translate(5.68 4.8)" xlink:href="#radial-gradient"/><filter id="luminosity-noclip-8" x="245.94" y="-8320.47" width="3.25" height="32766" filterUnits="userSpaceOnUse" color-interpolation-filters="sRGB"><feFlood flood-color="#fff" result="bg"/><feBlend in="SourceGraphic" in2="bg"/></filter><mask id="mask-8" x="245.94" y="-8320.47" width="3.25" height="32766" maskUnits="userSpaceOnUse"><g class="cls-120"/></mask><radialGradient id="radial-gradient-8" cx="241.21" cy="17.66" r="1.62" gradientTransform="translate(5.68 4.8)" xlink:href="#radial-gradient"/><linearGradient id="New_Gradient_Swatch" x1="2187.36" y1="-1903.18" x2="2281.86" y2="-1903.18" gradientTransform="translate(1396.36 2693.67) rotate(-76.47)" gradientUnits="userSpaceOnUse"><stop offset="0" stop-color="#ff13e6"/><stop offset="0.09" stop-color="#ff19df"/><stop offset="0.23" stop-color="#ff29cb"/><stop offset="0.4" stop-color="#ff43aa"/><stop offset="0.59" stop-color="#ff687c"/><stop offset="0.8" stop-color="#ff9642"/><stop offset="1" stop-color="#ffc902"/></linearGradient><linearGradient id="linear-gradient" x1="2656.55" y1="-1715.68" x2="2759.65" y2="-1715.68" gradientTransform="translate(128.32 3288.2) rotate(-57.89)" gradientUnits="userSpaceOnUse"><stop offset="0" stop-color="#53d8ff"/><stop offset="1" stop-color="#3840f7"/></linearGradient><linearGradient id="linear-gradient-2" x1="-1016.48" y1="127.65" x2="-938.03" y2="227.37" gradientTransform="matrix(-1, 0.04, 0.04, 1, -577.59, 11.61)" xlink:href="#linear-gradient"/><linearGradient id="linear-gradient-3" x1="-988.06" y1="153.51" x2="-880.71" y2="319.85" gradientTransform="matrix(-1, 0.04, 0.04, 1, -577.59, 11.61)" xlink:href="#linear-gradient"/><linearGradient id="New_Gradient_Swatch-2" x1="-945.68" y1="173.31" x2="-981.41" y2="222.99" gradientTransform="matrix(-1, 0.04, 0.04, 1.03, -579.24, -35.07)" xlink:href="#New_Gradient_Swatch"/><linearGradient id="linear-gradient-4" x1="-986.05" y1="243.93" x2="-943.04" y2="243.93" gradientTransform="matrix(-1, 0.04, 0.04, 1.03, -579.24, -35.07)" xlink:href="#linear-gradient"/><linearGradient id="linear-gradient-5" x1="-984.96" y1="254.76" x2="-942.95" y2="254.76" gradientTransform="matrix(-1, 0.04, 0.04, 1.03, -579.24, -35.07)" xlink:href="#linear-gradient"/><linearGradient id="linear-gradient-6" x1="-984.33" y1="263.85" x2="-941.28" y2="263.85" gradientTransform="matrix(-1, 0.04, 0.04, 1.03, -579.24, -35.07)" xlink:href="#linear-gradient"/><linearGradient id="linear-gradient-7" x1="-849.9" y1="173.12" x2="-896.75" y2="181.88" gradientTransform="matrix(-1, 0.04, 0.04, 1, -577.59, 11.61)" xlink:href="#linear-gradient"/><linearGradient id="linear-gradient-8" x1="-929.62" y1="202.67" x2="-745.45" y2="63.98" gradientTransform="matrix(-1, 0.04, 0.04, 1, -577.59, 11.61)" xlink:href="#linear-gradient"/><linearGradient id="linear-gradient-9" x1="-933.35" y1="169.12" x2="-882.99" y2="169.12" gradientTransform="matrix(-1, 0.04, 0.04, 1, -577.59, 11.61)" xlink:href="#linear-gradient"/><linearGradient id="linear-gradient-10" x1="-928.16" y1="214.23" x2="-882.99" y2="214.23" gradientTransform="matrix(-1, 0.04, 0.04, 1, -577.59, 11.61)" xlink:href="#linear-gradient"/><linearGradient id="linear-gradient-11" x1="-928.19" y1="223.05" x2="-882.95" y2="223.05" gradientTransform="matrix(-1, 0.04, 0.04, 1, -577.59, 11.61)" xlink:href="#linear-gradient"/><linearGradient id="New_Gradient_Swatch-3" x1="361.18" y1="41.9" x2="310.28" y2="157.46" gradientTransform="matrix(1, 0, 0, 1, 0, 0)" xlink:href="#New_Gradient_Swatch"/><linearGradient id="linear-gradient-12" x1="710.59" y1="452.13" x2="693.85" y2="346.11" gradientTransform="translate(-491.77 6.94) rotate(-20.51)" xlink:href="#linear-gradient"/><linearGradient id="linear-gradient-13" x1="170.34" y1="198.97" x2="161.01" y2="227.17" gradientUnits="userSpaceOnUse"><stop offset="0" stop-color="#cb236d"/><stop offset="1" stop-color="#4c246d"/></linearGradient><clipPath id="clip-path"><path class="cls-17" d="M227.26,177.34a15.9,15.9,0,1,0,15.89,15.89A15.89,15.89,0,0,0,227.26,177.34Zm0,24.95a9.06,9.06,0,1,1,9.06-9.06A9.06,9.06,0,0,1,227.26,202.29Z"/></clipPath><clipPath id="clip-path-2"><path class="cls-17" d="M266,177.34a15.9,15.9,0,1,0,15.89,15.89A15.89,15.89,0,0,0,266,177.34Zm0,24.95a9.06,9.06,0,1,1,9.06-9.06A9.06,9.06,0,0,1,266,202.29Z"/></clipPath><clipPath id="clip-path-3"><path class="cls-17" d="M304.74,177.34a15.9,15.9,0,1,0,15.89,15.89A15.89,15.89,0,0,0,304.74,177.34Zm0,24.95a9.06,9.06,0,1,1,9.06-9.06A9.06,9.06,0,0,1,304.74,202.29Z"/></clipPath><linearGradient id="linear-gradient-14" x1="8287.32" y1="213.47" x2="8167.56" y2="291.1" gradientTransform="matrix(-1, 0, 0, 1, 8631.12, 0)" xlink:href="#linear-gradient"/><linearGradient id="New_Gradient_Swatch-4" x1="378.92" y1="160.29" x2="362.31" y2="234.61" gradientTransform="matrix(1, 0, 0, 1, 0, 0)" xlink:href="#New_Gradient_Swatch"/><linearGradient id="linear-gradient-15" x1="346.69" y1="224.44" x2="342.43" y2="295.2" gradientTransform="matrix(1, 0, 0, 1, 0, 0)" xlink:href="#linear-gradient"/><linearGradient id="linear-gradient-16" x1="85.12" y1="251.25" x2="52.93" y2="276.53" gradientTransform="matrix(1, 0, 0, 1, 0, 0)" xlink:href="#linear-gradient"/><linearGradient id="linear-gradient-17" x1="51.1" y1="200.99" x2="62.9" y2="200.99" gradientUnits="userSpaceOnUse"><stop offset="0" stop-color="#f9b776"/><stop offset="1" stop-color="#f47960"/></linearGradient><linearGradient id="linear-gradient-18" x1="65.43" y1="251.62" x2="63.74" y2="266.37" xlink:href="#linear-gradient-17"/><linearGradient id="linear-gradient-19" x1="90.83" y1="258.54" x2="58.65" y2="283.81" gradientTransform="matrix(1, 0, 0, 1, 0, 0)" xlink:href="#linear-gradient"/><linearGradient id="linear-gradient-20" x1="79.19" y1="253.2" x2="77.5" y2="267.95" xlink:href="#linear-gradient-17"/><linearGradient id="linear-gradient-21" x1="99.27" y1="185.75" x2="45.22" y2="269.63" gradientUnits="userSpaceOnUse"><stop offset="0" stop-color="#7c27dd"/><stop offset="1" stop-color="#2b41d9"/></linearGradient><linearGradient id="New_Gradient_Swatch-5" x1="92.14" y1="158.28" x2="-22.61" y2="278.6" gradientTransform="matrix(1, 0, 0, 1, 0, 0)" xlink:href="#New_Gradient_Swatch"/><linearGradient id="linear-gradient-22" x1="69.19" y1="156.06" x2="62.26" y2="186.02" xlink:href="#linear-gradient-17"/><linearGradient id="linear-gradient-23" x1="-1794.26" y1="-1101.41" x2="-1805.71" y2="-1086.27" gradientTransform="translate(2099.82 -400.69) rotate(-46.73)" xlink:href="#linear-gradient-17"/><linearGradient id="linear-gradient-24" x1="-1811.03" y1="-1089.42" x2="-1801.85" y2="-1098.84" gradientTransform="translate(2099.82 -400.69) rotate(-46.73)" xlink:href="#linear-gradient-17"/><linearGradient id="New_Gradient_Swatch-6" x1="63.73" y1="162.59" x2="50.37" y2="187.13" gradientTransform="matrix(1, 0, 0, 1, 0, 0)" xlink:href="#New_Gradient_Swatch"/><linearGradient id="New_Gradient_Swatch-7" x1="97.58" y1="162.8" x2="-18.15" y2="284.14" gradientTransform="matrix(1, 0, 0, 1, 0, 0)" xlink:href="#New_Gradient_Swatch"/><linearGradient id="linear-gradient-25" x1="110.91" y1="145.36" x2="103.93" y2="168.18" xlink:href="#linear-gradient-17"/><linearGradient id="linear-gradient-26" x1="113.63" y1="146.19" x2="106.65" y2="169.01" xlink:href="#linear-gradient-17"/><linearGradient id="linear-gradient-27" x1="10568.25" y1="202.47" x2="10538.07" y2="219.7" gradientTransform="matrix(-1, 0, 0, 1, 10835.46, 0)" xlink:href="#linear-gradient-17"/><linearGradient id="linear-gradient-28" x1="-4109.46" y1="-3192.12" x2="-4111.78" y2="-3156.6" gradientTransform="translate(5367.35 1271.21) rotate(-26.18)" xlink:href="#linear-gradient-13"/><linearGradient id="linear-gradient-29" x1="10565.33" y1="206.77" x2="10668.57" y2="142.14" gradientTransform="matrix(-1, 0, 0, 1, 10835.46, 0)" xlink:href="#linear-gradient-17"/><linearGradient id="linear-gradient-30" x1="-3144.1" y1="-4480.6" x2="-3146.42" y2="-4445.08" gradientTransform="matrix(0.79, -0.61, 0.61, 0.79, 5508.44, 1836.18)" xlink:href="#linear-gradient-13"/><linearGradient id="New_Gradient_Swatch-8" x1="10533.77" y1="169.58" x2="10462.63" y2="238.2" gradientTransform="matrix(-1, 0, 0, 1, 10835.46, 0)" xlink:href="#New_Gradient_Swatch"/><linearGradient id="linear-gradient-31" x1="-5350.12" y1="192.55" x2="-5320.06" y2="192.55" gradientTransform="translate(5670.18)" xlink:href="#linear-gradient-17"/><linearGradient id="linear-gradient-32" x1="-7143.48" y1="-319.52" x2="-7142.01" y2="-330.27" gradientTransform="translate(7455.65 -15.32) rotate(-4.11)" xlink:href="#linear-gradient-17"/><linearGradient id="linear-gradient-33" x1="-8923.57" y1="-1899.79" x2="-8909.73" y2="-1924.41" gradientTransform="matrix(0.97, -0.25, 0.25, 0.97, 9416.72, -251.92)" xlink:href="#linear-gradient-17"/><linearGradient id="linear-gradient-34" x1="-8920.62" y1="-1898.13" x2="-8906.79" y2="-1922.76" gradientTransform="matrix(0.97, -0.25, 0.25, 0.97, 9416.72, -251.92)" xlink:href="#linear-gradient-17"/><linearGradient id="linear-gradient-35" x1="-5402.94" y1="62.28" x2="-5418.67" y2="66.59" gradientTransform="translate(5712.07 -136.91) rotate(-2.83)" xlink:href="#linear-gradient"/><linearGradient id="linear-gradient-36" x1="-5379.53" y1="184.98" x2="-5384.59" y2="192.6" gradientTransform="translate(5670.18)" xlink:href="#linear-gradient"/><linearGradient id="linear-gradient-37" x1="-1380.43" y1="280.56" x2="-1365.79" y2="280.56" gradientTransform="matrix(-1, 0, 0, 1, -1151.03, 0)" xlink:href="#linear-gradient-13"/><linearGradient id="linear-gradient-38" x1="-1369.15" y1="252.4" x2="-1373.15" y2="280.05" gradientTransform="matrix(-1, 0, 0, 1, -1151.03, 0)" xlink:href="#linear-gradient-13"/><linearGradient id="linear-gradient-39" x1="-1379.7" y1="276.15" x2="-1375.74" y2="276.15" gradientTransform="matrix(-1, 0, 0, 1, -1151.03, 0)" gradientUnits="userSpaceOnUse"><stop offset="0" stop-color="#c4421b"/><stop offset="1" stop-color="#5c0e16"/></linearGradient><linearGradient id="linear-gradient-40" x1="-1357.46" y1="277.66" x2="-1345.63" y2="277.66" gradientTransform="matrix(-1, 0, 0, 1, -1151.03, 0)" xlink:href="#linear-gradient-13"/><linearGradient id="linear-gradient-41" x1="-1349.33" y1="255.27" x2="-1353.33" y2="282.92" gradientTransform="matrix(-1, 0, 0, 1, -1151.03, 0)" xlink:href="#linear-gradient-13"/><linearGradient id="linear-gradient-42" x1="-1401.61" y1="258.27" x2="-1370.24" y2="258.27" gradientTransform="matrix(-1, 0, 0, 1, -1151.03, 0)" xlink:href="#linear-gradient"/><linearGradient id="linear-gradient-43" x1="-1360.93" y1="276.48" x2="-1356.2" y2="276.48" xlink:href="#linear-gradient-39"/><linearGradient id="linear-gradient-44" x1="-1373.12" y1="245.2" x2="-1407.56" y2="284.25" gradientTransform="matrix(-1, 0, 0, 1, -1151.03, 0)" xlink:href="#linear-gradient"/><linearGradient id="linear-gradient-45" x1="-1390.88" y1="206.47" x2="-1379.09" y2="206.47" xlink:href="#linear-gradient-39"/><linearGradient id="linear-gradient-46" x1="-1410.89" y1="224.38" x2="-1365.82" y2="224.38" gradientTransform="matrix(-1, 0, 0, 1, -1151.03, 0)" xlink:href="#linear-gradient-13"/><linearGradient id="linear-gradient-47" x1="-1388.53" y1="221.38" x2="-1385.14" y2="221.38" gradientTransform="matrix(-1, 0, 0, 1, -1151.03, 0)" xlink:href="#linear-gradient-13"/><linearGradient id="linear-gradient-48" x1="-1367.28" y1="232.69" x2="-1356.35" y2="232.69" xlink:href="#linear-gradient-39"/><linearGradient id="linear-gradient-49" x1="-1733.69" y1="1703.11" x2="-1725.2" y2="1703.11" gradientTransform="matrix(-0.99, -0.14, -0.14, 0.99, -1241.88, -1729.43)" xlink:href="#linear-gradient-39"/><linearGradient id="linear-gradient-50" x1="-1734.53" y1="1701.72" x2="-1731.92" y2="1701.72" gradientTransform="matrix(-0.99, -0.14, -0.14, 0.99, -1241.88, -1729.43)" xlink:href="#linear-gradient-39"/><linearGradient id="linear-gradient-51" x1="-3482.76" y1="-1797.52" x2="-3511.99" y2="-1769.27" gradientTransform="matrix(1.39, -0.07, 0.07, 1.39, 7515.45, -15.87)" gradientUnits="userSpaceOnUse"><stop offset="0" stop-color="#9cfffb"/><stop offset="1" stop-color="#9bfffa"/></linearGradient><linearGradient id="linear-gradient-52" x1="-7416.76" y1="-512.54" x2="-7445.99" y2="-484.28" gradientTransform="matrix(-0.65, -1.23, 1.23, -0.65, -7238.36, -10301.28)" xlink:href="#linear-gradient-51"/><linearGradient id="linear-gradient-53" x1="-1365.45" y1="285.06" x2="-1363.27" y2="336.54" gradientTransform="matrix(-1, 0, 0, 1, -1151.03, 0)" xlink:href="#linear-gradient"/><linearGradient id="linear-gradient-54" x1="-1350.53" y1="284.43" x2="-1348.34" y2="335.91" gradientTransform="matrix(-1, 0, 0, 1, -1151.03, 0)" xlink:href="#linear-gradient"/><linearGradient id="linear-gradient-55" x1="-1357.01" y1="284.71" x2="-1354.83" y2="336.19" gradientTransform="matrix(-1, 0, 0, 1, -1151.03, 0)" xlink:href="#linear-gradient"/><filter id="luminosity-noclip-9" x="399.42" y="214.23" width="50.37" height="50.37" filterUnits="userSpaceOnUse" color-interpolation-filters="sRGB"><feFlood flood-color="#fff" result="bg"/><feBlend in="SourceGraphic" in2="bg"/></filter><mask id="mask-9" x="399.42" y="214.23" width="50.37" height="50.37" maskUnits="userSpaceOnUse"><g class="cls-1"><circle class="cls-2" cx="424.61" cy="239.41" r="25.19"/></g></mask><radialGradient id="radial-gradient-9" cx="424.61" cy="239.41" r="25.19" gradientUnits="userSpaceOnUse"><stop offset="0.19" stop-color="#60ffff"/><stop offset="0.8" stop-color="#49dccc"/></radialGradient><filter id="luminosity-noclip-10" x="221.91" y="186.04" width="63.15" height="63.15" filterUnits="userSpaceOnUse" color-interpolation-filters="sRGB"><feFlood flood-color="#fff" result="bg"/><feBlend in="SourceGraphic" in2="bg"/></filter><mask id="mask-10" x="221.91" y="186.04" width="63.15" height="63.15" maskUnits="userSpaceOnUse"><g class="cls-9"><circle class="cls-10" cx="253.48" cy="217.61" r="31.57" transform="translate(-1.92 432.96) rotate(-80.78)"/></g></mask><radialGradient id="radial-gradient-10" cx="253.48" cy="217.61" r="31.57" gradientTransform="translate(427.68 -67.46) rotate(80.78)" xlink:href="#radial-gradient-9"/><filter id="luminosity-noclip-11" x="17.28" y="22.31" width="63.15" height="63.15" filterUnits="userSpaceOnUse" color-interpolation-filters="sRGB"><feFlood flood-color="#fff" result="bg"/><feBlend in="SourceGraphic" in2="bg"/></filter><mask id="mask-11" x="17.28" y="22.31" width="63.15" height="63.15" maskUnits="userSpaceOnUse"><g class="cls-11"><circle class="cls-12" cx="48.85" cy="53.88" r="31.57" transform="translate(-12.16 93.47) rotate(-80.78)"/></g></mask><radialGradient id="radial-gradient-11" cx="48.85" cy="53.88" r="31.57" gradientTransform="translate(94.21 -2.97) rotate(80.78)" xlink:href="#radial-gradient-9"/><filter id="luminosity-noclip-12" x="68.43" y="79.13" width="3.25" height="3.25" filterUnits="userSpaceOnUse" color-interpolation-filters="sRGB"><feFlood flood-color="#fff" result="bg"/><feBlend in="SourceGraphic" in2="bg"/></filter><mask id="mask-12" x="68.43" y="79.13" width="3.25" height="3.25" maskUnits="userSpaceOnUse"><g class="cls-13"><path class="cls-14" d="M71.68,80.76a1.63,1.63,0,0,1-3.25,0,1.63,1.63,0,1,1,3.25,0Z"/></g></mask><radialGradient id="radial-gradient-12" cx="64.2" cy="75.75" r="1.62" gradientTransform="translate(5.68 4.8)" xlink:href="#radial-gradient-9"/><filter id="luminosity-noclip-13" x="245.94" y="20.88" width="3.25" height="3.25" filterUnits="userSpaceOnUse" color-interpolation-filters="sRGB"><feFlood flood-color="#fff" result="bg"/><feBlend in="SourceGraphic" in2="bg"/></filter><mask id="mask-13" x="245.94" y="20.88" width="3.25" height="3.25" maskUnits="userSpaceOnUse"><g class="cls-15"><path class="cls-16" d="M249.19,22.5a1.63,1.63,0,1,1-1.63-1.62A1.63,1.63,0,0,1,249.19,22.5Z"/></g></mask><radialGradient id="radial-gradient-13" cx="241.21" cy="17.66" r="1.62" gradientTransform="translate(5.68 4.8)" xlink:href="#radial-gradient-9"/><filter id="luminosity-noclip-14" x="397.4" y="43.5" width="3.25" height="3.25" filterUnits="userSpaceOnUse" color-interpolation-filters="sRGB"><feFlood flood-color="#fff" result="bg"/><feBlend in="SourceGraphic" in2="bg"/></filter><mask id="mask-14" x="397.4" y="43.5" width="3.25" height="3.25" maskUnits="userSpaceOnUse"><g class="cls-3"><path class="cls-4" d="M400.65,45.12A1.63,1.63,0,1,1,399,43.5,1.62,1.62,0,0,1,400.65,45.12Z"/></g></mask><radialGradient id="radial-gradient-14" cx="392.25" cy="40.21" r="1.62" gradientTransform="translate(5.68 4.8)" xlink:href="#radial-gradient-9"/><filter id="luminosity-noclip-15" x="220.58" y="244.3" width="3.25" height="3.25" filterUnits="userSpaceOnUse" color-interpolation-filters="sRGB"><feFlood flood-color="#fff" result="bg"/><feBlend in="SourceGraphic" in2="bg"/></filter><mask id="mask-15" x="220.58" y="244.3" width="3.25" height="3.25" maskUnits="userSpaceOnUse"><g class="cls-5"><path class="cls-6" d="M223.83,245.93a1.63,1.63,0,1,1-1.62-1.63A1.63,1.63,0,0,1,223.83,245.93Z"/></g></mask><radialGradient id="radial-gradient-15" cx="215.92" cy="240.46" r="1.62" gradientTransform="translate(5.68 4.8)" xlink:href="#radial-gradient-9"/><filter id="luminosity-noclip-16" x="94.48" y="137.39" width="3.25" height="3.25" filterUnits="userSpaceOnUse" color-interpolation-filters="sRGB"><feFlood flood-color="#fff" result="bg"/><feBlend in="SourceGraphic" in2="bg"/></filter><mask id="mask-16" x="94.48" y="137.39" width="3.25" height="3.25" maskUnits="userSpaceOnUse"><g class="cls-7"><path class="cls-8" d="M97.73,139a1.63,1.63,0,1,1-1.63-1.62A1.63,1.63,0,0,1,97.73,139Z"/></g></mask><radialGradient id="radial-gradient-16" cx="90.17" cy="133.84" r="1.62" gradientTransform="translate(5.68 4.8)" xlink:href="#radial-gradient-9"/><linearGradient id="New_Gradient_Swatch-9" x1="750.01" y1="35.55" x2="908.36" y2="35.55" gradientTransform="translate(-661.54)" xlink:href="#New_Gradient_Swatch"/><linearGradient id="New_Gradient_Swatch-10" x1="867.21" y1="35.79" x2="1017.75" y2="35.79" gradientTransform="translate(-661.54)" xlink:href="#New_Gradient_Swatch"/><linearGradient id="New_Gradient_Swatch-11" x1="723.74" y1="49.26" x2="881.3" y2="49.26" gradientTransform="translate(-661.54)" xlink:href="#New_Gradient_Swatch"/><linearGradient id="New_Gradient_Swatch-12" x1="918.63" y1="21.9" x2="810.54" y2="97.69" gradientTransform="translate(-661.54)" xlink:href="#New_Gradient_Swatch"/></defs><title>WhatWeDo1</title><g class="cls-18"><g id="Layer_1" data-name="Layer 1"><path class="cls-19" d="M134.37,24C114.45,53.74,30.29,33.59,37.18,83.18c8.08,58.08,89.29,65.57,68.65,109.59s13.22,86.42,116.09,73S484.17,180.92,437.48,130,417,73,416,48.15,388.17-28.32,313.9,26.46,184.82-51.45,134.37,24Z"/><path class="cls-19" d="M357.07,16.38c34.92,27.32-9.78,64.78,14.3,80s122.88,43.42,25.85,107.26-98.66,104.48-170.13,67.6-66.59-44-123.85-16.22-118.93-11.4-99.63-60.33S36.05,146,11.7,115.72,21.86-1,104.58,62.88,236.67,76.11,244.9,51.17,301.9-26.79,357.07,16.38Z"/><g class="cls-20"><path class="cls-21" d="M21.15,17.74c.53,15.87,7.4,108.12,95.13,117.22,0,0,11.11-61.89-93.15-118.45A1.34,1.34,0,0,0,21.15,17.74Z"/><path class="cls-22" d="M31.61,30c2,4.93,4.26,9.78,6.58,14.58S43,54.13,45.52,58.81s5.24,9.29,8,13.83c.71,1.13,1.39,2.27,2.12,3.39l2.17,3.36c1.49,2.21,3,4.43,4.51,6.6s3.13,4.31,4.71,6.45l2.46,3.15c.8,1.06,1.68,2.07,2.51,3.1A158,158,0,0,0,82.77,110.5l1.41,1.41,1.46,1.35,1.46,1.36.73.67.76.65,3,2.59L94.75,121a90,90,0,0,0,13.43,8.43h0a.8.8,0,0,1,.36,1.08.81.81,0,0,1-1.09.36h0a91.66,91.66,0,0,1-13.62-8.69l-3.16-2.5L87.63,117l-.76-.66-.73-.69-1.47-1.38-1.46-1.38-1.42-1.43a158.13,158.13,0,0,1-10.73-12c-.83-1-1.7-2.07-2.51-3.14l-2.44-3.19c-1.58-2.16-3.18-4.31-4.69-6.52s-3-4.44-4.48-6.67l-2.16-3.39c-.72-1.12-1.4-2.27-2.1-3.41q-4.17-6.87-8-13.94T37.47,44.93c-2.3-4.83-4.5-9.7-6.5-14.68a.35.35,0,0,1,.64-.26Z"/></g><g class="cls-23"><path class="cls-24" d="M85.53,5.72c-5,16.6-29.94,114.38,57.62,154.3,0,0,33-60.15-55.14-154.89A1.47,1.47,0,0,0,85.53,5.72Z"/><path class="cls-22" d="M92,22c3,11.07,6.31,22.08,9.67,33.06,1.68,5.49,3.43,11,5.17,16.43s3.57,10.92,5.45,16.34l1.39,4.08c.46,1.35,1,2.7,1.43,4.05,1,2.71,1.91,5.42,2.9,8.11l3,8.06.76,2,.79,2,1.58,4,1.59,4,1.68,4,1.68,4,.84,2,.9,2,1.81,3.9.9,1.95c.3.65.58,1.31.92,1.94l3.92,7.63,0,0a.8.8,0,0,1-.35,1.09.79.79,0,0,1-1.08-.35h0l-3.9-7.72c-.34-.64-.61-1.31-.92-2l-.89-2-1.79-3.93-.89-2-.83-2-1.66-4-1.66-4-1.56-4-1.56-4-.79-2-.74-2-3-8.1c-1-2.7-1.9-5.42-2.85-8.14-.47-1.35-1-2.71-1.41-4.07l-1.36-4.09c-1.85-5.44-3.59-10.92-5.34-16.39s-3.43-11-5.07-16.48c-3.29-11-6.48-22-9.45-33.16A.34.34,0,0,1,92,22Z"/></g><path class="cls-25" d="M426.13,208.47l6-99.77a3.62,3.62,0,0,0-3.4-3.85c-7.08-.43-25.27.12-60.32,10.65l-2.84,93Z"/><path class="cls-26" d="M420.2,208.47l6.28-105.16a2.82,2.82,0,0,0-2.83-3c-9.86.07-41.26,1.4-55.23,15.18l-2.84,93Z"/><path class="cls-27" d="M416.8,205.84a2.56,2.56,0,0,0,2.41-2.44l5.72-98.46a2.79,2.79,0,0,0-2.73-3c-9.28,0-38.44,1.27-52.18,14.35a2.67,2.67,0,0,0-.82,1.85l-2.46,86.91a2.56,2.56,0,0,0,2.62,2.68Z"/><path class="cls-28" d="M420.56,109.1l-3.63,56.28a4,4,0,0,1-3.8,3.78l-36.81,1.09a4,4,0,0,1-4.05-4.13l.62-46.84a4.05,4.05,0,0,1,2.18-3.58c6-3.06,23.84-11.22,41.6-11A4,4,0,0,1,420.56,109.1Z"/><path class="cls-29" d="M416.06,177.69l-.24,1.44a1.89,1.89,0,0,1-1.78,1.6l-38.94,1.45a1.92,1.92,0,0,1-1.94-2.14l.22-1.92a1.84,1.84,0,0,1,1.79-1.7l39-1A1.92,1.92,0,0,1,416.06,177.69Z"/><path class="cls-30" d="M415.41,188.17l-.1,1.94a1.91,1.91,0,0,1-1.87,1.83l-38.1-.09a1.93,1.93,0,0,1-1.88-2.12l0,0a1.86,1.86,0,0,1,1.75-1.73l38.21-1.85A1.91,1.91,0,0,1,415.41,188.17Z"/><path class="cls-31" d="M415.21,199l-.18,1.67a1.34,1.34,0,0,1-1.29,1.21l-40.18.38a1.36,1.36,0,0,1-1.3-1.67l.64-2.92a1.32,1.32,0,0,1,1.3-1.06l39.3.4A1.79,1.79,0,0,1,415.21,199Z"/><path class="cls-32" d="M366.39,115.32S339.1,97,305,107.47a4.83,4.83,0,0,0-3.4,4.67l1.22,96.33h62.81Z"/><path class="cls-33" d="M307,106.48l-.07,102h58.69l2.84-93s-28.84-18.13-56.64-14.56A5.58,5.58,0,0,0,307,106.48Z"/><path class="cls-27" d="M308,108l-.07,95.74a2.83,2.83,0,0,0,2.94,2.83l51.18-2a3,3,0,0,0,2.85-2.88l2.67-84.91s-28-17.57-54.9-14.11A5.4,5.4,0,0,0,308,108Z"/><path class="cls-34" d="M356.11,116.7a6.44,6.44,0,0,1,4.82,6.55c-.59,12.47-2.09,43.73-2.73,53.85a3.49,3.49,0,0,1-3.46,3.27l-38,.18a4,4,0,0,1-4.07-4l-.19-64.21a3.86,3.86,0,0,1,3.66-3.87C322.27,108.13,345.68,114,356.11,116.7Z"/><path class="cls-35" d="M356.5,186.9,315,188.56a1.79,1.79,0,0,0-1.72,1.87v0a1.8,1.8,0,0,0,1.87,1.73l41.53-1.66a1.8,1.8,0,0,0,1.72-1.87v0A1.79,1.79,0,0,0,356.5,186.9Z"/><path class="cls-36" d="M358.74,196.9V198a1.81,1.81,0,0,1-1.72,1.8l-41.56,1.76a1.8,1.8,0,0,1-1.88-1.79h0a1.8,1.8,0,0,1,1.68-1.8l41.56-2.89A1.8,1.8,0,0,1,358.74,196.9Z"/><path class="cls-37" d="M254.49,222.4c9.12-30.23,47.59-149.69,103.64-214.5,4-4.63,12.52-3.19,13.2,2.86,4,35.08,20,145-112.22,215.52A3.28,3.28,0,0,1,254.49,222.4Z"/><path class="cls-38" d="M259.1,222.62a.79.79,0,0,1-.52-.2.8.8,0,0,1-.1-1.13c42.3-50.07,65.38-94.67,77.29-123.26,10.33-24.79,14.91-43.92,15.88-50.56a.81.81,0,1,1,1.6.23c-1,6.7-5.58,26-16,50.88-12,28.72-35.12,73.49-77.57,123.75A.81.81,0,0,1,259.1,222.62Z"/><path class="cls-39" d="M328.38,169.52a3.38,3.38,0,0,1-4.78-3c-.5-13.29,1.51-51,36.07-81.27C388.85,59.7,402.24,43.07,407.8,35.1a2.12,2.12,0,0,1,3.87,1.16C412.29,58.9,407.93,133.31,328.38,169.52Z"/><path class="cls-40" d="M326.28,167.09A1,1,0,0,1,326,167a.8.8,0,0,1-.42-1.06c.23-.55,23.59-54.6,62.54-92a.81.81,0,0,1,1.14,0,.82.82,0,0,1,0,1.15c-38.72,37.14-61.95,90.89-62.18,91.43A.8.8,0,0,1,326.28,167.09Z"/><path class="cls-41" d="M344.94,263.16a5.9,5.9,0,0,1-5.62,6.12H35.51a5.9,5.9,0,0,1-5.62-6.12L27.37,73c0-3.36,3.63-9.93,10.3-9.43l296.92-8.37A13.6,13.6,0,0,1,345,59.74,16.17,16.17,0,0,1,349.11,71Z"/><path class="cls-39" d="M339.39,257.3a5.59,5.59,0,0,1-5.31,5.79H42.84a5.59,5.59,0,0,1-5.32-5.79L35.14,84.7c.28-10.38,8.64-14.12,13.71-13.9l284.57-8.31a9.49,9.49,0,0,1,7.28,3.16,11.38,11.38,0,0,1,2.93,7.93Z"/><path class="cls-40" d="M40.67,174.86a.4.4,0,0,1-.4-.4l-.19-14a.4.4,0,0,1,.4-.41h0a.42.42,0,0,1,.41.4l.18,14a.4.4,0,0,1-.39.41Z"/><path class="cls-40" d="M40.21,140.56a.42.42,0,0,1-.41-.4l-.72-53.61c0-3.74,1.13-6.68,3.3-8.76,3.6-3.44,8.95-3.26,9.18-3.25l90.87-2.66a.41.41,0,0,1,.42.4.4.4,0,0,1-.39.41l-90.9,2.66c-.25,0-5.26-.18-8.62,3-2,1.92-3,4.66-3,8.17l.72,53.6a.41.41,0,0,1-.4.41Z"/><path class="cls-42" d="M50.35,247.72c.31-14.26.2-140.58-.56-151.49S64.65,83.27,88.6,82,314.68,76,319.88,75.49c11.7-1,14.12,18,12.95,59.35-.88,31-2.33,82.21-3,105.74-.2,7-5.46,12.56-11.9,12.58-48.64.14-235.06.72-247.47,1.13C56.18,254.75,50.23,253.38,50.35,247.72Z"/><rect class="cls-41" x="11.41" y="268.35" width="358.18" height="16.71" rx="4.52"/><path class="cls-43" d="M82.83,125.05A35.16,35.16,0,1,1,118,160.21,35.21,35.21,0,0,1,82.83,125.05Zm11,0A24.14,24.14,0,1,0,118,100.92,24.17,24.17,0,0,0,93.86,125.05Z"/><path class="cls-44" d="M118,149.19a24.14,24.14,0,1,0,0-48.27,23.86,23.86,0,0,0-5.88.73L109.43,91a35.16,35.16,0,1,1-24.51,46l10.37-3.74A24.19,24.19,0,0,0,118,149.19Z"/><g class="cls-45"><rect class="cls-40" x="238.2" y="71.26" width="5.39" height="157.93" transform="translate(90.67 391.12) rotate(-90)"/><rect class="cls-40" x="238.2" y="62.25" width="5.39" height="157.93" transform="translate(99.68 382.11) rotate(-90)"/><rect class="cls-40" x="238.2" y="53.24" width="5.39" height="157.93" transform="translate(108.69 373.1) rotate(-90)"/><rect class="cls-40" x="238.2" y="44.22" width="5.39" height="157.93" transform="translate(117.7 364.08) rotate(-90)"/><rect class="cls-40" x="238.2" y="35.21" width="5.39" height="157.93" transform="translate(126.72 355.07) rotate(-90)"/><rect class="cls-40" x="238.2" y="26.2" width="5.39" height="157.93" transform="translate(135.73 346.06) rotate(-90)"/><rect class="cls-40" x="238.2" y="17.19" width="5.39" height="157.93" transform="translate(144.74 337.05) rotate(-90)"/></g><rect class="cls-41" x="200.56" y="108.9" width="5.39" height="82.65" transform="translate(53.03 353.48) rotate(-90)"/><rect class="cls-41" x="186.35" y="114.09" width="5.39" height="54.25" transform="translate(47.84 330.26) rotate(-90)"/><rect class="cls-41" x="221.46" y="69.98" width="5.39" height="124.45" transform="translate(91.95 356.35) rotate(-90)"/><rect class="cls-41" x="174.18" y="108.24" width="5.39" height="29.9" transform="translate(53.69 300.07) rotate(-90)"/><rect class="cls-41" x="213.14" y="60.27" width="5.39" height="107.81" transform="translate(101.66 330.01) rotate(-90)"/><rect class="cls-41" x="203.8" y="60.59" width="5.39" height="89.14" transform="translate(101.33 311.67) rotate(-90)"/><rect class="cls-41" x="193.66" y="61.73" width="5.39" height="68.85" transform="translate(100.2 292.51) rotate(-90)"/><path class="cls-46" d="M186.7,248.18l-119.43-.9A4.29,4.29,0,0,1,63,243V181.63a4.29,4.29,0,0,1,4.29-4.29H186.74a4.29,4.29,0,0,1,4.29,4.29v62.26A4.29,4.29,0,0,1,186.7,248.18Z"/><path class="cls-46" d="M168.18,205.05l-15.36-16.24-22,23.95L115.26,196l-14.57,16.48L89.52,198.89l-22,22.93V238.4a4,4,0,0,0,4,4l111.08.84a4,4,0,0,0,4-4V194.13Z"/><rect class="cls-40" x="168.27" y="204.6" width="0.4" height="38.63"/><rect class="cls-40" x="152.62" y="188.81" width="0.4" height="54.19"/><rect class="cls-40" x="130.6" y="212.47" width="0.4" height="30.37"/><rect class="cls-40" x="115.47" y="196.59" width="0.4" height="46.25"/><rect class="cls-40" x="100.49" y="211.98" width="0.4" height="30.86"/><rect class="cls-40" x="89.55" y="197.74" width="0.4" height="44.8"/><circle class="cls-39" cx="89.75" cy="197.74" r="3.37"/><path class="cls-39" d="M102.91,212a2.22,2.22,0,1,1-2.22-2.23A2.22,2.22,0,0,1,102.91,212Z"/><path class="cls-39" d="M117.9,196.59a2.23,2.23,0,1,1-2.22-2.22A2.22,2.22,0,0,1,117.9,196.59Z"/><path class="cls-39" d="M133,212.47a2.22,2.22,0,1,1-2.22-2.22A2.21,2.21,0,0,1,133,212.47Z"/><path class="cls-39" d="M155.05,188.81a2.23,2.23,0,1,1-2.23-2.22A2.22,2.22,0,0,1,155.05,188.81Z"/><path class="cls-47" d="M170.7,204.6a2.23,2.23,0,1,1-2.22-2.23A2.23,2.23,0,0,1,170.7,204.6Z"/><path class="cls-17" d="M227.26,177.34a15.9,15.9,0,1,0,15.89,15.89A15.89,15.89,0,0,0,227.26,177.34Zm0,24.95a9.06,9.06,0,1,1,9.06-9.06A9.06,9.06,0,0,1,227.26,202.29Z"/><g class="cls-48"><rect class="cls-39" x="205.07" y="189.74" width="47.21" height="19.98"/></g><path class="cls-17" d="M266,177.34a15.9,15.9,0,1,0,15.89,15.89A15.89,15.89,0,0,0,266,177.34Zm0,24.95a9.06,9.06,0,1,1,9.06-9.06A9.06,9.06,0,0,1,266,202.29Z"/><g class="cls-49"><rect class="cls-39" x="243.81" y="182.02" width="47.21" height="27.7"/></g><path class="cls-17" d="M304.74,177.34a15.9,15.9,0,1,0,15.89,15.89A15.89,15.89,0,0,0,304.74,177.34Zm0,24.95a9.06,9.06,0,1,1,9.06-9.06A9.06,9.06,0,0,1,304.74,202.29Z"/><g class="cls-50"><rect class="cls-39" x="282.55" y="199.73" width="47.21" height="9.99"/></g><g class="cls-51"><path class="cls-40" d="M240.83,229.45h-28c-1.17,0-2.12.66-2.12,1.48s1,1.47,2.12,1.47h28c1.16,0,2.11-.66,2.11-1.47S242,229.45,240.83,229.45Z"/><path class="cls-40" d="M240.83,222.92h-28c-1.17,0-2.12.66-2.12,1.48s1,1.47,2.12,1.47h28c1.16,0,2.11-.66,2.11-1.47S242,222.92,240.83,222.92Z"/><path class="cls-40" d="M240.83,216.4h-28c-1.17,0-2.12.66-2.12,1.47s1,1.48,2.12,1.48h28c1.16,0,2.11-.66,2.11-1.48S242,216.4,240.83,216.4Z"/></g><g class="cls-51"><path class="cls-40" d="M279.67,229.45H251.73c-1.17,0-2.12.66-2.12,1.48s.95,1.47,2.12,1.47h27.94c1.17,0,2.12-.66,2.12-1.47S280.84,229.45,279.67,229.45Z"/><path class="cls-40" d="M279.67,222.92H251.73c-1.17,0-2.12.66-2.12,1.48s.95,1.47,2.12,1.47h27.94c1.17,0,2.12-.66,2.12-1.47S280.84,222.92,279.67,222.92Z"/><path class="cls-40" d="M279.67,216.4H251.73c-1.17,0-2.12.66-2.12,1.47s.95,1.48,2.12,1.48h27.94c1.17,0,2.12-.66,2.12-1.48S280.84,216.4,279.67,216.4Z"/></g><g class="cls-51"><path class="cls-40" d="M318.52,229.45H290.57c-1.17,0-2.12.66-2.12,1.48s.95,1.47,2.12,1.47h27.95c1.17,0,2.11-.66,2.11-1.47S319.69,229.45,318.52,229.45Z"/><path class="cls-40" d="M318.52,222.92H290.57c-1.17,0-2.12.66-2.12,1.48s.95,1.47,2.12,1.47h27.95c1.17,0,2.11-.66,2.11-1.47S319.69,222.92,318.52,222.92Z"/><path class="cls-40" d="M318.52,216.4H290.57c-1.17,0-2.12.66-2.12,1.47s.95,1.48,2.12,1.48h27.95c1.17,0,2.11-.66,2.11-1.48S319.69,216.4,318.52,216.4Z"/></g><path class="cls-52" d="M296.9,237.76H427V212.68h-130C299.68,212.68,299.68,237.76,296.9,237.76Z"/><path class="cls-53" d="M427,231.48V220c0-4-2.57-7.33-5.74-7.33H297.44a4.43,4.43,0,0,1-4.51-4.35A1.34,1.34,0,0,1,294.3,207H429.57c3.1,0,8,4.7,8,10.5v16c0,5.47-4.78,9.9-7.71,9.9H295a2,2,0,0,1-2.08-2,3.73,3.73,0,0,1,3.8-3.66H422C424.75,237.76,427,235,427,231.48Z"/><path class="cls-40" d="M423.35,218.23h-122a.41.41,0,0,1,0-.81h122a.41.41,0,0,1,0,.81Z"/><path class="cls-40" d="M423.35,222h-122a.41.41,0,0,1,0-.81h122a.41.41,0,0,1,0,.81Z"/><path class="cls-40" d="M423.35,225.67h-122a.4.4,0,0,1,0-.8h122a.4.4,0,1,1,0,.8Z"/><path class="cls-40" d="M423.35,229.4h-122a.41.41,0,0,1,0-.81h122a.41.41,0,0,1,0,.81Z"/><path class="cls-40" d="M423.35,233.12h-122a.41.41,0,0,1,0-.81h122a.41.41,0,0,1,0,.81Z"/><rect class="cls-54" x="257.51" y="243.16" width="173.58" height="41.9" rx="12.88"/><rect class="cls-41" x="277.13" y="247.97" width="20.39" height="32.27" rx="4.36"/><rect class="cls-41" x="300.52" y="247.97" width="7.65" height="32.27" rx="3.55"/><path class="cls-41" d="M99,162.58a.9.9,0,0,1,0-1.31l46.55-41.53a.43.43,0,0,1,.48-.07h0a.43.43,0,0,1,.11.71L100.26,162.6a.9.9,0,0,1-1.23,0Z"/><path class="cls-41" d="M71.81,264.84a.47.47,0,0,0,0-.2c-1-3.95-5.94-6.41-5.94-6.41l-2,.15a13.7,13.7,0,0,0-.8,6.57l0,.08A45.82,45.82,0,0,0,71.81,264.84Z"/><path class="cls-55" d="M63.11,265a.85.85,0,0,0,.62.63,27,27,0,0,0,7.49-.11.7.7,0,0,0,.59-.71A45.82,45.82,0,0,1,63.11,265Z"/><path class="cls-56" d="M55.35,194.91A18,18,0,0,1,51.1,198a35.29,35.29,0,0,0,7.77,6.91l1,2.15,3.07-3.69A16.66,16.66,0,0,1,55.35,194.91Z"/><path class="cls-57" d="M63.1,255.47l.83,4a.68.68,0,0,0,.56.54,5.65,5.65,0,0,0,1.29,0,.82.82,0,0,0,.65-1l-.58-3.54Z"/><path class="cls-58" d="M80.3,265a11.62,11.62,0,0,1-3.86-.55c0,.21,0,.43,0,.66a.41.41,0,0,0,.4.43l11.89-.07a.54.54,0,0,0,.43-.79C87.62,264.8,83.65,265.08,80.3,265Z"/><path class="cls-41" d="M89.17,264.67a.36.36,0,0,0,0-.09,15.14,15.14,0,0,0-9-5.66l-2.53-.08a12.19,12.19,0,0,0-1.15,5.6,11.62,11.62,0,0,0,3.86.55C83.65,265.08,87.62,264.8,89.17,264.67Z"/><path class="cls-59" d="M77.12,255c0,.19.37,3.06.51,4.18a.55.55,0,0,0,.46.5,6,6,0,0,0,1.74,0,.76.76,0,0,0,.57-.75v-4.51Z"/><path class="cls-60" d="M75.09,202.62a225.6,225.6,0,0,1,6,52.45,1.13,1.13,0,0,1-.9,1.1,12.48,12.48,0,0,1-2.83.33,1,1,0,0,1-1-.88c-.86-5-5.78-33.33-8.58-37.93,0,0-1.84,25.22-1.25,38.3a.62.62,0,0,1-.55.64,10.56,10.56,0,0,1-2.28,0,.84.84,0,0,1-.74-.71c-.61-4.25-4.12-29.57-4-47.8,0-1,2.72-5.5,2.72-5.5Z"/><path class="cls-61" d="M84.46,171.33c-1.07-2.73-2.88-4.61-4.69-6.77-6.81,1.23-18,2.34-22.61,2.92a5.87,5.87,0,0,0-3.73,2C49.63,173.88,41.3,185.9,51.1,198a18,18,0,0,0,4.25-3.1c-1.08-3.06-1.17-7,1.1-11.75a10.83,10.83,0,0,0,.29,1.12A69.66,69.66,0,0,1,60,204.36a.63.63,0,0,0,.4.59c4.12,1.65,12.05.67,14.72.27a.89.89,0,0,0,.75-1c-1.31-9.47,5.4-25.05,7.17-29A2.57,2.57,0,0,1,84.36,174l.84-.4A23.47,23.47,0,0,0,84.46,171.33Z"/><path class="cls-62" d="M64.29,158.37l-.49,8.47a.52.52,0,0,0,.39.53,9.34,9.34,0,0,0,6.63-.66.84.84,0,0,0,.39-1L69,158.14Z"/><path class="cls-63" d="M69.58,149.12c.11.1,4.64,9,4.64,9l-5.13,2.48-5.54-7.79S67.74,147.39,69.58,149.12Z"/><path class="cls-41" d="M65.82,153a.83.83,0,0,0,.06.72L68.44,158a.62.62,0,0,0,.14.18,1.34,1.34,0,0,0,2.15,0,7.33,7.33,0,0,1,2-2.18.83.83,0,0,1,1.11.36,30.49,30.49,0,0,1,1.75,4.16.82.82,0,0,1-.47,1,22.8,22.8,0,0,1-4.92,1.43.82.82,0,0,1-.77-.33c-.79-1.07-3-4.08-3.75-4.83s-2-.43-2.58-.26a.82.82,0,0,1-.65-.09,1.81,1.81,0,0,1-.68-2.75.82.82,0,0,0-.26-1.11,1.81,1.81,0,0,1-.69-2.57,2.56,2.56,0,0,1,2.77-1.35.86.86,0,0,0,.89-.5.55.55,0,0,1,.42-.33.79.79,0,0,0,.64-.93,2.1,2.1,0,0,1,1.17-2.4c2.22-1.22,4.16.76,4.65,2.44s-2,2.85-3.54,3.05C66.7,151.12,66.07,152.37,65.82,153Z"/><path class="cls-64" d="M66.66,159.34s-1-2.88-2.25-2.78-2.25,1.37-.69,2.78C65.67,161.09,66.66,159.34,66.66,159.34Z"/><path class="cls-65" d="M56,182.42A25.84,25.84,0,0,1,55,172.32l.46.06a25,25,0,0,0,1,9.88Z"/><path class="cls-41" d="M67.55,217.1a.23.23,0,0,1-.22-.17c-.5-2-4.3-4.11-4.34-4.13a.23.23,0,0,1-.09-.31.24.24,0,0,1,.32-.09c.16.09,4,2.27,4.56,4.41a.23.23,0,0,1-.17.28Z"/><path class="cls-66" d="M100,167.19c-6.47,2.36-20.25-2.63-20.25-2.63l-1,11.26c11,3.49,18.22,2.48,22.89-.45A15.41,15.41,0,0,0,100,167.19Z"/><path class="cls-67" d="M110.32,155.56l-2.7-.53s-.74,8.61-6.77,11.8a9,9,0,0,1-.83.36,15.41,15.41,0,0,1,1.69,8.18C111.21,169.42,110.32,155.56,110.32,155.56Z"/><path class="cls-68" d="M107.75,155.78l-.13-.75a4.12,4.12,0,0,1,.92-3.64c2.16-2.61,3.74-1.65,3.74-1.65a5.8,5.8,0,0,0-.1,1,.46.46,0,0,0,.78.33l3.52-3.24s1,5.15-6.57,8.68Z"/><path class="cls-69" d="M271.8,230.55S291,197,293.56,193.87a2,2,0,0,1,1.79-.72l5.35.63L307,207.36l-10.45-6.09c1,7.16-12.4,17.79-17,21.67a1.06,1.06,0,0,0-.08,1.54l1.84,1.93a21.15,21.15,0,0,1-10.44,5.93Z"/><path class="cls-70" d="M280.2,225.37a2.69,2.69,0,0,1,1.57,1.42,1.19,1.19,0,0,1-.44,1.38c-1.94,1.39-8.31,5.86-11.25,6.73a.33.33,0,0,1-.42-.39,10.66,10.66,0,0,1,2.21-4l-.14.29a.41.41,0,0,0,.57.54C274.26,230.18,278.27,227.75,280.2,225.37Z"/><path class="cls-71" d="M279.26,238.78s2.9-6.94,2.93-7a122.2,122.2,0,0,1,10.95-33.37,2,2,0,0,1,1.61-1.07l5.36-.46,8.9,12-11.48-3.85C300,211.9,289,225,285.27,229.77a1,1,0,0,0,.23,1.52l2.19,1.51a21.15,21.15,0,0,1-9,7.93Z"/><path class="cls-72" d="M286.44,232a2.72,2.72,0,0,1,1.82,1.08,1.19,1.19,0,0,1-.16,1.44c-1.61,1.75-7,7.42-9.65,8.87a.33.33,0,0,1-.49-.3,10.54,10.54,0,0,1,1.35-4.41l-.08.31a.4.4,0,0,0,.66.41C281.59,237.91,285,234.72,286.44,232Z"/><path class="cls-41" d="M325.2,194.39s4.85,7.21,5.25,10.5-1.34,4.43-6.41,4.85c-15.11,1.25-22.56-3.28-22.56-3.28-1-6.58-1.76-8.26-10.39-11.84,0,0,10.91.86,13.11,0S325.2,194.39,325.2,194.39Z"/><path class="cls-41" d="M305.87,154s3.37-4,7,.91c.66.88,3.15.15,4.07,2a2.35,2.35,0,0,0,2.55,1.31c2.62-.48,6.9-.52,9,3.58,1.62,3.14.37,5-1.24,6a2.63,2.63,0,0,0-.89,3.54c.68,1.17.81,2.75-1,4.65-4,4.26-11.85-2.7-11.85-2.7l-6.25-14.77Z"/><path class="cls-73" d="M312.09,193.44a111,111,0,0,1-8.43-8.94,7.58,7.58,0,0,1-1.28-6.8,95.6,95.6,0,0,1,3.73-9.4c.32-1.05,6.65-1,6.65-1s12.46,8.09,17.36,21.79l-5.5,1.71a64.73,64.73,0,0,0-6.47-8.93s5.56,7.35,5.76,10.35Z"/><path class="cls-74" d="M301.33,195.56l4.24-4.62,4.9,1.32s5.72.89,9,0l3.27-.88,7.39-2.3,1.16,3.28a2,2,0,0,1-.72,2.26,12.68,12.68,0,0,1-1.87,1.17c-1,.42-22.42.13-22.42.13Z"/><path class="cls-75" d="M308.41,159.68l4.25,7.91c-.28,1.73-4.63,1.78-5.3.75a.93.93,0,0,1-.13-.35l-2.55-5.29c-.11-.52,1.31-2.25,1.77-2.5l1.69-.9C308.79,159,306.08,158.92,308.41,159.68Z"/><path class="cls-76" d="M304.24,153.51a9.34,9.34,0,0,0-2.88,5.58c-.74,3.93.92,5.23,2.52,5a7.47,7.47,0,0,0,5.75-3.71C311.48,157.52,307.07,151.47,304.24,153.51Z"/><path class="cls-41" d="M307.5,159s.49-5.6-4.06-4.47l-.88,1s-2.4-2.4,0-4.47,5.87-1.79,8,1.59,3,5.79,1.5,8.06-2.8.48-2.8.48.62-1.92,0-2.69-1.38.55-1.38.55Z"/><path class="cls-77" d="M308.16,159.41s.23-2.87,1.74-2.15-.36,2.7-1.12,3.38Z"/><path class="cls-78" d="M315.38,197.39h-.05l-19.52,0a.87.87,0,1,1,0-1.74l19.51,0a.87.87,0,0,1,.88.87A.89.89,0,0,1,315.38,197.39Z"/><path class="cls-41" d="M278.27,179.66h16.25a3.1,3.1,0,0,1,2.8,1.78l7.52,15.93h-20.2a1.88,1.88,0,0,1-1.75-1.19l-5.83-14.74A1.3,1.3,0,0,1,278.27,179.66Z"/><path class="cls-79" d="M289.72,187.83c.35,1.1.09,2.16-.58,2.38s-1.51-.5-1.86-1.59-.09-2.16.58-2.37S289.37,186.74,289.72,187.83Z"/><path class="cls-39" d="M259.2,252.89c.6.89,3,21,3.36,28.47a.88.88,0,0,1-.88.92h0a.89.89,0,0,1-.87-.75l-4.37-28Z"/><path class="cls-39" d="M240,252.89c-.6.89-3,21-3.37,28.47a.88.88,0,0,0,.88.92h0a.87.87,0,0,0,.87-.75l4.37-28Z"/><path class="cls-39" d="M262.81,251.32v.22a3,3,0,0,1-3.05,2.9l-20.2.35A3,3,0,0,1,236.4,252v-.2a3,3,0,0,1,3-3l20.21-.36A3,3,0,0,1,262.81,251.32Z"/><path class="cls-80" d="M223.51,280.63c3.6,0,5.18-.31,5.89-.59a1.35,1.35,0,0,1-1.32,1H215.37a.62.62,0,0,1-.59-.78C216.23,280.43,219.3,280.63,223.51,280.63Z"/><path class="cls-81" d="M214.78,280.31a.58.58,0,0,1,.1-.21c1-1.24,2.91-3.18,5.56-3.14,3.87.05,5.22.47,8.23,0l.71,2.36a1.28,1.28,0,0,1,0,.7c-.71.28-2.29.59-5.89.59C219.3,280.63,216.23,280.43,214.78,280.31Z"/><path class="cls-82" d="M227.8,274.44l.87,3a5.11,5.11,0,0,1-3.63.17l-.33-2.57Z"/><path class="cls-83" d="M201.47,278.76c2.8,2.25,4.23,3,5,3.23a1.37,1.37,0,0,1-1.69,0l-9.9-8a.61.61,0,0,1,0-1C195.91,274,198.19,276.12,201.47,278.76Z"/><path class="cls-84" d="M194.86,273a.68.68,0,0,1,.21-.1c1.53-.35,4.25-.64,6.29,1.05,3,2.46,3.78,3.64,6.41,5.17l-.92,2.27a1.32,1.32,0,0,1-.42.56c-.73-.23-2.16-1-5-3.23C198.19,276.12,195.91,274,194.86,273Z"/><path class="cls-85" d="M246.45,240.67s-21.5,1.75-25.91,3.83,3.6,31.17,3.6,31.17,1.2.58,3.87-.25c0,0-2.74-21.47-.7-26.13l23.28-3.81Z"/><path class="cls-86" d="M209.9,275.07c-.2.19-2.13,4.09-2.13,4.09s-2.16-.46-2.6-1.83l1.94-3.52Z"/><path class="cls-87" d="M259.4,240.49a10.83,10.83,0,0,1,.67,3.92,5.89,5.89,0,0,1-5.63,5.77L229,251.34a1.23,1.23,0,0,0-1.13.92c-.59,2.31-3.51,9.4-17.78,23.55a1.14,1.14,0,0,1-1.42.16l-2-1.28a.48.48,0,0,1-.15-.64l14.8-25.26a5.66,5.66,0,0,1,3.48-2.58l21.66-5.54Z"/><path class="cls-88" d="M229.91,201.58a110.11,110.11,0,0,1,9.94,6.58l-5.74,3.2a25.18,25.18,0,0,0-6.05-5.07Z"/><path class="cls-89" d="M259.86,240.67a31.49,31.49,0,0,1-13.41,0s-9.17-12.32-12.71-15.67a25.25,25.25,0,0,1-18.24,10.19l-.7-1.57s10-4.62,13.1-11.72,4.32-10.12,7.13-12c1.75-1.15,2.8-1.94,3.34-2.37a.89.89,0,0,1,1-.06C242.37,209.3,256.39,218.9,259.86,240.67Z"/><path class="cls-90" d="M237.5,218.37a27.21,27.21,0,0,1-3.39,6Z"/><path class="cls-91" d="M216.25,232.8l-1.41-.38-4.3-1a2,2,0,0,0-1.52.26L205.33,234l10.21,0Z"/><path class="cls-92" d="M222.92,198.47c0,.11,1.17,6.55,1.7,9.44a1.23,1.23,0,0,0,1.59.93l2.88-1a1.9,1.9,0,0,0,1.28-2l.52-8S223.26,196.15,222.92,198.47Z"/><path class="cls-41" d="M222.89,194.17a2,2,0,0,1,2.27,1.13.65.65,0,0,0,.92.28.5.5,0,0,1,.58,0,.65.65,0,0,0,.84-.1,2.42,2.42,0,0,1,2.86-.69,1.71,1.71,0,0,1,1,2.35.65.65,0,0,0,.41.85,1.7,1.7,0,0,1,1.15,2.48.7.7,0,0,1-.36.36,2.9,2.9,0,0,0-1.7,1.45,10.34,10.34,0,0,1-2.26-.54l-.28-2.09a.64.64,0,0,0-.3-.47,2.79,2.79,0,0,0-2.72-.35c-1.24.75-3.73,1.33-4.34-.18S220.57,194.57,222.89,194.17Z"/><path class="cls-93" d="M229.67,204s-.95-2.66,0-3.32,2.43-.31,2.11,1.62C231.4,204.72,229.67,204,229.67,204Z"/><path class="cls-94" d="M220.2,236h0l-21.82,0a1,1,0,0,1-1-1,1,1,0,0,1,1-1l21.82,0a1,1,0,0,1,0,1.95Z"/><path class="cls-95" d="M189.88,214.64s0,0,0,.05l9.18,19.79a1,1,0,1,1-1.77.82l-9.18-19.79a1,1,0,0,1,.48-1.3A1,1,0,0,1,189.88,214.64Z"/><path class="cls-96" d="M210.48,237.1c.1.4,9.2,34.55,11.51,43.2a1.56,1.56,0,0,1-1.5,2h0a1.55,1.55,0,0,1-1.5-1.19l-10.11-41Z"/><path class="cls-97" d="M205.5,237.1c-.1.4-9.2,34.55-11.51,43.2a1.57,1.57,0,0,0,1.5,2h0a1.55,1.55,0,0,0,1.5-1.19l10.11-41Z"/><path class="cls-98" d="M205.12,236h5.67v4.55a1.18,1.18,0,0,1-1.17,1.19h-.78V252a.89.89,0,0,1-.89.89h0a.89.89,0,0,1-.88-.89V241.73h-.4a1.57,1.57,0,0,1-1.55-1.58Z"/><path class="cls-41" d="M224.73,234.89H193.07a1,1,0,0,0-.94.74l-.44,1.73a1,1,0,0,0,.94,1.23l32.49-.19a1,1,0,0,0,.94-1.22l-.39-1.54A1,1,0,0,0,224.73,234.89Z"/><g class="cls-99"><g class="cls-100"><circle class="cls-101" cx="424.61" cy="239.41" r="25.19"/></g><g class="cls-102"><circle class="cls-103" cx="253.48" cy="217.61" r="31.57" transform="translate(-1.92 432.96) rotate(-80.78)"/></g><g class="cls-104"><circle class="cls-105" cx="48.85" cy="53.88" r="31.57" transform="translate(-12.16 93.47) rotate(-80.78)"/></g><g class="cls-106"><path class="cls-107" d="M71.68,80.76a1.63,1.63,0,0,1-3.25,0,1.63,1.63,0,1,1,3.25,0Z"/></g><g class="cls-108"><path class="cls-109" d="M249.19,22.5a1.63,1.63,0,1,1-1.63-1.62A1.63,1.63,0,0,1,249.19,22.5Z"/></g><g class="cls-110"><path class="cls-111" d="M400.65,45.12A1.63,1.63,0,1,1,399,43.5,1.62,1.62,0,0,1,400.65,45.12Z"/></g><g class="cls-112"><path class="cls-113" d="M223.83,245.93a1.63,1.63,0,1,1-1.62-1.63A1.63,1.63,0,0,1,223.83,245.93Z"/></g><g class="cls-114"><path class="cls-115" d="M97.73,139a1.63,1.63,0,1,1-1.63-1.62A1.63,1.63,0,0,1,97.73,139Z"/></g></g><path class="cls-116" d="M213.16,31.83l-72.79-.41a3.83,3.83,0,0,0-3.3,5.79l.37.61a3.81,3.81,0,0,0,3.28,1.85h72.42A3.82,3.82,0,0,0,217,35.85v-.2A3.82,3.82,0,0,0,213.16,31.83Z"/><path class="cls-117" d="M223.33,35.73v.12a3.82,3.82,0,0,0,3.82,3.82H243.3a3.83,3.83,0,0,0,3.7-2.83h0A3.83,3.83,0,0,0,243.33,32l-16.16-.12A3.82,3.82,0,0,0,223.33,35.73Z"/><path class="cls-118" d="M195.65,45.54l-55.28-.4a3.82,3.82,0,0,0-3.3,5.79l.37.6a3.82,3.82,0,0,0,3.28,1.86h54.91a3.82,3.82,0,0,0,3.82-3.82v-.21A3.83,3.83,0,0,0,195.65,45.54Z"/><path class="cls-119" d="M205.82,49.45v.12a3.82,3.82,0,0,0,3.82,3.82H225.8a3.82,3.82,0,0,0,3.69-2.84h0a3.82,3.82,0,0,0-3.67-4.8l-16.15-.12A3.81,3.81,0,0,0,205.82,49.45Z"/></g></g></svg>