<svg xmlns="http://www.w3.org/2000/svg" xmlns:xlink="http://www.w3.org/1999/xlink" viewBox="0 0 427.06 261.26"><defs><style>.cls-1{isolation:isolate;}.cls-2{mix-blend-mode:multiply;}.cls-3,.cls-4{fill:#f9f9fb;}.cls-3{opacity:0.42;}.cls-4{opacity:0.62;}.cls-5{fill:url(#linear-gradient);}.cls-12,.cls-14,.cls-19,.cls-6{fill:#fff;}.cls-6{opacity:0.47;}.cls-7{fill:url(#linear-gradient-2);}.cls-8{fill:#1b1464;}.cls-9{fill:url(#linear-gradient-3);}.cls-10{fill:#f0f0f0;}.cls-11{fill:url(#New_Gradient_Swatch);}.cls-12{mix-blend-mode:overlay;}.cls-13{opacity:0.18;}.cls-15{fill:url(#linear-gradient-4);}.cls-16{opacity:0.41;}.cls-17{fill:url(#New_Gradient_Swatch-2);}.cls-18{fill:#ffc902;}.cls-19{opacity:0.5;}.cls-20{opacity:0.79;}.cls-21{fill:url(#New_Gradient_Swatch-3);}.cls-22{fill:url(#linear-gradient-5);}.cls-23{fill:url(#New_Gradient_Swatch-4);}.cls-24{fill:url(#linear-gradient-6);}.cls-25{fill:url(#linear-gradient-7);}.cls-26{fill:url(#linear-gradient-8);}.cls-27{fill:url(#linear-gradient-9);}.cls-28{fill:url(#linear-gradient-10);}.cls-29{fill:url(#linear-gradient-11);}.cls-30{fill:url(#linear-gradient-12);}.cls-31{fill:url(#linear-gradient-13);}.cls-32{fill:url(#linear-gradient-14);}.cls-33{fill:url(#linear-gradient-15);}.cls-34{fill:url(#linear-gradient-16);}.cls-35{fill:url(#linear-gradient-17);}.cls-36{fill:url(#linear-gradient-18);}.cls-37{fill:url(#linear-gradient-19);}.cls-38{fill:url(#linear-gradient-20);}.cls-39{fill:url(#linear-gradient-21);}.cls-40{fill:url(#linear-gradient-22);}.cls-41{fill:url(#linear-gradient-23);}.cls-42{fill:url(#linear-gradient-24);}.cls-43{fill:url(#linear-gradient-25);}.cls-44{fill:#e78456;}.cls-45{fill:url(#linear-gradient-26);}.cls-46{fill:url(#linear-gradient-27);}.cls-47{fill:url(#linear-gradient-28);}.cls-48{fill:url(#linear-gradient-29);}.cls-49{opacity:0.9;}.cls-50{fill:url(#linear-gradient-30);}.cls-51{fill:url(#linear-gradient-31);}.cls-52{fill:url(#linear-gradient-32);}.cls-53{fill:url(#linear-gradient-33);}.cls-54{fill:url(#linear-gradient-34);}.cls-55{fill:url(#linear-gradient-35);}.cls-56{fill:url(#linear-gradient-36);}.cls-57{fill:url(#linear-gradient-37);}.cls-58{fill:url(#linear-gradient-38);}.cls-59{fill:url(#linear-gradient-39);}.cls-60{fill:url(#linear-gradient-40);}.cls-61{fill:url(#linear-gradient-41);}.cls-62{fill:url(#linear-gradient-42);}.cls-63{fill:url(#linear-gradient-43);}.cls-64{fill:url(#linear-gradient-44);}.cls-65{fill:url(#linear-gradient-45);}.cls-66{fill:url(#linear-gradient-46);}.cls-67{fill:url(#linear-gradient-47);}.cls-68{fill:url(#linear-gradient-48);}.cls-69{fill:url(#linear-gradient-49);}.cls-70{fill:url(#linear-gradient-50);}.cls-71{fill:url(#linear-gradient-51);}.cls-72{fill:url(#linear-gradient-52);}.cls-73{fill:url(#linear-gradient-53);}.cls-74{fill:url(#linear-gradient-54);}.cls-75{fill:url(#linear-gradient-55);}</style><linearGradient id="linear-gradient" x1="444.23" y1="1308.75" x2="600.41" y2="1308.75" gradientTransform="matrix(0.53, -0.9, 0.91, 0.54, -1341.12, -132.85)" gradientUnits="userSpaceOnUse"><stop offset="0" stop-color="#53d8ff"/><stop offset="1" stop-color="#3840f7"/></linearGradient><linearGradient id="linear-gradient-2" x1="-1198.36" y1="19.28" x2="-1164.47" y2="151.5" gradientTransform="matrix(-1.24, 0, 0, 1, -1115.39, -4.98)" gradientUnits="userSpaceOnUse"><stop offset="0" stop-color="#b37cff"/><stop offset="1" stop-color="#f895e7"/></linearGradient><linearGradient id="linear-gradient-3" x1="62.65" y1="28.83" x2="9.48" y2="200.23" gradientTransform="translate(326.17 10.36) rotate(1.08)" xlink:href="#linear-gradient"/><linearGradient id="New_Gradient_Swatch" x1="263.84" y1="157.29" x2="347.92" y2="157.29" gradientUnits="userSpaceOnUse"><stop offset="0" stop-color="#ff13e6"/><stop offset="0.09" stop-color="#ff19df"/><stop offset="0.23" stop-color="#ff29cb"/><stop offset="0.4" stop-color="#ff43aa"/><stop offset="0.59" stop-color="#ff687c"/><stop offset="0.8" stop-color="#ff9642"/><stop offset="1" stop-color="#ffc902"/></linearGradient><linearGradient id="linear-gradient-4" x1="121.08" y1="290.98" x2="111.43" y2="175.61" gradientTransform="matrix(1, 0, 0, 1, 0, 0)" xlink:href="#linear-gradient-2"/><linearGradient id="New_Gradient_Swatch-2" x1="84.9" y1="244.19" x2="37.89" y2="160.9" xlink:href="#New_Gradient_Swatch"/><linearGradient id="New_Gradient_Swatch-3" x1="-483.59" y1="209.07" x2="-474.08" y2="219" gradientTransform="matrix(-1, 0, 0, 1, -187, 0)" xlink:href="#New_Gradient_Swatch"/><linearGradient id="linear-gradient-5" x1="-498.32" y1="199.4" x2="-488.61" y2="162.85" gradientTransform="matrix(-1, 0, 0, 1, -187, 0)" xlink:href="#linear-gradient"/><linearGradient id="New_Gradient_Swatch-4" x1="-470.97" y1="234" x2="-452.98" y2="247.2" gradientTransform="matrix(-1, 0, 0, 1, -187, 0)" xlink:href="#New_Gradient_Swatch"/><linearGradient id="linear-gradient-6" x1="307.49" y1="186.33" x2="332.27" y2="186.33" gradientUnits="userSpaceOnUse"><stop offset="0" stop-color="#f9b776"/><stop offset="1" stop-color="#f47960"/></linearGradient><linearGradient id="linear-gradient-7" x1="-470.72" y1="208.96" x2="-508.34" y2="223.15" gradientTransform="matrix(-1, 0, 0, 1, -187, 0)" xlink:href="#linear-gradient"/><linearGradient id="linear-gradient-8" x1="358.12" y1="178.44" x2="301.72" y2="202.88" gradientUnits="userSpaceOnUse"><stop offset="0" stop-color="#cb236d"/><stop offset="1" stop-color="#4c246d"/></linearGradient><linearGradient id="linear-gradient-9" x1="-529.21" y1="170.74" x2="-528.31" y2="162.65" gradientTransform="matrix(-1, 0, 0, 1, -187, 0)" xlink:href="#linear-gradient-6"/><linearGradient id="linear-gradient-10" x1="-524.41" y1="163.68" x2="-528.38" y2="150.61" gradientTransform="matrix(-1, 0, 0, 1, -187, 0)" xlink:href="#linear-gradient-6"/><linearGradient id="linear-gradient-11" x1="-528.52" y1="164.93" x2="-532.48" y2="151.86" gradientTransform="matrix(-1, 0, 0, 1, -187, 0)" xlink:href="#linear-gradient-6"/><linearGradient id="linear-gradient-12" x1="330.12" y1="179.84" x2="332.03" y2="179.84" xlink:href="#linear-gradient-8"/><linearGradient id="linear-gradient-13" x1="339.96" y1="182.67" x2="343.49" y2="182.67" xlink:href="#linear-gradient-8"/><linearGradient id="linear-gradient-14" x1="346.55" y1="187.94" x2="354.59" y2="187.94" xlink:href="#linear-gradient-8"/><linearGradient id="linear-gradient-15" x1="328.85" y1="204.39" x2="327.3" y2="190.41" xlink:href="#linear-gradient-6"/><linearGradient id="linear-gradient-16" x1="127.89" y1="110.5" x2="128.33" y2="122.3" xlink:href="#linear-gradient-6"/><linearGradient id="linear-gradient-17" x1="96.62" y1="14.92" x2="90.4" y2="23.7" gradientTransform="translate(27.28 91.5) rotate(-4.92)" xlink:href="#linear-gradient-6"/><linearGradient id="linear-gradient-18" x1="105.65" y1="146.43" x2="102.11" y2="150.88" xlink:href="#linear-gradient-6"/><linearGradient id="linear-gradient-19" x1="137.84" y1="132.88" x2="110.54" y2="140.65" gradientUnits="userSpaceOnUse"><stop offset="0" stop-color="#18459f"/><stop offset="1" stop-color="#2874b5"/></linearGradient><linearGradient id="linear-gradient-20" x1="88.57" y1="145.8" x2="90.79" y2="153.6" xlink:href="#linear-gradient-6"/><linearGradient id="linear-gradient-21" x1="2518.01" y1="168.55" x2="2519.08" y2="158.91" gradientTransform="matrix(-0.92, 0.39, 0.39, 0.92, 2402.84, -1014.82)" xlink:href="#linear-gradient-6"/><linearGradient id="linear-gradient-22" x1="1788.36" y1="41.55" x2="1784.1" y2="27.49" gradientTransform="matrix(-0.95, -0.31, -0.31, 0.95, 1847.53, 613.59)" xlink:href="#linear-gradient-6"/><linearGradient id="linear-gradient-23" x1="1784.84" y1="43.23" x2="1780.57" y2="29.17" gradientTransform="matrix(-0.95, -0.31, -0.31, 0.95, 1847.53, 613.59)" xlink:href="#linear-gradient-6"/><linearGradient id="linear-gradient-24" x1="121.32" y1="99.15" x2="133.47" y2="141.77" xlink:href="#linear-gradient-6"/><linearGradient id="linear-gradient-25" x1="109.64" y1="115.66" x2="126.74" y2="175.65" xlink:href="#linear-gradient-19"/><linearGradient id="linear-gradient-26" x1="2104.6" y1="-316.7" x2="2090.74" y2="-297.14" gradientTransform="matrix(-0.92, 0.4, 0.4, 0.92, 2170.78, -455)" xlink:href="#linear-gradient"/><linearGradient id="linear-gradient-27" x1="2066.8" y1="972.67" x2="2065.62" y2="974.33" gradientTransform="matrix(-0.98, 0.21, 0.11, 0.51, 2036.31, -830.84)" gradientUnits="userSpaceOnUse"><stop offset="0" stop-color="#8d55d1"/><stop offset="1" stop-color="#1c2873"/></linearGradient><linearGradient id="linear-gradient-28" x1="119.06" y1="106.84" x2="121.37" y2="129.92" xlink:href="#linear-gradient-6"/><linearGradient id="linear-gradient-29" x1="125.59" y1="104.56" x2="127.32" y2="104.56" xlink:href="#linear-gradient-6"/><linearGradient id="linear-gradient-30" x1="2958.74" y1="203.12" x2="2971.81" y2="188.45" gradientTransform="translate(-2866.38)" xlink:href="#linear-gradient-6"/><linearGradient id="linear-gradient-31" x1="15407.41" y1="194.79" x2="15522.69" y2="122.63" gradientTransform="translate(-15296.44)" xlink:href="#linear-gradient-6"/><linearGradient id="linear-gradient-32" x1="81.79" y1="156.33" x2="76.07" y2="177.5" xlink:href="#linear-gradient-6"/><linearGradient id="linear-gradient-33" x1="-11972.31" y1="-681.84" x2="-11970.67" y2="-693.84" gradientTransform="matrix(-1, -0.07, -0.07, 1, -11921.19, -15.48)" xlink:href="#linear-gradient-6"/><linearGradient id="linear-gradient-34" x1="-11081" y1="-4901.71" x2="-11065.55" y2="-4929.2" gradientTransform="matrix(-0.55, -0.84, -0.84, 0.55, -10087.41, -6456.77)" xlink:href="#linear-gradient-6"/><linearGradient id="linear-gradient-35" x1="-11077.71" y1="-4899.86" x2="-11062.26" y2="-4927.36" gradientTransform="matrix(-0.55, -0.84, -0.84, 0.55, -10087.41, -6456.77)" xlink:href="#linear-gradient-6"/><linearGradient id="linear-gradient-36" x1="70.72" y1="171.15" x2="95.57" y2="171.15" xlink:href="#linear-gradient-6"/><linearGradient id="linear-gradient-37" x1="88.11" y1="158.57" x2="85.09" y2="169.73" xlink:href="#linear-gradient-6"/><linearGradient id="linear-gradient-38" x1="354.97" y1="85.25" x2="439.55" y2="75.67" gradientUnits="userSpaceOnUse"><stop offset="0" stop-color="#e40045"/><stop offset="1" stop-color="#5c0e16"/></linearGradient><linearGradient id="linear-gradient-39" x1="356.58" y1="99.64" x2="441.16" y2="90.06" xlink:href="#linear-gradient-38"/><linearGradient id="linear-gradient-40" x1="307.43" y1="135.94" x2="359.77" y2="130.02" xlink:href="#linear-gradient-38"/><linearGradient id="linear-gradient-41" x1="308.42" y1="144.85" x2="360.77" y2="138.92" xlink:href="#linear-gradient-38"/><linearGradient id="linear-gradient-42" x1="325.45" y1="110.55" x2="395.01" y2="102.68" xlink:href="#linear-gradient-38"/><linearGradient id="linear-gradient-43" x1="326.77" y1="122.39" x2="396.34" y2="114.52" xlink:href="#linear-gradient-38"/><linearGradient id="linear-gradient-44" x1="302.58" y1="165.02" x2="339.3" y2="160.86" xlink:href="#linear-gradient-38"/><linearGradient id="linear-gradient-45" x1="303.28" y1="171.27" x2="340" y2="167.11" xlink:href="#linear-gradient-38"/><linearGradient id="linear-gradient-46" x1="70.7" y1="38.43" x2="162.29" y2="28.06" xlink:href="#linear-gradient-38"/><linearGradient id="linear-gradient-47" x1="72.44" y1="54.01" x2="164.04" y2="43.64" xlink:href="#linear-gradient-38"/><linearGradient id="linear-gradient-48" x1="82.16" y1="131.06" x2="113.42" y2="127.52" xlink:href="#linear-gradient-38"/><linearGradient id="linear-gradient-49" x1="82.76" y1="136.38" x2="114.02" y2="132.84" xlink:href="#linear-gradient-38"/><linearGradient id="linear-gradient-50" x1="56.36" y1="78.63" x2="127.22" y2="70.61" xlink:href="#linear-gradient-38"/><linearGradient id="linear-gradient-51" x1="57.71" y1="90.69" x2="128.57" y2="82.66" xlink:href="#linear-gradient-38"/><linearGradient id="linear-gradient-52" x1="61.98" y1="110.7" x2="121.53" y2="103.96" xlink:href="#linear-gradient-38"/><linearGradient id="linear-gradient-53" x1="63.11" y1="120.83" x2="122.67" y2="114.09" xlink:href="#linear-gradient-38"/><linearGradient id="linear-gradient-54" x1="-598.42" y1="1089.47" x2="-625.06" y2="958.34" gradientTransform="translate(181.68 -1001.46) rotate(-28.81)" xlink:href="#linear-gradient-8"/><linearGradient id="linear-gradient-55" x1="-428.82" y1="164.49" x2="-375.68" y2="164.49" gradientTransform="matrix(-0.07, -1.04, 1.05, -0.07, -64.21, -190.86)" xlink:href="#linear-gradient"/></defs><title>WhatWeDo2</title><g class="cls-1"><g id="Layer_1" data-name="Layer 1"><g class="cls-2"><path class="cls-3" d="M.41,156.36C7,211,73,214.76,141.74,204.88c98-14.08,116.39,93.6,226.27,42.54C446.56,210.93,488.17-23.79,217.83,2,150.4,8.4,111,13.1,70.59,36.91,35.92,57.34-4.53,115.68.41,156.36Z"/><path class="cls-4" d="M13.28,129.42C-13.95,194.33,60.73,224.1,125.53,204c121.29-37.68,167.34,92.7,255.52,25.95,67.5-51.11,69.69-229.86-106-225.3C177.59,7.15,59.34,19.64,13.28,129.42Z"/></g><path class="cls-5" d="M148.11,195.44c-22.93,1.65-47.66-17.32-46.8-31.16.74-12,20.47-15.93,19.3-25.86-1.4-11.93-30.58-12.37-33.26-25.63-2.56-12.73,22.43-21.5,20.15-34.26C105.07,64.9,75.25,67.62,68.23,50.58,62.38,36.37,74.32,13.13,93.83,5c15.88-6.64,38.19-3.88,44.66,7.66,8.83,15.76-17.94,37-9,52.16,8.27,14,36.37,4.81,42.74,17.86,6.86,14-20.52,35.23-13.77,45.7,5.94,9.2,29.7-3.09,36.42,5.64C203.78,145.53,182.19,193,148.11,195.44Z"/><path class="cls-6" d="M99.72,27.63c5.82,12,11.28,24.22,16.59,36.47,2.68,6.12,5.25,12.29,7.84,18.44,1.28,3.08,2.53,6.18,3.79,9.27s2.54,6.17,3.75,9.28l3.66,9.32c1.2,3.12,2.41,6.23,3.59,9.35l.88,2.34.87,2.35,1.73,4.7,1.72,4.7,1.66,4.73a388.29,388.29,0,0,1,11.73,38.27l-.25.07c-4.11-12.69-8.84-25.14-13.62-37.59l-1.79-4.66L140.05,130l-1.81-4.66-.91-2.32-.93-2.33c-1.24-3.09-2.44-6.2-3.66-9.3L129,102.12,114.16,65c-5-12.38-9.89-24.78-14.68-37.24Z"/><path class="cls-7" d="M325.14,181c13.63,2.46,31.31-9.23,37.18-22.26,6-13.4-4.46-19.26-4-38,.5-21.3,14.29-24.25,23.92-52.8,2.17-6.44,14.74-43.71.17-51-13.47-6.75-52,11.18-59.14,34.92-5.1,16.93,9.52,24.35,3.51,44.07-5.27,17.3-18.27,17.31-23.56,34C296.74,150.23,307.26,177.8,325.14,181Z"/><path class="cls-8" d="M327,185c-2.38-21.62,3.69-54.78,9.21-78.8,6-26,12.6-47.18,12.66-47.39l.86.27c-.07.21-6.68,21.36-12.65,47.33-5.5,23.94-11.56,57-9.18,78.49Z"/><path class="cls-9" d="M334.39,177.76c-14.5-7.9-19-34.2-10.53-42.56,5.73-5.65,13.68.56,21.58-5.26,10.08-7.43,3-21.91,11.2-40.36,6.95-15.71,23.18-30.39,32.44-27.14,9.69,3.41,14.38,27.37,5.78,41.58-5.6,9.24-13.9,9.54-15.86,18.2-2.28,10,7.72,14.83,7.59,24.61C386.36,164.39,353.58,188.22,334.39,177.76Z"/><path class="cls-8" d="M342.17,184.62a.58.58,0,0,1-.26-.06.6.6,0,0,1-.26-.8c20.17-39.64,26.74-85.95,26.8-86.41a.6.6,0,1,1,1.18.16c-.06.47-6.66,47-26.92,86.79A.57.57,0,0,1,342.17,184.62Z"/><path class="cls-10" d="M383.44,109.72a.3.3,0,0,1-.22-.08.35.35,0,0,1-.06-.49c11.34-14,12.28-24.59,11.07-31a20.44,20.44,0,0,0-5.39-10.69.35.35,0,0,1,.47-.52,20.74,20.74,0,0,1,5.6,11c1.25,6.57.32,17.4-11.2,31.63A.34.34,0,0,1,383.44,109.72Z"/><path class="cls-10" d="M333.14,174.31a.34.34,0,0,1-.29-.16c-9.17-13.94-12.18-24.64-9-31.81,2.87-6.38,9.85-7.45,9.93-7.46a.36.36,0,0,1,.39.3.35.35,0,0,1-.3.4c-.06,0-6.67,1-9.39,7.06-3.12,6.93-.12,17.4,8.91,31.13a.35.35,0,0,1-.1.48A.36.36,0,0,1,333.14,174.31Z"/><path class="cls-11" d="M344.61,80.57a2.16,2.16,0,0,0-2.3-1.94H266.46c-1.27,0-2.62.89-2.62,2V232.89a3.06,3.06,0,0,0,1.21,2.17,4.08,4.08,0,0,0,2.6.89l76.69-.18a3.9,3.9,0,0,0,2.56-.92,2.86,2.86,0,0,0,1-2.2Z"/><polygon class="cls-12" points="301.04 89.42 276.23 89.34 276.24 86.67 301.03 86.74 301.04 89.42"/><polygon class="cls-12" points="301.11 99.25 276.19 99.16 276.2 96.46 301.09 96.56 301.11 99.25"/><polygon class="cls-12" points="301.18 109.17 276.16 109.05 276.17 106.34 301.16 106.45 301.18 109.17"/><polygon class="cls-12" points="301.25 119.17 276.13 119.03 276.14 116.29 301.23 116.43 301.25 119.17"/><polygon class="cls-12" points="301.32 129.26 276.09 129.09 276.1 126.33 301.3 126.49 301.32 129.26"/><polygon class="cls-12" points="301.46 149.68 276.02 149.46 276.03 146.65 301.44 146.87 301.46 149.68"/><polygon class="cls-12" points="301.68 180.97 275.91 180.66 275.92 177.78 301.66 178.08 301.68 180.97"/><polygon class="cls-12" points="301.39 139.43 276.06 139.23 276.07 136.44 301.37 136.63 301.39 139.43"/><polygon class="cls-12" points="301.53 160.02 275.99 159.77 276 156.94 301.51 157.18 301.53 160.02"/><polygon class="cls-12" points="301.61 170.45 275.95 170.17 275.96 167.32 301.58 167.59 301.61 170.45"/><polygon class="cls-12" points="301.75 191.57 275.88 191.24 275.89 188.34 301.73 188.66 301.75 191.57"/><polygon class="cls-12" points="301.82 202.27 275.84 201.91 275.85 198.98 301.8 199.33 301.82 202.27"/><polygon class="cls-12" points="301.9 213.06 275.8 212.67 275.81 209.72 301.88 210.1 301.9 213.06"/><polygon class="cls-12" points="301.98 223.94 275.76 223.52 275.77 220.54 301.95 220.96 301.98 223.94"/><polygon class="cls-12" points="333.58 89.51 308.61 89.44 308.58 86.76 333.52 86.83 333.58 89.51"/><polygon class="cls-12" points="333.78 99.38 308.71 99.28 308.68 96.58 333.73 96.67 333.78 99.38"/><polygon class="cls-12" points="333.99 109.33 308.81 109.21 308.78 106.49 333.93 106.6 333.99 109.33"/><polygon class="cls-12" points="334.19 119.37 308.91 119.22 308.88 116.47 334.13 116.61 334.19 119.37"/><polygon class="cls-12" points="334.4 129.48 309.01 129.31 308.98 126.54 334.34 126.71 334.4 129.48"/><polygon class="cls-12" points="334.82 149.97 309.22 149.75 309.19 146.93 334.76 147.15 334.82 149.97"/><polygon class="cls-12" points="335.46 181.36 309.53 181.06 309.5 178.17 335.4 178.47 335.46 181.36"/><polygon class="cls-12" points="334.61 139.69 309.11 139.49 309.08 136.69 334.55 136.88 334.61 139.69"/><polygon class="cls-12" points="335.03 160.35 309.32 160.1 309.29 157.26 334.97 157.5 335.03 160.35"/><polygon class="cls-12" points="335.25 170.81 309.43 170.53 309.4 167.67 335.19 167.94 335.25 170.81"/><polygon class="cls-12" points="335.68 192.01 309.64 191.67 309.61 188.76 335.62 189.09 335.68 192.01"/><polygon class="cls-12" points="335.9 202.74 309.75 202.38 309.72 199.44 335.84 199.79 335.9 202.74"/><polygon class="cls-12" points="336.13 213.57 309.86 213.18 309.82 210.21 336.06 210.6 336.13 213.57"/><polygon class="cls-12" points="336.35 224.49 309.96 224.07 309.94 221.08 336.29 221.49 336.35 224.49"/><path class="cls-8" d="M123.59,73.08a3.53,3.53,0,0,0-1.34-2.65,4.69,4.69,0,0,0-3.14-1L31,72.47a2.58,2.58,0,0,0-2.66,2.46l4.48,163.41,89.1-.94a4.64,4.64,0,0,0,3-1.13,3.52,3.52,0,0,0,1.22-2.65Z"/><g class="cls-13"><polygon class="cls-14" points="52.38 98.55 39.35 98.55 38.71 82.22 51.81 82.22 52.38 98.55"/><polygon class="cls-14" points="72.67 98.51 60.28 98.5 59.77 82.22 72.23 82.22 72.67 98.51"/><polygon class="cls-14" points="93.41 98.47 80.53 98.46 80.14 82.22 93.11 82.22 93.41 98.47"/><polygon class="cls-14" points="114.04 98.42 101.23 98.42 100.97 82.22 113.86 82.22 114.04 98.42"/><polygon class="cls-14" points="53.3 125.11 40.41 125.19 39.78 109.23 52.74 109.18 53.3 125.11"/><polygon class="cls-14" points="73.38 125 61.12 125.07 60.61 109.15 72.95 109.11 73.38 125"/><polygon class="cls-14" points="93.9 124.89 81.16 124.96 80.78 109.08 93.61 109.04 93.9 124.89"/><polygon class="cls-14" points="114.32 124.77 101.64 124.84 101.39 109.01 114.15 108.96 114.32 124.77"/><polygon class="cls-14" points="54.2 151.07 41.44 151.19 40.82 135.55 53.65 135.46 54.2 151.07"/><polygon class="cls-14" points="74.07 150.89 61.94 151 61.44 135.41 73.65 135.32 74.07 150.89"/><polygon class="cls-14" points="94.39 150.71 81.77 150.82 81.4 135.27 94.09 135.18 94.39 150.71"/><polygon class="cls-14" points="114.59 150.52 102.04 150.64 101.8 135.13 114.43 135.04 114.59 150.52"/><polygon class="cls-14" points="55.08 176.5 42.46 176.66 41.85 161.34 54.55 161.21 55.08 176.5"/><polygon class="cls-14" points="74.75 176.26 62.74 176.41 62.26 161.13 74.34 161 74.75 176.26"/><polygon class="cls-14" points="94.86 176.01 82.37 176.16 82.01 160.92 94.57 160.79 94.86 176.01"/><polygon class="cls-14" points="114.86 175.76 102.44 175.91 102.2 160.71 114.7 160.58 114.86 175.76"/><polygon class="cls-14" points="55.94 201.42 43.45 201.62 42.85 186.61 55.42 186.44 55.94 201.42"/><polygon class="cls-14" points="75.41 201.12 63.53 201.3 63.05 186.33 75.01 186.17 75.41 201.12"/><polygon class="cls-14" points="95.32 200.8 82.96 201 82.61 186.06 95.04 185.89 95.32 200.8"/><polygon class="cls-14" points="115.13 200.49 102.83 200.69 102.59 185.79 114.97 185.62 115.13 200.49"/><polygon class="cls-14" points="56.79 225.85 44.42 226.09 43.84 211.37 56.28 211.16 56.79 225.85"/><polygon class="cls-14" points="76.07 225.49 64.3 225.71 63.83 211.03 75.67 210.83 76.07 225.49"/><polygon class="cls-14" points="95.78 225.11 83.54 225.34 83.19 210.7 95.5 210.49 95.78 225.11"/><polygon class="cls-14" points="115.39 224.74 103.21 224.97 102.98 210.37 115.23 210.16 115.39 224.74"/></g><path class="cls-15" d="M167,150.86c0-.61-1.4-1.09-3.07-1.09H62.38c-1.7,0-3.5.5-3.5,1.11v85.74c0,.46.72.9,1.61,1.22a11,11,0,0,0,3.49.5l102.68-.1a10.13,10.13,0,0,0,3.42-.52c.9-.33,1.4-.77,1.38-1.23Z"/><g class="cls-16"><polygon class="cls-12" points="108.69 155.84 75.47 155.8 75.48 154.3 108.67 154.34 108.69 155.84"/><polygon class="cls-12" points="108.78 161.38 75.42 161.33 75.43 159.81 108.76 159.86 108.78 161.38"/><polygon class="cls-12" points="108.87 166.97 75.37 166.9 75.39 165.37 108.85 165.43 108.87 166.97"/><polygon class="cls-12" points="108.97 172.59 75.33 172.51 75.34 170.97 108.94 171.05 108.97 172.59"/><polygon class="cls-12" points="109.06 178.27 75.28 178.18 75.29 176.62 109.03 176.72 109.06 178.27"/><polygon class="cls-12" points="109.25 189.77 75.19 189.65 75.2 188.06 109.22 188.19 109.25 189.77"/><polygon class="cls-12" points="109.54 207.38 75.04 207.21 75.05 205.59 109.51 205.76 109.54 207.38"/><polygon class="cls-12" points="109.15 184 75.23 183.89 75.25 182.32 109.13 182.43 109.15 184"/><polygon class="cls-12" points="109.34 195.59 75.14 195.45 75.15 193.86 109.32 194 109.34 195.59"/><polygon class="cls-12" points="109.44 201.46 75.09 201.31 75.1 199.7 109.41 199.85 109.44 201.46"/><polygon class="cls-12" points="109.64 213.36 74.99 213.17 75 211.53 109.61 211.72 109.64 213.36"/><polygon class="cls-12" points="109.73 219.38 74.94 219.18 74.96 217.53 109.71 217.73 109.73 219.38"/><polygon class="cls-12" points="109.83 225.45 74.89 225.24 74.91 223.57 109.81 223.79 109.83 225.45"/><polygon class="cls-12" points="109.94 231.58 74.84 231.35 74.86 229.67 109.91 229.9 109.94 231.58"/><polygon class="cls-12" points="152.25 155.9 118.82 155.85 118.78 154.35 152.18 154.38 152.25 155.9"/><polygon class="cls-12" points="152.52 161.45 118.95 161.4 118.91 159.88 152.45 159.93 152.52 161.45"/><polygon class="cls-12" points="152.8 167.06 119.08 166.99 119.05 165.45 152.72 165.52 152.8 167.06"/><polygon class="cls-12" points="153.07 172.7 119.22 172.62 119.18 171.07 153 171.15 153.07 172.7"/><polygon class="cls-12" points="153.35 178.4 119.36 178.3 119.32 176.74 153.27 176.84 153.35 178.4"/><polygon class="cls-12" points="153.91 189.94 119.63 189.81 119.59 188.22 153.84 188.35 153.91 189.94"/><polygon class="cls-12" points="154.78 207.61 120.05 207.44 120.02 205.81 154.7 205.98 154.78 207.61"/><polygon class="cls-12" points="153.63 184.14 119.49 184.03 119.46 182.46 153.55 182.57 153.63 184.14"/><polygon class="cls-12" points="154.2 195.78 119.77 195.64 119.73 194.04 154.12 194.17 154.2 195.78"/><polygon class="cls-12" points="154.49 201.67 119.91 201.51 119.87 199.9 154.41 200.05 154.49 201.67"/><polygon class="cls-12" points="155.07 213.6 120.2 213.41 120.16 211.77 154.99 211.96 155.07 213.6"/><polygon class="cls-12" points="155.36 219.65 120.34 219.44 120.3 217.79 155.28 217.99 155.36 219.65"/><polygon class="cls-12" points="155.66 225.74 120.49 225.52 120.45 223.85 155.58 224.07 155.66 225.74"/><polygon class="cls-12" points="155.96 231.89 120.64 231.65 120.59 229.97 155.88 230.2 155.96 231.89"/></g><path class="cls-17" d="M116.56,196c0-.31-1.2-.57-2.63-.57H27c-1.45,0-3,.27-3,.59v44.62c0,.24.62.47,1.39.64a15,15,0,0,0,3,.26l87.84-.05a14.48,14.48,0,0,0,2.93-.27c.76-.18,1.19-.41,1.17-.65Z"/><polygon class="cls-12" points="45.86 198.59 32.15 198.56 32.16 197.78 45.85 197.8 45.86 198.59"/><polygon class="cls-12" points="45.9 201.47 32.13 201.44 32.14 200.65 45.89 200.68 45.9 201.47"/><polygon class="cls-12" points="45.94 204.38 32.11 204.34 32.12 203.54 45.93 203.58 45.94 204.38"/><polygon class="cls-12" points="45.98 207.31 32.09 207.26 32.1 206.46 45.97 206.5 45.98 207.31"/><polygon class="cls-12" points="46.01 210.26 32.08 210.21 32.08 209.4 46 209.45 46.01 210.26"/><polygon class="cls-12" points="46.09 216.25 32.04 216.18 32.04 215.36 46.08 215.42 46.09 216.25"/><polygon class="cls-12" points="46.21 225.41 31.98 225.32 31.98 224.48 46.2 224.57 46.21 225.41"/><polygon class="cls-12" points="46.05 213.24 32.06 213.18 32.06 212.37 46.04 212.42 46.05 213.24"/><polygon class="cls-12" points="46.13 219.28 32.02 219.2 32.02 218.37 46.12 218.44 46.13 219.28"/><polygon class="cls-12" points="46.17 222.33 32 222.25 32 221.41 46.16 221.49 46.17 222.33"/><polygon class="cls-12" points="46.25 228.52 31.96 228.43 31.96 227.57 46.24 227.67 46.25 228.52"/><polygon class="cls-12" points="46.29 231.66 31.94 231.55 31.94 230.69 46.28 230.8 46.29 231.66"/><polygon class="cls-12" points="46.33 234.82 31.91 234.71 31.92 233.84 46.32 233.95 46.33 234.82"/><polygon class="cls-12" points="46.38 238.01 31.89 237.89 31.9 237.01 46.37 237.13 46.38 238.01"/><polygon class="cls-12" points="63.84 198.62 50.04 198.59 50.03 197.81 63.81 197.83 63.84 198.62"/><polygon class="cls-12" points="63.95 201.51 50.1 201.48 50.08 200.69 63.92 200.71 63.95 201.51"/><polygon class="cls-12" points="64.06 204.42 50.15 204.39 50.14 203.59 64.03 203.62 64.06 204.42"/><polygon class="cls-12" points="64.18 207.36 50.21 207.32 50.19 206.51 64.14 206.56 64.18 207.36"/><polygon class="cls-12" points="64.29 210.33 50.26 210.28 50.25 209.47 64.26 209.51 64.29 210.33"/><polygon class="cls-12" points="64.52 216.33 50.38 216.27 50.36 215.44 64.49 215.5 64.52 216.33"/><polygon class="cls-12" points="64.88 225.53 50.55 225.44 50.53 224.59 64.85 224.68 64.88 225.53"/><polygon class="cls-12" points="64.41 213.32 50.32 213.26 50.3 212.44 64.38 212.5 64.41 213.32"/><polygon class="cls-12" points="64.64 219.37 50.43 219.3 50.42 218.47 64.61 218.54 64.64 219.37"/><polygon class="cls-12" points="64.76 222.44 50.49 222.36 50.48 221.52 64.73 221.6 64.76 222.44"/><polygon class="cls-12" points="65 228.65 50.61 228.55 50.59 227.7 64.97 227.79 65 228.65"/><polygon class="cls-12" points="65.12 231.8 50.67 231.69 50.65 230.83 65.09 230.93 65.12 231.8"/><polygon class="cls-12" points="65.24 234.97 50.73 234.85 50.71 233.99 65.21 234.1 65.24 234.97"/><polygon class="cls-12" points="65.37 238.17 50.79 238.05 50.77 237.17 65.33 237.29 65.37 238.17"/><polygon class="cls-12" points="89.58 198.59 75.87 198.56 75.87 197.78 89.57 197.8 89.58 198.59"/><polygon class="cls-12" points="89.61 201.47 75.85 201.44 75.85 200.65 89.6 200.68 89.61 201.47"/><polygon class="cls-12" points="89.65 204.38 75.83 204.34 75.83 203.54 89.64 203.58 89.65 204.38"/><polygon class="cls-12" points="89.69 207.31 75.81 207.26 75.81 206.46 89.68 206.5 89.69 207.31"/><polygon class="cls-12" points="89.73 210.26 75.79 210.21 75.8 209.4 89.72 209.45 89.73 210.26"/><polygon class="cls-12" points="89.81 216.25 75.75 216.18 75.76 215.36 89.8 215.42 89.81 216.25"/><polygon class="cls-12" points="89.93 225.41 75.69 225.32 75.7 224.48 89.92 224.57 89.93 225.41"/><polygon class="cls-12" points="89.77 213.24 75.77 213.18 75.78 212.37 89.76 212.42 89.77 213.24"/><polygon class="cls-12" points="89.85 219.28 75.73 219.2 75.74 218.37 89.83 218.44 89.85 219.28"/><polygon class="cls-12" points="89.89 222.33 75.71 222.25 75.72 221.41 89.88 221.49 89.89 222.33"/><polygon class="cls-12" points="89.97 228.52 75.67 228.43 75.68 227.57 89.95 227.67 89.97 228.52"/><polygon class="cls-12" points="90.01 231.66 75.65 231.55 75.66 230.69 90 230.8 90.01 231.66"/><polygon class="cls-12" points="90.05 234.82 75.63 234.71 75.64 233.84 90.04 233.95 90.05 234.82"/><polygon class="cls-12" points="90.09 238.01 75.61 237.89 75.61 237.01 90.08 237.13 90.09 238.01"/><polygon class="cls-12" points="107.55 198.62 93.75 198.59 93.74 197.81 107.52 197.83 107.55 198.62"/><polygon class="cls-12" points="107.66 201.51 93.81 201.48 93.8 200.69 107.63 200.71 107.66 201.51"/><polygon class="cls-12" points="107.78 204.42 93.86 204.39 93.85 203.59 107.75 203.62 107.78 204.42"/><polygon class="cls-12" points="107.89 207.36 93.92 207.32 93.91 206.51 107.86 206.56 107.89 207.36"/><polygon class="cls-12" points="108 210.33 93.98 210.28 93.96 209.47 107.97 209.51 108 210.33"/><polygon class="cls-12" points="108.24 216.33 94.09 216.27 94.08 215.44 108.2 215.5 108.24 216.33"/><polygon class="cls-12" points="108.59 225.53 94.27 225.44 94.25 224.59 108.56 224.68 108.59 225.53"/><polygon class="cls-12" points="108.12 213.32 94.03 213.26 94.02 212.44 108.09 212.5 108.12 213.32"/><polygon class="cls-12" points="108.36 219.37 94.15 219.3 94.13 218.47 108.32 218.54 108.36 219.37"/><polygon class="cls-12" points="108.47 222.44 94.21 222.36 94.19 221.52 108.44 221.6 108.47 222.44"/><polygon class="cls-12" points="108.71 228.65 94.32 228.55 94.31 227.7 108.68 227.79 108.71 228.65"/><polygon class="cls-12" points="108.84 231.8 94.38 231.69 94.37 230.83 108.8 230.93 108.84 231.8"/><polygon class="cls-12" points="108.96 234.97 94.44 234.85 94.43 233.99 108.92 234.1 108.96 234.97"/><polygon class="cls-12" points="109.08 238.17 94.5 238.05 94.49 237.17 109.05 237.29 109.08 238.17"/><path class="cls-8" d="M287,37.59c.72,34,3.06,151.32,1.94,192.89-.12,4.4-3.13,7.94-6.9,8.08-18.62.72-86.87,2.52-117.33,1-6.34-.31-11.39-6.32-11.52-13.75-.63-35.7-2-136.1,1.29-182.09.4-5.51,4.1-9.9,8.8-10.45,20.28-2.38,88.83-8.18,115.14-6.18C283.14,27.48,286.86,32,287,37.59Z"/><path class="cls-18" d="M278.67,48c1,27.45,4.17,118.77,3.16,152.54-.14,4.94-3.47,8.93-7.68,9.22-17.36,1.19-76.56,3.81-102,1.42-4.58-.43-8.18-4.76-8.42-10.13-1.29-28-5-113-4-146.43.16-5.33,3.68-9.68,8.22-10.16,18.77-2,81.68-6.66,103.31-5.28C275.27,39.46,278.5,43.27,278.67,48Z"/><path class="cls-19" d="M241,33.06h0a1.85,1.85,0,0,1-1.59,2c-4.4.27-16.79,1-22.32,1.41a1.87,1.87,0,0,1-1.74-2.33l0-.21a1.81,1.81,0,0,1,1.49-1.59c3.74-.4,15-1.51,22.52-1.2A1.85,1.85,0,0,1,241,33.06Z"/><path class="cls-8" d="M369.62,163.64s9.72,5.39,10.53,14.5.07,46.94-19.43,56.25-45.28,7.16-55.16,6.14S290.21,232.8,289,228.18s-3.2-21.83,7.19-27.38,21.3-14.06,32.2-22.35S358,156.65,369.62,163.64Z"/><path class="cls-21" d="M299.24,203.94s2.62.14,2.94,5.53a31.07,31.07,0,0,1-14.3,6.75c-.61.1.87-4.21,1.09-4.79C290,208.65,293.36,206.86,299.24,203.94Z"/><path class="cls-22" d="M328.78,197.59h-2.63a6.7,6.7,0,0,1-4.83-2c-4.36-4.5-15.26-15.1-23.88-18a2.91,2.91,0,0,0-3.56,1.54c-1.8,3.83-4.32,12.76,1.65,26.28a2.7,2.7,0,0,0,3.91,1.22,2.32,2.32,0,0,0,.84-1l-.66-15.8s14.49,12.68,17,15.12S332,205.84,328.78,197.59Z"/><path class="cls-23" d="M275.26,237a20.89,20.89,0,0,1,11.36-5l1.8,1.11a20,20,0,0,1-3.25,3.49,22.8,22.8,0,0,1-7.39,3C275.37,239.91,275,238.45,275.26,237Z"/><path class="cls-18" d="M289,211.43c1.43.46,2.06,2.49,5.68,1.15a32.35,32.35,0,0,0,7.46-3.93c0,.26.06.53.07.82,0,0-6.41,6.1-14.63,7.4a.82.82,0,0,1-.88-1.1A20.54,20.54,0,0,1,289,211.43Z"/><path class="cls-18" d="M273.52,238.73a18.94,18.94,0,0,1,1.74-1.74c-.24,1.46.11,2.92,2.52,2.6a22.8,22.8,0,0,0,7.39-3,16,16,0,0,1-10.76,4.12A1.21,1.21,0,0,1,273.52,238.73Z"/><path class="cls-24" d="M326.78,180.64s-4.26,12.26-12.56,2.93l-.79-.35h0l-5.94-4.07.66,2.35a4.38,4.38,0,0,0,2.56,2.88l.79.32c1.49,3.1,4.68,7.8,9.6,8.69,7.39,1.34,11.17-8.64,11.17-8.64Z"/><path class="cls-25" d="M328.58,201.6l-25.92.28s-14.81,12.25-17.49,30.92c0,0-.45,1.38,2.23,1.61a51.26,51.26,0,0,0,14.78-16.18c7.16-12.67,21.34-7,21.34-7,4.66-3.36,11.24-4,16.2-5.16Z"/><path class="cls-26" d="M326.47,201.37a74.51,74.51,0,0,0,3.86-17,36.33,36.33,0,0,0-3.77-2.86,1,1,0,0,1-.41-1.36c1.06-2.21,7.52-10.89,8-11,2.63-.65,13.4-5.77,21,4.6,3.25,4.46-.65,18.17-15.42,32.37l-3.05.58Z"/><path class="cls-27" d="M343.85,161.81l1.92,6.44a.7.7,0,0,1-.27.78,7.21,7.21,0,0,1-6.69.68,1.06,1.06,0,0,1-.67-.91l-.46-5.6Z"/><path class="cls-28" d="M332.55,156.6s.95,6.67,3.51,8.72,7.55.51,9.24-4.52l-3.36-8.6Z"/><path class="cls-8" d="M342.32,157.77a.33.33,0,0,1-.43-.27,8.5,8.5,0,0,0-.79-2.66s.24-.88-2.21.44-6.15,3.27-8.32,2.11-4.26-6.8,1.33-5.75a.33.33,0,0,0,.4-.34,3.4,3.4,0,0,1,2.19-3.77,3.11,3.11,0,0,1,3.61.83.32.32,0,0,0,.51,0,3.81,3.81,0,0,1,4.7-1.42c2,.89,2.32,2.12,2.28,2.89a.34.34,0,0,0,.47.32,2,2,0,0,1,2.55.75c1.31,1.64-.56,3.06-1.12,3.44a.33.33,0,0,0-.15.27c0,.85-.14,4.57-2,6.67a.34.34,0,0,1-.56-.1l-1.43-3.42a.34.34,0,0,0-.41-.19Z"/><path class="cls-29" d="M342.29,158.46s.87-3.57,2.21-2.41-.35,3.71-1.88,4.19Z"/><path class="cls-8" d="M342.34,157.86s1.15,3.51-1.09,5.45c-.43.37-2.28-.28-2.9,0a7.91,7.91,0,0,1-3.27,1.09l1.73,3.22a1.89,1.89,0,0,0,2.47.81c2.24-1.07,6-3.38,6-6.94l-.72-1.81Z"/><path class="cls-30" d="M330.33,184.56a.22.22,0,0,1-.21-.2,39,39,0,0,1,1.51-9.1.2.2,0,1,1,.39.11,38.75,38.75,0,0,0-1.49,9,.2.2,0,0,1-.2.2Z"/><path class="cls-31" d="M340.17,187.73a.15.15,0,0,1-.09,0,.2.2,0,0,1-.1-.27c0-.06,2.64-6,3.1-9.66a.2.2,0,0,1,.23-.17.19.19,0,0,1,.17.22c-.47,3.75-3.1,9.72-3.13,9.78A.19.19,0,0,1,340.17,187.73Z"/><path class="cls-32" d="M347.63,193.92l-1-.86a.21.21,0,1,1,.27-.31l.75.64c4.83-3.81,6.53-11.19,6.55-11.26a.2.2,0,1,1,.39.09c0,.07-1.78,7.72-6.82,11.6Z"/><path class="cls-8" d="M304.52,176l-.42.57a.61.61,0,0,0,.15.86l9.37,6.4a.61.61,0,0,0,.79-.08h0a.62.62,0,0,0-.07-.9l-8.95-7A.61.61,0,0,0,304.52,176Z"/><path class="cls-14" d="M311.35,195a1,1,0,0,0-.82,1c0,1.83.34,5.62,2.75,6.35,3,.92,6.45-.54,5.64-6.76a1.2,1.2,0,0,0-1.18-1.15Z"/><path class="cls-33" d="M317.47,200.29s15.69,0,23.65-12.38l4.69,4.28s-9.37,16.06-27,10c0,0-4.08.84-6.37.2a3.79,3.79,0,0,1-2.36-2.45.69.69,0,0,1,.87-.89C312.57,199.65,315.45,200.5,317.47,200.29Z"/><path class="cls-14" d="M318.29,196.45s.95-2.56,2.58-.7-1,3.28-2.58,3.49v-.68s1.82-.82,1.59-1.9-1.59.27-1.59.27Z"/><path class="cls-14" d="M312.44,183.76a4.48,4.48,0,0,1,1.65,1,3,3,0,0,1,.91,1.68,2.23,2.23,0,0,1-.47,1.83,8.06,8.06,0,0,1-1.42,1.21,3.12,3.12,0,0,0-1.12,1.35,1.3,1.3,0,0,0,0,.85,1.47,1.47,0,0,0,.5.71,10.57,10.57,0,0,0,1.59.87,2.53,2.53,0,0,1,.73.57,1.32,1.32,0,0,1,.35.84h0a1.24,1.24,0,0,0-.36-.81,2.77,2.77,0,0,0-.73-.54,10.16,10.16,0,0,1-1.64-.84,1.65,1.65,0,0,1-.56-.76,1.54,1.54,0,0,1,0-.95,3.3,3.3,0,0,1,1.15-1.46,7.4,7.4,0,0,0,1.34-1.2,2,2,0,0,0,.38-1.62,2.58,2.58,0,0,0-.86-1.46,4.12,4.12,0,0,0-1.52-.84.2.2,0,1,1,.12-.38Z"/><path class="cls-14" d="M315.9,188.73c-.31.63-.89.92-1.16,1.38a.85.85,0,0,0-.15.71,1.18,1.18,0,0,0,.49.6c.44.33,1.1.5,1.46,1.09a1.22,1.22,0,0,1-.55,1.68.09.09,0,0,1-.13-.05.1.1,0,0,1,.05-.13,1,1,0,0,0,.41-1.37,1.61,1.61,0,0,0-.62-.53c-.25-.14-.53-.26-.79-.44a1.47,1.47,0,0,1-.63-.75,1.18,1.18,0,0,1,.15-1c.34-.57.9-.89,1.1-1.37a.2.2,0,0,1,.26-.11.21.21,0,0,1,.12.27Z"/><path class="cls-18" d="M127.82,128.89c1.13.22,7.59,4.07,7.59-.33v-4.91S127.49,128.82,127.82,128.89Z"/><path class="cls-34" d="M131.86,120.63a25.58,25.58,0,0,1-3.19-9.49c-.36-4.71.22-6.77-.31-8.14s-3.13-6.55-3.24-5a6.41,6.41,0,0,0,.82,3.18s-1.64,1.31-1.36,2.81.86,1.66.86,1.66a23.84,23.84,0,0,0,.24,3.26c.15,0-2.61,16.33.47,16.68S131.71,128.15,131.86,120.63Z"/><path class="cls-35" d="M123.74,102.85c0-.22-2-4.55-1.66-5s.72-.93,1.28.53,1.22,5.43,1,5.45S123.85,103.62,123.74,102.85Z"/><path class="cls-8" d="M105.13,150a5.25,5.25,0,0,0-3.5-1.06,10,10,0,0,0-4.08,2.39.56.56,0,0,0-.15.63.58.58,0,0,0,.56.36c2.61-.05,7.72-.21,7.72-.59A6.71,6.71,0,0,0,105.13,150Z"/><path class="cls-36" d="M106.16,147.8,105,150.06s-2.71.22-2.62-.84a7.77,7.77,0,0,1,.75-2.36Z"/><path class="cls-37" d="M136.76,149.34c-1.87-10.25-3.24-16.84-3.24-16.84s-20.81-13.42-22.94-10.14-8.24,25.7-8.24,25.7l4.08,1.11s7.78-10.54,8.49-19.54c2,6.57,3.87,22.25,19.28,22.7a2.53,2.53,0,0,0,2.57-3Z"/><polygon class="cls-38" points="91.78 149.08 89.3 151.44 87.35 149.48 89.92 146.51 91.78 149.08"/><path class="cls-39" d="M142.24,101.42l4.86,6.25a.9.9,0,0,1,.09,1,7.13,7.13,0,0,1-6.33,3.51,1.25,1.25,0,0,1-1.08-.71l-3-6Z"/><path class="cls-40" d="M130.65,93.27s-1.24,7.14.7,10.09,7.56,3,11-1.57l-.59-9.91Z"/><path class="cls-8" d="M139.46,98a.35.35,0,0,1-.35-.41,9.36,9.36,0,0,0,.07-3s.54-.81-2.41-.27-7.37,1.3-9.21-.6-2.11-8.38,3.27-5.45a.35.35,0,0,0,.52-.22c.24-1,1-3.14,3.49-3.13a3.38,3.38,0,0,1,3.42,2,.35.35,0,0,0,.53.17,4.08,4.08,0,0,1,5.27.11c1.76,1.57,1.67,2.93,1.38,3.71a.36.36,0,0,0,.38.48,2.13,2.13,0,0,1,2.36,1.62c.79,2.11-1.59,2.94-2.29,3.14a.33.33,0,0,0-.24.23c-.29.87-1.52,4.76-4.13,6.29-.22.13-.64-.15-.67-.41l-.33-4a.37.37,0,0,0-.36-.33Z"/><path class="cls-41" d="M139.05,98.45s2.08-3.36,3-1.73-1.58,3.68-3.3,3.67Z"/><path class="cls-42" d="M134.33,118.59s-9.48,4-11.26,2-.8-13.49-.8-13.49l-4-1.06s-4.91,20.21,3.43,23.22c6.06,2.19,17.61-4.94,17.61-4.94Z"/><path class="cls-18" d="M143.25,104.77c-1.53.34-3.21,1.8-4.52,3.2a11.22,11.22,0,0,0-2.87,5.76l0,.22c-3.3,3.61-6.2,6-8.16,6.82A57,57,0,0,0,133,127.5l1.06-.26c-.65,5.82-1,10.32-1,10.32s6.7,6.66,14.82,8.55c7.39-5.45,8.52-21,8.52-21C156.94,106.62,148.41,103.64,143.25,104.77Z"/><path class="cls-43" d="M147.84,146.11s-3.33,9.9-19.76,4.35c-8-2.69-19.12-18.29-19.12-18.29s-2.75,7.55-17.13,17.67L88.63,147s14.56-25.09,22-22.49S150.12,139.69,147.84,146.11Z"/><path class="cls-8" d="M90.51,150.29a18.12,18.12,0,0,1-3.16-1.12l-2.39.64a7.61,7.61,0,0,0-5.06,1.1.69.69,0,0,0-.31.77.71.71,0,0,0,.65.51c2.36,0,6.22.07,8.17,0C91.34,152,91.78,152.06,90.51,150.29Z"/><path class="cls-44" d="M137.29,126.37a.1.1,0,0,1-.1-.08.11.11,0,0,1,.07-.13,22.23,22.23,0,0,0,5.25-2.18c2.49-1.42,5.66-3.94,6.59-7.83a.12.12,0,0,1,.13-.08.11.11,0,0,1,.08.13c-.95,4-4.17,6.52-6.7,8a23.06,23.06,0,0,1-5.3,2.21Z"/><path class="cls-8" d="M116.17,96.74a.6.6,0,0,1,0-.54.64.64,0,0,1,.43-.32l4.63-.88a.35.35,0,0,1,.41.25l3.56,11.47a.26.26,0,0,1,0,.15.22.22,0,0,1-.12.09l-3.87,1.16a.62.62,0,0,1-.77-.37Z"/><path class="cls-45" d="M117.63,96.85a.37.37,0,0,1,0-.31.39.39,0,0,1,.26-.17l3.07-.52a.36.36,0,0,1,.4.25l3,9.77a.22.22,0,0,1,0,.16.21.21,0,0,1-.13.09l-2.75.66a.2.2,0,0,1-.23-.12Z"/><path class="cls-46" d="M119.11,95.9s.07.06.14,0l1-.21c.07,0,.12-.06.11-.09v0s-.07,0-.14,0l-1,.22c-.06,0-.11,0-.11.09Z"/><path class="cls-47" d="M118.23,106.21c-.06-.51-1.77-3.75-1.1-5s.93-3.38,1.57-2.78-.15,2.69.13,3.31a12.42,12.42,0,0,1,1.55,3.43c.14,1.23,1,3-.77,3.23S118.23,106.21,118.23,106.21Z"/><path class="cls-44" d="M136.52,113.55l-.06,0a.11.11,0,0,1,0-.15c.2-.28,4.83-7,7.5-5.85a.11.11,0,1,1-.08.2c-2.51-1.07-7.2,5.7-7.24,5.77A.12.12,0,0,1,136.52,113.55Z"/><path class="cls-48" d="M126.11,107.29a.09.09,0,0,1-.08,0,3,3,0,0,1-.08-3,1.56,1.56,0,0,0,.07-.17,4.84,4.84,0,0,1-.37-2.07.24.24,0,0,1,.18-.23c.36-.07,1.15,1.13,1.48,1.66a.1.1,0,0,1,0,.14.1.1,0,0,1-.14,0,4.89,4.89,0,0,0-1.26-1.56h0l0,0a4.72,4.72,0,0,0,.36,2c0,.07,0,.13-.07.33a2.84,2.84,0,0,0,.06,2.75.12.12,0,0,1,0,.15Zm-.08-3.14Z"/><path class="cls-14" d="M128.21,93.31a.19.19,0,0,1-.16-.09,4.48,4.48,0,0,1-.77-3.55,2.18,2.18,0,0,1,1.08-1.28.18.18,0,0,1,.24.09.19.19,0,0,1-.09.23,1.77,1.77,0,0,0-.89,1.08,4.1,4.1,0,0,0,.74,3.25.17.17,0,0,1-.07.24A.11.11,0,0,1,128.21,93.31Z"/><g class="cls-49"><path class="cls-14" d="M374.7,62.54a.23.23,0,0,1-.14,0,.26.26,0,0,1-.07-.35c.24-.34.46-.68.67-1a.26.26,0,0,1,.35-.08.26.26,0,0,1,.08.34q-.33.54-.69,1A.23.23,0,0,1,374.7,62.54Z"/><path class="cls-14" d="M351.9,74.59c-.76,0-1.54,0-2.3-.09a.25.25,0,0,1,0-.5c.75.06,1.51.09,2.26.09H352a.25.25,0,0,1,.25.25.25.25,0,0,1-.25.25Zm2.56-.12a.24.24,0,0,1-.24-.22.23.23,0,0,1,.22-.27c.8-.08,1.6-.19,2.38-.33a.24.24,0,0,1,.29.2.25.25,0,0,1-.2.29c-.8.14-1.61.26-2.42.33Zm-7.25-.28h0c-.8-.14-1.61-.31-2.39-.52a.24.24,0,0,1-.18-.3.24.24,0,0,1,.3-.18c.77.2,1.56.37,2.35.51a.25.25,0,0,1,.21.29A.26.26,0,0,1,347.21,74.19Zm12-.59a.25.25,0,0,1-.24-.18.26.26,0,0,1,.18-.31c.76-.21,1.53-.46,2.28-.74a.26.26,0,0,1,.32.15.25.25,0,0,1-.14.32c-.77.28-1.55.54-2.33.75ZM342.52,73h-.08c-.76-.28-1.53-.59-2.26-.93a.24.24,0,0,1-.12-.33.23.23,0,0,1,.32-.12c.73.33,1.48.64,2.23.91a.25.25,0,0,1,.15.32A.25.25,0,0,1,342.52,73Zm21.25-1a.26.26,0,0,1-.11-.48,23.89,23.89,0,0,0,2.12-1.13.26.26,0,0,1,.35.09.26.26,0,0,1-.09.34c-.7.41-1.43.8-2.16,1.15A.23.23,0,0,1,363.77,71.91Zm-25.64-1a.28.28,0,0,1-.13,0c-.7-.41-1.4-.85-2.06-1.31a.25.25,0,0,1-.06-.35.24.24,0,0,1,.34-.06c.66.46,1.34.89,2,1.28a.25.25,0,0,1-.12.47Zm29.81-1.49a.26.26,0,0,1-.2-.11.24.24,0,0,1,.06-.34c.31-.22.61-.45.92-.69l1-.79a.25.25,0,0,1,.35,0,.24.24,0,0,1,0,.35q-.48.42-1,.81c-.31.24-.62.48-.93.7A.3.3,0,0,1,367.94,69.44Zm-33.78-1.28a.23.23,0,0,1-.16-.06c-.62-.52-1.23-1.08-1.81-1.65a.27.27,0,0,1,0-.36.26.26,0,0,1,.35,0c.57.57,1.17,1.12,1.78,1.63a.26.26,0,0,1,0,.35A.25.25,0,0,1,334.16,68.16Zm37.47-1.87a.29.29,0,0,1-.18-.07.25.25,0,0,1,0-.36c.56-.57,1.1-1.17,1.6-1.78a.24.24,0,0,1,.35,0,.25.25,0,0,1,0,.35c-.52.63-1.07,1.24-1.64,1.82A.25.25,0,0,1,371.63,66.29Zm-40.9-1.56a.25.25,0,0,1-.19-.09c-.21-.25-.42-.51-.62-.77s-.59-.78-.87-1.17a.25.25,0,1,1,.41-.29c.27.39.56.78.85,1.15s.4.51.61.76a.24.24,0,0,1,0,.35A.25.25,0,0,1,330.73,64.73Zm-2.78-4a.23.23,0,0,1-.21-.13c-.41-.7-.79-1.43-1.13-2.17a.24.24,0,0,1,.12-.33.25.25,0,0,1,.33.12c.33.73.71,1.44,1.11,2.14a.25.25,0,0,1-.1.33A.17.17,0,0,1,328,60.76Zm-2-4.4a.25.25,0,0,1-.24-.16c-.27-.77-.52-1.55-.73-2.34a.25.25,0,0,1,.18-.3.24.24,0,0,1,.3.18c.21.77.45,1.54.72,2.29a.25.25,0,0,1-.15.32Z"/><path class="cls-14" d="M324.66,51.65a.25.25,0,0,1-.24-.21c-.07-.41-.13-.82-.19-1.24a.25.25,0,0,1,.22-.27.24.24,0,0,1,.28.21c0,.41.11.81.18,1.22a.25.25,0,0,1-.21.28Z"/><path class="cls-14" d="M329.7,30.52a.23.23,0,0,1-.15-.05.24.24,0,0,1-.05-.34c.25-.34.51-.67.77-1a.25.25,0,1,1,.38.31c-.26.32-.51.64-.75,1A.23.23,0,0,1,329.7,30.52Z"/><path class="cls-14" d="M378.85,41a.24.24,0,0,1-.24-.2c-.19-.82-.41-1.65-.67-2.46a.25.25,0,0,1,.16-.31.23.23,0,0,1,.31.16c.27.82.49,1.66.68,2.51a.24.24,0,0,1-.19.29Zm-1.58-4.9A.25.25,0,0,1,377,36c-.33-.78-.71-1.56-1.11-2.3a.25.25,0,0,1,.1-.34.24.24,0,0,1,.33.1c.42.76.8,1.55,1.14,2.34a.26.26,0,0,1-.13.33Zm-2.46-4.52a.26.26,0,0,1-.21-.11c-.36-.54-.75-1.07-1.15-1.59l-.37-.47a.25.25,0,1,1,.38-.31l.39.48c.4.52.8,1.06,1.16,1.61a.24.24,0,0,1-.06.34A.27.27,0,0,1,374.81,31.59Zm-42.63-4a.23.23,0,0,1-.17-.07.24.24,0,0,1,0-.35c.6-.61,1.24-1.21,1.9-1.76a.25.25,0,0,1,.32.38c-.65.54-1.28,1.13-1.87,1.73A.24.24,0,0,1,332.18,27.62Zm39.37,0a.26.26,0,0,1-.18-.07c-.59-.6-1.22-1.19-1.87-1.73a.25.25,0,0,1,0-.35.24.24,0,0,1,.35,0c.66.55,1.3,1.15,1.91,1.76a.25.25,0,0,1,0,.35A.26.26,0,0,1,371.55,27.59ZM336.12,24.3a.23.23,0,0,1-.2-.1.25.25,0,0,1,.06-.35c.71-.49,1.45-1,2.2-1.38a.25.25,0,0,1,.34.09.25.25,0,0,1-.1.34c-.73.42-1.46.87-2.16,1.36A.23.23,0,0,1,336.12,24.3Zm31.5,0a.24.24,0,0,1-.14-.05c-.7-.48-1.43-.93-2.17-1.35a.25.25,0,0,1-.09-.34.24.24,0,0,1,.33-.09,24,24,0,0,1,2.21,1.38.24.24,0,0,1,.06.34A.26.26,0,0,1,367.62,24.28Zm-27-2.51a.25.25,0,0,1-.22-.15.25.25,0,0,1,.12-.33c.79-.35,1.6-.67,2.42-.95a.26.26,0,0,1,.32.16.25.25,0,0,1-.16.31c-.8.27-1.6.59-2.38.94Zm22.53,0a.18.18,0,0,1-.1,0c-.77-.34-1.57-.65-2.38-.93a.23.23,0,0,1-.15-.31.25.25,0,0,1,.31-.16c.82.28,1.63.6,2.42,1a.25.25,0,0,1,.13.33A.24.24,0,0,1,363.13,21.75Zm-17.65-1.64a.24.24,0,0,1-.24-.19.24.24,0,0,1,.18-.3c.84-.2,1.7-.36,2.56-.48a.25.25,0,0,1,.28.21.25.25,0,0,1-.21.28c-.85.12-1.69.28-2.51.47Zm12.77,0h-.05c-.83-.19-1.68-.35-2.51-.47a.26.26,0,0,1-.22-.28.25.25,0,0,1,.28-.21c.86.12,1.72.28,2.56.48a.25.25,0,0,1-.06.49Zm-5.1-.72h0q-1.27-.06-2.55,0a.25.25,0,0,1-.26-.23.24.24,0,0,1,.24-.26c.86,0,1.73,0,2.6,0a.24.24,0,0,1,.23.26A.24.24,0,0,1,353.15,19.39Z"/><path class="cls-14" d="M379.41,44.81a.25.25,0,0,1-.25-.23c0-.41-.07-.82-.12-1.22a.25.25,0,0,1,.22-.28.24.24,0,0,1,.27.22c.06.41.1.83.13,1.24a.25.25,0,0,1-.23.27Z"/><path class="cls-14" d="M346.31,55.13c1-.87,5-7.46,11.25,0,.68.36,2.44-.63,2.22-1.33-7.36-10.73-16.52-.66-15.62.44S345.11,56.13,346.31,55.13Z"/><path class="cls-14" d="M364.21,50.66c1.37-.16,2.66-1.1,2.28-2.3s-13.47-16.47-28.05.77a1,1,0,0,0-.25.76,1.08,1.08,0,0,0,.37.71,2.58,2.58,0,0,0,2,.83C353.87,36.3,362.84,50.82,364.21,50.66Z"/><path class="cls-14" d="M371,46.09c1,.2,3-.54,2.45-2.14-23-25.07-43.57,1.21-42.81,2.27a2.44,2.44,0,0,0,2.89.74C351.91,23.43,370.05,45.9,371,46.09Z"/><path class="cls-14" d="M354.89,59a3.05,3.05,0,1,1-3.05-3.06A3,3,0,0,1,354.89,59Z"/></g><path class="cls-50" d="M109.11,221.35s-21.41-37.44-24.3-41a2.22,2.22,0,0,0-2-.81l-6,.71-7,15.16,11.68-6.8c-1.16,8,13.84,19.87,19,24.2a1.18,1.18,0,0,1,.09,1.72l-2,2.15a23.6,23.6,0,0,0,11.65,6.63Z"/><path class="cls-8" d="M99.73,215.56A3,3,0,0,0,98,217.15a1.34,1.34,0,0,0,.51,1.54c2.16,1.54,9.27,6.54,12.56,7.51a.36.36,0,0,0,.46-.43,11.75,11.75,0,0,0-2.47-4.52l.16.32a.46.46,0,0,1-.63.6C106.36,220.93,101.89,218.21,99.73,215.56Z"/><path class="cls-51" d="M100.79,230.53s-3.25-7.74-3.28-7.77A135.76,135.76,0,0,0,85.28,185.5a2.25,2.25,0,0,0-1.79-1.19l-6-.51-9.93,13.43,12.81-4.3c-2.75,7.59,9.54,22.25,13.7,27.54a1.18,1.18,0,0,1-.26,1.7l-2.45,1.69a23.59,23.59,0,0,0,10.07,8.85Z"/><path class="cls-8" d="M92.77,223a3,3,0,0,0-2,1.2,1.35,1.35,0,0,0,.18,1.61c1.8,1.95,7.76,8.28,10.78,9.9a.38.38,0,0,0,.55-.34,12,12,0,0,0-1.51-4.92l.09.34a.46.46,0,0,1-.74.47C98.18,229.57,94.35,226,92.77,223Z"/><path class="cls-8" d="M49.48,181S44.07,189,43.62,192.7s1.5,4.94,7.17,5.41C67.65,199.5,76,194.45,76,194.45c-1.27-3.51-2.79-10.87,6.84-14.87,0,0-8,1.28-10.4.32S49.48,181,49.48,181Z"/><path class="cls-8" d="M80.05,138.05C80,138.76,67.67,173,67.67,173l-18.81,2.95a8.2,8.2,0,0,1-8.73-4.68h0a16.5,16.5,0,0,1,8.11-21.9L51,148.05c4.15-1.9,8.21-5.19,11.78-8.64a17.25,17.25,0,0,1,11.12-4.78h0Z"/><path class="cls-14" d="M43.39,168.17l0,0c-2-1.62-1.86-4.64-1.69-5.86a14.41,14.41,0,0,1,2.75-6.63c2.62-3.46,6.61-5.52,10.48-7.51l.79-.41c3.92-2,8.27-4.53,10.45-8.68a.09.09,0,0,1,.12,0,.1.1,0,0,1,0,.12c-2.2,4.2-6.59,6.72-10.52,8.76l-.8.41c-3.85,2-7.83,4-10.42,7.46a14.13,14.13,0,0,0-2.71,6.54c-.17,1.2-.35,4.14,1.62,5.7a.09.09,0,0,1,0,.13A.09.09,0,0,1,43.39,168.17Z"/><path class="cls-14" d="M45.37,164.48a.09.09,0,0,1-.08-.09,12.85,12.85,0,0,1,1.07-6.48c1.57-3.23,4.88-5.29,7.59-6.73l1.64-.84a27.35,27.35,0,0,0,7-4.54.08.08,0,0,1,.12,0,.09.09,0,0,1,0,.12,27.44,27.44,0,0,1-7.06,4.58c-.55.27-1.1.55-1.64.84-2.68,1.42-6,3.46-7.52,6.65a12.71,12.71,0,0,0-1,6.39.1.1,0,0,1-.08.1Z"/><path class="cls-52" d="M85.31,164.39s-6.43,7.7-12.9,1.45l-2.51,5.8s9.46,7.32,16.63-4.2Z"/><path class="cls-18" d="M64.13,179.9a124.08,124.08,0,0,0,9.41-10A8.44,8.44,0,0,0,75,162.33a103.92,103.92,0,0,0-4.16-10.49c-.35-1.18-7.42-1.13-7.42-1.13s-6.66,1-6.71,12.31a14.69,14.69,0,0,1-2.16,7.61c-1.61,2.63-3.17,6.58-5,10.34Z"/><path class="cls-53" d="M68.24,142.21l-4.75,8.84c.31,1.93,5.17,2,5.92.83a1.32,1.32,0,0,0,.15-.39l2.84-5.91c.12-.57-1.46-2.51-2-2.79l-1.89-1C67.81,141.4,70.84,141.37,68.24,142.21Z"/><path class="cls-54" d="M77.85,140.14s.54,3-1.81,6.78-4.68,3.62-5.87,2.27a8.36,8.36,0,0,1-2-7.4C68.86,138,77,136.33,77.85,140.14Z"/><path class="cls-8" d="M71.05,142.21s3.8-5,6.72-.64l0,1.5s3.79-.18,3.38-3.67-3.51-5.89-7.8-4.69-6.8,2.55-7.29,5.53S68,142.73,68,142.73s.93-2,2.05-2.19.72,1.48.72,1.48Z"/><path class="cls-55" d="M70.18,142.07s2-2.55.18-3.08-1.73,2.5-1.61,3.63Z"/><path class="cls-56" d="M55.52,173.09s13.56-1.89,18-6.06c0,0,2.16-2,3.72-2.29.84-.14,1.79-.23,2.48-.28A.32.32,0,0,1,80,165a4.17,4.17,0,0,1-1.73.79c-1.11.12.07.92-1.13,3s-2.92,1.31-2.92,1.31-9,7.74-17.57,7.68C56.6,177.85,54.49,177.15,55.52,173.09Z"/><path class="cls-8" d="M89.54,159.09l-4.69-.61a1.46,1.46,0,0,0-1.48.84l-3.08,6.81c-.58,1-.17,2.37.77,2.53l3.76.48a.91.91,0,0,0,.93-.58l4.17-8.32A.79.79,0,0,0,89.54,159.09Z"/><path class="cls-18" d="M58.56,154.59s-12.77,18.92-2,23.26l2-5.28s-1.29-2.92,2.52-10.25a6.23,6.23,0,0,0,.69-3.14C61.65,156,61.08,150.12,58.56,154.59Z"/><path class="cls-18" d="M58.56,172.8a.23.23,0,0,1-.21-.14c-.05-.12-1.29-3.1,2.52-10.45a.24.24,0,0,1,.31-.1.23.23,0,0,1,.1.31c-3.69,7.11-2.52,10-2.51,10.06a.22.22,0,0,1-.12.3Z"/><path class="cls-57" d="M86.34,168.29s3.15-4.59,2.78-5.15-3.12-1.38-3.77-1.57S83.48,165.54,86.34,168.29Z"/><rect class="cls-58" x="354.68" y="70.81" width="39.36" height="24.48" rx="6.85"/><path class="cls-59" d="M368.15,93l5.23,9.4a1.2,1.2,0,0,0,1.05.59,1.15,1.15,0,0,0,1-.6l5-9.39Z"/><path class="cls-14" d="M384.85,87.44h-5v-1h1.93V80.27h-1.93v-.85a5.09,5.09,0,0,0,.84-.07,1.92,1.92,0,0,0,.68-.19,1.23,1.23,0,0,0,.45-.39,1.32,1.32,0,0,0,.19-.65h1v8.37h1.9Z"/><path class="cls-14" d="M368.86,80.44a.32.32,0,0,0,.6,0c.4-1.29,1.47-3.28,4.07-2.32,5.11,1.88-1.13,8.56-3.66,11a1.49,1.49,0,0,1-2,.07c-2.53-2.15-8.56-7.89-4.58-11.07C366.23,75.73,368.11,78.77,368.86,80.44Z"/><rect class="cls-60" x="307.25" y="127.01" width="24.36" height="15.15" rx="4.24"/><path class="cls-61" d="M315.59,140.73l3.24,5.81a.72.72,0,0,0,.64.37.74.74,0,0,0,.65-.37l3.09-5.81Z"/><path class="cls-14" d="M325.92,137.3h-3.11v-.59H324v-3.85h-1.2v-.52a4.73,4.73,0,0,0,.52,0,1.34,1.34,0,0,0,.42-.12.76.76,0,0,0,.28-.25.72.72,0,0,0,.12-.39h.6v5.17h1.17Z"/><path class="cls-14" d="M316,133a.2.2,0,0,0,.37,0,1.83,1.83,0,0,1,2.52-1.44c3.16,1.17-.7,5.3-2.27,6.81a.92.92,0,0,1-1.24.05c-1.57-1.33-5.3-4.88-2.84-6.86C314.4,130.05,315.56,131.94,316,133Z"/><rect class="cls-62" x="325.21" y="98.68" width="32.38" height="20.13" rx="5.63"/><path class="cls-63" d="M336.29,116.91l4.3,7.73a1,1,0,0,0,.87.49,1,1,0,0,0,.85-.49l4.11-7.73Z"/><path class="cls-14" d="M350,112.36h-4.14v-.78h1.59v-5.12h-1.59v-.7a5.6,5.6,0,0,0,.69-.05,1.72,1.72,0,0,0,.56-.16,1.08,1.08,0,0,0,.38-.32,1,1,0,0,0,.15-.53h.8v6.88H350Z"/><path class="cls-14" d="M336.87,106.6a.27.27,0,0,0,.5,0c.33-1.07,1.2-2.7,3.35-1.91,4.19,1.54-.94,7-3,9a1.24,1.24,0,0,1-1.66,0c-2.08-1.76-7-6.48-3.77-9.1C334.71,102.72,336.25,105.23,336.87,106.6Z"/><rect class="cls-64" x="302.46" y="158.75" width="17.09" height="10.63" rx="2.97"/><path class="cls-65" d="M308.3,168.37l2.28,4.08a.52.52,0,0,0,.9,0l2.17-4.08Z"/><path class="cls-14" d="M315.55,166h-2.18v-.41h.84v-2.7h-.84v-.37l.37,0a1,1,0,0,0,.29-.08.56.56,0,0,0,.2-.17.58.58,0,0,0,.08-.28h.42v3.63h.82Z"/><path class="cls-14" d="M308.61,162.93a.14.14,0,0,0,.26,0c.18-.56.64-1.43,1.77-1,2.22.82-.49,3.72-1.59,4.78a.66.66,0,0,1-.87,0c-1.1-.93-3.72-3.43-2-4.81C307.47,160.89,308.29,162.21,308.61,162.93Z"/><rect class="cls-66" x="70.39" y="22.8" width="42.63" height="26.51" rx="7.42"/><path class="cls-67" d="M85,46.8,90.64,57a1.29,1.29,0,0,0,1.14.64A1.24,1.24,0,0,0,92.9,57L98.32,46.8Z"/><path class="cls-14" d="M91.27,31.52c0,2-1.63,4.17-3.63,4.17S84,33.53,84,31.52a3.64,3.64,0,0,1,7.26,0Z"/><path class="cls-14" d="M83.13,43.42H92a2.15,2.15,0,0,0,2-1.5l.48-1.49a2.13,2.13,0,0,0-1.3-2.66,16.53,16.53,0,0,0-11.16.12,2.14,2.14,0,0,0-1.37,2.59l.37,1.35A2.14,2.14,0,0,0,83.13,43.42Z"/><path class="cls-14" d="M103.06,40.8H97.62v-1h2.09V33H97.62v-.91a7.54,7.54,0,0,0,.91-.07,2.37,2.37,0,0,0,.74-.21,1.47,1.47,0,0,0,.49-.43,1.35,1.35,0,0,0,.2-.7H101v9.06h2Z"/><rect class="cls-68" x="82.06" y="125.73" width="14.55" height="9.05" rx="2.53"/><path class="cls-69" d="M87,133.92,89,137.39a.44.44,0,0,0,.39.22.43.43,0,0,0,.38-.22l1.85-3.47Z"/><path class="cls-14" d="M89.18,128.71a1.25,1.25,0,1,1-2.48,0,1.24,1.24,0,0,1,2.48,0Z"/><path class="cls-14" d="M86.41,132.76h3a.73.73,0,0,0,.7-.5l.16-.51a.72.72,0,0,0-.44-.91,5.61,5.61,0,0,0-3.81,0,.73.73,0,0,0-.47.88l.13.46A.74.74,0,0,0,86.41,132.76Z"/><path class="cls-14" d="M93.21,131.87H91.35v-.35h.71v-2.3h-.71v-.31l.31,0a.5.5,0,0,0,.25-.07.39.39,0,0,0,.17-.14.52.52,0,0,0,.07-.24h.36v3.09h.7Z"/><rect class="cls-70" x="56.12" y="66.54" width="32.98" height="20.51" rx="5.74"/><path class="cls-71" d="M67.4,85.1,71.79,93a1,1,0,0,0,1.74,0l4.2-7.87Z"/><path class="cls-14" d="M72.27,73.29c0,1.55-1.26,3.23-2.81,3.23s-2.81-1.68-2.81-3.23a2.81,2.81,0,0,1,5.62,0Z"/><path class="cls-14" d="M66,82.49h6.85a1.67,1.67,0,0,0,1.59-1.15l.36-1.16a1.65,1.65,0,0,0-1-2.06,12.8,12.8,0,0,0-8.63.09,1.66,1.66,0,0,0-1.06,2l.28,1A1.67,1.67,0,0,0,66,82.49Z"/><path class="cls-14" d="M81.39,80.46H77.18v-.79H78.8V74.46H77.18v-.71a4.53,4.53,0,0,0,.71-.06,1.63,1.63,0,0,0,.57-.16.94.94,0,0,0,.38-.33,1.11,1.11,0,0,0,.16-.54h.81v7h1.58Z"/><rect class="cls-72" x="61.78" y="100.54" width="27.72" height="17.23" rx="4.82"/><path class="cls-73" d="M71.26,116.14,75,122.76a.85.85,0,0,0,1.46,0l3.53-6.61Z"/><path class="cls-14" d="M75.36,106.21a2.39,2.39,0,1,1-4.73,0,2.37,2.37,0,0,1,4.73,0Z"/><path class="cls-14" d="M70.06,113.94h5.77a1.4,1.4,0,0,0,1.33-1l.31-1a1.4,1.4,0,0,0-.84-1.73,10.72,10.72,0,0,0-7.26.08,1.39,1.39,0,0,0-.89,1.68l.24.88A1.38,1.38,0,0,0,70.06,113.94Z"/><path class="cls-14" d="M83,112.24H79.48v-.67h1.36v-4.38H79.48v-.59a4.28,4.28,0,0,0,.6,0,1.48,1.48,0,0,0,.48-.13.94.94,0,0,0,.31-.28.86.86,0,0,0,.14-.46h.68v5.89H83Z"/><path class="cls-74" d="M169.11,236.85c-10.55,5.71-26.16-.86-27.71-7.93-1.31-6,8-10.45,6.2-15.82-2.16-6.35-16.45-3.66-19.24-10.56-2.38-5.91,6.49-11.88,3.83-17.34-2.48-5.11-11.25-2-15.52-7.73-3.67-5-3.08-15.25,3.9-20.51,6.24-4.69,15.67-4,19,.44,4.46,5.8-3.87,15.1.39,20.26,4.69,5.67,17.59-2.11,22.24,3.17,5.81,6.59-8.11,25.68-3.92,29,3.27,2.6,12.6-8.42,17.55-5.69C181.68,207.35,182.09,229.84,169.11,236.85Z"/><path class="cls-6" d="M127.36,165l9.41,16.27,4.71,8.12,2.37,4.06,2.38,4c.78,1.36,1.59,2.7,2.39,4s1.6,2.69,2.41,4l2.42,4,2.46,4c.81,1.34,1.66,2.65,2.49,4l1.24,2c.41.67.85,1.32,1.27,2l1.27,2c.42.66.84,1.33,1.28,2l1.31,2,1.3,2-.16.11c-3.83-5-7.38-10.14-10.81-15.4l-2.54-3.95-2.49-4c-.84-1.33-1.64-2.68-2.45-4s-1.62-2.68-2.41-4l-2.38-4.06L140.48,190c-.78-1.36-1.53-2.74-2.3-4.1s-1.53-2.74-2.28-4.11q-2.27-4.12-4.45-8.29c-1.45-2.78-2.89-5.56-4.27-8.37Z"/><path class="cls-6" d="M127,167.79c-3.9-.94-7.08-6.19-7.11-6.24l.17-.1c0,.05,3.17,5.23,7,6.14Z"/><path class="cls-6" d="M128.47,170.49c-5.26-.11-9.42-4.26-9.46-4.3l.14-.14s4.15,4.13,9.33,4.24Z"/><path class="cls-6" d="M129.36,173.41c-5.65,1.92-11-1.37-11-1.4l.1-.17c.06,0,5.32,3.27,10.88,1.38Z"/><path class="cls-6" d="M131.23,175.41a19.61,19.61,0,0,1-11.12,1.18l0-.2a19.47,19.47,0,0,0,11-1.16Z"/><path class="cls-6" d="M132.45,177.63a16.26,16.26,0,0,1-8.84,1.44l0-.2a16,16,0,0,0,8.72-1.42Z"/><rect class="cls-6" x="129.82" y="180.08" width="3.81" height="0.2" transform="translate(-51.05 52.07) rotate(-18.8)"/><rect class="cls-6" x="132.35" y="181.91" width="2.38" height="0.2" transform="translate(-43.58 42.05) rotate(-15.42)"/><rect class="cls-6" x="134" y="184.18" width="2.08" height="0.2" transform="translate(-9.07 7) rotate(-2.87)"/><rect class="cls-6" x="135.94" y="185.19" width="0.2" height="2.72" transform="translate(-57.26 312.81) rotate(-87.05)"/><rect class="cls-6" x="136.64" y="186.52" width="0.2" height="4.44" transform="translate(-81.22 271.28) rotate(-74.82)"/><rect class="cls-6" x="136.93" y="187.81" width="0.2" height="7.72" transform="translate(-84.44 272.06) rotate(-74.39)"/><rect class="cls-6" x="137.32" y="189.52" width="0.2" height="10.54" transform="translate(-83.63 284.02) rotate(-76.78)"/><rect class="cls-6" x="138.09" y="190.65" width="0.2" height="14.97" transform="translate(-88.95 280.35) rotate(-75)"/><path class="cls-6" d="M146.92,202.88c-7.2.52-17.11-4.62-17.21-4.67l.1-.18c.09.05,9.95,5.17,17.1,4.64Z"/><path class="cls-6" d="M148.87,207.59a43.24,43.24,0,0,1-19.14-6.36l.12-.16a43,43,0,0,0,19,6.31Z"/><rect class="cls-6" x="149.17" y="208.16" width="0.2" height="3.75" transform="translate(-86.17 314.74) rotate(-78.57)"/><rect class="cls-6" x="150.76" y="210.98" width="0.2" height="3.9" transform="translate(-92.07 308.23) rotate(-76.1)"/><rect class="cls-6" x="152.09" y="212.99" width="0.2" height="5.34" transform="translate(-88.44 324.15) rotate(-79.06)"/><rect class="cls-6" x="152.79" y="214.65" width="0.2" height="7.55" transform="translate(-80.14 347.95) rotate(-84.08)"/><path class="cls-6" d="M157.92,221.23a74.34,74.34,0,0,1-10.87-.7l0-.2a75.65,75.65,0,0,0,10.84.7Z"/><path class="cls-6" d="M159.46,224.67c-6.65,1.35-14-.7-14.07-.72l.06-.2c.07,0,7.37,2.06,14,.72Z"/><path class="cls-6" d="M161.88,228.38c-9.24,2.21-18.5-1.35-18.6-1.39l.08-.19c.09,0,9.3,3.57,18.47,1.38Z"/><path class="cls-6" d="M164.26,231.35a23.07,23.07,0,0,1-18.54.08l.09-.18a22.81,22.81,0,0,0,18.36-.09Z"/><path class="cls-6" d="M167.85,234.53c-7,3.86-18.21.64-18.32.61l.06-.2c.11,0,11.22,3.23,18.16-.59l.14-.07.1.18Z"/><path class="cls-75" d="M163.22,239.2c-6.11,4.88-16.7,4.33-19.13.28-2.11-3.51,2.67-8.41.42-11-2.69-3.07-10.95,2.43-14.26-.77s2.14-10.36-1-13.49c-3.31-3.36-11.15,3.15-16.4-.27-4.38-2.85-5.51-11.67-1.62-17.72,3.18-4.93,10-8.46,14-6.47,5.51,2.72,2.11,13.84,7.54,16.36,5,2.32,11.13-5.67,15.43-3.24,4.63,2.62,1,13.84,4.95,15.47,3.44,1.43,7.73-6.59,11.3-5.44C169.2,214.47,172.3,231.93,163.22,239.2Z"/><path class="cls-6" d="M117.29,201.48c4,2.25,7.84,4.61,11.69,7,1.93,1.2,3.84,2.44,5.75,3.66l2.85,1.87c.95.62,1.9,1.24,2.84,1.88l2.83,1.91,2.8,1.93.7.48.7.49,1.39,1,1.39,1,1.38,1a135.61,135.61,0,0,1,10.67,8.46l-.06.07c-3.6-2.76-7.33-5.34-11.07-7.91l-1.4-1-1.41-1-1.4-1-.71-.48-.7-.47-2.83-1.9-2.83-1.89-11.33-7.55c-3.77-2.52-7.55-5-11.29-7.61Z"/><path class="cls-8" d="M274.27,185.41a8.42,8.42,0,0,1-8.43,8.42H181.28a8.43,8.43,0,0,1-8.41-7.93l-5.33-91.45A8.43,8.43,0,0,1,176,85.53h89.89A8.42,8.42,0,0,1,274.27,94Z"/><circle class="cls-8" cx="177.54" cy="63.1" r="11.57"/><circle class="cls-8" cx="205.92" cy="63.1" r="11.57"/><circle class="cls-8" cx="235.37" cy="62.05" r="12.62" transform="translate(120.9 276.86) rotate(-76.72)"/><circle class="cls-8" cx="265.16" cy="60.9" r="10.51" transform="translate(-3.12 106.11) rotate(-22.5)"/><path class="cls-14" d="M166,140.2l-1,.07-.07-.79,1-.07Zm-1.57-.68-1,.07.07.78,1-.07Zm3-.21-1,.07.07.78,1-.07Zm1.5-.11-1,.07.07.79,1-.07Zm1.5-.1-1,.07.07.78,1-.07Zm1.5-.11-1,.07.07.79,1-.07Zm1.5-.1-1,.07.07.78,1-.07Zm1.5-.11-1,.07.07.79,1-.07Zm1.5-.1-1,.07.07.78,1-.07Zm1.5-.11-1,.07.07.79,1-.07Zm1.5-.1-1,.07.07.78,1-.07Zm1.49-.11-1,.07.07.79,1-.07Zm1.5-.1-1,.07.08.78,1-.07Zm1.5-.11-1,.07.08.79,1-.07Zm1.5-.1-1,.07.08.78,1-.07Zm1.5-.1-1,.07.08.78,1-.07Zm1.5-.11-1,.07.08.78,1-.07Zm1.5-.1-1,.07.08.78,1-.07Zm1.5-.11-1,.07.08.78,1-.07Zm1.5-.1-1,.07.08.78,1-.07Zm1.5-.11-1,.07.08.78,1-.07Zm1.5-.1-1,.07.08.78,1-.07Zm1.5-.11-1,.07.08.78,1-.07Zm1.5-.1-1,.07.07.78,1-.07Zm1.5-.11-1,.07.07.78,1-.07Zm1.5-.1-1,.07.07.78,1-.07Zm1.5-.11-1,.07.07.78,1-.07Zm1.5-.1-1,.07.07.78,1-.07Zm1.5-.11-1,.07.07.78,1-.07Zm1.5-.1-1,.07.07.78,1-.07Zm1.5-.11-1,.07.07.78,1-.07Zm1.5-.1-1,.07.07.78,1-.07Zm1.5-.11-1,.07.07.78,1-.07Zm1.5-.1-1,.07.07.78,1-.07Zm1.5-.11-1,.07.07.78,1-.07Zm1.5-.1-1,.07.07.78,1-.07Zm1.5-.11-1,.07.07.78,1-.07Zm1.5-.1-1,.07.07.78,1-.07Zm1.5-.11-1,.07.07.78,1-.07Zm1.5-.1-1,.07.07.78,1-.07Zm1.5-.11-1,.07.07.79,1-.07Zm1.5-.1-1,.07.07.78,1-.07Zm1.5-.11-1,.07.07.79,1-.07Zm1.5-.1-1,.07.07.78,1-.07Zm1.5-.11-1,.07.07.79,1-.07Zm1.5-.1-1,.07.07.78,1-.07Zm1.5-.11-1,.07.07.79,1-.07Zm1.5-.1-1,.07.07.78,1-.07Zm1.5-.11-1,.07.07.79,1-.07Zm1.5-.1-1,.07.07.78,1-.07Zm1.5-.11-1,.07.07.79,1-.07Zm1.5-.1-1,.07.07.78,1-.07Zm1.5-.11-1,.07.07.79,1-.07Zm1.5-.1-1,.07.07.78,1-.07Zm1.5-.11-1,.07.07.79,1-.07Zm1.5-.1-1,.07.07.78,1-.07Zm1.5-.11-1,.07.07.79,1-.07Zm1.5-.1-1,.07.07.78,1-.07Zm1.5-.1-1,.06.07.79,1-.07Zm1.5-.11-1,.07.07.78,1-.07Zm1.5-.1-1,.07.07.78,1-.07Zm1.5-.11-1,.07.07.78,1-.07Zm1.5-.1-1,.07.07.78,1-.07Zm1.49-.11-1,.07.07.78,1-.07Zm1.5-.1-1,.07.08.78,1-.07Zm1.5-.11-1,.07.08.78,1-.07Zm1.5-.1-1,.07.08.78,1-.07Zm1.5-.11-1,.07.08.78,1-.07Zm1.5-.1-1,.07.08.78,1-.07Zm1.5-.11-1,.07.08.78,1-.07Zm1.5-.1-1,.07.08.78,1-.07Zm1.5-.11-1,.07.08.78,1-.07Zm1.5-.1-1,.07.08.78,1-.07Zm1.5-.11-1,.07.08.78,1-.07Zm1.5-.1-1,.07.08.78,1-.07Zm1.5-.11-1,.07.07.78,1-.07Zm1.5-.1-1,.07.07.78,1-.07Zm1.5-.11-1,.07.07.78,1-.07Zm1.5-.1-1,.07.07.78,1-.07Zm1.5-.11-1,.07.07.78,1-.07Zm1.5-.1-1,.07.07.78,1-.07Zm-116.59,7,.07.78,1-.07-.07-.78Zm-1.5.11.07.78,1-.07-.07-.78Zm3-.21.07.78,1-.07-.07-.78Zm-.11-1.18.07.78,1-.07-.07-.78Zm1.61,1.07.07.78,1-.07-.07-.78Zm1.5-.1.07.78,1-.07-.07-.78Zm-.11-1.18.07.78,1-.07-.07-.78Zm1.61,1.07.07.78,1-.07-.07-.78Zm-.11-1.17.07.78,1-.07-.07-.78Zm-.11-1.18.07.79,1-.07-.07-.79Zm1.72,2.25.07.78,1-.07-.07-.78Zm-.11-1.18.07.78,1-.06-.07-.79Zm1.61,1.07.07.78,1-.07-.07-.78Zm1.5-.1.07.78,1-.07-.07-.78Zm-.11-1.18.07.79,1-.07-.07-.79Zm1.61,1.07.07.78,1-.07-.07-.78Zm-.11-1.17.07.78,1-.07-.07-.78Zm-.11-1.18.07.79,1-.07-.07-.78Zm-.11-1.17.07.78,1-.07-.07-.78Zm1.83,3.42.07.78,1-.07-.07-.78Zm-.11-1.18.07.79,1-.07-.07-.79Zm-.11-1.17.07.78,1-.07-.07-.78Zm-.11-1.17.07.78,1-.07-.07-.78Zm-.11-1.18.08.79,1-.07-.08-.79Zm-.1-1.17.07.78,1-.07-.07-.78Zm2,5.76.07.78,1-.07-.07-.78Zm-.11-1.17.07.78,1-.07-.07-.78Zm-.11-1.17.07.78,1-.07-.07-.78Zm1.72,2.24.07.78,1-.07-.07-.78Zm1.5-.11.07.78,1-.07-.07-.78Zm-.11-1.17.07.78,1-.07-.07-.78Zm1.61,1.07.07.78,1-.07-.07-.78Zm-.11-1.18.07.79,1-.07-.07-.79Zm-.11-1.17.07.78,1-.07-.07-.78Zm-.11-1.17.07.78,1-.07-.07-.78Zm1.83,3.41.07.78,1-.07-.07-.78Zm-.11-1.17.07.78,1-.07-.07-.78Zm1.61,1.07.07.78,1-.07-.07-.78Zm1.5-.11.07.78,1-.07-.07-.78Zm-.11-1.17.07.78,1-.07-.07-.78Zm-.11-1.17.07.78,1-.07-.07-.78Zm1.72,2.24.07.78,1-.07-.08-.78Zm-.11-1.18.07.79,1-.07-.07-.79Zm-.11-1.17.07.78,1-.07-.07-.78ZM193,132.8l.07.78,1-.07-.07-.78Zm-.11-1.18.07.79,1-.07-.07-.79Zm-.11-1.17.08.78,1-.07-.08-.78Zm2,5.76.08.78,1-.07-.08-.78Zm-.1-1.17.07.78,1-.07-.07-.78Zm-.11-1.17.07.78,1-.07-.07-.78Zm-.11-1.18.07.78,1-.07-.07-.78Zm-.11-1.17.07.78,1-.07-.07-.78Zm-.11-1.17.08.78,1-.07-.08-.78Zm-.1-1.18.07.78,1-.07-.07-.78ZM194,128l.07.78,1-.07-.07-.78Zm2.25,8.11.08.78,1-.07-.08-.78Zm-.1-1.18.07.79,1-.07-.07-.79Zm-.11-1.17.07.78,1-.07-.07-.78Zm-.11-1.17.07.78,1-.07-.07-.78Zm-.11-1.18.07.79,1-.07-.07-.79Zm-.11-1.17.08.78,1-.07-.08-.78Zm-.1-1.17.07.78,1-.07-.07-.78Zm-.11-1.18.07.79,1-.07-.07-.79Zm-.11-1.17.07.78,1-.07-.07-.78Zm-.11-1.17.07.78,1-.07-.07-.78Zm-.11-1.18.08.79,1-.07-.08-.79ZM197.78,136l.08.78,1-.06-.08-.79Zm-.1-1.17.07.78,1-.07-.07-.78Zm-.11-1.17.07.78,1-.07-.07-.78Zm-.11-1.18.07.79,1-.07-.07-.79Zm-.11-1.17.07.78,1-.07-.07-.78Zm-.11-1.17.08.78,1-.07-.08-.78Zm-.1-1.18.07.78,1-.06-.07-.79Zm-.11-1.17.07.78,1-.07-.07-.78Zm-.11-1.17.07.78,1-.07-.07-.78Zm-.11-1.18.07.79,1-.07-.07-.79Zm-.11-1.17.08.78,1-.07-.07-.78Zm-.11-1.17.08.78,1-.07-.08-.78Zm-.1-1.18.07.79,1-.07-.07-.79Zm-.11-1.17.07.78,1-.07-.07-.78Zm-.11-1.17.07.78,1-.07-.07-.78Zm3,16.32.08.78,1-.07-.08-.78Zm-.1-1.18.07.79,1-.07-.07-.79Zm-.11-1.17.07.78,1-.07-.07-.78Zm-.11-1.17.07.78,1-.07-.07-.78Zm-.11-1.18.07.79,1-.07-.07-.79Zm-.11-1.17.08.78,1-.07-.08-.78Zm-.1-1.17.07.78,1-.07-.07-.78Zm-.11-1.18.07.79,1-.07-.07-.79Zm-.11-1.17.07.78,1-.07-.07-.78Zm-.11-1.17.07.78,1-.07-.07-.78Zm-.11-1.18.07.79,1-.07-.07-.79Zm-.11-1.17.08.78,1-.07-.08-.78Zm2.69,12.8.08.79,1-.07-.08-.79Zm-.1-1.17.07.78,1-.07-.07-.78Zm-.11-1.17.07.78,1-.07-.07-.78Zm-.11-1.18.07.79,1-.07-.07-.79Zm-.11-1.17.07.78,1-.07-.07-.78Zm-.11-1.17.08.78,1-.07-.08-.78Zm-.1-1.18.07.79,1-.07-.07-.79Zm-.11-1.17.07.78,1-.07-.07-.78Zm-.11-1.17.07.78,1-.07-.07-.78Zm2.36,9.28.08.78,1-.07-.08-.78Zm-.1-1.18.07.79,1-.07-.07-.79Zm-.11-1.17.07.78,1-.07-.07-.78Zm-.11-1.17.07.78,1-.07-.07-.78Zm-.11-1.18.07.79,1-.07-.07-.79Zm-.11-1.17.08.78,1-.07-.08-.78Zm2,5.76.08.79,1-.07-.08-.79Zm-.1-1.17.07.78,1-.07-.07-.78Zm1.6,1.07.08.78,1-.07-.08-.78Zm-.1-1.17.07.78,1-.07-.07-.78Zm-.11-1.18.07.78,1-.07-.07-.78ZM205,132l.07.78,1-.07-.07-.78Zm1.82,3.41.08.79,1-.07-.08-.79Zm-.1-1.17.07.78,1-.07-.07-.78Zm-.11-1.17.07.78,1-.07-.07-.78Zm-.11-1.18.07.79,1-.07-.07-.79Zm-.11-1.17.07.78,1-.07-.07-.78Zm-.11-1.17.07.78,1-.07-.07-.78Zm2,5.76.08.78,1-.07-.08-.78Zm-.1-1.17.07.78,1-.07-.08-.78Zm-.11-1.18.07.78,1-.07-.07-.78Zm-.11-1.17.07.78,1-.07-.07-.78Zm-.11-1.17.07.78,1-.07-.07-.78Zm-.11-1.18.07.78,1-.07-.07-.78Zm-.11-1.17.08.78,1-.07-.08-.78Zm-.1-1.17.07.78,1-.07-.07-.78Zm-.11-1.18.07.78,1-.07-.07-.78Zm2.36,9.28.08.79,1-.07-.07-.79Zm-.11-1.17.08.78,1-.07-.08-.78Zm-.1-1.17.07.78,1-.07-.07-.78Zm-.11-1.18.07.79,1-.07-.07-.79Zm-.11-1.17.07.78,1-.07-.07-.78Zm-.11-1.17.07.78,1-.07-.07-.78Zm-.11-1.18.08.79,1-.07-.08-.79ZM209,127l.07.78,1-.07-.07-.78Zm-.11-1.17.07.78,1-.07-.07-.78Zm-.11-1.18.07.79,1-.07-.07-.79Zm-.11-1.17.07.78,1-.07-.07-.78Zm-.11-1.17.08.78,1-.07-.08-.78Zm2.69,12.8.07.78,1-.07-.07-.78Zm-.11-1.17.08.78,1-.07-.08-.78Zm-.1-1.18.07.78,1-.07-.07-.78Zm-.11-1.17.07.78,1-.07-.07-.78Zm-.11-1.17.07.78,1-.07-.07-.78Zm-.11-1.18.07.78,1-.07-.07-.78Zm-.11-1.17.08.78,1-.07-.08-.78Zm2.15,6.93.07.79,1-.07-.07-.79Zm-.11-1.17.08.78,1-.07-.08-.78Zm-.1-1.17.07.78,1-.07-.07-.78Zm1.71,2.24.07.78,1-.07-.07-.78Zm-.11-1.17.08.78,1-.07-.08-.78Zm-.1-1.18.07.78,1-.07-.07-.78Zm-.11-1.17.07.78,1-.07-.07-.78Zm-.11-1.17.07.78,1-.07-.07-.78Zm-.11-1.18.07.78,1-.07-.07-.78Zm2,5.76.07.79,1-.07-.07-.79Zm-.11-1.17.08.78,1-.07-.08-.78Zm-.1-1.17.07.78,1-.07-.07-.78Zm-.11-1.18.07.79,1-.07-.07-.79Zm-.11-1.17.07.78,1-.07-.07-.78Zm-.11-1.17.07.78,1-.07-.07-.78Zm-.11-1.18.08.79,1-.07-.08-.79Zm-.1-1.17.07.78,1-.07-.07-.78Zm-.11-1.17.07.78,1-.07-.07-.78Zm-.11-1.18.07.79,1-.07-.07-.79Zm2.47,10.46.07.78,1-.07-.07-.78Zm-.11-1.17.08.78,1-.07-.08-.78Zm-.1-1.18.07.78,1-.06-.07-.79Zm-.11-1.17.07.78,1-.07-.07-.78Zm-.11-1.17.07.78,1-.07-.07-.78Zm-.11-1.18.07.78,1-.07-.07-.78Zm-.11-1.17.08.78,1-.07-.08-.78Zm-.1-1.17.07.78,1-.07-.08-.78Zm-.11-1.18.07.78,1-.07-.07-.78Zm-.11-1.17.07.78,1-.07-.07-.78Zm-.11-1.17.07.78,1-.07-.07-.78Zm-.11-1.18.07.79,1-.07-.07-.79Zm-.11-1.17.08.78,1-.07-.08-.78Zm-.1-1.17.07.78,1-.07-.07-.78Zm2.9,15.14.07.79,1-.07-.07-.79Zm-.11-1.17.08.78,1-.07-.08-.78Zm-.1-1.17.07.78,1-.07-.07-.78Zm-.11-1.18.07.79,1-.07-.07-.79Zm-.11-1.17.07.78,1-.07-.07-.78Zm-.11-1.17.07.78,1-.07-.07-.78Zm-.11-1.18.08.79,1-.07-.07-.79Zm-.11-1.17.08.78,1-.07-.08-.78Zm-.1-1.17.07.78,1-.07-.07-.78Zm-.11-1.18.07.79,1-.07-.07-.79Zm-.11-1.17.07.78,1-.07-.07-.78Zm-.11-1.17.07.78,1-.07-.07-.78Zm-.11-1.18.08.79,1-.07-.08-.79Zm-.1-1.17.07.78,1-.07-.07-.78Zm-.11-1.17.07.78,1-.07-.07-.78Zm-.11-1.18.07.79,1-.07-.07-.79Zm-.11-1.17.07.78,1-.07-.07-.78Zm3.23,18.67.07.78,1-.07-.07-.78Zm-.11-1.17.08.78,1-.07-.08-.78Zm-.1-1.18.07.79,1-.07-.07-.79Zm-.11-1.17.07.78,1-.07-.07-.78Zm-.11-1.17.07.78,1-.07-.07-.78Zm-.11-1.18.07.79,1-.07-.07-.79Zm-.11-1.17.07.78,1-.07-.07-.78Zm-.11-1.17.08.78,1-.07-.08-.78Zm-.1-1.18.07.79,1-.07-.07-.79Zm-.11-1.17.07.78,1-.07-.07-.78Zm-.11-1.17.07.78,1-.07-.07-.78Zm-.11-1.18.07.79,1-.07-.07-.79Zm-.11-1.17.08.78,1-.07-.08-.78Zm-.1-1.17.07.78,1-.07-.07-.78Zm-.11-1.18.07.79,1-.07-.07-.79Zm-.11-1.17.07.78,1-.07-.07-.78Zm-.11-1.17.07.78,1-.07-.07-.78Zm-.11-1.18.08.79,1-.07-.07-.79Zm-.11-1.17.08.78,1-.07-.08-.78Zm3.45,21,.07.79,1-.07-.07-.79Zm-.11-1.17.08.78,1-.07-.08-.78Zm-.1-1.17.07.78,1-.07-.08-.78Zm-.11-1.18.07.79,1-.07-.07-.79Zm-.11-1.17.07.78,1-.07-.07-.78Zm-.11-1.17.07.78,1-.07-.07-.78Zm-.11-1.18.07.79,1-.07-.07-.79Zm-.11-1.17.08.78,1-.07L222,126Zm-.1-1.17.07.78,1-.07-.07-.78Zm-.11-1.18.07.79,1-.07-.07-.79Zm-.11-1.17.07.78,1-.07-.07-.78Zm-.11-1.17.07.78,1-.07-.07-.78Zm-.11-1.18.08.79,1-.07-.08-.79Zm2.8,14,.07.78,1-.07-.07-.78Zm-.11-1.17.08.78,1-.07-.08-.78Zm-.1-1.18.07.79,1-.07-.08-.79ZM223,130.7l.07.78,1-.07-.07-.78Zm-.11-1.17.07.78,1-.07-.07-.78Zm-.11-1.18.07.79,1-.07-.07-.79Zm-.11-1.17.07.78,1-.07-.07-.78Zm-.11-1.17.08.78,1-.07-.08-.78Zm-.1-1.18.07.79,1-.07-.07-.79Zm2.36,9.28.07.79,1-.07-.07-.79Zm-.11-1.17.08.78,1-.07-.07-.78Zm-.11-1.17.08.78,1-.07-.08-.78Zm-.1-1.17.07.78,1-.07-.07-.78Zm1.82,3.41.07.78,1-.07-.07-.78Zm-.11-1.17.07.78,1-.07-.07-.78Zm1.61,1.07.07.78,1-.07-.07-.78Zm-.11-1.18.07.78,1-.07-.07-.78Zm-.11-1.17.08.78,1-.07-.08-.78Zm-.1-1.17.07.78,1-.07-.07-.78Zm-.11-1.18.07.78,1-.07-.07-.78Zm1.93,4.59.07.78,1-.07-.07-.78Zm-.11-1.17.07.78,1-.07-.07-.78Zm-.11-1.18.08.79,1-.07-.08-.79Zm-.1-1.17.07.78,1-.07-.07-.78Zm-.11-1.17.07.78,1-.07-.07-.78Zm-.11-1.18.07.79,1-.07-.07-.79Zm-.11-1.17.07.78,1-.07-.07-.78Zm-.11-1.17.08.78,1-.07-.08-.78Zm2.26,8.11.07.78,1-.07-.07-.78Zm-.11-1.18.07.78,1-.07-.07-.78Zm-.11-1.17.08.78,1-.07-.08-.78Zm-.1-1.17.07.78,1-.07-.07-.78Zm-.11-1.18.07.78,1-.07-.07-.78Zm-.11-1.17.07.78,1-.07-.07-.78Zm-.11-1.17.07.78,1-.07-.07-.78Zm-.11-1.18.08.78,1-.07-.07-.78Zm-.1-1.17.07.78,1-.07-.08-.78Zm-.11-1.17.07.78,1-.07-.07-.78ZM229.7,122l.07.78,1-.07-.07-.78Zm-.11-1.17.07.78,1-.07-.07-.78Zm2.69,12.8.07.78,1-.07-.07-.78Zm-.11-1.17.07.78,1-.07-.07-.78Zm-.11-1.18.08.79,1-.07-.08-.79Zm-.1-1.17.07.78,1-.07L233,130Zm-.11-1.17.07.78,1-.07-.07-.78Zm-.11-1.18.07.79,1-.07-.07-.79Zm-.11-1.17.07.78,1-.07-.07-.78Zm-.11-1.17.08.78,1-.07-.07-.78Zm-.11-1.18.08.79,1-.07-.08-.79Zm-.1-1.17.07.78,1-.07-.07-.78Zm-.11-1.17.07.78,1-.07-.07-.78Zm-.11-1.18.07.79,1-.07-.07-.79Zm-.11-1.17.07.78,1-.07-.07-.78Zm-.11-1.17.08.78,1-.07-.08-.78Zm2.91,15.15.07.78,1-.07-.07-.78Zm-.11-1.18.07.78,1-.07-.07-.78Zm-.11-1.17.08.78,1-.07-.08-.78Zm-.1-1.17.07.78,1-.07-.07-.78Zm-.11-1.18.07.78,1-.07-.07-.78Zm-.11-1.17.07.78,1-.07-.07-.78Zm-.11-1.17.07.78,1-.07-.07-.78Zm-.11-1.18.07.78,1-.07-.07-.78Zm-.11-1.17.08.78,1-.07-.08-.78Zm2.37,9.28.07.78,1-.07-.07-.78Zm-.11-1.17.07.78,1-.07-.07-.78Zm-.11-1.18.08.79,1-.07-.08-.79Zm-.1-1.17.07.78,1-.07-.07-.78Zm1.82,3.42.07.78,1-.07-.07-.78Zm1.5-.11.07.78,1-.07-.07-.78Zm-.11-1.17.07.78,1-.07-.07-.78Zm-.11-1.18.08.79,1-.07-.08-.79Zm-.1-1.17.07.78,1-.07-.08-.78Zm1.82,3.42.07.78,1-.07-.07-.78Zm-.11-1.18.07.78,1-.07-.07-.78Zm-.11-1.17.07.78,1-.07-.07-.78Zm-.11-1.17.08.78,1-.07-.08-.78Zm-.1-1.18.07.78,1-.06-.07-.79Zm-.11-1.17.07.78,1-.07-.07-.78Zm-.11-1.17.07.78,1-.07-.07-.78Zm2.15,6.93.07.78,1-.07-.07-.78Zm-.11-1.17.07.78,1-.07-.07-.78Zm-.11-1.18.07.79,1-.07-.07-.79Zm-.11-1.17.08.78,1-.07-.08-.78Zm-.1-1.17.07.78,1-.07-.07-.78Zm-.11-1.18.07.79,1-.07-.07-.79Zm-.11-1.17.07.78,1-.07-.07-.78Zm-.11-1.17.07.78,1-.07-.07-.78Zm-.11-1.18.08.79,1-.07-.08-.79Zm-.1-1.17.07.78,1-.07-.07-.78Zm2.47,10.46.07.78,1-.07-.07-.78Zm-.11-1.18.07.79,1-.07-.07-.79Zm-.11-1.17.07.78,1-.07-.07-.78Zm-.11-1.17.08.78,1-.07-.08-.78Zm-.1-1.18.07.79,1-.07-.07-.79Zm1.93,4.59.07.78,1-.07-.07-.78Zm-.11-1.17.07.78,1-.07-.07-.78Zm1.61,1.07.07.78,1-.07-.07-.78Zm-.11-1.18.07.79,1-.07-.07-.79Zm-.11-1.17.07.78,1-.07-.07-.78Zm-.11-1.17.08.78,1-.07-.08-.78Zm-.1-1.18.07.79,1-.07-.07-.79Zm1.93,4.59.07.78,1-.07-.07-.78Zm-.11-1.17.07.78,1-.07-.07-.78Zm-.11-1.17.07.78,1-.07-.07-.78ZM247,129l.08.78,1-.07L248,129Zm-.1-1.17.07.78,1-.07-.07-.78Zm-.11-1.18.07.79,1-.07-.07-.79Zm-.11-1.17.07.78,1-.07-.07-.78Zm2.15,6.94.07.78,1-.07-.07-.78Zm-.11-1.18.07.79,1-.07-.07-.79Zm-.11-1.17.07.78,1-.07-.07-.78Zm-.11-1.17.08.78,1-.07-.08-.78Zm1.83,3.41.07.78,1-.07-.07-.78Zm-.11-1.17.07.78,1-.07-.07-.78Zm1.61,1.07.07.78,1-.07-.07-.78Zm1.5-.11.07.78,1-.07-.07-.78Zm1.5-.1.07.78,1-.07-.07-.78Zm1.5-.11.07.78,1-.07-.07-.78Zm1.5-.1.07.78,1-.07-.07-.78Zm-.11-1.18.07.79,1-.07-.07-.79Zm1.61,1.07.07.78,1-.07-.07-.78Zm-.11-1.17.07.78,1-.07-.07-.78Zm-.11-1.17.07.78,1-.07-.07-.78Zm-.11-1.18.07.78,1-.07-.07-.78Zm1.83,3.42.07.78,1-.07-.07-.78Zm-.11-1.18.07.79,1-.07-.07-.79Zm-.11-1.17.07.78,1-.07-.07-.78Zm-.11-1.17.07.78,1-.07-.07-.78Zm-.11-1.18.08.79,1-.07-.08-.79Zm-.1-1.17.07.78,1-.07-.07-.78Zm-.11-1.17.07.78,1-.07-.07-.78Zm2.15,6.93.07.78,1-.07-.07-.78Zm-.11-1.17.07.78,1-.07-.07-.78Zm-.11-1.17.07.78,1-.07-.07-.78ZM262,128l.07.78,1-.06-.07-.79Zm1.83,3.42.07.78,1-.07-.07-.78Zm-12.11-.34.07.79,1-.07-.07-.79Zm-.11-1.17.07.78,1-.07-.07-.78Zm1.61,1.07.07.78,1-.07-.07-.78Zm-.11-1.17.07.78,1-.07-.07-.78ZM253,128.6l.08.78,1-.07-.07-.78Zm-.11-1.17.08.78,1-.07-.08-.78Zm-.1-1.17.07.78,1-.07-.07-.78Zm-.11-1.18.07.78,1-.07-.07-.78Zm2,5.76.07.79,1-.07-.07-.79Zm-.11-1.17.07.78,1-.07-.07-.78Zm-.11-1.17.08.78,1-.07-.07-.78Zm-.11-1.18.08.79,1-.07-.08-.79Zm-.1-1.17.07.78,1-.07-.07-.78Zm-.11-1.17.07.78,1-.07-.07-.78ZM254,123.8l.07.79,1-.07-.07-.79Zm-.11-1.17.07.78,1-.07-.07-.78Zm-.11-1.17.08.78,1-.07-.08-.78Zm2.37,9.28.07.78,1-.07-.07-.78Zm-.11-1.17.07.78,1-.07-.07-.78Zm-.11-1.18.07.78,1-.07-.07-.78Zm-.11-1.17.08.78,1-.07-.08-.78Zm-.1-1.17.07.78,1-.07-.07-.78Zm9.54,5.23.07.79,1-.07-.07-.79Zm-.11-1.17.07.78,1-.07-.07-.78Zm-.11-1.17.07.78,1-.07-.07-.78Zm1.72,2.24.07.78,1-.07-.07-.78Zm-.11-1.18.07.79,1-.07-.07-.79Zm-.11-1.17.07.78,1-.07-.07-.78Zm-.11-1.17.07.78,1-.07-.07-.78Zm-.11-1.18.08.79,1-.07-.08-.79Zm1.94,4.59.07.79,1-.07-.07-.79Zm-.11-1.17.07.78,1-.07-.07-.78Zm1.61,1.07.07.78,1-.07-.08-.78Zm1.5-.11.07.79,1-.07-.08-.79Zm1.5-.1.07.78,1-.07-.08-.78Zm1.49-.11.08.79,1-.07-.08-.79Zm1.5-.1.08.78,1-.07-.08-.78Zm-4.6-.86.07.78,1-.07-.07-.78Zm6.1.75.08.79,1-.07-.08-.79Zm-4.6-.85.07.78,1-.07-.07-.78Zm-.11-1.18.07.78,1-.07-.07-.78Zm6.21,1.93.08.78,1-.07-.08-.78Zm-4.6-.86.07.78,1-.07-.07-.78Zm6.1.75.08.79,1-.07-.08-.79Zm-3.1-1,.07.78,1-.07-.07-.78ZM271.06,134l-.07-.79-1,.07.07.79Zm1.5-.11-.07-.78-1,.07.07.78Zm1.5-.1L274,133l-1,.06.07.79Zm1.5-.11-.07-.78-1,.07.07.78Zm1.5-.1-.07-.78-1,.07.07.78Zm-4.39,1.49-.07-.79-1,.07.07.79Zm5.89-1.6-.07-.78-1,.07.07.78ZM274.17,135l-.07-.78-1,.07.07.78Zm.11,1.17-.07-.78-1,.07.07.78Zm5.78-2.76-.07-.78-1,.07.07.78Zm-4.39,1.49-.07-.79-1,.07.07.79Zm5.89-1.6-.07-.78-1,.07.07.78Zm-2.89,1.39-.07-.79-1,.07.07.79Zm-109.59,6.48-.08-.78-1,.07.08.78Zm-1.5.1-.08-.78-1,.07.08.78Zm3-.21-.08-.78-1,.07.08.78Zm.1,1.18-.07-.78-1,.07.07.78Zm1.4-1.28-.08-.78-1,.07.08.78Zm1.5-.11-.08-.78-1,.07.08.78Zm.1,1.18-.07-.78-1,.07.07.78Zm1.4-1.28L175,140l-1,.07.08.78Zm.1,1.17-.07-.78-1,.07.07.78Zm.11,1.18-.07-.79-1,.07.07.79Zm1.29-2.46-.08-.78-1,.07.08.78Zm.1,1.18-.07-.78-1,.07.07.78Zm1.4-1.28-.08-.78-1,.07.08.78Zm1.5-.1-.08-.79-1,.07.08.78Zm.1,1.17-.07-.78-1,.07.07.78Zm1.4-1.28-.08-.78-1,.07.08.78Zm.1,1.17-.07-.78-1,.07.07.78Zm.11,1.18-.07-.79-1,.07.07.79Zm.11,1.17-.07-.78-1,.07.07.78Zm1.17-3.62-.07-.79-1,.07.08.79Zm.11,1.17-.07-.78-1,.07.07.78Zm.11,1.17-.07-.78-1,.07.07.78Zm.11,1.18-.07-.79-1,.07.07.79Zm.11,1.17-.07-.78-1,.07.07.78Zm.11,1.17-.08-.78-1,.07.08.78Zm.95-6-.07-.78-1,.07.07.78Zm.11,1.17-.07-.78-1,.07.07.78Zm.11,1.18-.07-.79-1,.07.07.79Zm1.28-2.45-.07-.79-1,.07.07.79Zm1.5-.11-.07-.78-1,.07.07.78Zm.11,1.17-.07-.78-1,.07.07.78Zm1.39-1.27-.07-.79-1,.07.07.79Zm.11,1.17-.07-.78-1,.07.07.78Zm.11,1.17-.07-.78-1,.07.07.78Zm.11,1.18-.07-.79-1,.07.07.79Zm1.17-3.63-.07-.78-1,.07.07.78Zm.11,1.17-.07-.78-1,.07.07.78Zm1.39-1.27-.07-.79-1,.07.07.79Zm1.5-.11-.07-.78-1,.07.07.78Zm.11,1.17-.07-.78-1,.07.07.78Zm.11,1.18-.07-.78-1,.07.07.78Zm1.28-2.45-.07-.79-1,.07.07.79Zm.11,1.17-.07-.78-1,.07.07.78Zm.11,1.17-.07-.78-1,.07.07.78Zm.11,1.18-.07-.79-1,.07.07.79Zm.11,1.17-.08-.78-1,.07.08.78Zm.1,1.17-.07-.78-1,.07.07.78Zm1-6-.07-.78-1,.07.07.78Zm.11,1.17-.07-.78-1,.07.07.78Zm.11,1.18-.07-.78-1,.07.07.78Zm.11,1.17-.07-.78-1,.07.07.78Zm.11,1.17-.08-.78-1,.07.08.78Zm.1,1.18-.07-.78-1,.07.07.78Zm.11,1.17-.07-.78-1,.07.07.78Zm.11,1.17-.07-.78-1,.07.07.78Zm.74-8.31-.07-.79-1,.07.07.79Zm.11,1.17-.07-.78-1,.07.07.78Zm.11,1.17-.07-.78-1,.07.07.78Zm.11,1.18-.07-.79-1,.07.07.79Zm.11,1.17-.08-.78-1,.07.08.78Zm.1,1.17-.07-.78-1,.07.07.78Zm.11,1.18-.07-.79-1,.07.07.79Zm.11,1.17-.07-.78-1,.07.07.78Zm.11,1.17-.07-.78-1,.07.07.78Zm.11,1.18-.08-.79-1,.07.08.79Zm.1,1.17-.07-.78-1,.07.07.78Zm.42-11.84-.07-.78-1,.07.07.78Zm.11,1.17-.07-.78-1,.07.07.78Zm.11,1.18-.07-.78-1,.07.07.78Zm.11,1.17-.07-.78-1,.07.07.78Zm.11,1.17-.08-.78-1,.07.08.78Zm.1,1.18-.07-.78-1,.07.07.78Zm.11,1.17-.07-.78-1,.07.07.78Zm.11,1.17-.07-.78-1,.07.07.78Zm.11,1.18-.07-.78-1,.07.07.78Zm.11,1.17-.08-.78-1,.07.08.78Zm.1,1.17-.07-.78-1,.07.07.78Zm.11,1.18-.07-.78-1,.07.07.78Zm.11,1.17-.07-.78-1,.07.07.78Zm.11,1.17-.07-.78-1,.07.07.78Zm.11,1.18-.08-.78-1,.07.07.78Zm0-16.53-.07-.79-1,.07.07.79Zm.11,1.17-.07-.78-1,.07.07.78Zm.11,1.17-.07-.78-1,.07.07.78Zm.11,1.18-.08-.79-1,.07.07.79Zm.11,1.17-.08-.78-1,.07.08.78Zm.1,1.17L201,144l-1,.07.07.78Zm.11,1.18-.07-.79-1,.07.07.79Zm.11,1.17-.07-.78-1,.07.07.78Zm.11,1.17-.07-.78-1,.07.07.78Zm.11,1.18-.08-.79-1,.07.08.79Zm.1,1.17-.07-.78-1,.07.07.78Zm.11,1.17-.07-.78-1,.07.07.78Zm.31-13-.07-.78-1,.07.07.78Zm.11,1.18-.07-.79-1,.07.07.79Zm.11,1.17-.07-.78-1,.07.07.78Zm.11,1.17-.08-.78-1,.07.08.78Zm.1,1.17-.07-.78-1,.07.08.78Zm.11,1.18-.07-.78-1,.07.07.78Zm.11,1.17-.07-.78-1,.07.07.78Zm.11,1.18-.07-.79-1,.07.07.79Zm.11,1.17-.07-.78-1,.07.07.78Zm.63-9.49-.07-.79-1,.07.07.79Zm.11,1.17-.07-.78-1,.07.07.78Zm.11,1.17-.07-.78-1,.07.07.78Zm.11,1.18-.08-.79-1,.07.08.79Zm.1,1.17-.07-.78-1,.07.08.78Zm.11,1.17-.07-.78-1,.07.07.78Zm1-6-.07-.78-1,.07.07.78Zm.11,1.18-.07-.79-1,.07.07.79Zm1.39-1.28-.07-.79-1,.07.07.79Zm.11,1.17-.07-.78-1,.07.07.78Zm.11,1.17-.07-.78-1,.07.07.78Zm.11,1.18-.08-.79-1,.07.08.79Zm1.17-3.63-.07-.78-1,.07.07.78Zm.11,1.18-.07-.79-1,.07.07.79Zm.11,1.17-.07-.78-1,.07.07.78Zm.11,1.17-.08-.78-1,.07.08.78Zm.1,1.18-.07-.79-1,.07.07.79Zm.11,1.17-.07-.78-1,.07.07.78Zm1-6-.07-.78-1,.07.07.78Zm.11,1.17-.07-.78-1,.07.07.78Zm.11,1.17-.07-.78-1,.07.07.78Zm.11,1.18-.08-.78-1,.07.08.78ZM210,143l-.07-.78-1,.07.07.78Zm.11,1.17-.07-.78-1,.07.07.78Zm.11,1.18-.07-.78-1,.07.07.78Zm.11,1.17-.07-.78-1,.07.07.78Zm.11,1.17-.08-.78-1,.07.08.78Zm.63-9.49-.07-.78-1,.07.07.78Zm.11,1.18-.07-.79-1,.07.07.79Zm.11,1.17-.07-.78-1,.07.07.78Zm.11,1.17-.08-.78-1,.07.08.78Zm.1,1.18-.07-.79-1,.07.07.79Zm.11,1.17-.07-.78-1,.07.07.78Zm.11,1.17-.07-.78-1,.07.07.78Zm.11,1.18-.07-.79-1,.07.07.79Zm.11,1.17-.08-.78-1,.07.08.78Zm.1,1.17L212,148l-1,.07.07.78Zm.11,1.18-.07-.79-1,.07.07.79Zm.11,1.17-.07-.78-1,.07.07.78Zm.31-13-.07-.78-1,.07.07.78Zm.11,1.17-.07-.78-1,.07.07.78Zm.11,1.17-.07-.78-1,.07.07.78Zm.11,1.18-.08-.78-1,.07.08.78Zm.1,1.17-.07-.78-1,.07.07.78Zm.11,1.17-.07-.78-1,.07.07.78Zm.11,1.18-.07-.78-1,.07.07.78Zm.85-7.15-.07-.78-1,.07.07.78Zm.11,1.18-.07-.79-1,.07.07.79Zm.11,1.17-.07-.78-1,.07.07.78Zm1.28-2.45-.07-.78-1,.07.07.78Zm.11,1.17-.07-.78-1,.07.07.78Zm.11,1.17-.08-.78-1,.07.07.78Zm.11,1.18-.08-.78-1,.07.08.78Zm.1,1.17-.07-.78-1,.07.07.78Zm.11,1.17L216,143l-1,.07.07.78Zm1-6L217,137l-1,.07.07.78Zm.11,1.18-.07-.79-1,.07.07.79Zm.11,1.17-.08-.78-1,.07.08.78Zm.1,1.17-.07-.78-1,.07.08.78Zm.11,1.18-.07-.79-1,.07.07.79Zm.11,1.17-.07-.78-1,.07.07.78Zm.11,1.17-.07-.78-1,.07.07.78Zm.11,1.18-.07-.79-1,.07.07.79Zm.11,1.17-.08-.78-1,.07.08.78Zm.1,1.17-.07-.78-1,.07.07.78Zm.53-10.66-.07-.78-1,.07.07.78Zm.11,1.17-.07-.78-1,.07.07.78Zm.11,1.17-.08-.78-1,.07.08.78Zm.1,1.18-.07-.78-1,.07.07.78Zm.11,1.17-.07-.78-1,.07.07.78Zm.11,1.17-.07-.78-1,.07.07.78Zm.11,1.18-.07-.78-1,.07.07.78Zm.11,1.17-.07-.78-1,.07.07.78Zm.11,1.17-.08-.78-1,.07.08.78Zm.1,1.18-.07-.78-1,.07.07.78Zm.11,1.17-.07-.78-1,.07.07.78Zm.11,1.17-.07-.78-1,.07.07.78Zm.11,1.18-.07-.78-1,.07.07.78ZM220,153l-.08-.78-1,.07.08.78Zm.09-15.36-.07-.78-1,.07.07.78Zm.11,1.18-.07-.79-1,.07.07.79Zm.11,1.17-.08-.78-1,.07.08.78Zm.1,1.17-.07-.78-1,.07.07.78Zm.11,1.18-.07-.79-1,.07.07.79Zm.11,1.17-.07-.78-1,.07.07.78Zm.11,1.17-.07-.78-1,.07.07.78Zm.11,1.18-.07-.79-1,.07.07.79Zm.11,1.17-.08-.78-1,.07.08.78Zm.1,1.17-.07-.78-1,.07.07.78Zm.11,1.18-.07-.79-1,.07.07.79Zm.11,1.17-.07-.78-1,.07.07.78Zm.11,1.17-.07-.78-1,.07.07.78Zm.11,1.18-.08-.79-1,.07.08.79Zm.1,1.17-.07-.78-1,.07.07.78Zm.11,1.17-.07-.78-1,.07.07.78Zm.11,1.18-.07-.79-1,.07.07.79Zm-.23-18.88-.07-.78-1,.07.07.78Zm.11,1.17-.07-.78-1,.07.07.78Zm.11,1.17-.08-.78-1,.07.08.78Zm.1,1.18-.07-.78-1,.07.07.78Zm.11,1.17-.07-.78-1,.07.07.78Zm.11,1.17-.07-.78-1,.07.07.78Zm.11,1.18-.07-.78-1,.07.07.78Zm.11,1.17-.08-.78-1,.07.07.78Zm.11,1.17-.08-.78-1,.07.08.78Zm.1,1.18-.07-.78-1,.07.07.78Zm.11,1.17-.07-.78-1,.07.07.78Zm.11,1.17-.07-.78-1,.07.07.78Zm.11,1.18-.07-.78-1,.07.07.78Zm.11,1.17-.08-.78-1,.07.08.78Zm.1,1.17-.07-.78-1,.07.07.78Zm.11,1.18-.07-.78-1,.07.07.78Zm.11,1.17-.07-.78-1,.07.07.78Zm.11,1.17-.07-.78-1,.07.07.78Zm.11,1.18-.08-.78-1,.07.08.78Zm-.45-21.23-.07-.78-1,.07.07.78Zm.11,1.18-.07-.79-1,.07.07.79Zm.11,1.17-.08-.78-1,.07.08.78Zm.1,1.17-.07-.78-1,.07.07.78Zm.11,1.18-.07-.79-1,.07.07.79Zm.11,1.17-.07-.78-1,.07.07.78Zm.11,1.17-.07-.78-1,.07.07.78Zm.11,1.18-.08-.79-1,.07.08.79Zm.1,1.17-.07-.78-1,.07.08.78Zm.11,1.17-.07-.78-1,.07.07.78Zm.11,1.18-.07-.79-1,.07.07.79Zm.11,1.17-.07-.78-1,.07.07.78Zm.11,1.17-.07-.78-1,.07.07.78Zm.2-14.18-.07-.78-1,.07.07.78Zm.11,1.17-.07-.78-1,.07.07.78Zm.11,1.18-.08-.79-1,.07.08.79Zm.1,1.17-.07-.78-1,.07.07.78ZM225,142l-.07-.78-1,.07.07.78Zm.11,1.18-.07-.79-1,.07.07.79Zm.11,1.17-.07-.78-1,.07.07.78Zm.11,1.17-.08-.78-1,.07.08.78Zm.1,1.18-.07-.79-1,.07.07.78Zm.64-9.5-.07-.78-1,.07.07.78Zm.11,1.18-.07-.79-1,.07.07.79Zm.11,1.17-.08-.78-1,.07.08.78Zm.1,1.17-.07-.78-1,.07.07.78Zm1.18-3.62-.07-.78-1,.07.07.78Zm.11,1.17-.07-.78-1,.07.07.78Zm1.39-1.28-.07-.78-1,.07.07.78Zm.11,1.18-.07-.79-1,.07.07.79Zm.11,1.17-.08-.78-1,.07.08.78Zm.1,1.17-.07-.78-1,.07.07.78Zm.11,1.18-.07-.79-1,.07.07.79Zm1.07-4.8-.07-.78-1,.07.07.78Zm.11,1.17-.08-.78-1,.07.08.78Zm.11,1.18-.08-.79-1,.07.08.79Zm.1,1.17-.07-.78-1,.07.07.78Zm.11,1.17-.07-.78-1,.07.07.78Zm.11,1.18-.07-.79-1,.07.07.79Zm.11,1.17-.07-.78-1,.07.07.78Zm.11,1.17-.08-.78-1,.07.08.78Zm.74-8.32L232,136l-1,.07.07.78Zm.11,1.18-.08-.78-1,.07.08.78Zm.1,1.17-.07-.78-1,.07.08.78Zm.11,1.17-.07-.78-1,.07.07.78Zm.11,1.18-.07-.78-1,.06.07.79Zm.11,1.17-.07-.78-1,.07.07.78Zm.11,1.17-.07-.78-1,.07.07.78Zm.11,1.18-.08-.78-1,.07.08.78Zm.1,1.17-.07-.78-1,.07.07.78Zm.11,1.17-.07-.78-1,.07.07.78Zm.11,1.18-.07-.78-1,.06.07.79Zm.11,1.17-.07-.78-1,.07.07.78Zm.31-13-.07-.78-1,.07.07.78Zm.11,1.17-.08-.78-1,.07.08.78Zm.1,1.18-.07-.79-1,.07.07.79Zm.11,1.17-.07-.78-1,.07.07.78Zm.11,1.17-.07-.78-1,.07.07.78Zm.11,1.18-.07-.79-1,.07.07.79Zm.11,1.17-.07-.78-1,.07.07.78Zm.11,1.17-.08-.78-1,.07.08.78Zm.1,1.18-.07-.79-1,.07.07.79Zm.11,1.17-.07-.78-1,.07.07.78Zm.11,1.17-.07-.78-1,.07.07.78Zm.11,1.18-.07-.79-1,.07.07.79Zm.11,1.17-.08-.78-1,.07.08.78Zm.1,1.17-.07-.78-1,.07.07.78Zm.1-15.36-.07-.78-1,.07.07.78Zm.11,1.18-.08-.78-1,.07.08.78Zm.1,1.17-.07-.78-1,.07.07.78Zm.11,1.17-.07-.78-1,.07.07.78Zm.11,1.18-.07-.78-1,.07.07.78Zm.11,1.17-.07-.78-1,.07.07.78Zm.11,1.17-.07-.78-1,.07.07.78Zm.11,1.18-.08-.78-1,.07.08.78Zm.1,1.17-.07-.78-1,.07.07.78Zm.64-9.49-.07-.78-1,.07.07.78Zm.11,1.17-.08-.78-1,.07.08.78Zm.1,1.18-.07-.79-1,.07.07.79Zm.11,1.17-.07-.78-1,.07.07.78Zm1.18-3.63-.07-.78-1,.07.07.78Zm1.5-.1-.07-.78-1,.07.07.78Zm.11,1.17-.08-.78-1,.07.08.78Zm.1,1.18-.07-.79-1,.07.07.79Zm.11,1.17-.07-.78-1,.07.07.78Zm1.18-3.63-.07-.78-1,.07.07.78Zm.11,1.18-.08-.78-1,.07.08.78Zm.1,1.17-.07-.78-1,.07.07.78Zm.11,1.17-.07-.78-1,.07.07.78Zm.11,1.18-.07-.78-1,.07.07.78Zm.11,1.17-.07-.78-1,.07.07.78Zm.11,1.17-.08-.78-1,.07.08.78Zm.85-7.14-.07-.78-1,.07.07.78Zm.11,1.17-.08-.78-1,.07.08.78Zm.1,1.18-.07-.79-1,.07.07.79Zm.11,1.17-.07-.78-1,.07.07.78Zm.11,1.17-.07-.78-1,.07.07.78Zm.11,1.18-.07-.79-1,.07.07.79Zm.11,1.17-.08-.78-1,.07.08.78Zm.1,1.17-.07-.78-1,.07.07.78Zm.11,1.18-.07-.79-1,.07.07.79Zm.11,1.17-.07-.78-1,.07.07.78Zm.53-10.67-.08-.78-1,.07.07.78Zm.1,1.18-.07-.78-1,.07.08.78Zm.11,1.17-.07-.78-1,.07.07.78Zm.11,1.17-.07-.78-1,.07.07.78Zm.11,1.18-.07-.78-1,.07.07.78Zm1.07-4.8-.08-.78-1,.07.08.78Zm.1,1.17-.07-.78-1,.07.08.78Zm1.4-1.27-.08-.79-1,.07.08.79Zm.1,1.17-.07-.78-1,.07.07.78Zm.11,1.17-.07-.78-1,.07.07.78Zm.11,1.18-.07-.79-1,.07.07.79Zm.11,1.17-.07-.78-1,.07.07.78Zm1.07-4.8-.08-.78-1,.07.08.78Zm.1,1.17-.07-.78-1,.07.08.78Zm.11,1.18-.07-.79-1,.07.07.79Zm.11,1.17-.07-.78-1,.07.07.78Zm.11,1.17-.07-.78-1,.07.07.78Zm.11,1.18-.08-.79-1,.07.07.79Zm.11,1.17-.08-.78-1,.07.08.78Zm.85-7.14-.08-.79-1,.07.08.79Zm.1,1.17-.07-.78-1,.07.07.78Zm.11,1.17-.07-.78-1,.07.07.78Zm.11,1.18-.07-.79-1,.07.07.79Zm1.18-3.63-.08-.78-1,.07.08.78Zm.1,1.17-.07-.78-1,.07.07.78Zm1.4-1.27-.08-.79-1,.07.08.79Zm1.5-.11-.08-.78-1,.07.08.78Zm1.5-.1-.08-.79-1,.07.08.79Zm1.5-.11-.08-.78-1,.07.08.78Zm1.49-.1-.07-.79-1,.07.08.79Zm.11,1.17-.07-.78-1,.07.07.78Zm1.39-1.28-.07-.78-1,.07.08.78Zm.11,1.17-.07-.78-1,.07.07.78Zm.11,1.18-.07-.78-1,.07.07.78Zm.11,1.17-.07-.78-1,.07.07.78Zm1.17-3.62-.07-.79-1,.07.07.79Zm.11,1.17-.07-.78-1,.07.07.78Zm.11,1.17-.07-.78-1,.07.07.78Zm.11,1.18-.07-.79-1,.07.07.79Zm.11,1.17-.07-.78-1,.07.07.78Zm.11,1.17-.08-.78-1,.07.08.78Zm.1,1.18-.07-.79-1,.07.07.79Zm.85-7.15-.07-.78-1,.07.07.78Zm.11,1.17-.07-.78-1,.07.07.78Zm.11,1.18-.07-.78-1,.07.07.78Zm.11,1.17-.07-.78-1,.07.07.78Zm1.17-3.62-.07-.79-1,.07.07.79Zm-11.89,2-.07-.78-1,.07.07.78Zm.11,1.17-.07-.78-1,.07.07.78Zm1.39-1.28-.07-.78-1,.07.07.78Zm.11,1.18-.07-.78-1,.07.07.78Zm.11,1.17-.07-.78-1,.07.07.78Zm.11,1.17-.07-.78-1,.07.07.78Zm.11,1.18-.08-.78-1,.07.08.78Zm.1,1.17-.07-.78-1,.07.07.78Zm1-6-.07-.78-1,.07.07.78Zm.11,1.17-.07-.78-1,.07.07.78Zm.11,1.18-.07-.79-1,.07.07.79Zm.11,1.17-.07-.78-1,.07.07.78Zm.11,1.17-.08-.78-1,.07.08.78Zm.1,1.18-.07-.79-1,.07.07.79Zm.11,1.17-.07-.78-1,.07.07.78Zm.11,1.17-.07-.78-1,.07.07.78Zm.11,1.18-.07-.79-1,.07.07.79Zm.63-9.5-.07-.78-1,.07.07.78Zm.11,1.18-.07-.78-1,.07.07.78Zm.11,1.17-.07-.78-1,.07.07.78Zm.11,1.17-.07-.78-1,.07.07.78Zm.11,1.18-.08-.78-1,.07.08.78Zm8.45-6.5-.07-.78-1,.07.07.78Zm.11,1.18-.07-.79-1,.07.07.78Zm.11,1.17-.07-.78-1,.07.07.78Zm1.28-2.45-.07-.79-1,.07.07.79Zm.11,1.17-.07-.78-1,.07.07.78Zm.11,1.17-.07-.78-1,.07.07.78Zm.11,1.18-.07-.79-1,.07.07.79Zm.11,1.17-.08-.78-1,.07.08.78Zm1.06-4.8-.07-.78-1,.07.07.78Zm.11,1.18-.07-.79-1,.07.07.79Z"/></g></g></svg>